M48
; DRILL file {KiCad (6.0.4)} date Mon Apr 11 14:57:53 2022
; FORMAT={-:-/ absolute / inch / decimal}
; #@! TF.CreationDate,2022-04-11T14:57:53+02:00
; #@! TF.GenerationSoftware,Kicad,Pcbnew,(6.0.4)
; #@! TF.FileFunction,MixedPlating,1,2
FMAT,2
INCH
; #@! TA.AperFunction,Plated,PTH,ComponentDrill
T1C0.0079
; #@! TA.AperFunction,Plated,PTH,ComponentDrill
T2C0.0138
; #@! TA.AperFunction,Plated,PTH,ViaDrill
T3C0.0150
; #@! TA.AperFunction,Plated,PTH,ViaDrill
T4C0.0157
; #@! TA.AperFunction,Plated,PTH,ComponentDrill
T5C0.0197
; #@! TA.AperFunction,Plated,PTH,ComponentDrill
T6C0.0350
; #@! TA.AperFunction,Plated,PTH,ComponentDrill
T7C0.0362
; #@! TA.AperFunction,Plated,PTH,ComponentDrill
T8C0.0394
; #@! TA.AperFunction,Plated,PTH,ComponentDrill
T9C0.0433
; #@! TA.AperFunction,Plated,PTH,ComponentDrill
T10C0.0512
; #@! TA.AperFunction,Plated,PTH,ComponentDrill
T11C0.0917
; #@! TA.AperFunction,NonPlated,NPTH,ComponentDrill
T12C0.0354
; #@! TA.AperFunction,NonPlated,NPTH,ComponentDrill
T13C0.1181
; #@! TA.AperFunction,NonPlated,NPTH,ComponentDrill
T14C0.1280
%
G90
G05
T1
X5.3622Y-4.9528
X5.3622Y-4.9921
X5.3622Y-5.0315
X5.4016Y-4.9528
X5.4016Y-4.9921
X5.4016Y-5.0315
X5.4409Y-4.9528
X5.4409Y-4.9921
X5.4409Y-5.0315
T2
X6.001Y-5.3701
X6.0315Y-5.3396
X6.0315Y-5.4006
X6.062Y-5.3701
T3
X4.4744Y-5.3524
X4.5433Y-5.748
X4.6201Y-5.5079
X5.1093Y-5.1909
X5.1535Y-4.8937
X5.2089Y-5.2343
X5.5Y-4.5827
X5.5381Y-4.9961
X5.5827Y-4.6709
X5.5864Y-6.0902
X5.6624Y-5.7224
X5.6703Y-6.0138
X5.6835Y-4.9793
X5.872Y-4.6673
X5.8925Y-6.0579
X6.0079Y-5.94
X6.019Y-5.997
X6.1055Y-6.1693
X6.1211Y-4.6585
X6.16Y-6.056
X6.1776Y-5.913
X6.198Y-6.106
X6.311Y-5.6211
X6.5748Y-5.44
X6.6722Y-5.7143
X6.6772Y-5.6413
X6.7441Y-5.9203
X6.8949Y-5.7205
X7.0772Y-5.2823
T4
X4.064Y-5.3632
X4.2077Y-5.3632
X4.2982Y-4.7913
X4.416Y-5.87
X4.4488Y-5.435
X4.5865Y-5.8705
X4.6132Y-4.7894
X4.629Y-5.828
X4.6693Y-5.9232
X4.7943Y-5.9281
X4.8661Y-4.88
X4.878Y-4.814
X4.9596Y-5.1014
X4.9744Y-4.2677
X4.998Y-5.061
X5.063Y-5.2402
X5.0896Y-4.7372
X5.1378Y-4.9843
X5.1457Y-4.9308
X5.1693Y-5.6378
X5.189Y-5.9557
X5.193Y-5.0394
X5.2165Y-4.9843
X5.2579Y-5.0136
X5.2677Y-5.0512
X5.3208Y-5.1122
X5.3307Y-4.8543
X5.3327Y-4.813
X5.374Y-5.1202
X5.376Y-5.5344
X5.3789Y-5.4154
X5.3898Y-4.8449
X5.437Y-4.8504
X5.4409Y-5.7707
X5.4616Y-5.5945
X5.4705Y-5.4134
X5.4862Y-4.9134
X5.5354Y-4.7933
X5.5423Y-6.1289
X5.5464Y-4.8307
X5.552Y-5.856
X5.5551Y-4.7008
X5.6644Y-4.7047
X5.6693Y-4.2234
X5.6792Y-5.0414
X5.7018Y-4.6949
X5.7032Y-4.8386
X5.7126Y-5.2244
X5.7246Y-5.073
X5.7283Y-4.6614
X5.7362Y-4.9764
X5.7441Y-4.7756
X5.7559Y-5.9281
X5.7717Y-4.8307
X5.7913Y-5.312
X5.7937Y-4.9715
X5.7937Y-5.1407
X5.8029Y-5.4544
X5.8032Y-5.3953
X5.813Y-5.4951
X5.8166Y-5.5945
X5.824Y-5.2616
X5.8287Y-4.2608
X5.8369Y-5.7208
X5.8396Y-5.3827
X5.8512Y-5.1929
X5.874Y-5.1457
X5.874Y-5.7047
X5.8996Y-4.6043
X5.9185Y-4.9667
X5.929Y-6.083
X5.9291Y-4.4213
X5.9331Y-5.5561
X5.9339Y-5.002
X5.9449Y-5.133
X5.9764Y-5.1575
X5.9833Y-4.2215
X6.0433Y-5.0866
X6.0551Y-4.4016
X6.0835Y-5.11
X6.0976Y-5.6063
X6.1506Y-4.9656
X6.1614Y-5.562
X6.1801Y-4.999
X6.2126Y-5.0305
X6.2303Y-5.1457
X6.2441Y-5.4764
X6.2441Y-5.6053
X6.286Y-5.4351
X6.3374Y-5.4496
X6.3583Y-4.81
X6.374Y-5.3858
X6.4409Y-5.2077
X6.4646Y-5.8465
X6.4882Y-5.0148
X6.5885Y-6.019
X6.6732Y-5.8406
X6.7126Y-5.3376
X6.7608Y-5.2402
X6.8228Y-4.5935
X6.8346Y-5.4321
X6.851Y-5.7238
X6.8622Y-5.1959
X6.8878Y-5.5984
X6.9252Y-5.5039
X7.1024Y-4.7274
X7.1565Y-4.3396
X7.2018Y-4.8898
X7.2205Y-5.9094
T5
X7.2106Y-5.0197
X7.2106Y-5.1197
T6
X4.2864Y-5.7072
X4.2864Y-5.7872
X4.2864Y-5.8672
X4.2864Y-5.9472
X4.3565Y-5.6672
X4.3565Y-5.7472
X4.3565Y-5.8272
X4.3565Y-5.9072
X4.5463Y-5.537
X4.5463Y-5.6272
X4.5463Y-5.987
X4.5463Y-6.0772
T7
X4.5503Y-4.3209
X4.5503Y-4.4193
X4.629Y-4.3209
X4.629Y-4.4193
T8
X4.4685Y-4.7953
X5.751Y-4.1102
X5.7677Y-4.5246
X5.851Y-4.1102
X5.951Y-4.1102
X6.226Y-4.174
X6.226Y-4.274
X6.226Y-4.374
X6.226Y-4.474
X6.226Y-4.574
X6.226Y-4.674
X6.226Y-4.774
X6.226Y-4.874
X6.5874Y-6.14
X6.6874Y-6.14
X6.7874Y-6.14
X6.8874Y-6.14
X7.06Y-5.57
X7.06Y-5.7669
T9
X5.0664Y-4.097
X5.0664Y-4.353
X5.2436Y-4.097
X5.2436Y-4.353
X5.3893Y-4.097
X5.3893Y-4.353
X5.5664Y-4.097
X5.5664Y-4.353
T10
X4.1514Y-4.9884
X4.1514Y-5.1884
T11
X4.4436Y-4.1331
X4.4436Y-4.6071
T12
X4.1841Y-4.2835
X4.1841Y-4.4567
T13
X4.8622Y-4.1535
X4.8661Y-6.0866
X7.145Y-6.085
T14
X4.1864Y-5.5571
X4.1864Y-6.0571
T0
M30
