%TF.GenerationSoftware,KiCad,Pcbnew,(6.0.4)*%
%TF.CreationDate,2022-04-11T12:28:49+02:00*%
%TF.ProjectId,PSE_RP2040,5053455f-5250-4323-9034-302e6b696361,rev?*%
%TF.SameCoordinates,Original*%
%TF.FileFunction,Paste,Bot*%
%TF.FilePolarity,Positive*%
%FSLAX46Y46*%
G04 Gerber Fmt 4.6, Leading zero omitted, Abs format (unit mm)*
G04 Created by KiCad (PCBNEW (6.0.4)) date 2022-04-11 12:28:49*
%MOMM*%
%LPD*%
G01*
G04 APERTURE LIST*
G04 Aperture macros list*
%AMOutline4P*
0 Free polygon, 4 corners , with rotation*
0 The origin of the aperture is its center*
0 number of corners: always 4*
0 $1 to $8 corner X, Y*
0 $9 Rotation angle, in degrees counterclockwise*
0 create outline with 4 corners*
4,1,4,$1,$2,$3,$4,$5,$6,$7,$8,$1,$2,$9*%
G04 Aperture macros list end*
%TA.AperFunction,Profile*%
%ADD10C,0.150000*%
%TD*%
%TA.AperFunction,Profile*%
%ADD11C,0.100000*%
%TD*%
%ADD12C,0.300000*%
%ADD13Outline4P,-0.025000X-1.000000X0.025000X-1.000000X0.975000X1.000000X-0.975000X1.000000X180.000000*%
%ADD14Outline4P,-0.025000X-1.000000X0.025000X-1.000000X0.975000X1.000000X-0.975000X1.000000X0.000000*%
G04 APERTURE END LIST*
D10*
X182000000Y-158000000D02*
X103000000Y-158000000D01*
D11*
X185000000Y-105000000D02*
X185000000Y-155000000D01*
D10*
X100000000Y-155000000D02*
X100000000Y-105000000D01*
X100000000Y-155000000D02*
G75*
G03*
X103000000Y-158000000I3000000J0D01*
G01*
X182000000Y-158000000D02*
G75*
G03*
X185000000Y-155000000I0J3000000D01*
G01*
X103000000Y-102000000D02*
G75*
G03*
X100000000Y-105000000I0J-3000000D01*
G01*
X185000000Y-105000000D02*
G75*
G03*
X182000000Y-102000000I-3000000J0D01*
G01*
X103000000Y-102000000D02*
X182000000Y-102000000D01*
D12*
X63707145Y-105286065D02*
X64850003Y-105714636D01*
X63707145Y-106143208D01*
X65564288Y-105500351D02*
X66064288Y-105500351D01*
X66278574Y-106286065D02*
X65564288Y-106286065D01*
X65564288Y-104786065D01*
X66278574Y-104786065D01*
X66921431Y-106286065D02*
X66921431Y-105286065D01*
X66921431Y-105571779D02*
X66992860Y-105428922D01*
X67064288Y-105357494D01*
X67207145Y-105286065D01*
X67350003Y-105286065D01*
X67850003Y-106286065D02*
X67850003Y-105286065D01*
X67850003Y-105571779D02*
X67921431Y-105428922D01*
X67992860Y-105357494D01*
X68135717Y-105286065D01*
X68278574Y-105286065D01*
X68992860Y-106286065D02*
X68850003Y-106214636D01*
X68778574Y-106143208D01*
X68707145Y-106000351D01*
X68707145Y-105571779D01*
X68778574Y-105428922D01*
X68850003Y-105357494D01*
X68992860Y-105286065D01*
X69207145Y-105286065D01*
X69350003Y-105357494D01*
X69421431Y-105428922D01*
X69492860Y-105571779D01*
X69492860Y-106000351D01*
X69421431Y-106143208D01*
X69350003Y-106214636D01*
X69207145Y-106286065D01*
X68992860Y-106286065D01*
X70135717Y-106286065D02*
X70135717Y-105286065D01*
X70135717Y-105571779D02*
X70207145Y-105428922D01*
X70278574Y-105357494D01*
X70421431Y-105286065D01*
X70564288Y-105286065D01*
X71064288Y-106286065D02*
X71064288Y-105286065D01*
X71064288Y-104786065D02*
X70992860Y-104857494D01*
X71064288Y-104928922D01*
X71135717Y-104857494D01*
X71064288Y-104786065D01*
X71064288Y-104928922D01*
X72921431Y-106286065D02*
X72921431Y-105286065D01*
X72921431Y-105571779D02*
X72992860Y-105428922D01*
X73064288Y-105357494D01*
X73207145Y-105286065D01*
X73350003Y-105286065D01*
X73850003Y-106286065D02*
X73850003Y-105286065D01*
X73850003Y-104786065D02*
X73778574Y-104857494D01*
X73850003Y-104928922D01*
X73921431Y-104857494D01*
X73850003Y-104786065D01*
X73850003Y-104928922D01*
X75207145Y-106286065D02*
X75207145Y-104786065D01*
X75207145Y-106214636D02*
X75064288Y-106286065D01*
X74778574Y-106286065D01*
X74635717Y-106214636D01*
X74564288Y-106143208D01*
X74492860Y-106000351D01*
X74492860Y-105571779D01*
X74564288Y-105428922D01*
X74635717Y-105357494D01*
X74778574Y-105286065D01*
X75064288Y-105286065D01*
X75207145Y-105357494D01*
X76135717Y-106286065D02*
X75992860Y-106214636D01*
X75921431Y-106143208D01*
X75850003Y-106000351D01*
X75850003Y-105571779D01*
X75921431Y-105428922D01*
X75992860Y-105357494D01*
X76135717Y-105286065D01*
X76350003Y-105286065D01*
X76492860Y-105357494D01*
X76564288Y-105428922D01*
X76635717Y-105571779D01*
X76635717Y-106000351D01*
X76564288Y-106143208D01*
X76492860Y-106214636D01*
X76350003Y-106286065D01*
X76135717Y-106286065D01*
X77064288Y-105286065D02*
X77635717Y-105286065D01*
X77278574Y-104786065D02*
X77278574Y-106071779D01*
X77350003Y-106214636D01*
X77492860Y-106286065D01*
X77635717Y-106286065D01*
X77921431Y-105286065D02*
X78492860Y-105286065D01*
X78135717Y-104786065D02*
X78135717Y-106071779D01*
X78207145Y-106214636D01*
X78350003Y-106286065D01*
X78492860Y-106286065D01*
X78992860Y-106286065D02*
X78992860Y-105286065D01*
X78992860Y-104786065D02*
X78921431Y-104857494D01*
X78992860Y-104928922D01*
X79064288Y-104857494D01*
X78992860Y-104786065D01*
X78992860Y-104928922D01*
X81492860Y-106286065D02*
X81492860Y-105500351D01*
X81421431Y-105357494D01*
X81278574Y-105286065D01*
X80992860Y-105286065D01*
X80850003Y-105357494D01*
X81492860Y-106214636D02*
X81350003Y-106286065D01*
X80992860Y-106286065D01*
X80850003Y-106214636D01*
X80778574Y-106071779D01*
X80778574Y-105928922D01*
X80850003Y-105786065D01*
X80992860Y-105714636D01*
X81350003Y-105714636D01*
X81492860Y-105643208D01*
X84135717Y-106286065D02*
X83278574Y-106286065D01*
X83707145Y-106286065D02*
X83707145Y-104786065D01*
X83564288Y-105000351D01*
X83421431Y-105143208D01*
X83278574Y-105214636D01*
X85564288Y-106286065D02*
X84707145Y-106286065D01*
X85135717Y-106286065D02*
X85135717Y-104786065D01*
X84992860Y-105000351D01*
X84850003Y-105143208D01*
X84707145Y-105214636D01*
D13*
%TO.C,E1*%
X103378000Y-148058000D03*
D14*
X103378000Y-145058000D03*
%TD*%
M02*
