%TF.GenerationSoftware,KiCad,Pcbnew,(6.0.4)*%
%TF.CreationDate,2022-04-12T15:49:34+02:00*%
%TF.ProjectId,PSE_RP2040,5053455f-5250-4323-9034-302e6b696361,0*%
%TF.SameCoordinates,Original*%
%TF.FileFunction,Legend,Top*%
%TF.FilePolarity,Positive*%
%FSLAX46Y46*%
G04 Gerber Fmt 4.6, Leading zero omitted, Abs format (unit mm)*
G04 Created by KiCad (PCBNEW (6.0.4)) date 2022-04-12 15:49:34*
%MOMM*%
%LPD*%
G01*
G04 APERTURE LIST*
%ADD10C,0.203200*%
%TA.AperFunction,Profile*%
%ADD11C,0.100000*%
%TD*%
%TA.AperFunction,Profile*%
%ADD12C,0.150000*%
%TD*%
%ADD13C,0.150000*%
%ADD14C,0.120000*%
%ADD15C,0.114300*%
G04 APERTURE END LIST*
D10*
X138574380Y-113334619D02*
X138235714Y-112850809D01*
X137993809Y-113334619D02*
X137993809Y-112318619D01*
X138380857Y-112318619D01*
X138477619Y-112367000D01*
X138526000Y-112415380D01*
X138574380Y-112512142D01*
X138574380Y-112657285D01*
X138526000Y-112754047D01*
X138477619Y-112802428D01*
X138380857Y-112850809D01*
X137993809Y-112850809D01*
X139009809Y-112802428D02*
X139348476Y-112802428D01*
X139493619Y-113334619D02*
X139009809Y-113334619D01*
X139009809Y-112318619D01*
X139493619Y-112318619D01*
X139880666Y-113286238D02*
X140025809Y-113334619D01*
X140267714Y-113334619D01*
X140364476Y-113286238D01*
X140412857Y-113237857D01*
X140461238Y-113141095D01*
X140461238Y-113044333D01*
X140412857Y-112947571D01*
X140364476Y-112899190D01*
X140267714Y-112850809D01*
X140074190Y-112802428D01*
X139977428Y-112754047D01*
X139929047Y-112705666D01*
X139880666Y-112608904D01*
X139880666Y-112512142D01*
X139929047Y-112415380D01*
X139977428Y-112367000D01*
X140074190Y-112318619D01*
X140316095Y-112318619D01*
X140461238Y-112367000D01*
X140896666Y-112802428D02*
X141235333Y-112802428D01*
X141380476Y-113334619D02*
X140896666Y-113334619D01*
X140896666Y-112318619D01*
X141380476Y-112318619D01*
X141670761Y-112318619D02*
X142251333Y-112318619D01*
X141961047Y-113334619D02*
X141961047Y-112318619D01*
X127846142Y-112852424D02*
X127991285Y-112900805D01*
X128039666Y-112949186D01*
X128088047Y-113045948D01*
X128088047Y-113191091D01*
X128039666Y-113287853D01*
X127991285Y-113336234D01*
X127894523Y-113384615D01*
X127507476Y-113384615D01*
X127507476Y-112368615D01*
X127846142Y-112368615D01*
X127942904Y-112416996D01*
X127991285Y-112465376D01*
X128039666Y-112562138D01*
X128039666Y-112658900D01*
X127991285Y-112755662D01*
X127942904Y-112804043D01*
X127846142Y-112852424D01*
X127507476Y-112852424D01*
X128717000Y-112368615D02*
X128910523Y-112368615D01*
X129007285Y-112416996D01*
X129104047Y-112513757D01*
X129152428Y-112707281D01*
X129152428Y-113045948D01*
X129104047Y-113239472D01*
X129007285Y-113336234D01*
X128910523Y-113384615D01*
X128717000Y-113384615D01*
X128620238Y-113336234D01*
X128523476Y-113239472D01*
X128475095Y-113045948D01*
X128475095Y-112707281D01*
X128523476Y-112513757D01*
X128620238Y-112416996D01*
X128717000Y-112368615D01*
X129781380Y-112368615D02*
X129974904Y-112368615D01*
X130071666Y-112416996D01*
X130168428Y-112513757D01*
X130216809Y-112707281D01*
X130216809Y-113045948D01*
X130168428Y-113239472D01*
X130071666Y-113336234D01*
X129974904Y-113384615D01*
X129781380Y-113384615D01*
X129684619Y-113336234D01*
X129587857Y-113239472D01*
X129539476Y-113045948D01*
X129539476Y-112707281D01*
X129587857Y-112513757D01*
X129684619Y-112416996D01*
X129781380Y-112368615D01*
X130507095Y-112368615D02*
X131087666Y-112368615D01*
X130797380Y-113384615D02*
X130797380Y-112368615D01*
D11*
X185000000Y-105000000D02*
X185000000Y-155000000D01*
D12*
X182000000Y-158000000D02*
X103000000Y-158000000D01*
X100000000Y-155000000D02*
X100000000Y-105000000D01*
X100000000Y-155000000D02*
G75*
G03*
X103000000Y-158000000I3000000J0D01*
G01*
X182000000Y-158000000D02*
G75*
G03*
X185000000Y-155000000I0J3000000D01*
G01*
X103000000Y-102000000D02*
G75*
G03*
X100000000Y-105000000I0J-3000000D01*
G01*
X185000000Y-105000000D02*
G75*
G03*
X182000000Y-102000000I-3000000J0D01*
G01*
X103000000Y-102000000D02*
X182000000Y-102000000D01*
D13*
X69660602Y-113323579D02*
X69993935Y-113323579D01*
X70136792Y-113847388D02*
X69660602Y-113847388D01*
X69660602Y-112847388D01*
X70136792Y-112847388D01*
X71136792Y-113847388D02*
X70803459Y-113371198D01*
X70565364Y-113847388D02*
X70565364Y-112847388D01*
X70946316Y-112847388D01*
X71041554Y-112895008D01*
X71089173Y-112942627D01*
X71136792Y-113037865D01*
X71136792Y-113180722D01*
X71089173Y-113275960D01*
X71041554Y-113323579D01*
X70946316Y-113371198D01*
X70565364Y-113371198D01*
X72136792Y-113847388D02*
X71803459Y-113371198D01*
X71565364Y-113847388D02*
X71565364Y-112847388D01*
X71946316Y-112847388D01*
X72041554Y-112895008D01*
X72089173Y-112942627D01*
X72136792Y-113037865D01*
X72136792Y-113180722D01*
X72089173Y-113275960D01*
X72041554Y-113323579D01*
X71946316Y-113371198D01*
X71565364Y-113371198D01*
X72755840Y-112847388D02*
X72946316Y-112847388D01*
X73041554Y-112895008D01*
X73136792Y-112990246D01*
X73184411Y-113180722D01*
X73184411Y-113514055D01*
X73136792Y-113704531D01*
X73041554Y-113799769D01*
X72946316Y-113847388D01*
X72755840Y-113847388D01*
X72660602Y-113799769D01*
X72565364Y-113704531D01*
X72517745Y-113514055D01*
X72517745Y-113180722D01*
X72565364Y-112990246D01*
X72660602Y-112895008D01*
X72755840Y-112847388D01*
X74184411Y-113847388D02*
X73851078Y-113371198D01*
X73612983Y-113847388D02*
X73612983Y-112847388D01*
X73993935Y-112847388D01*
X74089173Y-112895008D01*
X74136792Y-112942627D01*
X74184411Y-113037865D01*
X74184411Y-113180722D01*
X74136792Y-113275960D01*
X74089173Y-113323579D01*
X73993935Y-113371198D01*
X73612983Y-113371198D01*
X74612983Y-113847388D02*
X74612983Y-112847388D01*
X75089173Y-113752150D02*
X75136792Y-113799769D01*
X75089173Y-113847388D01*
X75041554Y-113799769D01*
X75089173Y-113752150D01*
X75089173Y-113847388D01*
X75089173Y-113228341D02*
X75136792Y-113275960D01*
X75089173Y-113323579D01*
X75041554Y-113275960D01*
X75089173Y-113228341D01*
X75089173Y-113323579D01*
X76851078Y-113847388D02*
X76279649Y-113847388D01*
X76565364Y-113847388D02*
X76565364Y-112847388D01*
X76470126Y-112990246D01*
X76374887Y-113085484D01*
X76279649Y-113133103D01*
X77803459Y-113847388D02*
X77232030Y-113847388D01*
X77517745Y-113847388D02*
X77517745Y-112847388D01*
X77422507Y-112990246D01*
X77327268Y-113085484D01*
X77232030Y-113133103D01*
X69612983Y-115171674D02*
X70089173Y-115171674D01*
X69517745Y-115457388D02*
X69851078Y-114457388D01*
X70184411Y-115457388D01*
X70374887Y-114457388D02*
X70708221Y-115457388D01*
X71041554Y-114457388D01*
X71232030Y-114457388D02*
X71565364Y-115457388D01*
X71898697Y-114457388D01*
X72232030Y-115457388D02*
X72232030Y-114457388D01*
X72660602Y-115409769D02*
X72803459Y-115457388D01*
X73041554Y-115457388D01*
X73136792Y-115409769D01*
X73184411Y-115362150D01*
X73232030Y-115266912D01*
X73232030Y-115171674D01*
X73184411Y-115076436D01*
X73136792Y-115028817D01*
X73041554Y-114981198D01*
X72851078Y-114933579D01*
X72755840Y-114885960D01*
X72708221Y-114838341D01*
X72660602Y-114743103D01*
X72660602Y-114647865D01*
X72708221Y-114552627D01*
X72755840Y-114505008D01*
X72851078Y-114457388D01*
X73089173Y-114457388D01*
X73232030Y-114505008D01*
X73660602Y-115457388D02*
X73660602Y-114457388D01*
X74136792Y-115362150D02*
X74184411Y-115409769D01*
X74136792Y-115457388D01*
X74089173Y-115409769D01*
X74136792Y-115362150D01*
X74136792Y-115457388D01*
X74136792Y-114838341D02*
X74184411Y-114885960D01*
X74136792Y-114933579D01*
X74089173Y-114885960D01*
X74136792Y-114838341D01*
X74136792Y-114933579D01*
X75517745Y-114885960D02*
X75422507Y-114838341D01*
X75374887Y-114790722D01*
X75327268Y-114695484D01*
X75327268Y-114647865D01*
X75374887Y-114552627D01*
X75422507Y-114505008D01*
X75517745Y-114457388D01*
X75708221Y-114457388D01*
X75803459Y-114505008D01*
X75851078Y-114552627D01*
X75898697Y-114647865D01*
X75898697Y-114695484D01*
X75851078Y-114790722D01*
X75803459Y-114838341D01*
X75708221Y-114885960D01*
X75517745Y-114885960D01*
X75422507Y-114933579D01*
X75374887Y-114981198D01*
X75327268Y-115076436D01*
X75327268Y-115266912D01*
X75374887Y-115362150D01*
X75422507Y-115409769D01*
X75517745Y-115457388D01*
X75708221Y-115457388D01*
X75803459Y-115409769D01*
X75851078Y-115362150D01*
X75898697Y-115266912D01*
X75898697Y-115076436D01*
X75851078Y-114981198D01*
X75803459Y-114933579D01*
X75708221Y-114885960D01*
X69517745Y-117677388D02*
X70089173Y-117677388D01*
X69803459Y-118677388D02*
X69803459Y-117677388D01*
X70422507Y-118153579D02*
X70755840Y-118153579D01*
X70898697Y-118677388D02*
X70422507Y-118677388D01*
X70422507Y-117677388D01*
X70898697Y-117677388D01*
X71279649Y-118629769D02*
X71422507Y-118677388D01*
X71660602Y-118677388D01*
X71755840Y-118629769D01*
X71803459Y-118582150D01*
X71851078Y-118486912D01*
X71851078Y-118391674D01*
X71803459Y-118296436D01*
X71755840Y-118248817D01*
X71660602Y-118201198D01*
X71470126Y-118153579D01*
X71374887Y-118105960D01*
X71327268Y-118058341D01*
X71279649Y-117963103D01*
X71279649Y-117867865D01*
X71327268Y-117772627D01*
X71374887Y-117725008D01*
X71470126Y-117677388D01*
X71708221Y-117677388D01*
X71851078Y-117725008D01*
X72136792Y-117677388D02*
X72708221Y-117677388D01*
X72422507Y-118677388D02*
X72422507Y-117677388D01*
X73041554Y-118677388D02*
X73041554Y-117677388D01*
X73422507Y-117677388D01*
X73517745Y-117725008D01*
X73565364Y-117772627D01*
X73612983Y-117867865D01*
X73612983Y-118010722D01*
X73565364Y-118105960D01*
X73517745Y-118153579D01*
X73422507Y-118201198D01*
X73041554Y-118201198D01*
X74232030Y-117677388D02*
X74422507Y-117677388D01*
X74517745Y-117725008D01*
X74612983Y-117820246D01*
X74660602Y-118010722D01*
X74660602Y-118344055D01*
X74612983Y-118534531D01*
X74517745Y-118629769D01*
X74422507Y-118677388D01*
X74232030Y-118677388D01*
X74136792Y-118629769D01*
X74041554Y-118534531D01*
X73993935Y-118344055D01*
X73993935Y-118010722D01*
X74041554Y-117820246D01*
X74136792Y-117725008D01*
X74232030Y-117677388D01*
X75089173Y-118677388D02*
X75089173Y-117677388D01*
X75565364Y-118677388D02*
X75565364Y-117677388D01*
X76136792Y-118677388D01*
X76136792Y-117677388D01*
X76470126Y-117677388D02*
X77041554Y-117677388D01*
X76755840Y-118677388D02*
X76755840Y-117677388D01*
X69517745Y-119287388D02*
X70089173Y-119287388D01*
X69803459Y-120287388D02*
X69803459Y-119287388D01*
X70422507Y-120287388D02*
X70422507Y-119287388D01*
X70803459Y-119287388D01*
X70898697Y-119335008D01*
X70946316Y-119382627D01*
X70993935Y-119477865D01*
X70993935Y-119620722D01*
X70946316Y-119715960D01*
X70898697Y-119763579D01*
X70803459Y-119811198D01*
X70422507Y-119811198D01*
X71946316Y-120287388D02*
X71374887Y-120287388D01*
X71660602Y-120287388D02*
X71660602Y-119287388D01*
X71565364Y-119430246D01*
X71470126Y-119525484D01*
X71374887Y-119573103D01*
X73041554Y-119287388D02*
X73660602Y-119287388D01*
X73327268Y-119668341D01*
X73470126Y-119668341D01*
X73565364Y-119715960D01*
X73612983Y-119763579D01*
X73660602Y-119858817D01*
X73660602Y-120096912D01*
X73612983Y-120192150D01*
X73565364Y-120239769D01*
X73470126Y-120287388D01*
X73184411Y-120287388D01*
X73089173Y-120239769D01*
X73041554Y-120192150D01*
X73946316Y-119287388D02*
X74279649Y-120287388D01*
X74612983Y-119287388D01*
X74851078Y-119287388D02*
X75470126Y-119287388D01*
X75136792Y-119668341D01*
X75279649Y-119668341D01*
X75374887Y-119715960D01*
X75422507Y-119763579D01*
X75470126Y-119858817D01*
X75470126Y-120096912D01*
X75422507Y-120192150D01*
X75374887Y-120239769D01*
X75279649Y-120287388D01*
X74993935Y-120287388D01*
X74898697Y-120239769D01*
X74851078Y-120192150D01*
X69517745Y-120897388D02*
X70089173Y-120897388D01*
X69803459Y-121897388D02*
X69803459Y-120897388D01*
X70422507Y-121897388D02*
X70422507Y-120897388D01*
X70803459Y-120897388D01*
X70898697Y-120945008D01*
X70946316Y-120992627D01*
X70993935Y-121087865D01*
X70993935Y-121230722D01*
X70946316Y-121325960D01*
X70898697Y-121373579D01*
X70803459Y-121421198D01*
X70422507Y-121421198D01*
X71374887Y-120992627D02*
X71422507Y-120945008D01*
X71517745Y-120897388D01*
X71755840Y-120897388D01*
X71851078Y-120945008D01*
X71898697Y-120992627D01*
X71946316Y-121087865D01*
X71946316Y-121183103D01*
X71898697Y-121325960D01*
X71327268Y-121897388D01*
X71946316Y-121897388D01*
X73660602Y-120945008D02*
X73565364Y-120897388D01*
X73422507Y-120897388D01*
X73279649Y-120945008D01*
X73184411Y-121040246D01*
X73136792Y-121135484D01*
X73089173Y-121325960D01*
X73089173Y-121468817D01*
X73136792Y-121659293D01*
X73184411Y-121754531D01*
X73279649Y-121849769D01*
X73422507Y-121897388D01*
X73517745Y-121897388D01*
X73660602Y-121849769D01*
X73708221Y-121802150D01*
X73708221Y-121468817D01*
X73517745Y-121468817D01*
X74136792Y-121897388D02*
X74136792Y-120897388D01*
X74708221Y-121897388D01*
X74708221Y-120897388D01*
X75184411Y-121897388D02*
X75184411Y-120897388D01*
X75422507Y-120897388D01*
X75565364Y-120945008D01*
X75660602Y-121040246D01*
X75708221Y-121135484D01*
X75755840Y-121325960D01*
X75755840Y-121468817D01*
X75708221Y-121659293D01*
X75660602Y-121754531D01*
X75565364Y-121849769D01*
X75422507Y-121897388D01*
X75184411Y-121897388D01*
X69517745Y-122507388D02*
X70089173Y-122507388D01*
X69803459Y-123507388D02*
X69803459Y-122507388D01*
X70422507Y-123507388D02*
X70422507Y-122507388D01*
X70803459Y-122507388D01*
X70898697Y-122555008D01*
X70946316Y-122602627D01*
X70993935Y-122697865D01*
X70993935Y-122840722D01*
X70946316Y-122935960D01*
X70898697Y-122983579D01*
X70803459Y-123031198D01*
X70422507Y-123031198D01*
X71327268Y-122507388D02*
X71946316Y-122507388D01*
X71612983Y-122888341D01*
X71755840Y-122888341D01*
X71851078Y-122935960D01*
X71898697Y-122983579D01*
X71946316Y-123078817D01*
X71946316Y-123316912D01*
X71898697Y-123412150D01*
X71851078Y-123459769D01*
X71755840Y-123507388D01*
X71470126Y-123507388D01*
X71374887Y-123459769D01*
X71327268Y-123412150D01*
X73612983Y-122507388D02*
X73136792Y-122507388D01*
X73089173Y-122983579D01*
X73136792Y-122935960D01*
X73232030Y-122888341D01*
X73470126Y-122888341D01*
X73565364Y-122935960D01*
X73612983Y-122983579D01*
X73660602Y-123078817D01*
X73660602Y-123316912D01*
X73612983Y-123412150D01*
X73565364Y-123459769D01*
X73470126Y-123507388D01*
X73232030Y-123507388D01*
X73136792Y-123459769D01*
X73089173Y-123412150D01*
X73946316Y-122507388D02*
X74279649Y-123507388D01*
X74612983Y-122507388D01*
X69517745Y-124117388D02*
X70089173Y-124117388D01*
X69803459Y-125117388D02*
X69803459Y-124117388D01*
X70422507Y-125117388D02*
X70422507Y-124117388D01*
X70803459Y-124117388D01*
X70898697Y-124165008D01*
X70946316Y-124212627D01*
X70993935Y-124307865D01*
X70993935Y-124450722D01*
X70946316Y-124545960D01*
X70898697Y-124593579D01*
X70803459Y-124641198D01*
X70422507Y-124641198D01*
X71851078Y-124450722D02*
X71851078Y-125117388D01*
X71612983Y-124069769D02*
X71374887Y-124784055D01*
X71993935Y-124784055D01*
X73660602Y-125117388D02*
X73089173Y-125117388D01*
X73374887Y-125117388D02*
X73374887Y-124117388D01*
X73279649Y-124260246D01*
X73184411Y-124355484D01*
X73089173Y-124403103D01*
X73946316Y-124117388D02*
X74279649Y-125117388D01*
X74612983Y-124117388D01*
X75470126Y-125117388D02*
X74898697Y-125117388D01*
X75184411Y-125117388D02*
X75184411Y-124117388D01*
X75089173Y-124260246D01*
X74993935Y-124355484D01*
X74898697Y-124403103D01*
X69517745Y-125727388D02*
X70089173Y-125727388D01*
X69803459Y-126727388D02*
X69803459Y-125727388D01*
X70422507Y-126727388D02*
X70422507Y-125727388D01*
X70803459Y-125727388D01*
X70898697Y-125775008D01*
X70946316Y-125822627D01*
X70993935Y-125917865D01*
X70993935Y-126060722D01*
X70946316Y-126155960D01*
X70898697Y-126203579D01*
X70803459Y-126251198D01*
X70422507Y-126251198D01*
X71898697Y-125727388D02*
X71422507Y-125727388D01*
X71374887Y-126203579D01*
X71422507Y-126155960D01*
X71517745Y-126108341D01*
X71755840Y-126108341D01*
X71851078Y-126155960D01*
X71898697Y-126203579D01*
X71946316Y-126298817D01*
X71946316Y-126536912D01*
X71898697Y-126632150D01*
X71851078Y-126679769D01*
X71755840Y-126727388D01*
X71517745Y-126727388D01*
X71422507Y-126679769D01*
X71374887Y-126632150D01*
X73136792Y-126727388D02*
X73136792Y-125727388D01*
X73517745Y-125727388D01*
X73612983Y-125775008D01*
X73660602Y-125822627D01*
X73708221Y-125917865D01*
X73708221Y-126060722D01*
X73660602Y-126155960D01*
X73612983Y-126203579D01*
X73517745Y-126251198D01*
X73136792Y-126251198D01*
X74327268Y-125727388D02*
X74517745Y-125727388D01*
X74612983Y-125775008D01*
X74708221Y-125870246D01*
X74755840Y-126060722D01*
X74755840Y-126394055D01*
X74708221Y-126584531D01*
X74612983Y-126679769D01*
X74517745Y-126727388D01*
X74327268Y-126727388D01*
X74232030Y-126679769D01*
X74136792Y-126584531D01*
X74089173Y-126394055D01*
X74089173Y-126060722D01*
X74136792Y-125870246D01*
X74232030Y-125775008D01*
X74327268Y-125727388D01*
X75184411Y-126203579D02*
X75517745Y-126203579D01*
X75660602Y-126727388D02*
X75184411Y-126727388D01*
X75184411Y-125727388D01*
X75660602Y-125727388D01*
X76089173Y-126346436D02*
X76851078Y-126346436D01*
X76470126Y-126727388D02*
X76470126Y-125965484D01*
X69517745Y-127337388D02*
X70089173Y-127337388D01*
X69803459Y-128337388D02*
X69803459Y-127337388D01*
X70422507Y-128337388D02*
X70422507Y-127337388D01*
X70803459Y-127337388D01*
X70898697Y-127385008D01*
X70946316Y-127432627D01*
X70993935Y-127527865D01*
X70993935Y-127670722D01*
X70946316Y-127765960D01*
X70898697Y-127813579D01*
X70803459Y-127861198D01*
X70422507Y-127861198D01*
X71851078Y-127337388D02*
X71660602Y-127337388D01*
X71565364Y-127385008D01*
X71517745Y-127432627D01*
X71422507Y-127575484D01*
X71374887Y-127765960D01*
X71374887Y-128146912D01*
X71422507Y-128242150D01*
X71470126Y-128289769D01*
X71565364Y-128337388D01*
X71755840Y-128337388D01*
X71851078Y-128289769D01*
X71898697Y-128242150D01*
X71946316Y-128146912D01*
X71946316Y-127908817D01*
X71898697Y-127813579D01*
X71851078Y-127765960D01*
X71755840Y-127718341D01*
X71565364Y-127718341D01*
X71470126Y-127765960D01*
X71422507Y-127813579D01*
X71374887Y-127908817D01*
X73136792Y-128337388D02*
X73136792Y-127337388D01*
X73517745Y-127337388D01*
X73612983Y-127385008D01*
X73660602Y-127432627D01*
X73708221Y-127527865D01*
X73708221Y-127670722D01*
X73660602Y-127765960D01*
X73612983Y-127813579D01*
X73517745Y-127861198D01*
X73136792Y-127861198D01*
X74327268Y-127337388D02*
X74517745Y-127337388D01*
X74612983Y-127385008D01*
X74708221Y-127480246D01*
X74755840Y-127670722D01*
X74755840Y-128004055D01*
X74708221Y-128194531D01*
X74612983Y-128289769D01*
X74517745Y-128337388D01*
X74327268Y-128337388D01*
X74232030Y-128289769D01*
X74136792Y-128194531D01*
X74089173Y-128004055D01*
X74089173Y-127670722D01*
X74136792Y-127480246D01*
X74232030Y-127385008D01*
X74327268Y-127337388D01*
X75184411Y-127813579D02*
X75517745Y-127813579D01*
X75660602Y-128337388D02*
X75184411Y-128337388D01*
X75184411Y-127337388D01*
X75660602Y-127337388D01*
X76089173Y-127956436D02*
X76851078Y-127956436D01*
X69517745Y-128947388D02*
X70089173Y-128947388D01*
X69803459Y-129947388D02*
X69803459Y-128947388D01*
X70422507Y-129947388D02*
X70422507Y-128947388D01*
X70803459Y-128947388D01*
X70898697Y-128995008D01*
X70946316Y-129042627D01*
X70993935Y-129137865D01*
X70993935Y-129280722D01*
X70946316Y-129375960D01*
X70898697Y-129423579D01*
X70803459Y-129471198D01*
X70422507Y-129471198D01*
X71327268Y-128947388D02*
X71993935Y-128947388D01*
X71565364Y-129947388D01*
X73136792Y-128947388D02*
X73136792Y-129756912D01*
X73184411Y-129852150D01*
X73232030Y-129899769D01*
X73327268Y-129947388D01*
X73517745Y-129947388D01*
X73612983Y-129899769D01*
X73660602Y-129852150D01*
X73708221Y-129756912D01*
X73708221Y-128947388D01*
X74136792Y-129899769D02*
X74279649Y-129947388D01*
X74517745Y-129947388D01*
X74612983Y-129899769D01*
X74660602Y-129852150D01*
X74708221Y-129756912D01*
X74708221Y-129661674D01*
X74660602Y-129566436D01*
X74612983Y-129518817D01*
X74517745Y-129471198D01*
X74327268Y-129423579D01*
X74232030Y-129375960D01*
X74184411Y-129328341D01*
X74136792Y-129233103D01*
X74136792Y-129137865D01*
X74184411Y-129042627D01*
X74232030Y-128995008D01*
X74327268Y-128947388D01*
X74565364Y-128947388D01*
X74708221Y-128995008D01*
X75470126Y-129423579D02*
X75612983Y-129471198D01*
X75660602Y-129518817D01*
X75708221Y-129614055D01*
X75708221Y-129756912D01*
X75660602Y-129852150D01*
X75612983Y-129899769D01*
X75517745Y-129947388D01*
X75136792Y-129947388D01*
X75136792Y-128947388D01*
X75470126Y-128947388D01*
X75565364Y-128995008D01*
X75612983Y-129042627D01*
X75660602Y-129137865D01*
X75660602Y-129233103D01*
X75612983Y-129328341D01*
X75565364Y-129375960D01*
X75470126Y-129423579D01*
X75136792Y-129423579D01*
X75898697Y-130042627D02*
X76660602Y-130042627D01*
X76898697Y-129947388D02*
X76898697Y-128947388D01*
X77136792Y-128947388D01*
X77279649Y-128995008D01*
X77374887Y-129090246D01*
X77422507Y-129185484D01*
X77470126Y-129375960D01*
X77470126Y-129518817D01*
X77422507Y-129709293D01*
X77374887Y-129804531D01*
X77279649Y-129899769D01*
X77136792Y-129947388D01*
X76898697Y-129947388D01*
X77898697Y-129947388D02*
X77898697Y-128947388D01*
X78279649Y-128947388D01*
X78374887Y-128995008D01*
X78422507Y-129042627D01*
X78470126Y-129137865D01*
X78470126Y-129280722D01*
X78422507Y-129375960D01*
X78374887Y-129423579D01*
X78279649Y-129471198D01*
X77898697Y-129471198D01*
X69517745Y-130557388D02*
X70089173Y-130557388D01*
X69803459Y-131557388D02*
X69803459Y-130557388D01*
X70422507Y-131557388D02*
X70422507Y-130557388D01*
X70803459Y-130557388D01*
X70898697Y-130605008D01*
X70946316Y-130652627D01*
X70993935Y-130747865D01*
X70993935Y-130890722D01*
X70946316Y-130985960D01*
X70898697Y-131033579D01*
X70803459Y-131081198D01*
X70422507Y-131081198D01*
X71565364Y-130985960D02*
X71470126Y-130938341D01*
X71422507Y-130890722D01*
X71374887Y-130795484D01*
X71374887Y-130747865D01*
X71422507Y-130652627D01*
X71470126Y-130605008D01*
X71565364Y-130557388D01*
X71755840Y-130557388D01*
X71851078Y-130605008D01*
X71898697Y-130652627D01*
X71946316Y-130747865D01*
X71946316Y-130795484D01*
X71898697Y-130890722D01*
X71851078Y-130938341D01*
X71755840Y-130985960D01*
X71565364Y-130985960D01*
X71470126Y-131033579D01*
X71422507Y-131081198D01*
X71374887Y-131176436D01*
X71374887Y-131366912D01*
X71422507Y-131462150D01*
X71470126Y-131509769D01*
X71565364Y-131557388D01*
X71755840Y-131557388D01*
X71851078Y-131509769D01*
X71898697Y-131462150D01*
X71946316Y-131366912D01*
X71946316Y-131176436D01*
X71898697Y-131081198D01*
X71851078Y-131033579D01*
X71755840Y-130985960D01*
X73136792Y-130557388D02*
X73136792Y-131366912D01*
X73184411Y-131462150D01*
X73232030Y-131509769D01*
X73327268Y-131557388D01*
X73517745Y-131557388D01*
X73612983Y-131509769D01*
X73660602Y-131462150D01*
X73708221Y-131366912D01*
X73708221Y-130557388D01*
X74136792Y-131509769D02*
X74279649Y-131557388D01*
X74517745Y-131557388D01*
X74612983Y-131509769D01*
X74660602Y-131462150D01*
X74708221Y-131366912D01*
X74708221Y-131271674D01*
X74660602Y-131176436D01*
X74612983Y-131128817D01*
X74517745Y-131081198D01*
X74327268Y-131033579D01*
X74232030Y-130985960D01*
X74184411Y-130938341D01*
X74136792Y-130843103D01*
X74136792Y-130747865D01*
X74184411Y-130652627D01*
X74232030Y-130605008D01*
X74327268Y-130557388D01*
X74565364Y-130557388D01*
X74708221Y-130605008D01*
X75470126Y-131033579D02*
X75612983Y-131081198D01*
X75660602Y-131128817D01*
X75708221Y-131224055D01*
X75708221Y-131366912D01*
X75660602Y-131462150D01*
X75612983Y-131509769D01*
X75517745Y-131557388D01*
X75136792Y-131557388D01*
X75136792Y-130557388D01*
X75470126Y-130557388D01*
X75565364Y-130605008D01*
X75612983Y-130652627D01*
X75660602Y-130747865D01*
X75660602Y-130843103D01*
X75612983Y-130938341D01*
X75565364Y-130985960D01*
X75470126Y-131033579D01*
X75136792Y-131033579D01*
X75898697Y-131652627D02*
X76660602Y-131652627D01*
X76898697Y-131557388D02*
X76898697Y-130557388D01*
X77136792Y-130557388D01*
X77279649Y-130605008D01*
X77374887Y-130700246D01*
X77422507Y-130795484D01*
X77470126Y-130985960D01*
X77470126Y-131128817D01*
X77422507Y-131319293D01*
X77374887Y-131414531D01*
X77279649Y-131509769D01*
X77136792Y-131557388D01*
X76898697Y-131557388D01*
X77898697Y-131557388D02*
X77898697Y-130557388D01*
X78470126Y-131557388D01*
X78470126Y-130557388D01*
X69517745Y-132167388D02*
X70089173Y-132167388D01*
X69803459Y-133167388D02*
X69803459Y-132167388D01*
X70422507Y-133167388D02*
X70422507Y-132167388D01*
X70803459Y-132167388D01*
X70898697Y-132215008D01*
X70946316Y-132262627D01*
X70993935Y-132357865D01*
X70993935Y-132500722D01*
X70946316Y-132595960D01*
X70898697Y-132643579D01*
X70803459Y-132691198D01*
X70422507Y-132691198D01*
X71470126Y-133167388D02*
X71660602Y-133167388D01*
X71755840Y-133119769D01*
X71803459Y-133072150D01*
X71898697Y-132929293D01*
X71946316Y-132738817D01*
X71946316Y-132357865D01*
X71898697Y-132262627D01*
X71851078Y-132215008D01*
X71755840Y-132167388D01*
X71565364Y-132167388D01*
X71470126Y-132215008D01*
X71422507Y-132262627D01*
X71374887Y-132357865D01*
X71374887Y-132595960D01*
X71422507Y-132691198D01*
X71470126Y-132738817D01*
X71565364Y-132786436D01*
X71755840Y-132786436D01*
X71851078Y-132738817D01*
X71898697Y-132691198D01*
X71946316Y-132595960D01*
X73136792Y-132167388D02*
X73136792Y-132976912D01*
X73184411Y-133072150D01*
X73232030Y-133119769D01*
X73327268Y-133167388D01*
X73517745Y-133167388D01*
X73612983Y-133119769D01*
X73660602Y-133072150D01*
X73708221Y-132976912D01*
X73708221Y-132167388D01*
X74136792Y-132881674D02*
X74612983Y-132881674D01*
X74041554Y-133167388D02*
X74374887Y-132167388D01*
X74708221Y-133167388D01*
X75612983Y-133167388D02*
X75279649Y-132691198D01*
X75041554Y-133167388D02*
X75041554Y-132167388D01*
X75422507Y-132167388D01*
X75517745Y-132215008D01*
X75565364Y-132262627D01*
X75612983Y-132357865D01*
X75612983Y-132500722D01*
X75565364Y-132595960D01*
X75517745Y-132643579D01*
X75422507Y-132691198D01*
X75041554Y-132691198D01*
X75898697Y-132167388D02*
X76470126Y-132167388D01*
X76184411Y-133167388D02*
X76184411Y-132167388D01*
X76565364Y-133262627D02*
X77327268Y-133262627D01*
X77422507Y-132167388D02*
X77993935Y-132167388D01*
X77708221Y-133167388D02*
X77708221Y-132167388D01*
X78232030Y-132167388D02*
X78898697Y-133167388D01*
X78898697Y-132167388D02*
X78232030Y-133167388D01*
X79279649Y-132786436D02*
X80041554Y-132786436D01*
X81041554Y-132215008D02*
X80946316Y-132167388D01*
X80803459Y-132167388D01*
X80660602Y-132215008D01*
X80565364Y-132310246D01*
X80517745Y-132405484D01*
X80470126Y-132595960D01*
X80470126Y-132738817D01*
X80517745Y-132929293D01*
X80565364Y-133024531D01*
X80660602Y-133119769D01*
X80803459Y-133167388D01*
X80898697Y-133167388D01*
X81041554Y-133119769D01*
X81089173Y-133072150D01*
X81089173Y-132738817D01*
X80898697Y-132738817D01*
X81517745Y-133167388D02*
X81517745Y-132167388D01*
X81898697Y-132167388D01*
X81993935Y-132215008D01*
X82041554Y-132262627D01*
X82089173Y-132357865D01*
X82089173Y-132500722D01*
X82041554Y-132595960D01*
X81993935Y-132643579D01*
X81898697Y-132691198D01*
X81517745Y-132691198D01*
X82470126Y-133119769D02*
X82612983Y-133167388D01*
X82851078Y-133167388D01*
X82946316Y-133119769D01*
X82993935Y-133072150D01*
X83041554Y-132976912D01*
X83041554Y-132881674D01*
X82993935Y-132786436D01*
X82946316Y-132738817D01*
X82851078Y-132691198D01*
X82660602Y-132643579D01*
X82565364Y-132595960D01*
X82517745Y-132548341D01*
X82470126Y-132453103D01*
X82470126Y-132357865D01*
X82517745Y-132262627D01*
X82565364Y-132215008D01*
X82660602Y-132167388D01*
X82898697Y-132167388D01*
X83041554Y-132215008D01*
X83232030Y-133262627D02*
X83993935Y-133262627D01*
X84803459Y-133167388D02*
X84470126Y-132691198D01*
X84232030Y-133167388D02*
X84232030Y-132167388D01*
X84612983Y-132167388D01*
X84708221Y-132215008D01*
X84755840Y-132262627D01*
X84803459Y-132357865D01*
X84803459Y-132500722D01*
X84755840Y-132595960D01*
X84708221Y-132643579D01*
X84612983Y-132691198D01*
X84232030Y-132691198D01*
X85136792Y-132167388D02*
X85803459Y-133167388D01*
X85803459Y-132167388D02*
X85136792Y-133167388D01*
X69517745Y-133777388D02*
X70089173Y-133777388D01*
X69803459Y-134777388D02*
X69803459Y-133777388D01*
X70422507Y-134777388D02*
X70422507Y-133777388D01*
X70803459Y-133777388D01*
X70898697Y-133825008D01*
X70946316Y-133872627D01*
X70993935Y-133967865D01*
X70993935Y-134110722D01*
X70946316Y-134205960D01*
X70898697Y-134253579D01*
X70803459Y-134301198D01*
X70422507Y-134301198D01*
X71946316Y-134777388D02*
X71374887Y-134777388D01*
X71660602Y-134777388D02*
X71660602Y-133777388D01*
X71565364Y-133920246D01*
X71470126Y-134015484D01*
X71374887Y-134063103D01*
X72565364Y-133777388D02*
X72660602Y-133777388D01*
X72755840Y-133825008D01*
X72803459Y-133872627D01*
X72851078Y-133967865D01*
X72898697Y-134158341D01*
X72898697Y-134396436D01*
X72851078Y-134586912D01*
X72803459Y-134682150D01*
X72755840Y-134729769D01*
X72660602Y-134777388D01*
X72565364Y-134777388D01*
X72470126Y-134729769D01*
X72422507Y-134682150D01*
X72374887Y-134586912D01*
X72327268Y-134396436D01*
X72327268Y-134158341D01*
X72374887Y-133967865D01*
X72422507Y-133872627D01*
X72470126Y-133825008D01*
X72565364Y-133777388D01*
X74089173Y-133777388D02*
X74089173Y-134586912D01*
X74136792Y-134682150D01*
X74184411Y-134729769D01*
X74279649Y-134777388D01*
X74470126Y-134777388D01*
X74565364Y-134729769D01*
X74612983Y-134682150D01*
X74660602Y-134586912D01*
X74660602Y-133777388D01*
X75089173Y-134491674D02*
X75565364Y-134491674D01*
X74993935Y-134777388D02*
X75327268Y-133777388D01*
X75660602Y-134777388D01*
X76565364Y-134777388D02*
X76232030Y-134301198D01*
X75993935Y-134777388D02*
X75993935Y-133777388D01*
X76374887Y-133777388D01*
X76470126Y-133825008D01*
X76517745Y-133872627D01*
X76565364Y-133967865D01*
X76565364Y-134110722D01*
X76517745Y-134205960D01*
X76470126Y-134253579D01*
X76374887Y-134301198D01*
X75993935Y-134301198D01*
X76851078Y-133777388D02*
X77422507Y-133777388D01*
X77136792Y-134777388D02*
X77136792Y-133777388D01*
X77517745Y-134872627D02*
X78279649Y-134872627D01*
X79089173Y-134777388D02*
X78755840Y-134301198D01*
X78517745Y-134777388D02*
X78517745Y-133777388D01*
X78898697Y-133777388D01*
X78993935Y-133825008D01*
X79041554Y-133872627D01*
X79089173Y-133967865D01*
X79089173Y-134110722D01*
X79041554Y-134205960D01*
X78993935Y-134253579D01*
X78898697Y-134301198D01*
X78517745Y-134301198D01*
X79422507Y-133777388D02*
X80089173Y-134777388D01*
X80089173Y-133777388D02*
X79422507Y-134777388D01*
X80470126Y-134396436D02*
X81232030Y-134396436D01*
X82232030Y-133825008D02*
X82136792Y-133777388D01*
X81993935Y-133777388D01*
X81851078Y-133825008D01*
X81755840Y-133920246D01*
X81708221Y-134015484D01*
X81660602Y-134205960D01*
X81660602Y-134348817D01*
X81708221Y-134539293D01*
X81755840Y-134634531D01*
X81851078Y-134729769D01*
X81993935Y-134777388D01*
X82089173Y-134777388D01*
X82232030Y-134729769D01*
X82279649Y-134682150D01*
X82279649Y-134348817D01*
X82089173Y-134348817D01*
X82708221Y-134777388D02*
X82708221Y-133777388D01*
X83089173Y-133777388D01*
X83184411Y-133825008D01*
X83232030Y-133872627D01*
X83279649Y-133967865D01*
X83279649Y-134110722D01*
X83232030Y-134205960D01*
X83184411Y-134253579D01*
X83089173Y-134301198D01*
X82708221Y-134301198D01*
X83660602Y-134729769D02*
X83803459Y-134777388D01*
X84041554Y-134777388D01*
X84136792Y-134729769D01*
X84184411Y-134682150D01*
X84232030Y-134586912D01*
X84232030Y-134491674D01*
X84184411Y-134396436D01*
X84136792Y-134348817D01*
X84041554Y-134301198D01*
X83851078Y-134253579D01*
X83755840Y-134205960D01*
X83708221Y-134158341D01*
X83660602Y-134063103D01*
X83660602Y-133967865D01*
X83708221Y-133872627D01*
X83755840Y-133825008D01*
X83851078Y-133777388D01*
X84089173Y-133777388D01*
X84232030Y-133825008D01*
X84422507Y-134872627D02*
X85184411Y-134872627D01*
X85279649Y-133777388D02*
X85851078Y-133777388D01*
X85565364Y-134777388D02*
X85565364Y-133777388D01*
X86089173Y-133777388D02*
X86755840Y-134777388D01*
X86755840Y-133777388D02*
X86089173Y-134777388D01*
X69517745Y-135387388D02*
X70089173Y-135387388D01*
X69803459Y-136387388D02*
X69803459Y-135387388D01*
X70422507Y-136387388D02*
X70422507Y-135387388D01*
X70803459Y-135387388D01*
X70898697Y-135435008D01*
X70946316Y-135482627D01*
X70993935Y-135577865D01*
X70993935Y-135720722D01*
X70946316Y-135815960D01*
X70898697Y-135863579D01*
X70803459Y-135911198D01*
X70422507Y-135911198D01*
X71946316Y-136387388D02*
X71374887Y-136387388D01*
X71660602Y-136387388D02*
X71660602Y-135387388D01*
X71565364Y-135530246D01*
X71470126Y-135625484D01*
X71374887Y-135673103D01*
X72898697Y-136387388D02*
X72327268Y-136387388D01*
X72612983Y-136387388D02*
X72612983Y-135387388D01*
X72517745Y-135530246D01*
X72422507Y-135625484D01*
X72327268Y-135673103D01*
X73946316Y-135387388D02*
X74279649Y-136387388D01*
X74612983Y-135387388D01*
X75517745Y-136292150D02*
X75470126Y-136339769D01*
X75327268Y-136387388D01*
X75232030Y-136387388D01*
X75089173Y-136339769D01*
X74993935Y-136244531D01*
X74946316Y-136149293D01*
X74898697Y-135958817D01*
X74898697Y-135815960D01*
X74946316Y-135625484D01*
X74993935Y-135530246D01*
X75089173Y-135435008D01*
X75232030Y-135387388D01*
X75327268Y-135387388D01*
X75470126Y-135435008D01*
X75517745Y-135482627D01*
X76517745Y-136292150D02*
X76470126Y-136339769D01*
X76327268Y-136387388D01*
X76232030Y-136387388D01*
X76089173Y-136339769D01*
X75993935Y-136244531D01*
X75946316Y-136149293D01*
X75898697Y-135958817D01*
X75898697Y-135815960D01*
X75946316Y-135625484D01*
X75993935Y-135530246D01*
X76089173Y-135435008D01*
X76232030Y-135387388D01*
X76327268Y-135387388D01*
X76470126Y-135435008D01*
X76517745Y-135482627D01*
X76708221Y-136482627D02*
X77470126Y-136482627D01*
X78232030Y-135435008D02*
X78136792Y-135387388D01*
X77993935Y-135387388D01*
X77851078Y-135435008D01*
X77755840Y-135530246D01*
X77708221Y-135625484D01*
X77660602Y-135815960D01*
X77660602Y-135958817D01*
X77708221Y-136149293D01*
X77755840Y-136244531D01*
X77851078Y-136339769D01*
X77993935Y-136387388D01*
X78089173Y-136387388D01*
X78232030Y-136339769D01*
X78279649Y-136292150D01*
X78279649Y-135958817D01*
X78089173Y-135958817D01*
X78708221Y-136387388D02*
X78708221Y-135387388D01*
X79089173Y-135387388D01*
X79184411Y-135435008D01*
X79232030Y-135482627D01*
X79279649Y-135577865D01*
X79279649Y-135720722D01*
X79232030Y-135815960D01*
X79184411Y-135863579D01*
X79089173Y-135911198D01*
X78708221Y-135911198D01*
X79660602Y-136339769D02*
X79803459Y-136387388D01*
X80041554Y-136387388D01*
X80136792Y-136339769D01*
X80184411Y-136292150D01*
X80232030Y-136196912D01*
X80232030Y-136101674D01*
X80184411Y-136006436D01*
X80136792Y-135958817D01*
X80041554Y-135911198D01*
X79851078Y-135863579D01*
X79755840Y-135815960D01*
X79708221Y-135768341D01*
X79660602Y-135673103D01*
X79660602Y-135577865D01*
X79708221Y-135482627D01*
X79755840Y-135435008D01*
X79851078Y-135387388D01*
X80089173Y-135387388D01*
X80232030Y-135435008D01*
X69517745Y-136997388D02*
X70089173Y-136997388D01*
X69803459Y-137997388D02*
X69803459Y-136997388D01*
X70422507Y-137997388D02*
X70422507Y-136997388D01*
X70803459Y-136997388D01*
X70898697Y-137045008D01*
X70946316Y-137092627D01*
X70993935Y-137187865D01*
X70993935Y-137330722D01*
X70946316Y-137425960D01*
X70898697Y-137473579D01*
X70803459Y-137521198D01*
X70422507Y-137521198D01*
X71946316Y-137997388D02*
X71374887Y-137997388D01*
X71660602Y-137997388D02*
X71660602Y-136997388D01*
X71565364Y-137140246D01*
X71470126Y-137235484D01*
X71374887Y-137283103D01*
X72327268Y-137092627D02*
X72374887Y-137045008D01*
X72470126Y-136997388D01*
X72708221Y-136997388D01*
X72803459Y-137045008D01*
X72851078Y-137092627D01*
X72898697Y-137187865D01*
X72898697Y-137283103D01*
X72851078Y-137425960D01*
X72279649Y-137997388D01*
X72898697Y-137997388D01*
X74612983Y-137045008D02*
X74517745Y-136997388D01*
X74374887Y-136997388D01*
X74232030Y-137045008D01*
X74136792Y-137140246D01*
X74089173Y-137235484D01*
X74041554Y-137425960D01*
X74041554Y-137568817D01*
X74089173Y-137759293D01*
X74136792Y-137854531D01*
X74232030Y-137949769D01*
X74374887Y-137997388D01*
X74470126Y-137997388D01*
X74612983Y-137949769D01*
X74660602Y-137902150D01*
X74660602Y-137568817D01*
X74470126Y-137568817D01*
X75089173Y-137997388D02*
X75089173Y-136997388D01*
X75470126Y-136997388D01*
X75565364Y-137045008D01*
X75612983Y-137092627D01*
X75660602Y-137187865D01*
X75660602Y-137330722D01*
X75612983Y-137425960D01*
X75565364Y-137473579D01*
X75470126Y-137521198D01*
X75089173Y-137521198D01*
X76089173Y-137997388D02*
X76089173Y-136997388D01*
X76755840Y-136997388D02*
X76946316Y-136997388D01*
X77041554Y-137045008D01*
X77136792Y-137140246D01*
X77184411Y-137330722D01*
X77184411Y-137664055D01*
X77136792Y-137854531D01*
X77041554Y-137949769D01*
X76946316Y-137997388D01*
X76755840Y-137997388D01*
X76660602Y-137949769D01*
X76565364Y-137854531D01*
X76517745Y-137664055D01*
X76517745Y-137330722D01*
X76565364Y-137140246D01*
X76660602Y-137045008D01*
X76755840Y-136997388D01*
X77517745Y-136997388D02*
X78136792Y-136997388D01*
X77803459Y-137378341D01*
X77946316Y-137378341D01*
X78041554Y-137425960D01*
X78089173Y-137473579D01*
X78136792Y-137568817D01*
X78136792Y-137806912D01*
X78089173Y-137902150D01*
X78041554Y-137949769D01*
X77946316Y-137997388D01*
X77660602Y-137997388D01*
X77565364Y-137949769D01*
X77517745Y-137902150D01*
X78327268Y-138092627D02*
X79089173Y-138092627D01*
X79327268Y-137997388D02*
X79327268Y-136997388D01*
X79755840Y-137092627D02*
X79803459Y-137045008D01*
X79898697Y-136997388D01*
X80136792Y-136997388D01*
X80232030Y-137045008D01*
X80279649Y-137092627D01*
X80327268Y-137187865D01*
X80327268Y-137283103D01*
X80279649Y-137425960D01*
X79708221Y-137997388D01*
X80327268Y-137997388D01*
X81327268Y-137902150D02*
X81279649Y-137949769D01*
X81136792Y-137997388D01*
X81041554Y-137997388D01*
X80898697Y-137949769D01*
X80803459Y-137854531D01*
X80755840Y-137759293D01*
X80708221Y-137568817D01*
X80708221Y-137425960D01*
X80755840Y-137235484D01*
X80803459Y-137140246D01*
X80898697Y-137045008D01*
X81041554Y-136997388D01*
X81136792Y-136997388D01*
X81279649Y-137045008D01*
X81327268Y-137092627D01*
X81517745Y-138092627D02*
X82279649Y-138092627D01*
X82470126Y-137949769D02*
X82612983Y-137997388D01*
X82851078Y-137997388D01*
X82946316Y-137949769D01*
X82993935Y-137902150D01*
X83041554Y-137806912D01*
X83041554Y-137711674D01*
X82993935Y-137616436D01*
X82946316Y-137568817D01*
X82851078Y-137521198D01*
X82660602Y-137473579D01*
X82565364Y-137425960D01*
X82517745Y-137378341D01*
X82470126Y-137283103D01*
X82470126Y-137187865D01*
X82517745Y-137092627D01*
X82565364Y-137045008D01*
X82660602Y-136997388D01*
X82898697Y-136997388D01*
X83041554Y-137045008D01*
X84041554Y-137902150D02*
X83993935Y-137949769D01*
X83851078Y-137997388D01*
X83755840Y-137997388D01*
X83612983Y-137949769D01*
X83517745Y-137854531D01*
X83470126Y-137759293D01*
X83422507Y-137568817D01*
X83422507Y-137425960D01*
X83470126Y-137235484D01*
X83517745Y-137140246D01*
X83612983Y-137045008D01*
X83755840Y-136997388D01*
X83851078Y-136997388D01*
X83993935Y-137045008D01*
X84041554Y-137092627D01*
X84946316Y-137997388D02*
X84470126Y-137997388D01*
X84470126Y-136997388D01*
X69517745Y-138607388D02*
X70089173Y-138607388D01*
X69803459Y-139607388D02*
X69803459Y-138607388D01*
X70422507Y-139607388D02*
X70422507Y-138607388D01*
X70803459Y-138607388D01*
X70898697Y-138655008D01*
X70946316Y-138702627D01*
X70993935Y-138797865D01*
X70993935Y-138940722D01*
X70946316Y-139035960D01*
X70898697Y-139083579D01*
X70803459Y-139131198D01*
X70422507Y-139131198D01*
X71946316Y-139607388D02*
X71374887Y-139607388D01*
X71660602Y-139607388D02*
X71660602Y-138607388D01*
X71565364Y-138750246D01*
X71470126Y-138845484D01*
X71374887Y-138893103D01*
X72279649Y-138607388D02*
X72898697Y-138607388D01*
X72565364Y-138988341D01*
X72708221Y-138988341D01*
X72803459Y-139035960D01*
X72851078Y-139083579D01*
X72898697Y-139178817D01*
X72898697Y-139416912D01*
X72851078Y-139512150D01*
X72803459Y-139559769D01*
X72708221Y-139607388D01*
X72422507Y-139607388D01*
X72327268Y-139559769D01*
X72279649Y-139512150D01*
X74612983Y-138655008D02*
X74517745Y-138607388D01*
X74374887Y-138607388D01*
X74232030Y-138655008D01*
X74136792Y-138750246D01*
X74089173Y-138845484D01*
X74041554Y-139035960D01*
X74041554Y-139178817D01*
X74089173Y-139369293D01*
X74136792Y-139464531D01*
X74232030Y-139559769D01*
X74374887Y-139607388D01*
X74470126Y-139607388D01*
X74612983Y-139559769D01*
X74660602Y-139512150D01*
X74660602Y-139178817D01*
X74470126Y-139178817D01*
X75089173Y-139607388D02*
X75089173Y-138607388D01*
X75470126Y-138607388D01*
X75565364Y-138655008D01*
X75612983Y-138702627D01*
X75660602Y-138797865D01*
X75660602Y-138940722D01*
X75612983Y-139035960D01*
X75565364Y-139083579D01*
X75470126Y-139131198D01*
X75089173Y-139131198D01*
X76089173Y-139607388D02*
X76089173Y-138607388D01*
X76755840Y-138607388D02*
X76946316Y-138607388D01*
X77041554Y-138655008D01*
X77136792Y-138750246D01*
X77184411Y-138940722D01*
X77184411Y-139274055D01*
X77136792Y-139464531D01*
X77041554Y-139559769D01*
X76946316Y-139607388D01*
X76755840Y-139607388D01*
X76660602Y-139559769D01*
X76565364Y-139464531D01*
X76517745Y-139274055D01*
X76517745Y-138940722D01*
X76565364Y-138750246D01*
X76660602Y-138655008D01*
X76755840Y-138607388D01*
X77565364Y-138702627D02*
X77612983Y-138655008D01*
X77708221Y-138607388D01*
X77946316Y-138607388D01*
X78041554Y-138655008D01*
X78089173Y-138702627D01*
X78136792Y-138797865D01*
X78136792Y-138893103D01*
X78089173Y-139035960D01*
X77517745Y-139607388D01*
X78136792Y-139607388D01*
X78327268Y-139702627D02*
X79089173Y-139702627D01*
X79327268Y-139607388D02*
X79327268Y-138607388D01*
X79755840Y-138702627D02*
X79803459Y-138655008D01*
X79898697Y-138607388D01*
X80136792Y-138607388D01*
X80232030Y-138655008D01*
X80279649Y-138702627D01*
X80327268Y-138797865D01*
X80327268Y-138893103D01*
X80279649Y-139035960D01*
X79708221Y-139607388D01*
X80327268Y-139607388D01*
X81327268Y-139512150D02*
X81279649Y-139559769D01*
X81136792Y-139607388D01*
X81041554Y-139607388D01*
X80898697Y-139559769D01*
X80803459Y-139464531D01*
X80755840Y-139369293D01*
X80708221Y-139178817D01*
X80708221Y-139035960D01*
X80755840Y-138845484D01*
X80803459Y-138750246D01*
X80898697Y-138655008D01*
X81041554Y-138607388D01*
X81136792Y-138607388D01*
X81279649Y-138655008D01*
X81327268Y-138702627D01*
X81517745Y-139702627D02*
X82279649Y-139702627D01*
X82470126Y-139559769D02*
X82612983Y-139607388D01*
X82851078Y-139607388D01*
X82946316Y-139559769D01*
X82993935Y-139512150D01*
X83041554Y-139416912D01*
X83041554Y-139321674D01*
X82993935Y-139226436D01*
X82946316Y-139178817D01*
X82851078Y-139131198D01*
X82660602Y-139083579D01*
X82565364Y-139035960D01*
X82517745Y-138988341D01*
X82470126Y-138893103D01*
X82470126Y-138797865D01*
X82517745Y-138702627D01*
X82565364Y-138655008D01*
X82660602Y-138607388D01*
X82898697Y-138607388D01*
X83041554Y-138655008D01*
X83470126Y-139607388D02*
X83470126Y-138607388D01*
X83708221Y-138607388D01*
X83851078Y-138655008D01*
X83946316Y-138750246D01*
X83993935Y-138845484D01*
X84041554Y-139035960D01*
X84041554Y-139178817D01*
X83993935Y-139369293D01*
X83946316Y-139464531D01*
X83851078Y-139559769D01*
X83708221Y-139607388D01*
X83470126Y-139607388D01*
X84422507Y-139321674D02*
X84898697Y-139321674D01*
X84327268Y-139607388D02*
X84660602Y-138607388D01*
X84993935Y-139607388D01*
D14*
X109990476Y-122175000D02*
X109914285Y-122136904D01*
X109800000Y-122136904D01*
X109685714Y-122175000D01*
X109609523Y-122251190D01*
X109571428Y-122327380D01*
X109533333Y-122479761D01*
X109533333Y-122594047D01*
X109571428Y-122746428D01*
X109609523Y-122822619D01*
X109685714Y-122898809D01*
X109800000Y-122936904D01*
X109876190Y-122936904D01*
X109990476Y-122898809D01*
X110028571Y-122860714D01*
X110028571Y-122594047D01*
X109876190Y-122594047D01*
X110371428Y-122936904D02*
X110371428Y-122136904D01*
X110828571Y-122936904D01*
X110828571Y-122136904D01*
X111209523Y-122936904D02*
X111209523Y-122136904D01*
X111400000Y-122136904D01*
X111514285Y-122175000D01*
X111590476Y-122251190D01*
X111628571Y-122327380D01*
X111666666Y-122479761D01*
X111666666Y-122594047D01*
X111628571Y-122746428D01*
X111590476Y-122822619D01*
X111514285Y-122898809D01*
X111400000Y-122936904D01*
X111209523Y-122936904D01*
X148509523Y-114536904D02*
X149004761Y-114536904D01*
X148738095Y-114841666D01*
X148852380Y-114841666D01*
X148928571Y-114879761D01*
X148966666Y-114917857D01*
X149004761Y-114994047D01*
X149004761Y-115184523D01*
X148966666Y-115260714D01*
X148928571Y-115298809D01*
X148852380Y-115336904D01*
X148623809Y-115336904D01*
X148547619Y-115298809D01*
X148509523Y-115260714D01*
X149233333Y-114536904D02*
X149500000Y-115336904D01*
X149766666Y-114536904D01*
X149957142Y-114536904D02*
X150452380Y-114536904D01*
X150185714Y-114841666D01*
X150300000Y-114841666D01*
X150376190Y-114879761D01*
X150414285Y-114917857D01*
X150452380Y-114994047D01*
X150452380Y-115184523D01*
X150414285Y-115260714D01*
X150376190Y-115298809D01*
X150300000Y-115336904D01*
X150071428Y-115336904D01*
X149995238Y-115298809D01*
X149957142Y-115260714D01*
D13*
%TO.C,U2*%
X183352380Y-132961904D02*
X184161904Y-132961904D01*
X184257142Y-132914285D01*
X184304761Y-132866666D01*
X184352380Y-132771428D01*
X184352380Y-132580952D01*
X184304761Y-132485714D01*
X184257142Y-132438095D01*
X184161904Y-132390476D01*
X183352380Y-132390476D01*
X183447619Y-131961904D02*
X183400000Y-131914285D01*
X183352380Y-131819047D01*
X183352380Y-131580952D01*
X183400000Y-131485714D01*
X183447619Y-131438095D01*
X183542857Y-131390476D01*
X183638095Y-131390476D01*
X183780952Y-131438095D01*
X184352380Y-132009523D01*
X184352380Y-131390476D01*
%TO.C,C5*%
X144533333Y-143632142D02*
X144485714Y-143679761D01*
X144342857Y-143727380D01*
X144247619Y-143727380D01*
X144104761Y-143679761D01*
X144009523Y-143584523D01*
X143961904Y-143489285D01*
X143914285Y-143298809D01*
X143914285Y-143155952D01*
X143961904Y-142965476D01*
X144009523Y-142870238D01*
X144104761Y-142775000D01*
X144247619Y-142727380D01*
X144342857Y-142727380D01*
X144485714Y-142775000D01*
X144533333Y-142822619D01*
X145438095Y-142727380D02*
X144961904Y-142727380D01*
X144914285Y-143203571D01*
X144961904Y-143155952D01*
X145057142Y-143108333D01*
X145295238Y-143108333D01*
X145390476Y-143155952D01*
X145438095Y-143203571D01*
X145485714Y-143298809D01*
X145485714Y-143536904D01*
X145438095Y-143632142D01*
X145390476Y-143679761D01*
X145295238Y-143727380D01*
X145057142Y-143727380D01*
X144961904Y-143679761D01*
X144914285Y-143632142D01*
%TO.C,R19*%
X138452380Y-117917857D02*
X137976190Y-118251190D01*
X138452380Y-118489285D02*
X137452380Y-118489285D01*
X137452380Y-118108333D01*
X137500000Y-118013095D01*
X137547619Y-117965476D01*
X137642857Y-117917857D01*
X137785714Y-117917857D01*
X137880952Y-117965476D01*
X137928571Y-118013095D01*
X137976190Y-118108333D01*
X137976190Y-118489285D01*
X138452380Y-116965476D02*
X138452380Y-117536904D01*
X138452380Y-117251190D02*
X137452380Y-117251190D01*
X137595238Y-117346428D01*
X137690476Y-117441666D01*
X137738095Y-117536904D01*
X138452380Y-116489285D02*
X138452380Y-116298809D01*
X138404761Y-116203571D01*
X138357142Y-116155952D01*
X138214285Y-116060714D01*
X138023809Y-116013095D01*
X137642857Y-116013095D01*
X137547619Y-116060714D01*
X137500000Y-116108333D01*
X137452380Y-116203571D01*
X137452380Y-116394047D01*
X137500000Y-116489285D01*
X137547619Y-116536904D01*
X137642857Y-116584523D01*
X137880952Y-116584523D01*
X137976190Y-116536904D01*
X138023809Y-116489285D01*
X138071428Y-116394047D01*
X138071428Y-116203571D01*
X138023809Y-116108333D01*
X137976190Y-116060714D01*
X137880952Y-116013095D01*
%TO.C,R17*%
X144985714Y-123752380D02*
X144719047Y-123276190D01*
X144528571Y-123752380D02*
X144528571Y-122752380D01*
X144833333Y-122752380D01*
X144909523Y-122800000D01*
X144947619Y-122847619D01*
X144985714Y-122942857D01*
X144985714Y-123085714D01*
X144947619Y-123180952D01*
X144909523Y-123228571D01*
X144833333Y-123276190D01*
X144528571Y-123276190D01*
X145747619Y-123752380D02*
X145290476Y-123752380D01*
X145519047Y-123752380D02*
X145519047Y-122752380D01*
X145442857Y-122895238D01*
X145366666Y-122990476D01*
X145290476Y-123038095D01*
X146014285Y-122752380D02*
X146547619Y-122752380D01*
X146204761Y-123752380D01*
%TO.C,U7*%
X143438095Y-147127380D02*
X143438095Y-147936904D01*
X143485714Y-148032142D01*
X143533333Y-148079761D01*
X143628571Y-148127380D01*
X143819047Y-148127380D01*
X143914285Y-148079761D01*
X143961904Y-148032142D01*
X144009523Y-147936904D01*
X144009523Y-147127380D01*
X144390476Y-147127380D02*
X145057142Y-147127380D01*
X144628571Y-148127380D01*
%TO.C,D7*%
X116813104Y-136621780D02*
X116813104Y-135621780D01*
X117051200Y-135621780D01*
X117194057Y-135669400D01*
X117289295Y-135764638D01*
X117336914Y-135859876D01*
X117384533Y-136050352D01*
X117384533Y-136193209D01*
X117336914Y-136383685D01*
X117289295Y-136478923D01*
X117194057Y-136574161D01*
X117051200Y-136621780D01*
X116813104Y-136621780D01*
X117717866Y-135621780D02*
X118384533Y-135621780D01*
X117955961Y-136621780D01*
%TO.C,R37*%
X136002174Y-114421488D02*
X135578841Y-114717821D01*
X136002174Y-114929488D02*
X135113174Y-114929488D01*
X135113174Y-114590821D01*
X135155508Y-114506154D01*
X135197841Y-114463821D01*
X135282508Y-114421488D01*
X135409508Y-114421488D01*
X135494174Y-114463821D01*
X135536508Y-114506154D01*
X135578841Y-114590821D01*
X135578841Y-114929488D01*
X135113174Y-114125154D02*
X135113174Y-113574821D01*
X135451841Y-113871154D01*
X135451841Y-113744154D01*
X135494174Y-113659488D01*
X135536508Y-113617154D01*
X135621174Y-113574821D01*
X135832841Y-113574821D01*
X135917508Y-113617154D01*
X135959841Y-113659488D01*
X136002174Y-113744154D01*
X136002174Y-113998154D01*
X135959841Y-114082821D01*
X135917508Y-114125154D01*
X135113174Y-113278488D02*
X135113174Y-112685821D01*
X136002174Y-113066821D01*
%TO.C,R23*%
X132610142Y-147344714D02*
X132356142Y-146981857D01*
X132174714Y-147344714D02*
X132174714Y-146582714D01*
X132465000Y-146582714D01*
X132537571Y-146619000D01*
X132573857Y-146655285D01*
X132610142Y-146727857D01*
X132610142Y-146836714D01*
X132573857Y-146909285D01*
X132537571Y-146945571D01*
X132465000Y-146981857D01*
X132174714Y-146981857D01*
X132900428Y-146655285D02*
X132936714Y-146619000D01*
X133009285Y-146582714D01*
X133190714Y-146582714D01*
X133263285Y-146619000D01*
X133299571Y-146655285D01*
X133335857Y-146727857D01*
X133335857Y-146800428D01*
X133299571Y-146909285D01*
X132864142Y-147344714D01*
X133335857Y-147344714D01*
X133589857Y-146582714D02*
X134061571Y-146582714D01*
X133807571Y-146873000D01*
X133916428Y-146873000D01*
X133989000Y-146909285D01*
X134025285Y-146945571D01*
X134061571Y-147018142D01*
X134061571Y-147199571D01*
X134025285Y-147272142D01*
X133989000Y-147308428D01*
X133916428Y-147344714D01*
X133698714Y-147344714D01*
X133626142Y-147308428D01*
X133589857Y-147272142D01*
%TO.C,D2*%
X126465104Y-157627580D02*
X126465104Y-156627580D01*
X126703200Y-156627580D01*
X126846057Y-156675200D01*
X126941295Y-156770438D01*
X126988914Y-156865676D01*
X127036533Y-157056152D01*
X127036533Y-157199009D01*
X126988914Y-157389485D01*
X126941295Y-157484723D01*
X126846057Y-157579961D01*
X126703200Y-157627580D01*
X126465104Y-157627580D01*
X127417485Y-156722819D02*
X127465104Y-156675200D01*
X127560342Y-156627580D01*
X127798438Y-156627580D01*
X127893676Y-156675200D01*
X127941295Y-156722819D01*
X127988914Y-156818057D01*
X127988914Y-156913295D01*
X127941295Y-157056152D01*
X127369866Y-157627580D01*
X127988914Y-157627580D01*
D15*
%TO.C,TP6*%
X141238428Y-145957714D02*
X141673857Y-145957714D01*
X141456142Y-146719714D02*
X141456142Y-145957714D01*
X141927857Y-146719714D02*
X141927857Y-145957714D01*
X142218142Y-145957714D01*
X142290714Y-145994000D01*
X142327000Y-146030285D01*
X142363285Y-146102857D01*
X142363285Y-146211714D01*
X142327000Y-146284285D01*
X142290714Y-146320571D01*
X142218142Y-146356857D01*
X141927857Y-146356857D01*
X143016428Y-145957714D02*
X142871285Y-145957714D01*
X142798714Y-145994000D01*
X142762428Y-146030285D01*
X142689857Y-146139142D01*
X142653571Y-146284285D01*
X142653571Y-146574571D01*
X142689857Y-146647142D01*
X142726142Y-146683428D01*
X142798714Y-146719714D01*
X142943857Y-146719714D01*
X143016428Y-146683428D01*
X143052714Y-146647142D01*
X143089000Y-146574571D01*
X143089000Y-146393142D01*
X143052714Y-146320571D01*
X143016428Y-146284285D01*
X142943857Y-146248000D01*
X142798714Y-146248000D01*
X142726142Y-146284285D01*
X142689857Y-146320571D01*
X142653571Y-146393142D01*
%TO.C,TP7*%
X123263427Y-113132703D02*
X123698856Y-113132703D01*
X123481141Y-113894703D02*
X123481141Y-113132703D01*
X123952856Y-113894703D02*
X123952856Y-113132703D01*
X124243141Y-113132703D01*
X124315713Y-113168989D01*
X124351999Y-113205274D01*
X124388284Y-113277846D01*
X124388284Y-113386703D01*
X124351999Y-113459274D01*
X124315713Y-113495560D01*
X124243141Y-113531846D01*
X123952856Y-113531846D01*
X124642284Y-113132703D02*
X125150284Y-113132703D01*
X124823713Y-113894703D01*
D13*
%TO.C,U4*%
X125438095Y-122627380D02*
X125438095Y-123436904D01*
X125485714Y-123532142D01*
X125533333Y-123579761D01*
X125628571Y-123627380D01*
X125819047Y-123627380D01*
X125914285Y-123579761D01*
X125961904Y-123532142D01*
X126009523Y-123436904D01*
X126009523Y-122627380D01*
X126914285Y-122960714D02*
X126914285Y-123627380D01*
X126676190Y-122579761D02*
X126438095Y-123294047D01*
X127057142Y-123294047D01*
D15*
%TO.C,SW1*%
X132334000Y-113008428D02*
X132442857Y-113044714D01*
X132624285Y-113044714D01*
X132696857Y-113008428D01*
X132733142Y-112972142D01*
X132769428Y-112899571D01*
X132769428Y-112827000D01*
X132733142Y-112754428D01*
X132696857Y-112718142D01*
X132624285Y-112681857D01*
X132479142Y-112645571D01*
X132406571Y-112609285D01*
X132370285Y-112573000D01*
X132334000Y-112500428D01*
X132334000Y-112427857D01*
X132370285Y-112355285D01*
X132406571Y-112319000D01*
X132479142Y-112282714D01*
X132660571Y-112282714D01*
X132769428Y-112319000D01*
X133023428Y-112282714D02*
X133204857Y-113044714D01*
X133350000Y-112500428D01*
X133495142Y-113044714D01*
X133676571Y-112282714D01*
X134366000Y-113044714D02*
X133930571Y-113044714D01*
X134148285Y-113044714D02*
X134148285Y-112282714D01*
X134075714Y-112391571D01*
X134003142Y-112464142D01*
X133930571Y-112500428D01*
D13*
%TO.C,R34*%
X168851942Y-152039580D02*
X168518609Y-151563390D01*
X168280514Y-152039580D02*
X168280514Y-151039580D01*
X168661466Y-151039580D01*
X168756704Y-151087200D01*
X168804323Y-151134819D01*
X168851942Y-151230057D01*
X168851942Y-151372914D01*
X168804323Y-151468152D01*
X168756704Y-151515771D01*
X168661466Y-151563390D01*
X168280514Y-151563390D01*
X169185276Y-151039580D02*
X169804323Y-151039580D01*
X169470990Y-151420533D01*
X169613847Y-151420533D01*
X169709085Y-151468152D01*
X169756704Y-151515771D01*
X169804323Y-151611009D01*
X169804323Y-151849104D01*
X169756704Y-151944342D01*
X169709085Y-151991961D01*
X169613847Y-152039580D01*
X169328133Y-152039580D01*
X169232895Y-151991961D01*
X169185276Y-151944342D01*
X170661466Y-151372914D02*
X170661466Y-152039580D01*
X170423371Y-150991961D02*
X170185276Y-151706247D01*
X170804323Y-151706247D01*
%TO.C,C20*%
X140616785Y-134876785D02*
X140586547Y-134907023D01*
X140495833Y-134937261D01*
X140435357Y-134937261D01*
X140344642Y-134907023D01*
X140284166Y-134846547D01*
X140253928Y-134786071D01*
X140223690Y-134665119D01*
X140223690Y-134574404D01*
X140253928Y-134453452D01*
X140284166Y-134392976D01*
X140344642Y-134332500D01*
X140435357Y-134302261D01*
X140495833Y-134302261D01*
X140586547Y-134332500D01*
X140616785Y-134362738D01*
X140858690Y-134362738D02*
X140888928Y-134332500D01*
X140949404Y-134302261D01*
X141100595Y-134302261D01*
X141161071Y-134332500D01*
X141191309Y-134362738D01*
X141221547Y-134423214D01*
X141221547Y-134483690D01*
X141191309Y-134574404D01*
X140828452Y-134937261D01*
X141221547Y-134937261D01*
X141614642Y-134302261D02*
X141675119Y-134302261D01*
X141735595Y-134332500D01*
X141765833Y-134362738D01*
X141796071Y-134423214D01*
X141826309Y-134544166D01*
X141826309Y-134695357D01*
X141796071Y-134816309D01*
X141765833Y-134876785D01*
X141735595Y-134907023D01*
X141675119Y-134937261D01*
X141614642Y-134937261D01*
X141554166Y-134907023D01*
X141523928Y-134876785D01*
X141493690Y-134816309D01*
X141463452Y-134695357D01*
X141463452Y-134544166D01*
X141493690Y-134423214D01*
X141523928Y-134362738D01*
X141554166Y-134332500D01*
X141614642Y-134302261D01*
%TO.C,L2*%
X130352380Y-134666666D02*
X130352380Y-135142857D01*
X129352380Y-135142857D01*
X129447619Y-134380952D02*
X129400000Y-134333333D01*
X129352380Y-134238095D01*
X129352380Y-134000000D01*
X129400000Y-133904761D01*
X129447619Y-133857142D01*
X129542857Y-133809523D01*
X129638095Y-133809523D01*
X129780952Y-133857142D01*
X130352380Y-134428571D01*
X130352380Y-133809523D01*
%TO.C,C3*%
X120633333Y-118932142D02*
X120585714Y-118979761D01*
X120442857Y-119027380D01*
X120347619Y-119027380D01*
X120204761Y-118979761D01*
X120109523Y-118884523D01*
X120061904Y-118789285D01*
X120014285Y-118598809D01*
X120014285Y-118455952D01*
X120061904Y-118265476D01*
X120109523Y-118170238D01*
X120204761Y-118075000D01*
X120347619Y-118027380D01*
X120442857Y-118027380D01*
X120585714Y-118075000D01*
X120633333Y-118122619D01*
X120966666Y-118027380D02*
X121585714Y-118027380D01*
X121252380Y-118408333D01*
X121395238Y-118408333D01*
X121490476Y-118455952D01*
X121538095Y-118503571D01*
X121585714Y-118598809D01*
X121585714Y-118836904D01*
X121538095Y-118932142D01*
X121490476Y-118979761D01*
X121395238Y-119027380D01*
X121109523Y-119027380D01*
X121014285Y-118979761D01*
X120966666Y-118932142D01*
%TO.C,R27*%
X153957142Y-123902380D02*
X153623809Y-123426190D01*
X153385714Y-123902380D02*
X153385714Y-122902380D01*
X153766666Y-122902380D01*
X153861904Y-122950000D01*
X153909523Y-122997619D01*
X153957142Y-123092857D01*
X153957142Y-123235714D01*
X153909523Y-123330952D01*
X153861904Y-123378571D01*
X153766666Y-123426190D01*
X153385714Y-123426190D01*
X154338095Y-122997619D02*
X154385714Y-122950000D01*
X154480952Y-122902380D01*
X154719047Y-122902380D01*
X154814285Y-122950000D01*
X154861904Y-122997619D01*
X154909523Y-123092857D01*
X154909523Y-123188095D01*
X154861904Y-123330952D01*
X154290476Y-123902380D01*
X154909523Y-123902380D01*
X155242857Y-122902380D02*
X155909523Y-122902380D01*
X155480952Y-123902380D01*
%TO.C,C1*%
X183533333Y-139857142D02*
X183485714Y-139904761D01*
X183342857Y-139952380D01*
X183247619Y-139952380D01*
X183104761Y-139904761D01*
X183009523Y-139809523D01*
X182961904Y-139714285D01*
X182914285Y-139523809D01*
X182914285Y-139380952D01*
X182961904Y-139190476D01*
X183009523Y-139095238D01*
X183104761Y-139000000D01*
X183247619Y-138952380D01*
X183342857Y-138952380D01*
X183485714Y-139000000D01*
X183533333Y-139047619D01*
X184485714Y-139952380D02*
X183914285Y-139952380D01*
X184200000Y-139952380D02*
X184200000Y-138952380D01*
X184104761Y-139095238D01*
X184009523Y-139190476D01*
X183914285Y-139238095D01*
D15*
%TO.C,C26*%
X135835142Y-136122142D02*
X135798857Y-136158428D01*
X135690000Y-136194714D01*
X135617428Y-136194714D01*
X135508571Y-136158428D01*
X135436000Y-136085857D01*
X135399714Y-136013285D01*
X135363428Y-135868142D01*
X135363428Y-135759285D01*
X135399714Y-135614142D01*
X135436000Y-135541571D01*
X135508571Y-135469000D01*
X135617428Y-135432714D01*
X135690000Y-135432714D01*
X135798857Y-135469000D01*
X135835142Y-135505285D01*
X136125428Y-135505285D02*
X136161714Y-135469000D01*
X136234285Y-135432714D01*
X136415714Y-135432714D01*
X136488285Y-135469000D01*
X136524571Y-135505285D01*
X136560857Y-135577857D01*
X136560857Y-135650428D01*
X136524571Y-135759285D01*
X136089142Y-136194714D01*
X136560857Y-136194714D01*
X137214000Y-135432714D02*
X137068857Y-135432714D01*
X136996285Y-135469000D01*
X136960000Y-135505285D01*
X136887428Y-135614142D01*
X136851142Y-135759285D01*
X136851142Y-136049571D01*
X136887428Y-136122142D01*
X136923714Y-136158428D01*
X136996285Y-136194714D01*
X137141428Y-136194714D01*
X137214000Y-136158428D01*
X137250285Y-136122142D01*
X137286571Y-136049571D01*
X137286571Y-135868142D01*
X137250285Y-135795571D01*
X137214000Y-135759285D01*
X137141428Y-135723000D01*
X136996285Y-135723000D01*
X136923714Y-135759285D01*
X136887428Y-135795571D01*
X136851142Y-135868142D01*
D13*
%TO.C,R18*%
X144985714Y-122202380D02*
X144719047Y-121726190D01*
X144528571Y-122202380D02*
X144528571Y-121202380D01*
X144833333Y-121202380D01*
X144909523Y-121250000D01*
X144947619Y-121297619D01*
X144985714Y-121392857D01*
X144985714Y-121535714D01*
X144947619Y-121630952D01*
X144909523Y-121678571D01*
X144833333Y-121726190D01*
X144528571Y-121726190D01*
X145747619Y-122202380D02*
X145290476Y-122202380D01*
X145519047Y-122202380D02*
X145519047Y-121202380D01*
X145442857Y-121345238D01*
X145366666Y-121440476D01*
X145290476Y-121488095D01*
X146204761Y-121630952D02*
X146128571Y-121583333D01*
X146090476Y-121535714D01*
X146052380Y-121440476D01*
X146052380Y-121392857D01*
X146090476Y-121297619D01*
X146128571Y-121250000D01*
X146204761Y-121202380D01*
X146357142Y-121202380D01*
X146433333Y-121250000D01*
X146471428Y-121297619D01*
X146509523Y-121392857D01*
X146509523Y-121440476D01*
X146471428Y-121535714D01*
X146433333Y-121583333D01*
X146357142Y-121630952D01*
X146204761Y-121630952D01*
X146128571Y-121678571D01*
X146090476Y-121726190D01*
X146052380Y-121821428D01*
X146052380Y-122011904D01*
X146090476Y-122107142D01*
X146128571Y-122154761D01*
X146204761Y-122202380D01*
X146357142Y-122202380D01*
X146433333Y-122154761D01*
X146471428Y-122107142D01*
X146509523Y-122011904D01*
X146509523Y-121821428D01*
X146471428Y-121726190D01*
X146433333Y-121678571D01*
X146357142Y-121630952D01*
D15*
%TO.C,R32*%
X140369714Y-148589857D02*
X140006857Y-148843857D01*
X140369714Y-149025285D02*
X139607714Y-149025285D01*
X139607714Y-148735000D01*
X139644000Y-148662428D01*
X139680285Y-148626142D01*
X139752857Y-148589857D01*
X139861714Y-148589857D01*
X139934285Y-148626142D01*
X139970571Y-148662428D01*
X140006857Y-148735000D01*
X140006857Y-149025285D01*
X139607714Y-148335857D02*
X139607714Y-147864142D01*
X139898000Y-148118142D01*
X139898000Y-148009285D01*
X139934285Y-147936714D01*
X139970571Y-147900428D01*
X140043142Y-147864142D01*
X140224571Y-147864142D01*
X140297142Y-147900428D01*
X140333428Y-147936714D01*
X140369714Y-148009285D01*
X140369714Y-148227000D01*
X140333428Y-148299571D01*
X140297142Y-148335857D01*
X139680285Y-147573857D02*
X139644000Y-147537571D01*
X139607714Y-147465000D01*
X139607714Y-147283571D01*
X139644000Y-147211000D01*
X139680285Y-147174714D01*
X139752857Y-147138428D01*
X139825428Y-147138428D01*
X139934285Y-147174714D01*
X140369714Y-147610142D01*
X140369714Y-147138428D01*
D13*
%TO.C,R7*%
X118877380Y-139791666D02*
X118401190Y-140125000D01*
X118877380Y-140363095D02*
X117877380Y-140363095D01*
X117877380Y-139982142D01*
X117925000Y-139886904D01*
X117972619Y-139839285D01*
X118067857Y-139791666D01*
X118210714Y-139791666D01*
X118305952Y-139839285D01*
X118353571Y-139886904D01*
X118401190Y-139982142D01*
X118401190Y-140363095D01*
X117877380Y-139458333D02*
X117877380Y-138791666D01*
X118877380Y-139220238D01*
%TO.C,FID1*%
X102128571Y-120628571D02*
X101795238Y-120628571D01*
X101795238Y-121152380D02*
X101795238Y-120152380D01*
X102271428Y-120152380D01*
X102652380Y-121152380D02*
X102652380Y-120152380D01*
X103128571Y-121152380D02*
X103128571Y-120152380D01*
X103366666Y-120152380D01*
X103509523Y-120200000D01*
X103604761Y-120295238D01*
X103652380Y-120390476D01*
X103700000Y-120580952D01*
X103700000Y-120723809D01*
X103652380Y-120914285D01*
X103604761Y-121009523D01*
X103509523Y-121104761D01*
X103366666Y-121152380D01*
X103128571Y-121152380D01*
X104652380Y-121152380D02*
X104080952Y-121152380D01*
X104366666Y-121152380D02*
X104366666Y-120152380D01*
X104271428Y-120295238D01*
X104176190Y-120390476D01*
X104080952Y-120438095D01*
D15*
%TO.C,TP12*%
X165675571Y-144257714D02*
X166111000Y-144257714D01*
X165893285Y-145019714D02*
X165893285Y-144257714D01*
X166365000Y-145019714D02*
X166365000Y-144257714D01*
X166655285Y-144257714D01*
X166727857Y-144294000D01*
X166764142Y-144330285D01*
X166800428Y-144402857D01*
X166800428Y-144511714D01*
X166764142Y-144584285D01*
X166727857Y-144620571D01*
X166655285Y-144656857D01*
X166365000Y-144656857D01*
X167526142Y-145019714D02*
X167090714Y-145019714D01*
X167308428Y-145019714D02*
X167308428Y-144257714D01*
X167235857Y-144366571D01*
X167163285Y-144439142D01*
X167090714Y-144475428D01*
X167816428Y-144330285D02*
X167852714Y-144294000D01*
X167925285Y-144257714D01*
X168106714Y-144257714D01*
X168179285Y-144294000D01*
X168215571Y-144330285D01*
X168251857Y-144402857D01*
X168251857Y-144475428D01*
X168215571Y-144584285D01*
X167780142Y-145019714D01*
X168251857Y-145019714D01*
D13*
%TO.C,R26*%
X131644714Y-141789857D02*
X131281857Y-142043857D01*
X131644714Y-142225285D02*
X130882714Y-142225285D01*
X130882714Y-141935000D01*
X130919000Y-141862428D01*
X130955285Y-141826142D01*
X131027857Y-141789857D01*
X131136714Y-141789857D01*
X131209285Y-141826142D01*
X131245571Y-141862428D01*
X131281857Y-141935000D01*
X131281857Y-142225285D01*
X130955285Y-141499571D02*
X130919000Y-141463285D01*
X130882714Y-141390714D01*
X130882714Y-141209285D01*
X130919000Y-141136714D01*
X130955285Y-141100428D01*
X131027857Y-141064142D01*
X131100428Y-141064142D01*
X131209285Y-141100428D01*
X131644714Y-141535857D01*
X131644714Y-141064142D01*
X130882714Y-140411000D02*
X130882714Y-140556142D01*
X130919000Y-140628714D01*
X130955285Y-140665000D01*
X131064142Y-140737571D01*
X131209285Y-140773857D01*
X131499571Y-140773857D01*
X131572142Y-140737571D01*
X131608428Y-140701285D01*
X131644714Y-140628714D01*
X131644714Y-140483571D01*
X131608428Y-140411000D01*
X131572142Y-140374714D01*
X131499571Y-140338428D01*
X131318142Y-140338428D01*
X131245571Y-140374714D01*
X131209285Y-140411000D01*
X131173000Y-140483571D01*
X131173000Y-140628714D01*
X131209285Y-140701285D01*
X131245571Y-140737571D01*
X131318142Y-140773857D01*
%TO.C,R16*%
X140052380Y-117717857D02*
X139576190Y-118051190D01*
X140052380Y-118289285D02*
X139052380Y-118289285D01*
X139052380Y-117908333D01*
X139100000Y-117813095D01*
X139147619Y-117765476D01*
X139242857Y-117717857D01*
X139385714Y-117717857D01*
X139480952Y-117765476D01*
X139528571Y-117813095D01*
X139576190Y-117908333D01*
X139576190Y-118289285D01*
X140052380Y-116765476D02*
X140052380Y-117336904D01*
X140052380Y-117051190D02*
X139052380Y-117051190D01*
X139195238Y-117146428D01*
X139290476Y-117241666D01*
X139338095Y-117336904D01*
X139052380Y-115908333D02*
X139052380Y-116098809D01*
X139100000Y-116194047D01*
X139147619Y-116241666D01*
X139290476Y-116336904D01*
X139480952Y-116384523D01*
X139861904Y-116384523D01*
X139957142Y-116336904D01*
X140004761Y-116289285D01*
X140052380Y-116194047D01*
X140052380Y-116003571D01*
X140004761Y-115908333D01*
X139957142Y-115860714D01*
X139861904Y-115813095D01*
X139623809Y-115813095D01*
X139528571Y-115860714D01*
X139480952Y-115908333D01*
X139433333Y-116003571D01*
X139433333Y-116194047D01*
X139480952Y-116289285D01*
X139528571Y-116336904D01*
X139623809Y-116384523D01*
%TO.C,D6*%
X161102380Y-147138095D02*
X160102380Y-147138095D01*
X160102380Y-146900000D01*
X160150000Y-146757142D01*
X160245238Y-146661904D01*
X160340476Y-146614285D01*
X160530952Y-146566666D01*
X160673809Y-146566666D01*
X160864285Y-146614285D01*
X160959523Y-146661904D01*
X161054761Y-146757142D01*
X161102380Y-146900000D01*
X161102380Y-147138095D01*
X160102380Y-145709523D02*
X160102380Y-145900000D01*
X160150000Y-145995238D01*
X160197619Y-146042857D01*
X160340476Y-146138095D01*
X160530952Y-146185714D01*
X160911904Y-146185714D01*
X161007142Y-146138095D01*
X161054761Y-146090476D01*
X161102380Y-145995238D01*
X161102380Y-145804761D01*
X161054761Y-145709523D01*
X161007142Y-145661904D01*
X160911904Y-145614285D01*
X160673809Y-145614285D01*
X160578571Y-145661904D01*
X160530952Y-145709523D01*
X160483333Y-145804761D01*
X160483333Y-145995238D01*
X160530952Y-146090476D01*
X160578571Y-146138095D01*
X160673809Y-146185714D01*
%TO.C,R39*%
X160152380Y-152442857D02*
X159676190Y-152776190D01*
X160152380Y-153014285D02*
X159152380Y-153014285D01*
X159152380Y-152633333D01*
X159200000Y-152538095D01*
X159247619Y-152490476D01*
X159342857Y-152442857D01*
X159485714Y-152442857D01*
X159580952Y-152490476D01*
X159628571Y-152538095D01*
X159676190Y-152633333D01*
X159676190Y-153014285D01*
X159152380Y-152109523D02*
X159152380Y-151490476D01*
X159533333Y-151823809D01*
X159533333Y-151680952D01*
X159580952Y-151585714D01*
X159628571Y-151538095D01*
X159723809Y-151490476D01*
X159961904Y-151490476D01*
X160057142Y-151538095D01*
X160104761Y-151585714D01*
X160152380Y-151680952D01*
X160152380Y-151966666D01*
X160104761Y-152061904D01*
X160057142Y-152109523D01*
X160152380Y-151014285D02*
X160152380Y-150823809D01*
X160104761Y-150728571D01*
X160057142Y-150680952D01*
X159914285Y-150585714D01*
X159723809Y-150538095D01*
X159342857Y-150538095D01*
X159247619Y-150585714D01*
X159200000Y-150633333D01*
X159152380Y-150728571D01*
X159152380Y-150919047D01*
X159200000Y-151014285D01*
X159247619Y-151061904D01*
X159342857Y-151109523D01*
X159580952Y-151109523D01*
X159676190Y-151061904D01*
X159723809Y-151014285D01*
X159771428Y-150919047D01*
X159771428Y-150728571D01*
X159723809Y-150633333D01*
X159676190Y-150585714D01*
X159580952Y-150538095D01*
%TO.C,J5*%
X101266666Y-122413780D02*
X101266666Y-123128066D01*
X101219047Y-123270923D01*
X101123809Y-123366161D01*
X100980952Y-123413780D01*
X100885714Y-123413780D01*
X102219047Y-122413780D02*
X101742857Y-122413780D01*
X101695238Y-122889971D01*
X101742857Y-122842352D01*
X101838095Y-122794733D01*
X102076190Y-122794733D01*
X102171428Y-122842352D01*
X102219047Y-122889971D01*
X102266666Y-122985209D01*
X102266666Y-123223304D01*
X102219047Y-123318542D01*
X102171428Y-123366161D01*
X102076190Y-123413780D01*
X101838095Y-123413780D01*
X101742857Y-123366161D01*
X101695238Y-123318542D01*
%TO.C,C11*%
X160857142Y-137457142D02*
X160809523Y-137504761D01*
X160666666Y-137552380D01*
X160571428Y-137552380D01*
X160428571Y-137504761D01*
X160333333Y-137409523D01*
X160285714Y-137314285D01*
X160238095Y-137123809D01*
X160238095Y-136980952D01*
X160285714Y-136790476D01*
X160333333Y-136695238D01*
X160428571Y-136600000D01*
X160571428Y-136552380D01*
X160666666Y-136552380D01*
X160809523Y-136600000D01*
X160857142Y-136647619D01*
X161809523Y-137552380D02*
X161238095Y-137552380D01*
X161523809Y-137552380D02*
X161523809Y-136552380D01*
X161428571Y-136695238D01*
X161333333Y-136790476D01*
X161238095Y-136838095D01*
X162761904Y-137552380D02*
X162190476Y-137552380D01*
X162476190Y-137552380D02*
X162476190Y-136552380D01*
X162380952Y-136695238D01*
X162285714Y-136790476D01*
X162190476Y-136838095D01*
%TO.C,R21*%
X119057142Y-151012380D02*
X118723809Y-150536190D01*
X118485714Y-151012380D02*
X118485714Y-150012380D01*
X118866666Y-150012380D01*
X118961904Y-150060000D01*
X119009523Y-150107619D01*
X119057142Y-150202857D01*
X119057142Y-150345714D01*
X119009523Y-150440952D01*
X118961904Y-150488571D01*
X118866666Y-150536190D01*
X118485714Y-150536190D01*
X119438095Y-150107619D02*
X119485714Y-150060000D01*
X119580952Y-150012380D01*
X119819047Y-150012380D01*
X119914285Y-150060000D01*
X119961904Y-150107619D01*
X120009523Y-150202857D01*
X120009523Y-150298095D01*
X119961904Y-150440952D01*
X119390476Y-151012380D01*
X120009523Y-151012380D01*
X120961904Y-151012380D02*
X120390476Y-151012380D01*
X120676190Y-151012380D02*
X120676190Y-150012380D01*
X120580952Y-150155238D01*
X120485714Y-150250476D01*
X120390476Y-150298095D01*
%TO.C,R5*%
X167802380Y-138491666D02*
X167326190Y-138825000D01*
X167802380Y-139063095D02*
X166802380Y-139063095D01*
X166802380Y-138682142D01*
X166850000Y-138586904D01*
X166897619Y-138539285D01*
X166992857Y-138491666D01*
X167135714Y-138491666D01*
X167230952Y-138539285D01*
X167278571Y-138586904D01*
X167326190Y-138682142D01*
X167326190Y-139063095D01*
X166802380Y-137586904D02*
X166802380Y-138063095D01*
X167278571Y-138110714D01*
X167230952Y-138063095D01*
X167183333Y-137967857D01*
X167183333Y-137729761D01*
X167230952Y-137634523D01*
X167278571Y-137586904D01*
X167373809Y-137539285D01*
X167611904Y-137539285D01*
X167707142Y-137586904D01*
X167754761Y-137634523D01*
X167802380Y-137729761D01*
X167802380Y-137967857D01*
X167754761Y-138063095D01*
X167707142Y-138110714D01*
%TO.C,JP1*%
X152133333Y-156914904D02*
X152133333Y-157486333D01*
X152095238Y-157600619D01*
X152019047Y-157676809D01*
X151904761Y-157714904D01*
X151828571Y-157714904D01*
X152514285Y-157714904D02*
X152514285Y-156914904D01*
X152819047Y-156914904D01*
X152895238Y-156953000D01*
X152933333Y-156991095D01*
X152971428Y-157067285D01*
X152971428Y-157181571D01*
X152933333Y-157257761D01*
X152895238Y-157295857D01*
X152819047Y-157333952D01*
X152514285Y-157333952D01*
X153733333Y-157714904D02*
X153276190Y-157714904D01*
X153504761Y-157714904D02*
X153504761Y-156914904D01*
X153428571Y-157029190D01*
X153352380Y-157105380D01*
X153276190Y-157143476D01*
D15*
%TO.C,TP5*%
X149738428Y-147407714D02*
X150173857Y-147407714D01*
X149956142Y-148169714D02*
X149956142Y-147407714D01*
X150427857Y-148169714D02*
X150427857Y-147407714D01*
X150718142Y-147407714D01*
X150790714Y-147444000D01*
X150827000Y-147480285D01*
X150863285Y-147552857D01*
X150863285Y-147661714D01*
X150827000Y-147734285D01*
X150790714Y-147770571D01*
X150718142Y-147806857D01*
X150427857Y-147806857D01*
X151552714Y-147407714D02*
X151189857Y-147407714D01*
X151153571Y-147770571D01*
X151189857Y-147734285D01*
X151262428Y-147698000D01*
X151443857Y-147698000D01*
X151516428Y-147734285D01*
X151552714Y-147770571D01*
X151589000Y-147843142D01*
X151589000Y-148024571D01*
X151552714Y-148097142D01*
X151516428Y-148133428D01*
X151443857Y-148169714D01*
X151262428Y-148169714D01*
X151189857Y-148133428D01*
X151153571Y-148097142D01*
D13*
%TO.C,C35*%
X169143742Y-147727942D02*
X169096123Y-147775561D01*
X168953266Y-147823180D01*
X168858028Y-147823180D01*
X168715171Y-147775561D01*
X168619933Y-147680323D01*
X168572314Y-147585085D01*
X168524695Y-147394609D01*
X168524695Y-147251752D01*
X168572314Y-147061276D01*
X168619933Y-146966038D01*
X168715171Y-146870800D01*
X168858028Y-146823180D01*
X168953266Y-146823180D01*
X169096123Y-146870800D01*
X169143742Y-146918419D01*
X169477076Y-146823180D02*
X170096123Y-146823180D01*
X169762790Y-147204133D01*
X169905647Y-147204133D01*
X170000885Y-147251752D01*
X170048504Y-147299371D01*
X170096123Y-147394609D01*
X170096123Y-147632704D01*
X170048504Y-147727942D01*
X170000885Y-147775561D01*
X169905647Y-147823180D01*
X169619933Y-147823180D01*
X169524695Y-147775561D01*
X169477076Y-147727942D01*
X171000885Y-146823180D02*
X170524695Y-146823180D01*
X170477076Y-147299371D01*
X170524695Y-147251752D01*
X170619933Y-147204133D01*
X170858028Y-147204133D01*
X170953266Y-147251752D01*
X171000885Y-147299371D01*
X171048504Y-147394609D01*
X171048504Y-147632704D01*
X171000885Y-147727942D01*
X170953266Y-147775561D01*
X170858028Y-147823180D01*
X170619933Y-147823180D01*
X170524695Y-147775561D01*
X170477076Y-147727942D01*
%TO.C,D5*%
X165361904Y-153827380D02*
X165361904Y-152827380D01*
X165600000Y-152827380D01*
X165742857Y-152875000D01*
X165838095Y-152970238D01*
X165885714Y-153065476D01*
X165933333Y-153255952D01*
X165933333Y-153398809D01*
X165885714Y-153589285D01*
X165838095Y-153684523D01*
X165742857Y-153779761D01*
X165600000Y-153827380D01*
X165361904Y-153827380D01*
X166838095Y-152827380D02*
X166361904Y-152827380D01*
X166314285Y-153303571D01*
X166361904Y-153255952D01*
X166457142Y-153208333D01*
X166695238Y-153208333D01*
X166790476Y-153255952D01*
X166838095Y-153303571D01*
X166885714Y-153398809D01*
X166885714Y-153636904D01*
X166838095Y-153732142D01*
X166790476Y-153779761D01*
X166695238Y-153827380D01*
X166457142Y-153827380D01*
X166361904Y-153779761D01*
X166314285Y-153732142D01*
%TO.C,C4*%
X122997933Y-119178342D02*
X122950314Y-119225961D01*
X122807457Y-119273580D01*
X122712219Y-119273580D01*
X122569361Y-119225961D01*
X122474123Y-119130723D01*
X122426504Y-119035485D01*
X122378885Y-118845009D01*
X122378885Y-118702152D01*
X122426504Y-118511676D01*
X122474123Y-118416438D01*
X122569361Y-118321200D01*
X122712219Y-118273580D01*
X122807457Y-118273580D01*
X122950314Y-118321200D01*
X122997933Y-118368819D01*
X123855076Y-118606914D02*
X123855076Y-119273580D01*
X123616980Y-118225961D02*
X123378885Y-118940247D01*
X123997933Y-118940247D01*
%TO.C,C29*%
X151635142Y-151422142D02*
X151598857Y-151458428D01*
X151490000Y-151494714D01*
X151417428Y-151494714D01*
X151308571Y-151458428D01*
X151236000Y-151385857D01*
X151199714Y-151313285D01*
X151163428Y-151168142D01*
X151163428Y-151059285D01*
X151199714Y-150914142D01*
X151236000Y-150841571D01*
X151308571Y-150769000D01*
X151417428Y-150732714D01*
X151490000Y-150732714D01*
X151598857Y-150769000D01*
X151635142Y-150805285D01*
X151925428Y-150805285D02*
X151961714Y-150769000D01*
X152034285Y-150732714D01*
X152215714Y-150732714D01*
X152288285Y-150769000D01*
X152324571Y-150805285D01*
X152360857Y-150877857D01*
X152360857Y-150950428D01*
X152324571Y-151059285D01*
X151889142Y-151494714D01*
X152360857Y-151494714D01*
X152723714Y-151494714D02*
X152868857Y-151494714D01*
X152941428Y-151458428D01*
X152977714Y-151422142D01*
X153050285Y-151313285D01*
X153086571Y-151168142D01*
X153086571Y-150877857D01*
X153050285Y-150805285D01*
X153014000Y-150769000D01*
X152941428Y-150732714D01*
X152796285Y-150732714D01*
X152723714Y-150769000D01*
X152687428Y-150805285D01*
X152651142Y-150877857D01*
X152651142Y-151059285D01*
X152687428Y-151131857D01*
X152723714Y-151168142D01*
X152796285Y-151204428D01*
X152941428Y-151204428D01*
X153014000Y-151168142D01*
X153050285Y-151131857D01*
X153086571Y-151059285D01*
%TO.C,R28*%
X143357142Y-118352380D02*
X143023809Y-117876190D01*
X142785714Y-118352380D02*
X142785714Y-117352380D01*
X143166666Y-117352380D01*
X143261904Y-117400000D01*
X143309523Y-117447619D01*
X143357142Y-117542857D01*
X143357142Y-117685714D01*
X143309523Y-117780952D01*
X143261904Y-117828571D01*
X143166666Y-117876190D01*
X142785714Y-117876190D01*
X143738095Y-117447619D02*
X143785714Y-117400000D01*
X143880952Y-117352380D01*
X144119047Y-117352380D01*
X144214285Y-117400000D01*
X144261904Y-117447619D01*
X144309523Y-117542857D01*
X144309523Y-117638095D01*
X144261904Y-117780952D01*
X143690476Y-118352380D01*
X144309523Y-118352380D01*
X144880952Y-117780952D02*
X144785714Y-117733333D01*
X144738095Y-117685714D01*
X144690476Y-117590476D01*
X144690476Y-117542857D01*
X144738095Y-117447619D01*
X144785714Y-117400000D01*
X144880952Y-117352380D01*
X145071428Y-117352380D01*
X145166666Y-117400000D01*
X145214285Y-117447619D01*
X145261904Y-117542857D01*
X145261904Y-117590476D01*
X145214285Y-117685714D01*
X145166666Y-117733333D01*
X145071428Y-117780952D01*
X144880952Y-117780952D01*
X144785714Y-117828571D01*
X144738095Y-117876190D01*
X144690476Y-117971428D01*
X144690476Y-118161904D01*
X144738095Y-118257142D01*
X144785714Y-118304761D01*
X144880952Y-118352380D01*
X145071428Y-118352380D01*
X145166666Y-118304761D01*
X145214285Y-118257142D01*
X145261904Y-118161904D01*
X145261904Y-117971428D01*
X145214285Y-117876190D01*
X145166666Y-117828571D01*
X145071428Y-117780952D01*
%TO.C,D4*%
X152361904Y-142002380D02*
X152361904Y-141002380D01*
X152600000Y-141002380D01*
X152742857Y-141050000D01*
X152838095Y-141145238D01*
X152885714Y-141240476D01*
X152933333Y-141430952D01*
X152933333Y-141573809D01*
X152885714Y-141764285D01*
X152838095Y-141859523D01*
X152742857Y-141954761D01*
X152600000Y-142002380D01*
X152361904Y-142002380D01*
X153790476Y-141335714D02*
X153790476Y-142002380D01*
X153552380Y-140954761D02*
X153314285Y-141669047D01*
X153933333Y-141669047D01*
%TO.C,D1*%
X177352380Y-135813095D02*
X176352380Y-135813095D01*
X176352380Y-135575000D01*
X176400000Y-135432142D01*
X176495238Y-135336904D01*
X176590476Y-135289285D01*
X176780952Y-135241666D01*
X176923809Y-135241666D01*
X177114285Y-135289285D01*
X177209523Y-135336904D01*
X177304761Y-135432142D01*
X177352380Y-135575000D01*
X177352380Y-135813095D01*
X177352380Y-134289285D02*
X177352380Y-134860714D01*
X177352380Y-134575000D02*
X176352380Y-134575000D01*
X176495238Y-134670238D01*
X176590476Y-134765476D01*
X176638095Y-134860714D01*
D15*
%TO.C,SW2*%
X143733428Y-110091000D02*
X143769714Y-109982142D01*
X143769714Y-109800714D01*
X143733428Y-109728142D01*
X143697142Y-109691857D01*
X143624571Y-109655571D01*
X143552000Y-109655571D01*
X143479428Y-109691857D01*
X143443142Y-109728142D01*
X143406857Y-109800714D01*
X143370571Y-109945857D01*
X143334285Y-110018428D01*
X143298000Y-110054714D01*
X143225428Y-110091000D01*
X143152857Y-110091000D01*
X143080285Y-110054714D01*
X143044000Y-110018428D01*
X143007714Y-109945857D01*
X143007714Y-109764428D01*
X143044000Y-109655571D01*
X143007714Y-109401571D02*
X143769714Y-109220142D01*
X143225428Y-109075000D01*
X143769714Y-108929857D01*
X143007714Y-108748428D01*
X143080285Y-108494428D02*
X143044000Y-108458142D01*
X143007714Y-108385571D01*
X143007714Y-108204142D01*
X143044000Y-108131571D01*
X143080285Y-108095285D01*
X143152857Y-108059000D01*
X143225428Y-108059000D01*
X143334285Y-108095285D01*
X143769714Y-108530714D01*
X143769714Y-108059000D01*
D13*
%TO.C,C7*%
X155933333Y-143657142D02*
X155885714Y-143704761D01*
X155742857Y-143752380D01*
X155647619Y-143752380D01*
X155504761Y-143704761D01*
X155409523Y-143609523D01*
X155361904Y-143514285D01*
X155314285Y-143323809D01*
X155314285Y-143180952D01*
X155361904Y-142990476D01*
X155409523Y-142895238D01*
X155504761Y-142800000D01*
X155647619Y-142752380D01*
X155742857Y-142752380D01*
X155885714Y-142800000D01*
X155933333Y-142847619D01*
X156266666Y-142752380D02*
X156933333Y-142752380D01*
X156504761Y-143752380D01*
%TO.C,R11*%
X139057142Y-115177780D02*
X138723809Y-114701590D01*
X138485714Y-115177780D02*
X138485714Y-114177780D01*
X138866666Y-114177780D01*
X138961904Y-114225400D01*
X139009523Y-114273019D01*
X139057142Y-114368257D01*
X139057142Y-114511114D01*
X139009523Y-114606352D01*
X138961904Y-114653971D01*
X138866666Y-114701590D01*
X138485714Y-114701590D01*
X140009523Y-115177780D02*
X139438095Y-115177780D01*
X139723809Y-115177780D02*
X139723809Y-114177780D01*
X139628571Y-114320638D01*
X139533333Y-114415876D01*
X139438095Y-114463495D01*
X140961904Y-115177780D02*
X140390476Y-115177780D01*
X140676190Y-115177780D02*
X140676190Y-114177780D01*
X140580952Y-114320638D01*
X140485714Y-114415876D01*
X140390476Y-114463495D01*
D15*
%TO.C,C21*%
X134051785Y-132808214D02*
X134082023Y-132838452D01*
X134112261Y-132929166D01*
X134112261Y-132989642D01*
X134082023Y-133080357D01*
X134021547Y-133140833D01*
X133961071Y-133171071D01*
X133840119Y-133201309D01*
X133749404Y-133201309D01*
X133628452Y-133171071D01*
X133567976Y-133140833D01*
X133507500Y-133080357D01*
X133477261Y-132989642D01*
X133477261Y-132929166D01*
X133507500Y-132838452D01*
X133537738Y-132808214D01*
X133537738Y-132566309D02*
X133507500Y-132536071D01*
X133477261Y-132475595D01*
X133477261Y-132324404D01*
X133507500Y-132263928D01*
X133537738Y-132233690D01*
X133598214Y-132203452D01*
X133658690Y-132203452D01*
X133749404Y-132233690D01*
X134112261Y-132596547D01*
X134112261Y-132203452D01*
X134112261Y-131598690D02*
X134112261Y-131961547D01*
X134112261Y-131780119D02*
X133477261Y-131780119D01*
X133567976Y-131840595D01*
X133628452Y-131901071D01*
X133658690Y-131961547D01*
D13*
%TO.C,C32*%
X151809742Y-154312857D02*
X151857361Y-154360476D01*
X151904980Y-154503333D01*
X151904980Y-154598571D01*
X151857361Y-154741428D01*
X151762123Y-154836666D01*
X151666885Y-154884285D01*
X151476409Y-154931904D01*
X151333552Y-154931904D01*
X151143076Y-154884285D01*
X151047838Y-154836666D01*
X150952600Y-154741428D01*
X150904980Y-154598571D01*
X150904980Y-154503333D01*
X150952600Y-154360476D01*
X151000219Y-154312857D01*
X150904980Y-153979523D02*
X150904980Y-153360476D01*
X151285933Y-153693809D01*
X151285933Y-153550952D01*
X151333552Y-153455714D01*
X151381171Y-153408095D01*
X151476409Y-153360476D01*
X151714504Y-153360476D01*
X151809742Y-153408095D01*
X151857361Y-153455714D01*
X151904980Y-153550952D01*
X151904980Y-153836666D01*
X151857361Y-153931904D01*
X151809742Y-153979523D01*
X151000219Y-152979523D02*
X150952600Y-152931904D01*
X150904980Y-152836666D01*
X150904980Y-152598571D01*
X150952600Y-152503333D01*
X151000219Y-152455714D01*
X151095457Y-152408095D01*
X151190695Y-152408095D01*
X151333552Y-152455714D01*
X151904980Y-153027142D01*
X151904980Y-152408095D01*
%TO.C,D8*%
X123452380Y-130113095D02*
X122452380Y-130113095D01*
X122452380Y-129875000D01*
X122500000Y-129732142D01*
X122595238Y-129636904D01*
X122690476Y-129589285D01*
X122880952Y-129541666D01*
X123023809Y-129541666D01*
X123214285Y-129589285D01*
X123309523Y-129636904D01*
X123404761Y-129732142D01*
X123452380Y-129875000D01*
X123452380Y-130113095D01*
X122880952Y-128970238D02*
X122833333Y-129065476D01*
X122785714Y-129113095D01*
X122690476Y-129160714D01*
X122642857Y-129160714D01*
X122547619Y-129113095D01*
X122500000Y-129065476D01*
X122452380Y-128970238D01*
X122452380Y-128779761D01*
X122500000Y-128684523D01*
X122547619Y-128636904D01*
X122642857Y-128589285D01*
X122690476Y-128589285D01*
X122785714Y-128636904D01*
X122833333Y-128684523D01*
X122880952Y-128779761D01*
X122880952Y-128970238D01*
X122928571Y-129065476D01*
X122976190Y-129113095D01*
X123071428Y-129160714D01*
X123261904Y-129160714D01*
X123357142Y-129113095D01*
X123404761Y-129065476D01*
X123452380Y-128970238D01*
X123452380Y-128779761D01*
X123404761Y-128684523D01*
X123357142Y-128636904D01*
X123261904Y-128589285D01*
X123071428Y-128589285D01*
X122976190Y-128636904D01*
X122928571Y-128684523D01*
X122880952Y-128779761D01*
%TO.C,L3*%
X161933333Y-148827380D02*
X161457142Y-148827380D01*
X161457142Y-147827380D01*
X162171428Y-147827380D02*
X162790476Y-147827380D01*
X162457142Y-148208333D01*
X162600000Y-148208333D01*
X162695238Y-148255952D01*
X162742857Y-148303571D01*
X162790476Y-148398809D01*
X162790476Y-148636904D01*
X162742857Y-148732142D01*
X162695238Y-148779761D01*
X162600000Y-148827380D01*
X162314285Y-148827380D01*
X162219047Y-148779761D01*
X162171428Y-148732142D01*
D15*
%TO.C,TP11*%
X153050571Y-114632714D02*
X153486000Y-114632714D01*
X153268285Y-115394714D02*
X153268285Y-114632714D01*
X153740000Y-115394714D02*
X153740000Y-114632714D01*
X154030285Y-114632714D01*
X154102857Y-114669000D01*
X154139142Y-114705285D01*
X154175428Y-114777857D01*
X154175428Y-114886714D01*
X154139142Y-114959285D01*
X154102857Y-114995571D01*
X154030285Y-115031857D01*
X153740000Y-115031857D01*
X154901142Y-115394714D02*
X154465714Y-115394714D01*
X154683428Y-115394714D02*
X154683428Y-114632714D01*
X154610857Y-114741571D01*
X154538285Y-114814142D01*
X154465714Y-114850428D01*
X155626857Y-115394714D02*
X155191428Y-115394714D01*
X155409142Y-115394714D02*
X155409142Y-114632714D01*
X155336571Y-114741571D01*
X155264000Y-114814142D01*
X155191428Y-114850428D01*
D13*
%TO.C,R35*%
X171807142Y-153402380D02*
X171473809Y-152926190D01*
X171235714Y-153402380D02*
X171235714Y-152402380D01*
X171616666Y-152402380D01*
X171711904Y-152450000D01*
X171759523Y-152497619D01*
X171807142Y-152592857D01*
X171807142Y-152735714D01*
X171759523Y-152830952D01*
X171711904Y-152878571D01*
X171616666Y-152926190D01*
X171235714Y-152926190D01*
X172140476Y-152402380D02*
X172759523Y-152402380D01*
X172426190Y-152783333D01*
X172569047Y-152783333D01*
X172664285Y-152830952D01*
X172711904Y-152878571D01*
X172759523Y-152973809D01*
X172759523Y-153211904D01*
X172711904Y-153307142D01*
X172664285Y-153354761D01*
X172569047Y-153402380D01*
X172283333Y-153402380D01*
X172188095Y-153354761D01*
X172140476Y-153307142D01*
X173664285Y-152402380D02*
X173188095Y-152402380D01*
X173140476Y-152878571D01*
X173188095Y-152830952D01*
X173283333Y-152783333D01*
X173521428Y-152783333D01*
X173616666Y-152830952D01*
X173664285Y-152878571D01*
X173711904Y-152973809D01*
X173711904Y-153211904D01*
X173664285Y-153307142D01*
X173616666Y-153354761D01*
X173521428Y-153402380D01*
X173283333Y-153402380D01*
X173188095Y-153354761D01*
X173140476Y-153307142D01*
%TO.C,R31*%
X142760142Y-154944714D02*
X142506142Y-154581857D01*
X142324714Y-154944714D02*
X142324714Y-154182714D01*
X142615000Y-154182714D01*
X142687571Y-154219000D01*
X142723857Y-154255285D01*
X142760142Y-154327857D01*
X142760142Y-154436714D01*
X142723857Y-154509285D01*
X142687571Y-154545571D01*
X142615000Y-154581857D01*
X142324714Y-154581857D01*
X143014142Y-154182714D02*
X143485857Y-154182714D01*
X143231857Y-154473000D01*
X143340714Y-154473000D01*
X143413285Y-154509285D01*
X143449571Y-154545571D01*
X143485857Y-154618142D01*
X143485857Y-154799571D01*
X143449571Y-154872142D01*
X143413285Y-154908428D01*
X143340714Y-154944714D01*
X143123000Y-154944714D01*
X143050428Y-154908428D01*
X143014142Y-154872142D01*
X144211571Y-154944714D02*
X143776142Y-154944714D01*
X143993857Y-154944714D02*
X143993857Y-154182714D01*
X143921285Y-154291571D01*
X143848714Y-154364142D01*
X143776142Y-154400428D01*
%TO.C,C33*%
X168851942Y-150293342D02*
X168804323Y-150340961D01*
X168661466Y-150388580D01*
X168566228Y-150388580D01*
X168423371Y-150340961D01*
X168328133Y-150245723D01*
X168280514Y-150150485D01*
X168232895Y-149960009D01*
X168232895Y-149817152D01*
X168280514Y-149626676D01*
X168328133Y-149531438D01*
X168423371Y-149436200D01*
X168566228Y-149388580D01*
X168661466Y-149388580D01*
X168804323Y-149436200D01*
X168851942Y-149483819D01*
X169185276Y-149388580D02*
X169804323Y-149388580D01*
X169470990Y-149769533D01*
X169613847Y-149769533D01*
X169709085Y-149817152D01*
X169756704Y-149864771D01*
X169804323Y-149960009D01*
X169804323Y-150198104D01*
X169756704Y-150293342D01*
X169709085Y-150340961D01*
X169613847Y-150388580D01*
X169328133Y-150388580D01*
X169232895Y-150340961D01*
X169185276Y-150293342D01*
X170137657Y-149388580D02*
X170756704Y-149388580D01*
X170423371Y-149769533D01*
X170566228Y-149769533D01*
X170661466Y-149817152D01*
X170709085Y-149864771D01*
X170756704Y-149960009D01*
X170756704Y-150198104D01*
X170709085Y-150293342D01*
X170661466Y-150340961D01*
X170566228Y-150388580D01*
X170280514Y-150388580D01*
X170185276Y-150340961D01*
X170137657Y-150293342D01*
%TO.C,R24*%
X133444714Y-142789857D02*
X133081857Y-143043857D01*
X133444714Y-143225285D02*
X132682714Y-143225285D01*
X132682714Y-142935000D01*
X132719000Y-142862428D01*
X132755285Y-142826142D01*
X132827857Y-142789857D01*
X132936714Y-142789857D01*
X133009285Y-142826142D01*
X133045571Y-142862428D01*
X133081857Y-142935000D01*
X133081857Y-143225285D01*
X132755285Y-142499571D02*
X132719000Y-142463285D01*
X132682714Y-142390714D01*
X132682714Y-142209285D01*
X132719000Y-142136714D01*
X132755285Y-142100428D01*
X132827857Y-142064142D01*
X132900428Y-142064142D01*
X133009285Y-142100428D01*
X133444714Y-142535857D01*
X133444714Y-142064142D01*
X132936714Y-141411000D02*
X133444714Y-141411000D01*
X132646428Y-141592428D02*
X133190714Y-141773857D01*
X133190714Y-141302142D01*
%TO.C,R29*%
X147910142Y-154969714D02*
X147656142Y-154606857D01*
X147474714Y-154969714D02*
X147474714Y-154207714D01*
X147765000Y-154207714D01*
X147837571Y-154244000D01*
X147873857Y-154280285D01*
X147910142Y-154352857D01*
X147910142Y-154461714D01*
X147873857Y-154534285D01*
X147837571Y-154570571D01*
X147765000Y-154606857D01*
X147474714Y-154606857D01*
X148200428Y-154280285D02*
X148236714Y-154244000D01*
X148309285Y-154207714D01*
X148490714Y-154207714D01*
X148563285Y-154244000D01*
X148599571Y-154280285D01*
X148635857Y-154352857D01*
X148635857Y-154425428D01*
X148599571Y-154534285D01*
X148164142Y-154969714D01*
X148635857Y-154969714D01*
X148998714Y-154969714D02*
X149143857Y-154969714D01*
X149216428Y-154933428D01*
X149252714Y-154897142D01*
X149325285Y-154788285D01*
X149361571Y-154643142D01*
X149361571Y-154352857D01*
X149325285Y-154280285D01*
X149289000Y-154244000D01*
X149216428Y-154207714D01*
X149071285Y-154207714D01*
X148998714Y-154244000D01*
X148962428Y-154280285D01*
X148926142Y-154352857D01*
X148926142Y-154534285D01*
X148962428Y-154606857D01*
X148998714Y-154643142D01*
X149071285Y-154679428D01*
X149216428Y-154679428D01*
X149289000Y-154643142D01*
X149325285Y-154606857D01*
X149361571Y-154534285D01*
%TO.C,C6*%
X140133333Y-143632142D02*
X140085714Y-143679761D01*
X139942857Y-143727380D01*
X139847619Y-143727380D01*
X139704761Y-143679761D01*
X139609523Y-143584523D01*
X139561904Y-143489285D01*
X139514285Y-143298809D01*
X139514285Y-143155952D01*
X139561904Y-142965476D01*
X139609523Y-142870238D01*
X139704761Y-142775000D01*
X139847619Y-142727380D01*
X139942857Y-142727380D01*
X140085714Y-142775000D01*
X140133333Y-142822619D01*
X140990476Y-142727380D02*
X140800000Y-142727380D01*
X140704761Y-142775000D01*
X140657142Y-142822619D01*
X140561904Y-142965476D01*
X140514285Y-143155952D01*
X140514285Y-143536904D01*
X140561904Y-143632142D01*
X140609523Y-143679761D01*
X140704761Y-143727380D01*
X140895238Y-143727380D01*
X140990476Y-143679761D01*
X141038095Y-143632142D01*
X141085714Y-143536904D01*
X141085714Y-143298809D01*
X141038095Y-143203571D01*
X140990476Y-143155952D01*
X140895238Y-143108333D01*
X140704761Y-143108333D01*
X140609523Y-143155952D01*
X140561904Y-143203571D01*
X140514285Y-143298809D01*
%TO.C,Y2*%
X140523809Y-141051190D02*
X140523809Y-141527380D01*
X140190476Y-140527380D02*
X140523809Y-141051190D01*
X140857142Y-140527380D01*
X141142857Y-140622619D02*
X141190476Y-140575000D01*
X141285714Y-140527380D01*
X141523809Y-140527380D01*
X141619047Y-140575000D01*
X141666666Y-140622619D01*
X141714285Y-140717857D01*
X141714285Y-140813095D01*
X141666666Y-140955952D01*
X141095238Y-141527380D01*
X141714285Y-141527380D01*
%TO.C,U6*%
X157338095Y-102452380D02*
X157338095Y-103261904D01*
X157385714Y-103357142D01*
X157433333Y-103404761D01*
X157528571Y-103452380D01*
X157719047Y-103452380D01*
X157814285Y-103404761D01*
X157861904Y-103357142D01*
X157909523Y-103261904D01*
X157909523Y-102452380D01*
X158814285Y-102452380D02*
X158623809Y-102452380D01*
X158528571Y-102500000D01*
X158480952Y-102547619D01*
X158385714Y-102690476D01*
X158338095Y-102880952D01*
X158338095Y-103261904D01*
X158385714Y-103357142D01*
X158433333Y-103404761D01*
X158528571Y-103452380D01*
X158719047Y-103452380D01*
X158814285Y-103404761D01*
X158861904Y-103357142D01*
X158909523Y-103261904D01*
X158909523Y-103023809D01*
X158861904Y-102928571D01*
X158814285Y-102880952D01*
X158719047Y-102833333D01*
X158528571Y-102833333D01*
X158433333Y-102880952D01*
X158385714Y-102928571D01*
X158338095Y-103023809D01*
%TO.C,C12*%
X159132142Y-142157142D02*
X159084523Y-142204761D01*
X158941666Y-142252380D01*
X158846428Y-142252380D01*
X158703571Y-142204761D01*
X158608333Y-142109523D01*
X158560714Y-142014285D01*
X158513095Y-141823809D01*
X158513095Y-141680952D01*
X158560714Y-141490476D01*
X158608333Y-141395238D01*
X158703571Y-141300000D01*
X158846428Y-141252380D01*
X158941666Y-141252380D01*
X159084523Y-141300000D01*
X159132142Y-141347619D01*
X160084523Y-142252380D02*
X159513095Y-142252380D01*
X159798809Y-142252380D02*
X159798809Y-141252380D01*
X159703571Y-141395238D01*
X159608333Y-141490476D01*
X159513095Y-141538095D01*
X160465476Y-141347619D02*
X160513095Y-141300000D01*
X160608333Y-141252380D01*
X160846428Y-141252380D01*
X160941666Y-141300000D01*
X160989285Y-141347619D01*
X161036904Y-141442857D01*
X161036904Y-141538095D01*
X160989285Y-141680952D01*
X160417857Y-142252380D01*
X161036904Y-142252380D01*
%TO.C,C30*%
X157057142Y-149757142D02*
X157009523Y-149804761D01*
X156866666Y-149852380D01*
X156771428Y-149852380D01*
X156628571Y-149804761D01*
X156533333Y-149709523D01*
X156485714Y-149614285D01*
X156438095Y-149423809D01*
X156438095Y-149280952D01*
X156485714Y-149090476D01*
X156533333Y-148995238D01*
X156628571Y-148900000D01*
X156771428Y-148852380D01*
X156866666Y-148852380D01*
X157009523Y-148900000D01*
X157057142Y-148947619D01*
X157390476Y-148852380D02*
X158009523Y-148852380D01*
X157676190Y-149233333D01*
X157819047Y-149233333D01*
X157914285Y-149280952D01*
X157961904Y-149328571D01*
X158009523Y-149423809D01*
X158009523Y-149661904D01*
X157961904Y-149757142D01*
X157914285Y-149804761D01*
X157819047Y-149852380D01*
X157533333Y-149852380D01*
X157438095Y-149804761D01*
X157390476Y-149757142D01*
X158628571Y-148852380D02*
X158723809Y-148852380D01*
X158819047Y-148900000D01*
X158866666Y-148947619D01*
X158914285Y-149042857D01*
X158961904Y-149233333D01*
X158961904Y-149471428D01*
X158914285Y-149661904D01*
X158866666Y-149757142D01*
X158819047Y-149804761D01*
X158723809Y-149852380D01*
X158628571Y-149852380D01*
X158533333Y-149804761D01*
X158485714Y-149757142D01*
X158438095Y-149661904D01*
X158390476Y-149471428D01*
X158390476Y-149233333D01*
X158438095Y-149042857D01*
X158485714Y-148947619D01*
X158533333Y-148900000D01*
X158628571Y-148852380D01*
%TO.C,C25*%
X135910142Y-137372142D02*
X135873857Y-137408428D01*
X135765000Y-137444714D01*
X135692428Y-137444714D01*
X135583571Y-137408428D01*
X135511000Y-137335857D01*
X135474714Y-137263285D01*
X135438428Y-137118142D01*
X135438428Y-137009285D01*
X135474714Y-136864142D01*
X135511000Y-136791571D01*
X135583571Y-136719000D01*
X135692428Y-136682714D01*
X135765000Y-136682714D01*
X135873857Y-136719000D01*
X135910142Y-136755285D01*
X136200428Y-136755285D02*
X136236714Y-136719000D01*
X136309285Y-136682714D01*
X136490714Y-136682714D01*
X136563285Y-136719000D01*
X136599571Y-136755285D01*
X136635857Y-136827857D01*
X136635857Y-136900428D01*
X136599571Y-137009285D01*
X136164142Y-137444714D01*
X136635857Y-137444714D01*
X137325285Y-136682714D02*
X136962428Y-136682714D01*
X136926142Y-137045571D01*
X136962428Y-137009285D01*
X137035000Y-136973000D01*
X137216428Y-136973000D01*
X137289000Y-137009285D01*
X137325285Y-137045571D01*
X137361571Y-137118142D01*
X137361571Y-137299571D01*
X137325285Y-137372142D01*
X137289000Y-137408428D01*
X137216428Y-137444714D01*
X137035000Y-137444714D01*
X136962428Y-137408428D01*
X136926142Y-137372142D01*
%TO.C,C14*%
X152882142Y-146167857D02*
X152929761Y-146215476D01*
X152977380Y-146358333D01*
X152977380Y-146453571D01*
X152929761Y-146596428D01*
X152834523Y-146691666D01*
X152739285Y-146739285D01*
X152548809Y-146786904D01*
X152405952Y-146786904D01*
X152215476Y-146739285D01*
X152120238Y-146691666D01*
X152025000Y-146596428D01*
X151977380Y-146453571D01*
X151977380Y-146358333D01*
X152025000Y-146215476D01*
X152072619Y-146167857D01*
X152977380Y-145215476D02*
X152977380Y-145786904D01*
X152977380Y-145501190D02*
X151977380Y-145501190D01*
X152120238Y-145596428D01*
X152215476Y-145691666D01*
X152263095Y-145786904D01*
X152310714Y-144358333D02*
X152977380Y-144358333D01*
X151929761Y-144596428D02*
X152644047Y-144834523D01*
X152644047Y-144215476D01*
%TO.C,R8*%
X144858333Y-130402380D02*
X144525000Y-129926190D01*
X144286904Y-130402380D02*
X144286904Y-129402380D01*
X144667857Y-129402380D01*
X144763095Y-129450000D01*
X144810714Y-129497619D01*
X144858333Y-129592857D01*
X144858333Y-129735714D01*
X144810714Y-129830952D01*
X144763095Y-129878571D01*
X144667857Y-129926190D01*
X144286904Y-129926190D01*
X145429761Y-129830952D02*
X145334523Y-129783333D01*
X145286904Y-129735714D01*
X145239285Y-129640476D01*
X145239285Y-129592857D01*
X145286904Y-129497619D01*
X145334523Y-129450000D01*
X145429761Y-129402380D01*
X145620238Y-129402380D01*
X145715476Y-129450000D01*
X145763095Y-129497619D01*
X145810714Y-129592857D01*
X145810714Y-129640476D01*
X145763095Y-129735714D01*
X145715476Y-129783333D01*
X145620238Y-129830952D01*
X145429761Y-129830952D01*
X145334523Y-129878571D01*
X145286904Y-129926190D01*
X145239285Y-130021428D01*
X145239285Y-130211904D01*
X145286904Y-130307142D01*
X145334523Y-130354761D01*
X145429761Y-130402380D01*
X145620238Y-130402380D01*
X145715476Y-130354761D01*
X145763095Y-130307142D01*
X145810714Y-130211904D01*
X145810714Y-130021428D01*
X145763095Y-129926190D01*
X145715476Y-129878571D01*
X145620238Y-129830952D01*
%TO.C,IC1*%
X138223809Y-130582142D02*
X138223809Y-129682142D01*
X139271428Y-130496428D02*
X139223809Y-130539285D01*
X139080952Y-130582142D01*
X138985714Y-130582142D01*
X138842857Y-130539285D01*
X138747619Y-130453571D01*
X138700000Y-130367857D01*
X138652380Y-130196428D01*
X138652380Y-130067857D01*
X138700000Y-129896428D01*
X138747619Y-129810714D01*
X138842857Y-129725000D01*
X138985714Y-129682142D01*
X139080952Y-129682142D01*
X139223809Y-129725000D01*
X139271428Y-129767857D01*
X140223809Y-130582142D02*
X139652380Y-130582142D01*
X139938095Y-130582142D02*
X139938095Y-129682142D01*
X139842857Y-129810714D01*
X139747619Y-129896428D01*
X139652380Y-129939285D01*
%TO.C,IC2*%
X163023809Y-125552380D02*
X163023809Y-124552380D01*
X164071428Y-125457142D02*
X164023809Y-125504761D01*
X163880952Y-125552380D01*
X163785714Y-125552380D01*
X163642857Y-125504761D01*
X163547619Y-125409523D01*
X163500000Y-125314285D01*
X163452380Y-125123809D01*
X163452380Y-124980952D01*
X163500000Y-124790476D01*
X163547619Y-124695238D01*
X163642857Y-124600000D01*
X163785714Y-124552380D01*
X163880952Y-124552380D01*
X164023809Y-124600000D01*
X164071428Y-124647619D01*
X164452380Y-124647619D02*
X164500000Y-124600000D01*
X164595238Y-124552380D01*
X164833333Y-124552380D01*
X164928571Y-124600000D01*
X164976190Y-124647619D01*
X165023809Y-124742857D01*
X165023809Y-124838095D01*
X164976190Y-124980952D01*
X164404761Y-125552380D01*
X165023809Y-125552380D01*
%TO.C,H2*%
X121138095Y-100727380D02*
X121138095Y-99727380D01*
X121138095Y-100203571D02*
X121709523Y-100203571D01*
X121709523Y-100727380D02*
X121709523Y-99727380D01*
X122138095Y-99822619D02*
X122185714Y-99775000D01*
X122280952Y-99727380D01*
X122519047Y-99727380D01*
X122614285Y-99775000D01*
X122661904Y-99822619D01*
X122709523Y-99917857D01*
X122709523Y-100013095D01*
X122661904Y-100155952D01*
X122090476Y-100727380D01*
X122709523Y-100727380D01*
D15*
%TO.C,TP10*%
X153175571Y-109857714D02*
X153611000Y-109857714D01*
X153393285Y-110619714D02*
X153393285Y-109857714D01*
X153865000Y-110619714D02*
X153865000Y-109857714D01*
X154155285Y-109857714D01*
X154227857Y-109894000D01*
X154264142Y-109930285D01*
X154300428Y-110002857D01*
X154300428Y-110111714D01*
X154264142Y-110184285D01*
X154227857Y-110220571D01*
X154155285Y-110256857D01*
X153865000Y-110256857D01*
X155026142Y-110619714D02*
X154590714Y-110619714D01*
X154808428Y-110619714D02*
X154808428Y-109857714D01*
X154735857Y-109966571D01*
X154663285Y-110039142D01*
X154590714Y-110075428D01*
X155497857Y-109857714D02*
X155570428Y-109857714D01*
X155643000Y-109894000D01*
X155679285Y-109930285D01*
X155715571Y-110002857D01*
X155751857Y-110148000D01*
X155751857Y-110329428D01*
X155715571Y-110474571D01*
X155679285Y-110547142D01*
X155643000Y-110583428D01*
X155570428Y-110619714D01*
X155497857Y-110619714D01*
X155425285Y-110583428D01*
X155389000Y-110547142D01*
X155352714Y-110474571D01*
X155316428Y-110329428D01*
X155316428Y-110148000D01*
X155352714Y-110002857D01*
X155389000Y-109930285D01*
X155425285Y-109894000D01*
X155497857Y-109857714D01*
D13*
%TO.C,C18*%
X163157142Y-127532142D02*
X163109523Y-127579761D01*
X162966666Y-127627380D01*
X162871428Y-127627380D01*
X162728571Y-127579761D01*
X162633333Y-127484523D01*
X162585714Y-127389285D01*
X162538095Y-127198809D01*
X162538095Y-127055952D01*
X162585714Y-126865476D01*
X162633333Y-126770238D01*
X162728571Y-126675000D01*
X162871428Y-126627380D01*
X162966666Y-126627380D01*
X163109523Y-126675000D01*
X163157142Y-126722619D01*
X164109523Y-127627380D02*
X163538095Y-127627380D01*
X163823809Y-127627380D02*
X163823809Y-126627380D01*
X163728571Y-126770238D01*
X163633333Y-126865476D01*
X163538095Y-126913095D01*
X164680952Y-127055952D02*
X164585714Y-127008333D01*
X164538095Y-126960714D01*
X164490476Y-126865476D01*
X164490476Y-126817857D01*
X164538095Y-126722619D01*
X164585714Y-126675000D01*
X164680952Y-126627380D01*
X164871428Y-126627380D01*
X164966666Y-126675000D01*
X165014285Y-126722619D01*
X165061904Y-126817857D01*
X165061904Y-126865476D01*
X165014285Y-126960714D01*
X164966666Y-127008333D01*
X164871428Y-127055952D01*
X164680952Y-127055952D01*
X164585714Y-127103571D01*
X164538095Y-127151190D01*
X164490476Y-127246428D01*
X164490476Y-127436904D01*
X164538095Y-127532142D01*
X164585714Y-127579761D01*
X164680952Y-127627380D01*
X164871428Y-127627380D01*
X164966666Y-127579761D01*
X165014285Y-127532142D01*
X165061904Y-127436904D01*
X165061904Y-127246428D01*
X165014285Y-127151190D01*
X164966666Y-127103571D01*
X164871428Y-127055952D01*
%TO.C,TP4*%
X147888095Y-142327380D02*
X148459523Y-142327380D01*
X148173809Y-143327380D02*
X148173809Y-142327380D01*
X148792857Y-143327380D02*
X148792857Y-142327380D01*
X149173809Y-142327380D01*
X149269047Y-142375000D01*
X149316666Y-142422619D01*
X149364285Y-142517857D01*
X149364285Y-142660714D01*
X149316666Y-142755952D01*
X149269047Y-142803571D01*
X149173809Y-142851190D01*
X148792857Y-142851190D01*
X150221428Y-142660714D02*
X150221428Y-143327380D01*
X149983333Y-142279761D02*
X149745238Y-142994047D01*
X150364285Y-142994047D01*
%TO.C,C34*%
X169137142Y-146337142D02*
X169089523Y-146384761D01*
X168946666Y-146432380D01*
X168851428Y-146432380D01*
X168708571Y-146384761D01*
X168613333Y-146289523D01*
X168565714Y-146194285D01*
X168518095Y-146003809D01*
X168518095Y-145860952D01*
X168565714Y-145670476D01*
X168613333Y-145575238D01*
X168708571Y-145480000D01*
X168851428Y-145432380D01*
X168946666Y-145432380D01*
X169089523Y-145480000D01*
X169137142Y-145527619D01*
X169470476Y-145432380D02*
X170089523Y-145432380D01*
X169756190Y-145813333D01*
X169899047Y-145813333D01*
X169994285Y-145860952D01*
X170041904Y-145908571D01*
X170089523Y-146003809D01*
X170089523Y-146241904D01*
X170041904Y-146337142D01*
X169994285Y-146384761D01*
X169899047Y-146432380D01*
X169613333Y-146432380D01*
X169518095Y-146384761D01*
X169470476Y-146337142D01*
X170946666Y-145765714D02*
X170946666Y-146432380D01*
X170708571Y-145384761D02*
X170470476Y-146099047D01*
X171089523Y-146099047D01*
%TO.C,R3*%
X149927380Y-146366666D02*
X149451190Y-146700000D01*
X149927380Y-146938095D02*
X148927380Y-146938095D01*
X148927380Y-146557142D01*
X148975000Y-146461904D01*
X149022619Y-146414285D01*
X149117857Y-146366666D01*
X149260714Y-146366666D01*
X149355952Y-146414285D01*
X149403571Y-146461904D01*
X149451190Y-146557142D01*
X149451190Y-146938095D01*
X148927380Y-146033333D02*
X148927380Y-145414285D01*
X149308333Y-145747619D01*
X149308333Y-145604761D01*
X149355952Y-145509523D01*
X149403571Y-145461904D01*
X149498809Y-145414285D01*
X149736904Y-145414285D01*
X149832142Y-145461904D01*
X149879761Y-145509523D01*
X149927380Y-145604761D01*
X149927380Y-145890476D01*
X149879761Y-145985714D01*
X149832142Y-146033333D01*
%TO.C,D9*%
X115695504Y-124277380D02*
X115695504Y-123277380D01*
X115933600Y-123277380D01*
X116076457Y-123325000D01*
X116171695Y-123420238D01*
X116219314Y-123515476D01*
X116266933Y-123705952D01*
X116266933Y-123848809D01*
X116219314Y-124039285D01*
X116171695Y-124134523D01*
X116076457Y-124229761D01*
X115933600Y-124277380D01*
X115695504Y-124277380D01*
X116743123Y-124277380D02*
X116933600Y-124277380D01*
X117028838Y-124229761D01*
X117076457Y-124182142D01*
X117171695Y-124039285D01*
X117219314Y-123848809D01*
X117219314Y-123467857D01*
X117171695Y-123372619D01*
X117124076Y-123325000D01*
X117028838Y-123277380D01*
X116838361Y-123277380D01*
X116743123Y-123325000D01*
X116695504Y-123372619D01*
X116647885Y-123467857D01*
X116647885Y-123705952D01*
X116695504Y-123801190D01*
X116743123Y-123848809D01*
X116838361Y-123896428D01*
X117028838Y-123896428D01*
X117124076Y-123848809D01*
X117171695Y-123801190D01*
X117219314Y-123705952D01*
%TO.C,J3*%
X108616666Y-137802380D02*
X108616666Y-138516666D01*
X108569047Y-138659523D01*
X108473809Y-138754761D01*
X108330952Y-138802380D01*
X108235714Y-138802380D01*
X108997619Y-137802380D02*
X109616666Y-137802380D01*
X109283333Y-138183333D01*
X109426190Y-138183333D01*
X109521428Y-138230952D01*
X109569047Y-138278571D01*
X109616666Y-138373809D01*
X109616666Y-138611904D01*
X109569047Y-138707142D01*
X109521428Y-138754761D01*
X109426190Y-138802380D01*
X109140476Y-138802380D01*
X109045238Y-138754761D01*
X108997619Y-138707142D01*
%TO.C,R14*%
X150462142Y-122902380D02*
X150128809Y-122426190D01*
X149890714Y-122902380D02*
X149890714Y-121902380D01*
X150271666Y-121902380D01*
X150366904Y-121950000D01*
X150414523Y-121997619D01*
X150462142Y-122092857D01*
X150462142Y-122235714D01*
X150414523Y-122330952D01*
X150366904Y-122378571D01*
X150271666Y-122426190D01*
X149890714Y-122426190D01*
X151414523Y-122902380D02*
X150843095Y-122902380D01*
X151128809Y-122902380D02*
X151128809Y-121902380D01*
X151033571Y-122045238D01*
X150938333Y-122140476D01*
X150843095Y-122188095D01*
X152271666Y-122235714D02*
X152271666Y-122902380D01*
X152033571Y-121854761D02*
X151795476Y-122569047D01*
X152414523Y-122569047D01*
%TO.C,C22*%
X132357142Y-126287142D02*
X132309523Y-126334761D01*
X132166666Y-126382380D01*
X132071428Y-126382380D01*
X131928571Y-126334761D01*
X131833333Y-126239523D01*
X131785714Y-126144285D01*
X131738095Y-125953809D01*
X131738095Y-125810952D01*
X131785714Y-125620476D01*
X131833333Y-125525238D01*
X131928571Y-125430000D01*
X132071428Y-125382380D01*
X132166666Y-125382380D01*
X132309523Y-125430000D01*
X132357142Y-125477619D01*
X132738095Y-125477619D02*
X132785714Y-125430000D01*
X132880952Y-125382380D01*
X133119047Y-125382380D01*
X133214285Y-125430000D01*
X133261904Y-125477619D01*
X133309523Y-125572857D01*
X133309523Y-125668095D01*
X133261904Y-125810952D01*
X132690476Y-126382380D01*
X133309523Y-126382380D01*
X133690476Y-125477619D02*
X133738095Y-125430000D01*
X133833333Y-125382380D01*
X134071428Y-125382380D01*
X134166666Y-125430000D01*
X134214285Y-125477619D01*
X134261904Y-125572857D01*
X134261904Y-125668095D01*
X134214285Y-125810952D01*
X133642857Y-126382380D01*
X134261904Y-126382380D01*
%TO.C,J1*%
X107966666Y-119727380D02*
X107966666Y-120441666D01*
X107919047Y-120584523D01*
X107823809Y-120679761D01*
X107680952Y-120727380D01*
X107585714Y-120727380D01*
X108966666Y-120727380D02*
X108395238Y-120727380D01*
X108680952Y-120727380D02*
X108680952Y-119727380D01*
X108585714Y-119870238D01*
X108490476Y-119965476D01*
X108395238Y-120013095D01*
D15*
%TO.C,TP13*%
X172557714Y-147624428D02*
X172557714Y-147189000D01*
X173319714Y-147406714D02*
X172557714Y-147406714D01*
X173319714Y-146935000D02*
X172557714Y-146935000D01*
X172557714Y-146644714D01*
X172594000Y-146572142D01*
X172630285Y-146535857D01*
X172702857Y-146499571D01*
X172811714Y-146499571D01*
X172884285Y-146535857D01*
X172920571Y-146572142D01*
X172956857Y-146644714D01*
X172956857Y-146935000D01*
X173319714Y-145773857D02*
X173319714Y-146209285D01*
X173319714Y-145991571D02*
X172557714Y-145991571D01*
X172666571Y-146064142D01*
X172739142Y-146136714D01*
X172775428Y-146209285D01*
X172557714Y-145519857D02*
X172557714Y-145048142D01*
X172848000Y-145302142D01*
X172848000Y-145193285D01*
X172884285Y-145120714D01*
X172920571Y-145084428D01*
X172993142Y-145048142D01*
X173174571Y-145048142D01*
X173247142Y-145084428D01*
X173283428Y-145120714D01*
X173319714Y-145193285D01*
X173319714Y-145411000D01*
X173283428Y-145483571D01*
X173247142Y-145519857D01*
D13*
%TO.C,L1*%
X120233333Y-111427380D02*
X119757142Y-111427380D01*
X119757142Y-110427380D01*
X121090476Y-111427380D02*
X120519047Y-111427380D01*
X120804761Y-111427380D02*
X120804761Y-110427380D01*
X120709523Y-110570238D01*
X120614285Y-110665476D01*
X120519047Y-110713095D01*
%TO.C,R15*%
X150462142Y-124402380D02*
X150128809Y-123926190D01*
X149890714Y-124402380D02*
X149890714Y-123402380D01*
X150271666Y-123402380D01*
X150366904Y-123450000D01*
X150414523Y-123497619D01*
X150462142Y-123592857D01*
X150462142Y-123735714D01*
X150414523Y-123830952D01*
X150366904Y-123878571D01*
X150271666Y-123926190D01*
X149890714Y-123926190D01*
X151414523Y-124402380D02*
X150843095Y-124402380D01*
X151128809Y-124402380D02*
X151128809Y-123402380D01*
X151033571Y-123545238D01*
X150938333Y-123640476D01*
X150843095Y-123688095D01*
X152319285Y-123402380D02*
X151843095Y-123402380D01*
X151795476Y-123878571D01*
X151843095Y-123830952D01*
X151938333Y-123783333D01*
X152176428Y-123783333D01*
X152271666Y-123830952D01*
X152319285Y-123878571D01*
X152366904Y-123973809D01*
X152366904Y-124211904D01*
X152319285Y-124307142D01*
X152271666Y-124354761D01*
X152176428Y-124402380D01*
X151938333Y-124402380D01*
X151843095Y-124354761D01*
X151795476Y-124307142D01*
%TO.C,C15*%
X163357142Y-129032142D02*
X163309523Y-129079761D01*
X163166666Y-129127380D01*
X163071428Y-129127380D01*
X162928571Y-129079761D01*
X162833333Y-128984523D01*
X162785714Y-128889285D01*
X162738095Y-128698809D01*
X162738095Y-128555952D01*
X162785714Y-128365476D01*
X162833333Y-128270238D01*
X162928571Y-128175000D01*
X163071428Y-128127380D01*
X163166666Y-128127380D01*
X163309523Y-128175000D01*
X163357142Y-128222619D01*
X164309523Y-129127380D02*
X163738095Y-129127380D01*
X164023809Y-129127380D02*
X164023809Y-128127380D01*
X163928571Y-128270238D01*
X163833333Y-128365476D01*
X163738095Y-128413095D01*
X165214285Y-128127380D02*
X164738095Y-128127380D01*
X164690476Y-128603571D01*
X164738095Y-128555952D01*
X164833333Y-128508333D01*
X165071428Y-128508333D01*
X165166666Y-128555952D01*
X165214285Y-128603571D01*
X165261904Y-128698809D01*
X165261904Y-128936904D01*
X165214285Y-129032142D01*
X165166666Y-129079761D01*
X165071428Y-129127380D01*
X164833333Y-129127380D01*
X164738095Y-129079761D01*
X164690476Y-129032142D01*
%TO.C,R2*%
X174352380Y-140466666D02*
X173876190Y-140800000D01*
X174352380Y-141038095D02*
X173352380Y-141038095D01*
X173352380Y-140657142D01*
X173400000Y-140561904D01*
X173447619Y-140514285D01*
X173542857Y-140466666D01*
X173685714Y-140466666D01*
X173780952Y-140514285D01*
X173828571Y-140561904D01*
X173876190Y-140657142D01*
X173876190Y-141038095D01*
X173447619Y-140085714D02*
X173400000Y-140038095D01*
X173352380Y-139942857D01*
X173352380Y-139704761D01*
X173400000Y-139609523D01*
X173447619Y-139561904D01*
X173542857Y-139514285D01*
X173638095Y-139514285D01*
X173780952Y-139561904D01*
X174352380Y-140133333D01*
X174352380Y-139514285D01*
D15*
%TO.C,TP9*%
X153838428Y-104007714D02*
X154273857Y-104007714D01*
X154056142Y-104769714D02*
X154056142Y-104007714D01*
X154527857Y-104769714D02*
X154527857Y-104007714D01*
X154818142Y-104007714D01*
X154890714Y-104044000D01*
X154927000Y-104080285D01*
X154963285Y-104152857D01*
X154963285Y-104261714D01*
X154927000Y-104334285D01*
X154890714Y-104370571D01*
X154818142Y-104406857D01*
X154527857Y-104406857D01*
X155326142Y-104769714D02*
X155471285Y-104769714D01*
X155543857Y-104733428D01*
X155580142Y-104697142D01*
X155652714Y-104588285D01*
X155689000Y-104443142D01*
X155689000Y-104152857D01*
X155652714Y-104080285D01*
X155616428Y-104044000D01*
X155543857Y-104007714D01*
X155398714Y-104007714D01*
X155326142Y-104044000D01*
X155289857Y-104080285D01*
X155253571Y-104152857D01*
X155253571Y-104334285D01*
X155289857Y-104406857D01*
X155326142Y-104443142D01*
X155398714Y-104479428D01*
X155543857Y-104479428D01*
X155616428Y-104443142D01*
X155652714Y-104406857D01*
X155689000Y-104334285D01*
%TO.C,R33*%
X138819714Y-148589857D02*
X138456857Y-148843857D01*
X138819714Y-149025285D02*
X138057714Y-149025285D01*
X138057714Y-148735000D01*
X138094000Y-148662428D01*
X138130285Y-148626142D01*
X138202857Y-148589857D01*
X138311714Y-148589857D01*
X138384285Y-148626142D01*
X138420571Y-148662428D01*
X138456857Y-148735000D01*
X138456857Y-149025285D01*
X138057714Y-148335857D02*
X138057714Y-147864142D01*
X138348000Y-148118142D01*
X138348000Y-148009285D01*
X138384285Y-147936714D01*
X138420571Y-147900428D01*
X138493142Y-147864142D01*
X138674571Y-147864142D01*
X138747142Y-147900428D01*
X138783428Y-147936714D01*
X138819714Y-148009285D01*
X138819714Y-148227000D01*
X138783428Y-148299571D01*
X138747142Y-148335857D01*
X138057714Y-147610142D02*
X138057714Y-147138428D01*
X138348000Y-147392428D01*
X138348000Y-147283571D01*
X138384285Y-147211000D01*
X138420571Y-147174714D01*
X138493142Y-147138428D01*
X138674571Y-147138428D01*
X138747142Y-147174714D01*
X138783428Y-147211000D01*
X138819714Y-147283571D01*
X138819714Y-147501285D01*
X138783428Y-147573857D01*
X138747142Y-147610142D01*
D13*
%TO.C,R9*%
X144833333Y-128752380D02*
X144500000Y-128276190D01*
X144261904Y-128752380D02*
X144261904Y-127752380D01*
X144642857Y-127752380D01*
X144738095Y-127800000D01*
X144785714Y-127847619D01*
X144833333Y-127942857D01*
X144833333Y-128085714D01*
X144785714Y-128180952D01*
X144738095Y-128228571D01*
X144642857Y-128276190D01*
X144261904Y-128276190D01*
X145309523Y-128752380D02*
X145500000Y-128752380D01*
X145595238Y-128704761D01*
X145642857Y-128657142D01*
X145738095Y-128514285D01*
X145785714Y-128323809D01*
X145785714Y-127942857D01*
X145738095Y-127847619D01*
X145690476Y-127800000D01*
X145595238Y-127752380D01*
X145404761Y-127752380D01*
X145309523Y-127800000D01*
X145261904Y-127847619D01*
X145214285Y-127942857D01*
X145214285Y-128180952D01*
X145261904Y-128276190D01*
X145309523Y-128323809D01*
X145404761Y-128371428D01*
X145595238Y-128371428D01*
X145690476Y-128323809D01*
X145738095Y-128276190D01*
X145785714Y-128180952D01*
%TO.C,Y1*%
X178751190Y-129576190D02*
X179227380Y-129576190D01*
X178227380Y-129909523D02*
X178751190Y-129576190D01*
X178227380Y-129242857D01*
X179227380Y-128385714D02*
X179227380Y-128957142D01*
X179227380Y-128671428D02*
X178227380Y-128671428D01*
X178370238Y-128766666D01*
X178465476Y-128861904D01*
X178513095Y-128957142D01*
D15*
%TO.C,C10*%
X159810142Y-138747142D02*
X159773857Y-138783428D01*
X159665000Y-138819714D01*
X159592428Y-138819714D01*
X159483571Y-138783428D01*
X159411000Y-138710857D01*
X159374714Y-138638285D01*
X159338428Y-138493142D01*
X159338428Y-138384285D01*
X159374714Y-138239142D01*
X159411000Y-138166571D01*
X159483571Y-138094000D01*
X159592428Y-138057714D01*
X159665000Y-138057714D01*
X159773857Y-138094000D01*
X159810142Y-138130285D01*
X160535857Y-138819714D02*
X160100428Y-138819714D01*
X160318142Y-138819714D02*
X160318142Y-138057714D01*
X160245571Y-138166571D01*
X160173000Y-138239142D01*
X160100428Y-138275428D01*
X161007571Y-138057714D02*
X161080142Y-138057714D01*
X161152714Y-138094000D01*
X161189000Y-138130285D01*
X161225285Y-138202857D01*
X161261571Y-138348000D01*
X161261571Y-138529428D01*
X161225285Y-138674571D01*
X161189000Y-138747142D01*
X161152714Y-138783428D01*
X161080142Y-138819714D01*
X161007571Y-138819714D01*
X160935000Y-138783428D01*
X160898714Y-138747142D01*
X160862428Y-138674571D01*
X160826142Y-138529428D01*
X160826142Y-138348000D01*
X160862428Y-138202857D01*
X160898714Y-138130285D01*
X160935000Y-138094000D01*
X161007571Y-138057714D01*
D13*
%TO.C,T1*%
X123738095Y-149127380D02*
X124309523Y-149127380D01*
X124023809Y-150127380D02*
X124023809Y-149127380D01*
X125166666Y-150127380D02*
X124595238Y-150127380D01*
X124880952Y-150127380D02*
X124880952Y-149127380D01*
X124785714Y-149270238D01*
X124690476Y-149365476D01*
X124595238Y-149413095D01*
%TO.C,C28*%
X138575142Y-157080857D02*
X138611428Y-157117142D01*
X138647714Y-157226000D01*
X138647714Y-157298571D01*
X138611428Y-157407428D01*
X138538857Y-157480000D01*
X138466285Y-157516285D01*
X138321142Y-157552571D01*
X138212285Y-157552571D01*
X138067142Y-157516285D01*
X137994571Y-157480000D01*
X137922000Y-157407428D01*
X137885714Y-157298571D01*
X137885714Y-157226000D01*
X137922000Y-157117142D01*
X137958285Y-157080857D01*
X137958285Y-156790571D02*
X137922000Y-156754285D01*
X137885714Y-156681714D01*
X137885714Y-156500285D01*
X137922000Y-156427714D01*
X137958285Y-156391428D01*
X138030857Y-156355142D01*
X138103428Y-156355142D01*
X138212285Y-156391428D01*
X138647714Y-156826857D01*
X138647714Y-156355142D01*
X138212285Y-155919714D02*
X138176000Y-155992285D01*
X138139714Y-156028571D01*
X138067142Y-156064857D01*
X138030857Y-156064857D01*
X137958285Y-156028571D01*
X137922000Y-155992285D01*
X137885714Y-155919714D01*
X137885714Y-155774571D01*
X137922000Y-155702000D01*
X137958285Y-155665714D01*
X138030857Y-155629428D01*
X138067142Y-155629428D01*
X138139714Y-155665714D01*
X138176000Y-155702000D01*
X138212285Y-155774571D01*
X138212285Y-155919714D01*
X138248571Y-155992285D01*
X138284857Y-156028571D01*
X138357428Y-156064857D01*
X138502571Y-156064857D01*
X138575142Y-156028571D01*
X138611428Y-155992285D01*
X138647714Y-155919714D01*
X138647714Y-155774571D01*
X138611428Y-155702000D01*
X138575142Y-155665714D01*
X138502571Y-155629428D01*
X138357428Y-155629428D01*
X138284857Y-155665714D01*
X138248571Y-155702000D01*
X138212285Y-155774571D01*
%TO.C,C24*%
X136357142Y-117517857D02*
X136404761Y-117565476D01*
X136452380Y-117708333D01*
X136452380Y-117803571D01*
X136404761Y-117946428D01*
X136309523Y-118041666D01*
X136214285Y-118089285D01*
X136023809Y-118136904D01*
X135880952Y-118136904D01*
X135690476Y-118089285D01*
X135595238Y-118041666D01*
X135500000Y-117946428D01*
X135452380Y-117803571D01*
X135452380Y-117708333D01*
X135500000Y-117565476D01*
X135547619Y-117517857D01*
X135547619Y-117136904D02*
X135500000Y-117089285D01*
X135452380Y-116994047D01*
X135452380Y-116755952D01*
X135500000Y-116660714D01*
X135547619Y-116613095D01*
X135642857Y-116565476D01*
X135738095Y-116565476D01*
X135880952Y-116613095D01*
X136452380Y-117184523D01*
X136452380Y-116565476D01*
X135785714Y-115708333D02*
X136452380Y-115708333D01*
X135404761Y-115946428D02*
X136119047Y-116184523D01*
X136119047Y-115565476D01*
%TO.C,R30*%
X141210142Y-157697714D02*
X140956142Y-157334857D01*
X140774714Y-157697714D02*
X140774714Y-156935714D01*
X141065000Y-156935714D01*
X141137571Y-156972000D01*
X141173857Y-157008285D01*
X141210142Y-157080857D01*
X141210142Y-157189714D01*
X141173857Y-157262285D01*
X141137571Y-157298571D01*
X141065000Y-157334857D01*
X140774714Y-157334857D01*
X141464142Y-156935714D02*
X141935857Y-156935714D01*
X141681857Y-157226000D01*
X141790714Y-157226000D01*
X141863285Y-157262285D01*
X141899571Y-157298571D01*
X141935857Y-157371142D01*
X141935857Y-157552571D01*
X141899571Y-157625142D01*
X141863285Y-157661428D01*
X141790714Y-157697714D01*
X141573000Y-157697714D01*
X141500428Y-157661428D01*
X141464142Y-157625142D01*
X142407571Y-156935714D02*
X142480142Y-156935714D01*
X142552714Y-156972000D01*
X142589000Y-157008285D01*
X142625285Y-157080857D01*
X142661571Y-157226000D01*
X142661571Y-157407428D01*
X142625285Y-157552571D01*
X142589000Y-157625142D01*
X142552714Y-157661428D01*
X142480142Y-157697714D01*
X142407571Y-157697714D01*
X142335000Y-157661428D01*
X142298714Y-157625142D01*
X142262428Y-157552571D01*
X142226142Y-157407428D01*
X142226142Y-157226000D01*
X142262428Y-157080857D01*
X142298714Y-157008285D01*
X142335000Y-156972000D01*
X142407571Y-156935714D01*
%TO.C,C2*%
X139837142Y-137961666D02*
X139884761Y-138009285D01*
X139932380Y-138152142D01*
X139932380Y-138247380D01*
X139884761Y-138390238D01*
X139789523Y-138485476D01*
X139694285Y-138533095D01*
X139503809Y-138580714D01*
X139360952Y-138580714D01*
X139170476Y-138533095D01*
X139075238Y-138485476D01*
X138980000Y-138390238D01*
X138932380Y-138247380D01*
X138932380Y-138152142D01*
X138980000Y-138009285D01*
X139027619Y-137961666D01*
X139027619Y-137580714D02*
X138980000Y-137533095D01*
X138932380Y-137437857D01*
X138932380Y-137199761D01*
X138980000Y-137104523D01*
X139027619Y-137056904D01*
X139122857Y-137009285D01*
X139218095Y-137009285D01*
X139360952Y-137056904D01*
X139932380Y-137628333D01*
X139932380Y-137009285D01*
%TO.C,R13*%
X130952380Y-116642857D02*
X130476190Y-116976190D01*
X130952380Y-117214285D02*
X129952380Y-117214285D01*
X129952380Y-116833333D01*
X130000000Y-116738095D01*
X130047619Y-116690476D01*
X130142857Y-116642857D01*
X130285714Y-116642857D01*
X130380952Y-116690476D01*
X130428571Y-116738095D01*
X130476190Y-116833333D01*
X130476190Y-117214285D01*
X130952380Y-115690476D02*
X130952380Y-116261904D01*
X130952380Y-115976190D02*
X129952380Y-115976190D01*
X130095238Y-116071428D01*
X130190476Y-116166666D01*
X130238095Y-116261904D01*
X129952380Y-115357142D02*
X129952380Y-114738095D01*
X130333333Y-115071428D01*
X130333333Y-114928571D01*
X130380952Y-114833333D01*
X130428571Y-114785714D01*
X130523809Y-114738095D01*
X130761904Y-114738095D01*
X130857142Y-114785714D01*
X130904761Y-114833333D01*
X130952380Y-114928571D01*
X130952380Y-115214285D01*
X130904761Y-115309523D01*
X130857142Y-115357142D01*
%TO.C,C19*%
X142776775Y-135883214D02*
X142807013Y-135913452D01*
X142837251Y-136004166D01*
X142837251Y-136064642D01*
X142807013Y-136155357D01*
X142746537Y-136215833D01*
X142686061Y-136246071D01*
X142565109Y-136276309D01*
X142474394Y-136276309D01*
X142353442Y-136246071D01*
X142292966Y-136215833D01*
X142232490Y-136155357D01*
X142202251Y-136064642D01*
X142202251Y-136004166D01*
X142232490Y-135913452D01*
X142262728Y-135883214D01*
X142837251Y-135278452D02*
X142837251Y-135641309D01*
X142837251Y-135459880D02*
X142202251Y-135459880D01*
X142292966Y-135520357D01*
X142353442Y-135580833D01*
X142383680Y-135641309D01*
X142837251Y-134976071D02*
X142837251Y-134855119D01*
X142807013Y-134794642D01*
X142776775Y-134764404D01*
X142686061Y-134703928D01*
X142565109Y-134673690D01*
X142323204Y-134673690D01*
X142262728Y-134703928D01*
X142232490Y-134734166D01*
X142202251Y-134794642D01*
X142202251Y-134915595D01*
X142232490Y-134976071D01*
X142262728Y-135006309D01*
X142323204Y-135036547D01*
X142474394Y-135036547D01*
X142534870Y-135006309D01*
X142565109Y-134976071D01*
X142595347Y-134915595D01*
X142595347Y-134794642D01*
X142565109Y-134734166D01*
X142534870Y-134703928D01*
X142474394Y-134673690D01*
%TO.C,C31*%
X155657142Y-146857142D02*
X155609523Y-146904761D01*
X155466666Y-146952380D01*
X155371428Y-146952380D01*
X155228571Y-146904761D01*
X155133333Y-146809523D01*
X155085714Y-146714285D01*
X155038095Y-146523809D01*
X155038095Y-146380952D01*
X155085714Y-146190476D01*
X155133333Y-146095238D01*
X155228571Y-146000000D01*
X155371428Y-145952380D01*
X155466666Y-145952380D01*
X155609523Y-146000000D01*
X155657142Y-146047619D01*
X155990476Y-145952380D02*
X156609523Y-145952380D01*
X156276190Y-146333333D01*
X156419047Y-146333333D01*
X156514285Y-146380952D01*
X156561904Y-146428571D01*
X156609523Y-146523809D01*
X156609523Y-146761904D01*
X156561904Y-146857142D01*
X156514285Y-146904761D01*
X156419047Y-146952380D01*
X156133333Y-146952380D01*
X156038095Y-146904761D01*
X155990476Y-146857142D01*
X157561904Y-146952380D02*
X156990476Y-146952380D01*
X157276190Y-146952380D02*
X157276190Y-145952380D01*
X157180952Y-146095238D01*
X157085714Y-146190476D01*
X156990476Y-146238095D01*
%TO.C,J6*%
X177266666Y-156327380D02*
X177266666Y-157041666D01*
X177219047Y-157184523D01*
X177123809Y-157279761D01*
X176980952Y-157327380D01*
X176885714Y-157327380D01*
X178171428Y-156327380D02*
X177980952Y-156327380D01*
X177885714Y-156375000D01*
X177838095Y-156422619D01*
X177742857Y-156565476D01*
X177695238Y-156755952D01*
X177695238Y-157136904D01*
X177742857Y-157232142D01*
X177790476Y-157279761D01*
X177885714Y-157327380D01*
X178076190Y-157327380D01*
X178171428Y-157279761D01*
X178219047Y-157232142D01*
X178266666Y-157136904D01*
X178266666Y-156898809D01*
X178219047Y-156803571D01*
X178171428Y-156755952D01*
X178076190Y-156708333D01*
X177885714Y-156708333D01*
X177790476Y-156755952D01*
X177742857Y-156803571D01*
X177695238Y-156898809D01*
%TO.C,H1*%
X187238095Y-159327380D02*
X187238095Y-158327380D01*
X187238095Y-158803571D02*
X187809523Y-158803571D01*
X187809523Y-159327380D02*
X187809523Y-158327380D01*
X188809523Y-159327380D02*
X188238095Y-159327380D01*
X188523809Y-159327380D02*
X188523809Y-158327380D01*
X188428571Y-158470238D01*
X188333333Y-158565476D01*
X188238095Y-158613095D01*
D15*
%TO.C,TP8*%
X122238428Y-109057714D02*
X122673857Y-109057714D01*
X122456142Y-109819714D02*
X122456142Y-109057714D01*
X122927857Y-109819714D02*
X122927857Y-109057714D01*
X123218142Y-109057714D01*
X123290714Y-109094000D01*
X123327000Y-109130285D01*
X123363285Y-109202857D01*
X123363285Y-109311714D01*
X123327000Y-109384285D01*
X123290714Y-109420571D01*
X123218142Y-109456857D01*
X122927857Y-109456857D01*
X123798714Y-109384285D02*
X123726142Y-109348000D01*
X123689857Y-109311714D01*
X123653571Y-109239142D01*
X123653571Y-109202857D01*
X123689857Y-109130285D01*
X123726142Y-109094000D01*
X123798714Y-109057714D01*
X123943857Y-109057714D01*
X124016428Y-109094000D01*
X124052714Y-109130285D01*
X124089000Y-109202857D01*
X124089000Y-109239142D01*
X124052714Y-109311714D01*
X124016428Y-109348000D01*
X123943857Y-109384285D01*
X123798714Y-109384285D01*
X123726142Y-109420571D01*
X123689857Y-109456857D01*
X123653571Y-109529428D01*
X123653571Y-109674571D01*
X123689857Y-109747142D01*
X123726142Y-109783428D01*
X123798714Y-109819714D01*
X123943857Y-109819714D01*
X124016428Y-109783428D01*
X124052714Y-109747142D01*
X124089000Y-109674571D01*
X124089000Y-109529428D01*
X124052714Y-109456857D01*
X124016428Y-109420571D01*
X123943857Y-109384285D01*
D13*
%TO.C,R38*%
X140247914Y-157080857D02*
X139885057Y-157334857D01*
X140247914Y-157516285D02*
X139485914Y-157516285D01*
X139485914Y-157226000D01*
X139522200Y-157153428D01*
X139558485Y-157117142D01*
X139631057Y-157080857D01*
X139739914Y-157080857D01*
X139812485Y-157117142D01*
X139848771Y-157153428D01*
X139885057Y-157226000D01*
X139885057Y-157516285D01*
X139485914Y-156826857D02*
X139485914Y-156355142D01*
X139776200Y-156609142D01*
X139776200Y-156500285D01*
X139812485Y-156427714D01*
X139848771Y-156391428D01*
X139921342Y-156355142D01*
X140102771Y-156355142D01*
X140175342Y-156391428D01*
X140211628Y-156427714D01*
X140247914Y-156500285D01*
X140247914Y-156718000D01*
X140211628Y-156790571D01*
X140175342Y-156826857D01*
X139812485Y-155919714D02*
X139776200Y-155992285D01*
X139739914Y-156028571D01*
X139667342Y-156064857D01*
X139631057Y-156064857D01*
X139558485Y-156028571D01*
X139522200Y-155992285D01*
X139485914Y-155919714D01*
X139485914Y-155774571D01*
X139522200Y-155702000D01*
X139558485Y-155665714D01*
X139631057Y-155629428D01*
X139667342Y-155629428D01*
X139739914Y-155665714D01*
X139776200Y-155702000D01*
X139812485Y-155774571D01*
X139812485Y-155919714D01*
X139848771Y-155992285D01*
X139885057Y-156028571D01*
X139957628Y-156064857D01*
X140102771Y-156064857D01*
X140175342Y-156028571D01*
X140211628Y-155992285D01*
X140247914Y-155919714D01*
X140247914Y-155774571D01*
X140211628Y-155702000D01*
X140175342Y-155665714D01*
X140102771Y-155629428D01*
X139957628Y-155629428D01*
X139885057Y-155665714D01*
X139848771Y-155702000D01*
X139812485Y-155774571D01*
%TO.C,Q2*%
X152597619Y-118845238D02*
X152550000Y-118940476D01*
X152454761Y-119035714D01*
X152311904Y-119178571D01*
X152264285Y-119273809D01*
X152264285Y-119369047D01*
X152502380Y-119321428D02*
X152454761Y-119416666D01*
X152359523Y-119511904D01*
X152169047Y-119559523D01*
X151835714Y-119559523D01*
X151645238Y-119511904D01*
X151550000Y-119416666D01*
X151502380Y-119321428D01*
X151502380Y-119130952D01*
X151550000Y-119035714D01*
X151645238Y-118940476D01*
X151835714Y-118892857D01*
X152169047Y-118892857D01*
X152359523Y-118940476D01*
X152454761Y-119035714D01*
X152502380Y-119130952D01*
X152502380Y-119321428D01*
X151597619Y-118511904D02*
X151550000Y-118464285D01*
X151502380Y-118369047D01*
X151502380Y-118130952D01*
X151550000Y-118035714D01*
X151597619Y-117988095D01*
X151692857Y-117940476D01*
X151788095Y-117940476D01*
X151930952Y-117988095D01*
X152502380Y-118559523D01*
X152502380Y-117940476D01*
%TO.C,U1*%
X155338095Y-130902380D02*
X155338095Y-131711904D01*
X155385714Y-131807142D01*
X155433333Y-131854761D01*
X155528571Y-131902380D01*
X155719047Y-131902380D01*
X155814285Y-131854761D01*
X155861904Y-131807142D01*
X155909523Y-131711904D01*
X155909523Y-130902380D01*
X156909523Y-131902380D02*
X156338095Y-131902380D01*
X156623809Y-131902380D02*
X156623809Y-130902380D01*
X156528571Y-131045238D01*
X156433333Y-131140476D01*
X156338095Y-131188095D01*
%TO.C,R25*%
X134744714Y-139889857D02*
X134381857Y-140143857D01*
X134744714Y-140325285D02*
X133982714Y-140325285D01*
X133982714Y-140035000D01*
X134019000Y-139962428D01*
X134055285Y-139926142D01*
X134127857Y-139889857D01*
X134236714Y-139889857D01*
X134309285Y-139926142D01*
X134345571Y-139962428D01*
X134381857Y-140035000D01*
X134381857Y-140325285D01*
X134055285Y-139599571D02*
X134019000Y-139563285D01*
X133982714Y-139490714D01*
X133982714Y-139309285D01*
X134019000Y-139236714D01*
X134055285Y-139200428D01*
X134127857Y-139164142D01*
X134200428Y-139164142D01*
X134309285Y-139200428D01*
X134744714Y-139635857D01*
X134744714Y-139164142D01*
X133982714Y-138474714D02*
X133982714Y-138837571D01*
X134345571Y-138873857D01*
X134309285Y-138837571D01*
X134273000Y-138765000D01*
X134273000Y-138583571D01*
X134309285Y-138511000D01*
X134345571Y-138474714D01*
X134418142Y-138438428D01*
X134599571Y-138438428D01*
X134672142Y-138474714D01*
X134708428Y-138511000D01*
X134744714Y-138583571D01*
X134744714Y-138765000D01*
X134708428Y-138837571D01*
X134672142Y-138873857D01*
%TO.C,FID2*%
X147403571Y-110946428D02*
X147403571Y-111279761D01*
X147927380Y-111279761D02*
X146927380Y-111279761D01*
X146927380Y-110803571D01*
X147927380Y-110422619D02*
X146927380Y-110422619D01*
X147927380Y-109946428D02*
X146927380Y-109946428D01*
X146927380Y-109708333D01*
X146975000Y-109565476D01*
X147070238Y-109470238D01*
X147165476Y-109422619D01*
X147355952Y-109375000D01*
X147498809Y-109375000D01*
X147689285Y-109422619D01*
X147784523Y-109470238D01*
X147879761Y-109565476D01*
X147927380Y-109708333D01*
X147927380Y-109946428D01*
X147022619Y-108994047D02*
X146975000Y-108946428D01*
X146927380Y-108851190D01*
X146927380Y-108613095D01*
X146975000Y-108517857D01*
X147022619Y-108470238D01*
X147117857Y-108422619D01*
X147213095Y-108422619D01*
X147355952Y-108470238D01*
X147927380Y-109041666D01*
X147927380Y-108422619D01*
%TO.C,R20*%
X118652380Y-148732857D02*
X118176190Y-149066190D01*
X118652380Y-149304285D02*
X117652380Y-149304285D01*
X117652380Y-148923333D01*
X117700000Y-148828095D01*
X117747619Y-148780476D01*
X117842857Y-148732857D01*
X117985714Y-148732857D01*
X118080952Y-148780476D01*
X118128571Y-148828095D01*
X118176190Y-148923333D01*
X118176190Y-149304285D01*
X117747619Y-148351904D02*
X117700000Y-148304285D01*
X117652380Y-148209047D01*
X117652380Y-147970952D01*
X117700000Y-147875714D01*
X117747619Y-147828095D01*
X117842857Y-147780476D01*
X117938095Y-147780476D01*
X118080952Y-147828095D01*
X118652380Y-148399523D01*
X118652380Y-147780476D01*
X117652380Y-147161428D02*
X117652380Y-147066190D01*
X117700000Y-146970952D01*
X117747619Y-146923333D01*
X117842857Y-146875714D01*
X118033333Y-146828095D01*
X118271428Y-146828095D01*
X118461904Y-146875714D01*
X118557142Y-146923333D01*
X118604761Y-146970952D01*
X118652380Y-147066190D01*
X118652380Y-147161428D01*
X118604761Y-147256666D01*
X118557142Y-147304285D01*
X118461904Y-147351904D01*
X118271428Y-147399523D01*
X118033333Y-147399523D01*
X117842857Y-147351904D01*
X117747619Y-147304285D01*
X117700000Y-147256666D01*
X117652380Y-147161428D01*
D15*
%TO.C,R1*%
X146294714Y-136352000D02*
X145931857Y-136606000D01*
X146294714Y-136787428D02*
X145532714Y-136787428D01*
X145532714Y-136497142D01*
X145569000Y-136424571D01*
X145605285Y-136388285D01*
X145677857Y-136352000D01*
X145786714Y-136352000D01*
X145859285Y-136388285D01*
X145895571Y-136424571D01*
X145931857Y-136497142D01*
X145931857Y-136787428D01*
X146294714Y-135626285D02*
X146294714Y-136061714D01*
X146294714Y-135844000D02*
X145532714Y-135844000D01*
X145641571Y-135916571D01*
X145714142Y-135989142D01*
X145750428Y-136061714D01*
D13*
%TO.C,FID3*%
X173853572Y-128453576D02*
X173520239Y-128453576D01*
X173520239Y-128977385D02*
X173520239Y-127977385D01*
X173996429Y-127977385D01*
X174377381Y-128977385D02*
X174377381Y-127977385D01*
X174853572Y-128977385D02*
X174853572Y-127977385D01*
X175091667Y-127977385D01*
X175234524Y-128025005D01*
X175329762Y-128120243D01*
X175377381Y-128215481D01*
X175425001Y-128405957D01*
X175425001Y-128548814D01*
X175377381Y-128739290D01*
X175329762Y-128834528D01*
X175234524Y-128929766D01*
X175091667Y-128977385D01*
X174853572Y-128977385D01*
X175758334Y-127977385D02*
X176377381Y-127977385D01*
X176044048Y-128358338D01*
X176186905Y-128358338D01*
X176282143Y-128405957D01*
X176329762Y-128453576D01*
X176377381Y-128548814D01*
X176377381Y-128786909D01*
X176329762Y-128882147D01*
X176282143Y-128929766D01*
X176186905Y-128977385D01*
X175901191Y-128977385D01*
X175805953Y-128929766D01*
X175758334Y-128882147D01*
%TO.C,H3*%
X121938095Y-161327380D02*
X121938095Y-160327380D01*
X121938095Y-160803571D02*
X122509523Y-160803571D01*
X122509523Y-161327380D02*
X122509523Y-160327380D01*
X122890476Y-160327380D02*
X123509523Y-160327380D01*
X123176190Y-160708333D01*
X123319047Y-160708333D01*
X123414285Y-160755952D01*
X123461904Y-160803571D01*
X123509523Y-160898809D01*
X123509523Y-161136904D01*
X123461904Y-161232142D01*
X123414285Y-161279761D01*
X123319047Y-161327380D01*
X123033333Y-161327380D01*
X122938095Y-161279761D01*
X122890476Y-161232142D01*
%TO.C,R6*%
X118063333Y-157812380D02*
X117730000Y-157336190D01*
X117491904Y-157812380D02*
X117491904Y-156812380D01*
X117872857Y-156812380D01*
X117968095Y-156860000D01*
X118015714Y-156907619D01*
X118063333Y-157002857D01*
X118063333Y-157145714D01*
X118015714Y-157240952D01*
X117968095Y-157288571D01*
X117872857Y-157336190D01*
X117491904Y-157336190D01*
X118920476Y-156812380D02*
X118730000Y-156812380D01*
X118634761Y-156860000D01*
X118587142Y-156907619D01*
X118491904Y-157050476D01*
X118444285Y-157240952D01*
X118444285Y-157621904D01*
X118491904Y-157717142D01*
X118539523Y-157764761D01*
X118634761Y-157812380D01*
X118825238Y-157812380D01*
X118920476Y-157764761D01*
X118968095Y-157717142D01*
X119015714Y-157621904D01*
X119015714Y-157383809D01*
X118968095Y-157288571D01*
X118920476Y-157240952D01*
X118825238Y-157193333D01*
X118634761Y-157193333D01*
X118539523Y-157240952D01*
X118491904Y-157288571D01*
X118444285Y-157383809D01*
%TO.C,C27*%
X135137142Y-143289857D02*
X135173428Y-143326142D01*
X135209714Y-143435000D01*
X135209714Y-143507571D01*
X135173428Y-143616428D01*
X135100857Y-143689000D01*
X135028285Y-143725285D01*
X134883142Y-143761571D01*
X134774285Y-143761571D01*
X134629142Y-143725285D01*
X134556571Y-143689000D01*
X134484000Y-143616428D01*
X134447714Y-143507571D01*
X134447714Y-143435000D01*
X134484000Y-143326142D01*
X134520285Y-143289857D01*
X134520285Y-142999571D02*
X134484000Y-142963285D01*
X134447714Y-142890714D01*
X134447714Y-142709285D01*
X134484000Y-142636714D01*
X134520285Y-142600428D01*
X134592857Y-142564142D01*
X134665428Y-142564142D01*
X134774285Y-142600428D01*
X135209714Y-143035857D01*
X135209714Y-142564142D01*
X134447714Y-142310142D02*
X134447714Y-141802142D01*
X135209714Y-142128714D01*
%TO.C,Y3*%
X137976666Y-134953833D02*
X137976666Y-135377166D01*
X137680333Y-134488166D02*
X137976666Y-134953833D01*
X138273000Y-134488166D01*
X138484666Y-134488166D02*
X139035000Y-134488166D01*
X138738666Y-134826833D01*
X138865666Y-134826833D01*
X138950333Y-134869166D01*
X138992666Y-134911500D01*
X139035000Y-134996166D01*
X139035000Y-135207833D01*
X138992666Y-135292500D01*
X138950333Y-135334833D01*
X138865666Y-135377166D01*
X138611666Y-135377166D01*
X138527000Y-135334833D01*
X138484666Y-135292500D01*
%TO.C,R12*%
X126252380Y-116842857D02*
X125776190Y-117176190D01*
X126252380Y-117414285D02*
X125252380Y-117414285D01*
X125252380Y-117033333D01*
X125300000Y-116938095D01*
X125347619Y-116890476D01*
X125442857Y-116842857D01*
X125585714Y-116842857D01*
X125680952Y-116890476D01*
X125728571Y-116938095D01*
X125776190Y-117033333D01*
X125776190Y-117414285D01*
X126252380Y-115890476D02*
X126252380Y-116461904D01*
X126252380Y-116176190D02*
X125252380Y-116176190D01*
X125395238Y-116271428D01*
X125490476Y-116366666D01*
X125538095Y-116461904D01*
X125347619Y-115509523D02*
X125300000Y-115461904D01*
X125252380Y-115366666D01*
X125252380Y-115128571D01*
X125300000Y-115033333D01*
X125347619Y-114985714D01*
X125442857Y-114938095D01*
X125538095Y-114938095D01*
X125680952Y-114985714D01*
X126252380Y-115557142D01*
X126252380Y-114938095D01*
%TO.C,R10*%
X144885714Y-125227380D02*
X144619047Y-124751190D01*
X144428571Y-125227380D02*
X144428571Y-124227380D01*
X144733333Y-124227380D01*
X144809523Y-124275000D01*
X144847619Y-124322619D01*
X144885714Y-124417857D01*
X144885714Y-124560714D01*
X144847619Y-124655952D01*
X144809523Y-124703571D01*
X144733333Y-124751190D01*
X144428571Y-124751190D01*
X145647619Y-125227380D02*
X145190476Y-125227380D01*
X145419047Y-125227380D02*
X145419047Y-124227380D01*
X145342857Y-124370238D01*
X145266666Y-124465476D01*
X145190476Y-124513095D01*
X146142857Y-124227380D02*
X146219047Y-124227380D01*
X146295238Y-124275000D01*
X146333333Y-124322619D01*
X146371428Y-124417857D01*
X146409523Y-124608333D01*
X146409523Y-124846428D01*
X146371428Y-125036904D01*
X146333333Y-125132142D01*
X146295238Y-125179761D01*
X146219047Y-125227380D01*
X146142857Y-125227380D01*
X146066666Y-125179761D01*
X146028571Y-125132142D01*
X145990476Y-125036904D01*
X145952380Y-124846428D01*
X145952380Y-124608333D01*
X145990476Y-124417857D01*
X146028571Y-124322619D01*
X146066666Y-124275000D01*
X146142857Y-124227380D01*
%TO.C,C23*%
X134457142Y-117917857D02*
X134504761Y-117965476D01*
X134552380Y-118108333D01*
X134552380Y-118203571D01*
X134504761Y-118346428D01*
X134409523Y-118441666D01*
X134314285Y-118489285D01*
X134123809Y-118536904D01*
X133980952Y-118536904D01*
X133790476Y-118489285D01*
X133695238Y-118441666D01*
X133600000Y-118346428D01*
X133552380Y-118203571D01*
X133552380Y-118108333D01*
X133600000Y-117965476D01*
X133647619Y-117917857D01*
X133647619Y-117536904D02*
X133600000Y-117489285D01*
X133552380Y-117394047D01*
X133552380Y-117155952D01*
X133600000Y-117060714D01*
X133647619Y-117013095D01*
X133742857Y-116965476D01*
X133838095Y-116965476D01*
X133980952Y-117013095D01*
X134552380Y-117584523D01*
X134552380Y-116965476D01*
X133552380Y-116632142D02*
X133552380Y-116013095D01*
X133933333Y-116346428D01*
X133933333Y-116203571D01*
X133980952Y-116108333D01*
X134028571Y-116060714D01*
X134123809Y-116013095D01*
X134361904Y-116013095D01*
X134457142Y-116060714D01*
X134504761Y-116108333D01*
X134552380Y-116203571D01*
X134552380Y-116489285D01*
X134504761Y-116584523D01*
X134457142Y-116632142D01*
%TO.C,C13*%
X171257142Y-143842857D02*
X171304761Y-143890476D01*
X171352380Y-144033333D01*
X171352380Y-144128571D01*
X171304761Y-144271428D01*
X171209523Y-144366666D01*
X171114285Y-144414285D01*
X170923809Y-144461904D01*
X170780952Y-144461904D01*
X170590476Y-144414285D01*
X170495238Y-144366666D01*
X170400000Y-144271428D01*
X170352380Y-144128571D01*
X170352380Y-144033333D01*
X170400000Y-143890476D01*
X170447619Y-143842857D01*
X171352380Y-142890476D02*
X171352380Y-143461904D01*
X171352380Y-143176190D02*
X170352380Y-143176190D01*
X170495238Y-143271428D01*
X170590476Y-143366666D01*
X170638095Y-143461904D01*
X170352380Y-142557142D02*
X170352380Y-141938095D01*
X170733333Y-142271428D01*
X170733333Y-142128571D01*
X170780952Y-142033333D01*
X170828571Y-141985714D01*
X170923809Y-141938095D01*
X171161904Y-141938095D01*
X171257142Y-141985714D01*
X171304761Y-142033333D01*
X171352380Y-142128571D01*
X171352380Y-142414285D01*
X171304761Y-142509523D01*
X171257142Y-142557142D01*
%TO.C,J4*%
X143197380Y-104733333D02*
X143911666Y-104733333D01*
X144054523Y-104780952D01*
X144149761Y-104876190D01*
X144197380Y-105019047D01*
X144197380Y-105114285D01*
X143530714Y-103828571D02*
X144197380Y-103828571D01*
X143149761Y-104066666D02*
X143864047Y-104304761D01*
X143864047Y-103685714D01*
%TO.C,C16*%
X144757142Y-126857142D02*
X144709523Y-126904761D01*
X144566666Y-126952380D01*
X144471428Y-126952380D01*
X144328571Y-126904761D01*
X144233333Y-126809523D01*
X144185714Y-126714285D01*
X144138095Y-126523809D01*
X144138095Y-126380952D01*
X144185714Y-126190476D01*
X144233333Y-126095238D01*
X144328571Y-126000000D01*
X144471428Y-125952380D01*
X144566666Y-125952380D01*
X144709523Y-126000000D01*
X144757142Y-126047619D01*
X145709523Y-126952380D02*
X145138095Y-126952380D01*
X145423809Y-126952380D02*
X145423809Y-125952380D01*
X145328571Y-126095238D01*
X145233333Y-126190476D01*
X145138095Y-126238095D01*
X146566666Y-125952380D02*
X146376190Y-125952380D01*
X146280952Y-126000000D01*
X146233333Y-126047619D01*
X146138095Y-126190476D01*
X146090476Y-126380952D01*
X146090476Y-126761904D01*
X146138095Y-126857142D01*
X146185714Y-126904761D01*
X146280952Y-126952380D01*
X146471428Y-126952380D01*
X146566666Y-126904761D01*
X146614285Y-126857142D01*
X146661904Y-126761904D01*
X146661904Y-126523809D01*
X146614285Y-126428571D01*
X146566666Y-126380952D01*
X146471428Y-126333333D01*
X146280952Y-126333333D01*
X146185714Y-126380952D01*
X146138095Y-126428571D01*
X146090476Y-126523809D01*
%TO.C,U5*%
X159438095Y-128127380D02*
X159438095Y-128936904D01*
X159485714Y-129032142D01*
X159533333Y-129079761D01*
X159628571Y-129127380D01*
X159819047Y-129127380D01*
X159914285Y-129079761D01*
X159961904Y-129032142D01*
X160009523Y-128936904D01*
X160009523Y-128127380D01*
X160961904Y-128127380D02*
X160485714Y-128127380D01*
X160438095Y-128603571D01*
X160485714Y-128555952D01*
X160580952Y-128508333D01*
X160819047Y-128508333D01*
X160914285Y-128555952D01*
X160961904Y-128603571D01*
X161009523Y-128698809D01*
X161009523Y-128936904D01*
X160961904Y-129032142D01*
X160914285Y-129079761D01*
X160819047Y-129127380D01*
X160580952Y-129127380D01*
X160485714Y-129079761D01*
X160438095Y-129032142D01*
%TO.C,C17*%
X146032142Y-133667857D02*
X146079761Y-133715476D01*
X146127380Y-133858333D01*
X146127380Y-133953571D01*
X146079761Y-134096428D01*
X145984523Y-134191666D01*
X145889285Y-134239285D01*
X145698809Y-134286904D01*
X145555952Y-134286904D01*
X145365476Y-134239285D01*
X145270238Y-134191666D01*
X145175000Y-134096428D01*
X145127380Y-133953571D01*
X145127380Y-133858333D01*
X145175000Y-133715476D01*
X145222619Y-133667857D01*
X146127380Y-132715476D02*
X146127380Y-133286904D01*
X146127380Y-133001190D02*
X145127380Y-133001190D01*
X145270238Y-133096428D01*
X145365476Y-133191666D01*
X145413095Y-133286904D01*
X145127380Y-132382142D02*
X145127380Y-131715476D01*
X146127380Y-132144047D01*
%TO.C,U8*%
X154038095Y-156152380D02*
X154038095Y-156961904D01*
X154085714Y-157057142D01*
X154133333Y-157104761D01*
X154228571Y-157152380D01*
X154419047Y-157152380D01*
X154514285Y-157104761D01*
X154561904Y-157057142D01*
X154609523Y-156961904D01*
X154609523Y-156152380D01*
X155228571Y-156580952D02*
X155133333Y-156533333D01*
X155085714Y-156485714D01*
X155038095Y-156390476D01*
X155038095Y-156342857D01*
X155085714Y-156247619D01*
X155133333Y-156200000D01*
X155228571Y-156152380D01*
X155419047Y-156152380D01*
X155514285Y-156200000D01*
X155561904Y-156247619D01*
X155609523Y-156342857D01*
X155609523Y-156390476D01*
X155561904Y-156485714D01*
X155514285Y-156533333D01*
X155419047Y-156580952D01*
X155228571Y-156580952D01*
X155133333Y-156628571D01*
X155085714Y-156676190D01*
X155038095Y-156771428D01*
X155038095Y-156961904D01*
X155085714Y-157057142D01*
X155133333Y-157104761D01*
X155228571Y-157152380D01*
X155419047Y-157152380D01*
X155514285Y-157104761D01*
X155561904Y-157057142D01*
X155609523Y-156961904D01*
X155609523Y-156771428D01*
X155561904Y-156676190D01*
X155514285Y-156628571D01*
X155419047Y-156580952D01*
%TO.C,F1*%
X111833066Y-125125171D02*
X111499733Y-125125171D01*
X111499733Y-125648980D02*
X111499733Y-124648980D01*
X111975923Y-124648980D01*
X112880685Y-125648980D02*
X112309257Y-125648980D01*
X112594971Y-125648980D02*
X112594971Y-124648980D01*
X112499733Y-124791838D01*
X112404495Y-124887076D01*
X112309257Y-124934695D01*
%TO.C,C9*%
X146058333Y-146857142D02*
X146010714Y-146904761D01*
X145867857Y-146952380D01*
X145772619Y-146952380D01*
X145629761Y-146904761D01*
X145534523Y-146809523D01*
X145486904Y-146714285D01*
X145439285Y-146523809D01*
X145439285Y-146380952D01*
X145486904Y-146190476D01*
X145534523Y-146095238D01*
X145629761Y-146000000D01*
X145772619Y-145952380D01*
X145867857Y-145952380D01*
X146010714Y-146000000D01*
X146058333Y-146047619D01*
X146534523Y-146952380D02*
X146725000Y-146952380D01*
X146820238Y-146904761D01*
X146867857Y-146857142D01*
X146963095Y-146714285D01*
X147010714Y-146523809D01*
X147010714Y-146142857D01*
X146963095Y-146047619D01*
X146915476Y-146000000D01*
X146820238Y-145952380D01*
X146629761Y-145952380D01*
X146534523Y-146000000D01*
X146486904Y-146047619D01*
X146439285Y-146142857D01*
X146439285Y-146380952D01*
X146486904Y-146476190D01*
X146534523Y-146523809D01*
X146629761Y-146571428D01*
X146820238Y-146571428D01*
X146915476Y-146523809D01*
X146963095Y-146476190D01*
X147010714Y-146380952D01*
%TO.C,D3*%
X126439704Y-152903180D02*
X126439704Y-151903180D01*
X126677800Y-151903180D01*
X126820657Y-151950800D01*
X126915895Y-152046038D01*
X126963514Y-152141276D01*
X127011133Y-152331752D01*
X127011133Y-152474609D01*
X126963514Y-152665085D01*
X126915895Y-152760323D01*
X126820657Y-152855561D01*
X126677800Y-152903180D01*
X126439704Y-152903180D01*
X127344466Y-151903180D02*
X127963514Y-151903180D01*
X127630180Y-152284133D01*
X127773038Y-152284133D01*
X127868276Y-152331752D01*
X127915895Y-152379371D01*
X127963514Y-152474609D01*
X127963514Y-152712704D01*
X127915895Y-152807942D01*
X127868276Y-152855561D01*
X127773038Y-152903180D01*
X127487323Y-152903180D01*
X127392085Y-152855561D01*
X127344466Y-152807942D01*
%TO.C,C8*%
X136772142Y-143227000D02*
X136808428Y-143263285D01*
X136844714Y-143372142D01*
X136844714Y-143444714D01*
X136808428Y-143553571D01*
X136735857Y-143626142D01*
X136663285Y-143662428D01*
X136518142Y-143698714D01*
X136409285Y-143698714D01*
X136264142Y-143662428D01*
X136191571Y-143626142D01*
X136119000Y-143553571D01*
X136082714Y-143444714D01*
X136082714Y-143372142D01*
X136119000Y-143263285D01*
X136155285Y-143227000D01*
X136409285Y-142791571D02*
X136373000Y-142864142D01*
X136336714Y-142900428D01*
X136264142Y-142936714D01*
X136227857Y-142936714D01*
X136155285Y-142900428D01*
X136119000Y-142864142D01*
X136082714Y-142791571D01*
X136082714Y-142646428D01*
X136119000Y-142573857D01*
X136155285Y-142537571D01*
X136227857Y-142501285D01*
X136264142Y-142501285D01*
X136336714Y-142537571D01*
X136373000Y-142573857D01*
X136409285Y-142646428D01*
X136409285Y-142791571D01*
X136445571Y-142864142D01*
X136481857Y-142900428D01*
X136554428Y-142936714D01*
X136699571Y-142936714D01*
X136772142Y-142900428D01*
X136808428Y-142864142D01*
X136844714Y-142791571D01*
X136844714Y-142646428D01*
X136808428Y-142573857D01*
X136772142Y-142537571D01*
X136699571Y-142501285D01*
X136554428Y-142501285D01*
X136481857Y-142537571D01*
X136445571Y-142573857D01*
X136409285Y-142646428D01*
%TO.C,R4*%
X169352380Y-138466666D02*
X168876190Y-138800000D01*
X169352380Y-139038095D02*
X168352380Y-139038095D01*
X168352380Y-138657142D01*
X168400000Y-138561904D01*
X168447619Y-138514285D01*
X168542857Y-138466666D01*
X168685714Y-138466666D01*
X168780952Y-138514285D01*
X168828571Y-138561904D01*
X168876190Y-138657142D01*
X168876190Y-139038095D01*
X168685714Y-137609523D02*
X169352380Y-137609523D01*
X168304761Y-137847619D02*
X169019047Y-138085714D01*
X169019047Y-137466666D01*
D15*
%TO.C,TP3*%
X120138440Y-120834719D02*
X120573869Y-120834719D01*
X120356154Y-121596719D02*
X120356154Y-120834719D01*
X120827869Y-121596719D02*
X120827869Y-120834719D01*
X121118154Y-120834719D01*
X121190726Y-120871005D01*
X121227012Y-120907290D01*
X121263297Y-120979862D01*
X121263297Y-121088719D01*
X121227012Y-121161290D01*
X121190726Y-121197576D01*
X121118154Y-121233862D01*
X120827869Y-121233862D01*
X121517297Y-120834719D02*
X121989012Y-120834719D01*
X121735012Y-121125005D01*
X121843869Y-121125005D01*
X121916440Y-121161290D01*
X121952726Y-121197576D01*
X121989012Y-121270147D01*
X121989012Y-121451576D01*
X121952726Y-121524147D01*
X121916440Y-121560433D01*
X121843869Y-121596719D01*
X121626154Y-121596719D01*
X121553583Y-121560433D01*
X121517297Y-121524147D01*
D13*
%TO.C,R22*%
X128232142Y-130402380D02*
X127898809Y-129926190D01*
X127660714Y-130402380D02*
X127660714Y-129402380D01*
X128041666Y-129402380D01*
X128136904Y-129450000D01*
X128184523Y-129497619D01*
X128232142Y-129592857D01*
X128232142Y-129735714D01*
X128184523Y-129830952D01*
X128136904Y-129878571D01*
X128041666Y-129926190D01*
X127660714Y-129926190D01*
X128613095Y-129497619D02*
X128660714Y-129450000D01*
X128755952Y-129402380D01*
X128994047Y-129402380D01*
X129089285Y-129450000D01*
X129136904Y-129497619D01*
X129184523Y-129592857D01*
X129184523Y-129688095D01*
X129136904Y-129830952D01*
X128565476Y-130402380D01*
X129184523Y-130402380D01*
X129565476Y-129497619D02*
X129613095Y-129450000D01*
X129708333Y-129402380D01*
X129946428Y-129402380D01*
X130041666Y-129450000D01*
X130089285Y-129497619D01*
X130136904Y-129592857D01*
X130136904Y-129688095D01*
X130089285Y-129830952D01*
X129517857Y-130402380D01*
X130136904Y-130402380D01*
%TO.C,J2*%
X105366666Y-103602380D02*
X105366666Y-104316666D01*
X105319047Y-104459523D01*
X105223809Y-104554761D01*
X105080952Y-104602380D01*
X104985714Y-104602380D01*
X105795238Y-103697619D02*
X105842857Y-103650000D01*
X105938095Y-103602380D01*
X106176190Y-103602380D01*
X106271428Y-103650000D01*
X106319047Y-103697619D01*
X106366666Y-103792857D01*
X106366666Y-103888095D01*
X106319047Y-104030952D01*
X105747619Y-104602380D01*
X106366666Y-104602380D01*
D14*
%TO.C,U2*%
X182960000Y-134800000D02*
X182960000Y-131350000D01*
X177840000Y-134800000D02*
X177840000Y-132850000D01*
X177840000Y-134800000D02*
X177840000Y-136750000D01*
X182960000Y-134800000D02*
X182960000Y-136750000D01*
%TO.C,C5*%
X143740580Y-142285000D02*
X143459420Y-142285000D01*
X143740580Y-141265000D02*
X143459420Y-141265000D01*
%TO.C,R19*%
X138422500Y-120412258D02*
X138422500Y-119937742D01*
X137377500Y-120412258D02*
X137377500Y-119937742D01*
%TO.C,R17*%
X142562742Y-123822500D02*
X143037258Y-123822500D01*
X142562742Y-122777500D02*
X143037258Y-122777500D01*
%TO.C,U7*%
X143304100Y-153847700D02*
X143304100Y-153565200D01*
X148799100Y-148352700D02*
X148799100Y-148635200D01*
X146051600Y-153847700D02*
X143304100Y-153847700D01*
X148799100Y-153847700D02*
X148799100Y-153565200D01*
X146051600Y-153847700D02*
X148799100Y-153847700D01*
X143304100Y-148352700D02*
X143304100Y-148635200D01*
X143304100Y-148635200D02*
X141651600Y-148635200D01*
X146051600Y-148352700D02*
X143304100Y-148352700D01*
X146051600Y-148352700D02*
X148799100Y-148352700D01*
%TO.C,D7*%
X118360400Y-132055600D02*
X112960400Y-132055600D01*
X118360400Y-135355600D02*
X112960400Y-135355600D01*
X118360400Y-135355600D02*
X118360400Y-132055600D01*
%TO.C,R37*%
X136377500Y-114237258D02*
X136377500Y-113762742D01*
X137422500Y-114237258D02*
X137422500Y-113762742D01*
%TO.C,R23*%
X130820900Y-146046458D02*
X130820900Y-145571942D01*
X131865900Y-146046458D02*
X131865900Y-145571942D01*
%TO.C,D2*%
X130188000Y-157371800D02*
X130188000Y-157221800D01*
X134988000Y-157221800D02*
X134988000Y-157371800D01*
X134988000Y-153371800D02*
X134988000Y-153521800D01*
X134988000Y-157221800D02*
X136688000Y-157221800D01*
X130188000Y-153371800D02*
X134988000Y-153371800D01*
X134988000Y-157371800D02*
X130188000Y-157371800D01*
X130188000Y-153521800D02*
X130188000Y-153371800D01*
%TO.C,TP6*%
X142975000Y-144900000D02*
G75*
G03*
X142975000Y-144900000I-700000J0D01*
G01*
%TO.C,TP2*%
X115000000Y-121800000D02*
G75*
G03*
X115000000Y-121800000I-1500000J0D01*
G01*
%TO.C,TP7*%
X124800000Y-111950000D02*
G75*
G03*
X124800000Y-111950000I-700000J0D01*
G01*
%TO.C,U4*%
X127560000Y-126100000D02*
X127560000Y-125300000D01*
X124440000Y-126100000D02*
X124440000Y-125300000D01*
X127560000Y-126100000D02*
X127560000Y-126900000D01*
X124440000Y-126100000D02*
X124440000Y-127900000D01*
%TO.C,SW1*%
X134187000Y-109565000D02*
X134187000Y-105065000D01*
X127687000Y-105065000D02*
X127687000Y-109565000D01*
X131687000Y-103815000D02*
X130187000Y-103815000D01*
X130187000Y-110815000D02*
X131687000Y-110815000D01*
%TO.C,R34*%
X166272742Y-150836100D02*
X166747258Y-150836100D01*
X166272742Y-151881100D02*
X166747258Y-151881100D01*
%TO.C,C20*%
X141535000Y-132434420D02*
X141535000Y-132715580D01*
X140515000Y-132434420D02*
X140515000Y-132715580D01*
%TO.C,L2*%
X131800000Y-134557221D02*
X131800000Y-134882779D01*
X130780000Y-134557221D02*
X130780000Y-134882779D01*
%TO.C,C3*%
X120419400Y-116064420D02*
X120419400Y-116345580D01*
X121439400Y-116064420D02*
X121439400Y-116345580D01*
%TO.C,R27*%
X154362742Y-122372500D02*
X154837258Y-122372500D01*
X154362742Y-121327500D02*
X154837258Y-121327500D01*
%TO.C,C1*%
X183518000Y-146859000D02*
X180565000Y-146859000D01*
X178083000Y-146059000D02*
X174685000Y-146059000D01*
X178083000Y-146459000D02*
X174884000Y-146459000D01*
X178083000Y-146099000D02*
X174703000Y-146099000D01*
X178083000Y-146899000D02*
X175158000Y-146899000D01*
X184404000Y-143978000D02*
X174244000Y-143978000D01*
X184314000Y-144939000D02*
X174334000Y-144939000D01*
X184369000Y-144578000D02*
X174279000Y-144578000D01*
X178083000Y-147379000D02*
X175535000Y-147379000D01*
X181066000Y-148779000D02*
X177582000Y-148779000D01*
X178083000Y-146699000D02*
X175026000Y-146699000D01*
X178083000Y-147219000D02*
X175399000Y-147219000D01*
X184298000Y-145019000D02*
X174350000Y-145019000D01*
X180186000Y-149019000D02*
X178462000Y-149019000D01*
X184354000Y-144699000D02*
X174294000Y-144699000D01*
X178083000Y-145659000D02*
X174527000Y-145659000D01*
X182430000Y-148019000D02*
X176218000Y-148019000D01*
X178083000Y-146259000D02*
X174779000Y-146259000D01*
X178083000Y-147579000D02*
X175723000Y-147579000D01*
X183003000Y-147499000D02*
X180565000Y-147499000D01*
X178083000Y-147179000D02*
X175367000Y-147179000D01*
X184392000Y-144338000D02*
X174256000Y-144338000D01*
X184014000Y-145939000D02*
X180565000Y-145939000D01*
X183344000Y-147099000D02*
X180565000Y-147099000D01*
X178083000Y-147619000D02*
X175763000Y-147619000D01*
X178083000Y-146539000D02*
X174929000Y-146539000D01*
X178083000Y-145979000D02*
X174650000Y-145979000D01*
X184252000Y-145219000D02*
X174396000Y-145219000D01*
X184148000Y-145579000D02*
X180565000Y-145579000D01*
X178083000Y-147059000D02*
X175274000Y-147059000D01*
X184403000Y-144098000D02*
X174245000Y-144098000D01*
X184386000Y-144418000D02*
X174262000Y-144418000D01*
X183545000Y-146819000D02*
X180565000Y-146819000D01*
X183764000Y-146459000D02*
X180565000Y-146459000D01*
X183434000Y-146979000D02*
X180565000Y-146979000D01*
X178083000Y-146979000D02*
X175214000Y-146979000D01*
X182378000Y-148059000D02*
X176270000Y-148059000D01*
X181613000Y-148539000D02*
X177035000Y-148539000D01*
X184231000Y-145299000D02*
X180565000Y-145299000D01*
X183490000Y-146899000D02*
X180565000Y-146899000D01*
X181268000Y-148699000D02*
X177380000Y-148699000D01*
X178083000Y-145779000D02*
X174570000Y-145779000D01*
X183998000Y-145979000D02*
X180565000Y-145979000D01*
X180702000Y-148899000D02*
X177946000Y-148899000D01*
X184394000Y-144298000D02*
X174254000Y-144298000D01*
X178083000Y-145419000D02*
X174450000Y-145419000D01*
X183148000Y-147339000D02*
X180565000Y-147339000D01*
X182269000Y-148139000D02*
X176379000Y-148139000D01*
X184374000Y-144538000D02*
X174274000Y-144538000D01*
X183374000Y-147059000D02*
X180565000Y-147059000D01*
X178083000Y-146379000D02*
X174841000Y-146379000D01*
X183113000Y-147379000D02*
X180565000Y-147379000D01*
X183945000Y-146099000D02*
X180565000Y-146099000D01*
X178083000Y-145579000D02*
X174500000Y-145579000D01*
X183571000Y-146779000D02*
X180565000Y-146779000D01*
X183622000Y-146699000D02*
X180565000Y-146699000D01*
X178083000Y-146819000D02*
X175103000Y-146819000D01*
X182925000Y-147579000D02*
X180565000Y-147579000D01*
X182530000Y-147939000D02*
X176118000Y-147939000D01*
X178083000Y-147299000D02*
X175466000Y-147299000D01*
X183597000Y-146739000D02*
X180565000Y-146739000D01*
X179923000Y-149059000D02*
X178725000Y-149059000D01*
X178083000Y-147339000D02*
X175500000Y-147339000D01*
X181361000Y-148659000D02*
X177287000Y-148659000D01*
X183462000Y-146939000D02*
X180565000Y-146939000D01*
X182699000Y-138998354D02*
X181699000Y-138998354D01*
X183695000Y-146579000D02*
X180565000Y-146579000D01*
X178083000Y-146139000D02*
X174721000Y-146139000D01*
X180554000Y-148939000D02*
X178094000Y-148939000D01*
X178083000Y-145699000D02*
X174541000Y-145699000D01*
X184306000Y-144979000D02*
X174342000Y-144979000D01*
X181969000Y-148339000D02*
X176679000Y-148339000D01*
X178083000Y-146659000D02*
X175001000Y-146659000D01*
X183216000Y-147259000D02*
X180565000Y-147259000D01*
X184342000Y-144779000D02*
X174306000Y-144779000D01*
X183888000Y-146219000D02*
X180565000Y-146219000D01*
X183963000Y-146059000D02*
X180565000Y-146059000D01*
X184328000Y-144859000D02*
X174320000Y-144859000D01*
X178083000Y-146419000D02*
X174862000Y-146419000D01*
X184401000Y-144178000D02*
X174247000Y-144178000D01*
X178083000Y-145819000D02*
X174586000Y-145819000D01*
X184121000Y-145659000D02*
X180565000Y-145659000D01*
X184107000Y-145699000D02*
X180565000Y-145699000D01*
X184321000Y-144899000D02*
X174327000Y-144899000D01*
X178083000Y-147459000D02*
X175608000Y-147459000D01*
X182802000Y-147699000D02*
X180565000Y-147699000D01*
X184062000Y-145819000D02*
X180565000Y-145819000D01*
X181689000Y-148499000D02*
X176959000Y-148499000D01*
X183281000Y-147179000D02*
X180565000Y-147179000D01*
X183404000Y-147019000D02*
X180565000Y-147019000D01*
X178083000Y-146939000D02*
X175186000Y-146939000D01*
X182885000Y-147619000D02*
X180565000Y-147619000D01*
X178083000Y-146859000D02*
X175130000Y-146859000D01*
X184402000Y-144138000D02*
X174246000Y-144138000D01*
X183869000Y-146259000D02*
X180565000Y-146259000D01*
X184161000Y-145539000D02*
X180565000Y-145539000D01*
X184404000Y-144018000D02*
X174244000Y-144018000D01*
X178083000Y-147259000D02*
X175432000Y-147259000D01*
X182964000Y-147539000D02*
X180565000Y-147539000D01*
X184378000Y-144498000D02*
X174270000Y-144498000D01*
X178083000Y-145539000D02*
X174487000Y-145539000D01*
X181763000Y-148459000D02*
X176885000Y-148459000D01*
X178083000Y-146019000D02*
X174667000Y-146019000D01*
X184078000Y-145779000D02*
X180565000Y-145779000D01*
X178083000Y-147099000D02*
X175304000Y-147099000D01*
X178083000Y-146779000D02*
X175077000Y-146779000D01*
X178083000Y-145619000D02*
X174513000Y-145619000D01*
X183908000Y-146179000D02*
X180565000Y-146179000D01*
X182844000Y-147659000D02*
X180565000Y-147659000D01*
X184209000Y-145379000D02*
X180565000Y-145379000D01*
X182480000Y-147979000D02*
X176168000Y-147979000D01*
X183040000Y-147459000D02*
X180565000Y-147459000D01*
X183828000Y-146339000D02*
X180565000Y-146339000D01*
X184397000Y-144258000D02*
X174251000Y-144258000D01*
X180386000Y-148979000D02*
X178262000Y-148979000D01*
X184135000Y-145619000D02*
X180565000Y-145619000D01*
X184404000Y-144058000D02*
X174244000Y-144058000D01*
X178083000Y-146499000D02*
X174907000Y-146499000D01*
X183671000Y-146619000D02*
X180565000Y-146619000D01*
X178083000Y-145459000D02*
X174462000Y-145459000D01*
X181903000Y-148379000D02*
X176745000Y-148379000D01*
X182033000Y-148299000D02*
X176615000Y-148299000D01*
X178083000Y-145739000D02*
X174556000Y-145739000D01*
X180834000Y-148859000D02*
X177814000Y-148859000D01*
X178083000Y-147019000D02*
X175244000Y-147019000D01*
X178083000Y-145299000D02*
X174417000Y-145299000D01*
X178083000Y-147139000D02*
X175335000Y-147139000D01*
X180954000Y-148819000D02*
X177694000Y-148819000D01*
X182094000Y-148259000D02*
X176554000Y-148259000D01*
X184031000Y-145899000D02*
X180565000Y-145899000D01*
X184335000Y-144819000D02*
X174313000Y-144819000D01*
X178083000Y-147659000D02*
X175804000Y-147659000D01*
X178083000Y-145499000D02*
X174474000Y-145499000D01*
X184382000Y-144458000D02*
X174266000Y-144458000D01*
X178083000Y-147539000D02*
X175684000Y-147539000D01*
X184047000Y-145859000D02*
X180565000Y-145859000D01*
X181170000Y-148739000D02*
X177478000Y-148739000D01*
X178083000Y-145899000D02*
X174617000Y-145899000D01*
X183249000Y-147219000D02*
X180565000Y-147219000D01*
X178083000Y-145939000D02*
X174634000Y-145939000D01*
X183981000Y-146019000D02*
X180565000Y-146019000D01*
X184242000Y-145259000D02*
X180565000Y-145259000D01*
X178083000Y-145859000D02*
X174601000Y-145859000D01*
X183807000Y-146379000D02*
X180565000Y-146379000D01*
X184186000Y-145459000D02*
X180565000Y-145459000D01*
X183077000Y-147419000D02*
X180565000Y-147419000D01*
X184092000Y-145739000D02*
X180565000Y-145739000D01*
X183741000Y-146499000D02*
X180565000Y-146499000D01*
X178083000Y-145259000D02*
X174406000Y-145259000D01*
X181834000Y-148419000D02*
X176814000Y-148419000D01*
X182213000Y-148179000D02*
X176435000Y-148179000D01*
X178083000Y-147699000D02*
X175846000Y-147699000D01*
X178083000Y-146179000D02*
X174740000Y-146179000D01*
X184359000Y-144658000D02*
X174289000Y-144658000D01*
X184364000Y-144618000D02*
X174284000Y-144618000D01*
X182324000Y-148099000D02*
X176324000Y-148099000D01*
X184262000Y-145179000D02*
X174386000Y-145179000D01*
X182625000Y-147859000D02*
X176023000Y-147859000D01*
X182716000Y-147779000D02*
X175932000Y-147779000D01*
X178083000Y-146579000D02*
X174953000Y-146579000D01*
X183786000Y-146419000D02*
X180565000Y-146419000D01*
X182760000Y-147739000D02*
X175888000Y-147739000D01*
X183182000Y-147299000D02*
X180565000Y-147299000D01*
X182671000Y-147819000D02*
X175977000Y-147819000D01*
X184221000Y-145339000D02*
X180565000Y-145339000D01*
X178083000Y-146619000D02*
X174977000Y-146619000D01*
X178083000Y-146219000D02*
X174760000Y-146219000D01*
X184280000Y-145099000D02*
X174368000Y-145099000D01*
X183719000Y-146539000D02*
X180565000Y-146539000D01*
X182154000Y-148219000D02*
X176494000Y-148219000D01*
X183647000Y-146659000D02*
X180565000Y-146659000D01*
X181449000Y-148619000D02*
X177199000Y-148619000D01*
X184289000Y-145059000D02*
X174359000Y-145059000D01*
X184198000Y-145419000D02*
X180565000Y-145419000D01*
X178083000Y-145379000D02*
X174439000Y-145379000D01*
X178083000Y-146299000D02*
X174799000Y-146299000D01*
X178083000Y-147499000D02*
X175645000Y-147499000D01*
X181533000Y-148579000D02*
X177115000Y-148579000D01*
X178083000Y-147419000D02*
X175571000Y-147419000D01*
X178083000Y-146339000D02*
X174820000Y-146339000D01*
X182199000Y-138498354D02*
X182199000Y-139498354D01*
X182578000Y-147899000D02*
X176070000Y-147899000D01*
X184174000Y-145499000D02*
X180565000Y-145499000D01*
X184389000Y-144378000D02*
X174259000Y-144378000D01*
X184399000Y-144218000D02*
X174249000Y-144218000D01*
X178083000Y-146739000D02*
X175051000Y-146739000D01*
X183927000Y-146139000D02*
X180565000Y-146139000D01*
X184348000Y-144739000D02*
X174300000Y-144739000D01*
X183313000Y-147139000D02*
X180565000Y-147139000D01*
X178083000Y-145339000D02*
X174427000Y-145339000D01*
X183849000Y-146299000D02*
X180565000Y-146299000D01*
X184271000Y-145139000D02*
X174377000Y-145139000D01*
X184444000Y-143978000D02*
G75*
G03*
X184444000Y-143978000I-5120000J0D01*
G01*
%TO.C,C26*%
X133649420Y-136010000D02*
X133930580Y-136010000D01*
X133649420Y-134990000D02*
X133930580Y-134990000D01*
%TO.C,R18*%
X142562742Y-121177500D02*
X143037258Y-121177500D01*
X142562742Y-122222500D02*
X143037258Y-122222500D01*
%TO.C,R32*%
X140552700Y-150410142D02*
X140552700Y-150884658D01*
X139507700Y-150410142D02*
X139507700Y-150884658D01*
%TO.C,R7*%
X117677500Y-141862742D02*
X117677500Y-142337258D01*
X118722500Y-141862742D02*
X118722500Y-142337258D01*
%TO.C,TP12*%
X168700000Y-143400000D02*
G75*
G03*
X168700000Y-143400000I-700000J0D01*
G01*
%TO.C,R26*%
X130770100Y-138332942D02*
X130770100Y-138807458D01*
X131815100Y-138332942D02*
X131815100Y-138807458D01*
%TO.C,R16*%
X138977500Y-119937742D02*
X138977500Y-120412258D01*
X140022500Y-119937742D02*
X140022500Y-120412258D01*
%TO.C,D6*%
X164750000Y-147260000D02*
X164750000Y-141860000D01*
X161450000Y-147260000D02*
X161450000Y-141860000D01*
X161450000Y-147260000D02*
X164750000Y-147260000D01*
%TO.C,R39*%
X158840700Y-152078458D02*
X158840700Y-151603942D01*
X157795700Y-152078458D02*
X157795700Y-151603942D01*
%TO.C,J5*%
X101285000Y-123865000D02*
X100545000Y-123865000D01*
X100545000Y-123865000D02*
X100545000Y-124365000D01*
X110706000Y-134385000D02*
X100785000Y-134385000D01*
X101345000Y-124105000D02*
X101345000Y-134385000D01*
X110706000Y-124105000D02*
X110706000Y-134385000D01*
X104206000Y-130751000D02*
X104171000Y-130716000D01*
X106720000Y-132855000D02*
X106684000Y-132820000D01*
X104422000Y-130558000D02*
X104376000Y-130511000D01*
X106514000Y-133060000D02*
X106468000Y-133013000D01*
X102845000Y-124105000D02*
X102845000Y-134385000D01*
X100785000Y-124105000D02*
X100785000Y-134385000D01*
X110706000Y-124105000D02*
X100785000Y-124105000D01*
X107746000Y-124105000D02*
X107746000Y-134385000D01*
X106129000Y-125170000D02*
G75*
G03*
X104761958Y-125169573I-684001J-1534993D01*
G01*
X103765000Y-126705000D02*
G75*
G03*
X103910244Y-127388318I1680000J0D01*
G01*
X104761000Y-128240001D02*
G75*
G03*
X106128042Y-128240427I684000J1535001D01*
G01*
X106980000Y-127389000D02*
G75*
G03*
X106980427Y-126021958I-1534993J684001D01*
G01*
X103910000Y-126021000D02*
G75*
G03*
X103764747Y-126733805I1535001J-683999D01*
G01*
X107125000Y-131785000D02*
G75*
G03*
X107125000Y-131785000I-1680000J0D01*
G01*
%TO.C,C11*%
X164259420Y-137510000D02*
X164540580Y-137510000D01*
X164259420Y-136490000D02*
X164540580Y-136490000D01*
%TO.C,R21*%
X118392742Y-151537500D02*
X118867258Y-151537500D01*
X118392742Y-152582500D02*
X118867258Y-152582500D01*
%TO.C,R5*%
X166777500Y-141037258D02*
X166777500Y-140562742D01*
X167822500Y-141037258D02*
X167822500Y-140562742D01*
%TO.C,JP1*%
X151336200Y-157438600D02*
X148536200Y-157438600D01*
X151336200Y-155438600D02*
X151336200Y-157438600D01*
X148536200Y-155438600D02*
X151336200Y-155438600D01*
X148536200Y-157438600D02*
X148536200Y-155438600D01*
%TO.C,TP5*%
X152800000Y-148975000D02*
G75*
G03*
X152800000Y-148975000I-700000J0D01*
G01*
%TO.C,C35*%
X166426548Y-147042200D02*
X166949052Y-147042200D01*
X166426548Y-148512200D02*
X166949052Y-148512200D01*
%TO.C,D5*%
X165020200Y-157174200D02*
X159620200Y-157174200D01*
X165020200Y-157174200D02*
X165020200Y-153874200D01*
X165020200Y-153874200D02*
X159620200Y-153874200D01*
%TO.C,C4*%
X122302600Y-116121548D02*
X122302600Y-116644052D01*
X123772600Y-116121548D02*
X123772600Y-116644052D01*
%TO.C,C29*%
X154877380Y-151538400D02*
X154596220Y-151538400D01*
X154877380Y-150518400D02*
X154596220Y-150518400D01*
%TO.C,R28*%
X142262742Y-116922500D02*
X142737258Y-116922500D01*
X142262742Y-115877500D02*
X142737258Y-115877500D01*
%TO.C,D4*%
X153885000Y-142165000D02*
X151600000Y-142165000D01*
X153885000Y-143635000D02*
X153885000Y-142165000D01*
X151600000Y-143635000D02*
X153885000Y-143635000D01*
%TO.C,D1*%
X172940000Y-135075000D02*
X172940000Y-135725000D01*
X176060000Y-135075000D02*
X176060000Y-133400000D01*
X176060000Y-135075000D02*
X176060000Y-135725000D01*
X172940000Y-135075000D02*
X172940000Y-134425000D01*
%TO.C,SW2*%
X138387000Y-110815000D02*
X139887000Y-110815000D01*
X142387000Y-109565000D02*
X142387000Y-105065000D01*
X139887000Y-103815000D02*
X138387000Y-103815000D01*
X135887000Y-105065000D02*
X135887000Y-109565000D01*
%TO.C,C7*%
X156059420Y-145210000D02*
X156340580Y-145210000D01*
X156059420Y-144190000D02*
X156340580Y-144190000D01*
%TO.C,R11*%
X142737258Y-115222500D02*
X142262742Y-115222500D01*
X142737258Y-114177500D02*
X142262742Y-114177500D01*
%TO.C,C21*%
X134590000Y-132540580D02*
X134590000Y-132259420D01*
X135610000Y-132540580D02*
X135610000Y-132259420D01*
%TO.C,C32*%
X153392600Y-154446180D02*
X153392600Y-154165020D01*
X152372600Y-154446180D02*
X152372600Y-154165020D01*
%TO.C,D8*%
X122223800Y-128299000D02*
X122223800Y-133699000D01*
X122223800Y-128299000D02*
X118923800Y-128299000D01*
X118923800Y-128299000D02*
X118923800Y-133699000D01*
%TO.C,L3*%
X164496800Y-153468600D02*
X160496800Y-153468600D01*
X160496800Y-149248600D02*
X164496800Y-149248600D01*
%TO.C,TP11*%
X155800000Y-113700000D02*
G75*
G03*
X155800000Y-113700000I-700000J0D01*
G01*
%TO.C,R35*%
X169396942Y-152360100D02*
X169871458Y-152360100D01*
X169396942Y-153405100D02*
X169871458Y-153405100D01*
%TO.C,R31*%
X145547500Y-156187258D02*
X145547500Y-155712742D01*
X144502500Y-156187258D02*
X144502500Y-155712742D01*
%TO.C,C33*%
X166369420Y-149248400D02*
X166650580Y-149248400D01*
X166369420Y-150268400D02*
X166650580Y-150268400D01*
%TO.C,R24*%
X132548100Y-144657542D02*
X132548100Y-145132058D01*
X133593100Y-144657542D02*
X133593100Y-145132058D01*
%TO.C,R29*%
X147147500Y-156187258D02*
X147147500Y-155712742D01*
X146102500Y-156187258D02*
X146102500Y-155712742D01*
%TO.C,C6*%
X139790000Y-145540580D02*
X139790000Y-145259420D01*
X140810000Y-145540580D02*
X140810000Y-145259420D01*
%TO.C,Y2*%
X145250000Y-136675000D02*
X141950000Y-136675000D01*
X141950000Y-136675000D02*
X141950000Y-140675000D01*
%TO.C,U6*%
X159540000Y-123820000D02*
X177540000Y-123820000D01*
X159540000Y-105820000D02*
X159540000Y-123820000D01*
X179040000Y-125820000D02*
X179040000Y-103820000D01*
X157040000Y-103820000D02*
X157040000Y-125820000D01*
X157040000Y-125820000D02*
X179040000Y-125820000D01*
X179040000Y-103820000D02*
X157040000Y-103820000D01*
X177540000Y-123820000D02*
X177540000Y-105820000D01*
X177540000Y-105820000D02*
X159540000Y-105820000D01*
%TO.C,C12*%
X159559420Y-140910000D02*
X159840580Y-140910000D01*
X159559420Y-139890000D02*
X159840580Y-139890000D01*
%TO.C,C30*%
X154877380Y-149963600D02*
X154596220Y-149963600D01*
X154877380Y-148943600D02*
X154596220Y-148943600D01*
%TO.C,C25*%
X133659420Y-136570000D02*
X133940580Y-136570000D01*
X133659420Y-137590000D02*
X133940580Y-137590000D01*
%TO.C,C14*%
X153290000Y-145359420D02*
X153290000Y-145640580D01*
X154310000Y-145359420D02*
X154310000Y-145640580D01*
%TO.C,R8*%
X142737258Y-130372500D02*
X142262742Y-130372500D01*
X142737258Y-129327500D02*
X142262742Y-129327500D01*
%TO.C,IC1*%
X135090000Y-124690000D02*
X135565000Y-124690000D01*
X135090000Y-125165000D02*
X135090000Y-124690000D01*
X135090000Y-128435000D02*
X135090000Y-128910000D01*
X139310000Y-128435000D02*
X139310000Y-128910000D01*
X139310000Y-125165000D02*
X139310000Y-124690000D01*
X139310000Y-128910000D02*
X138835000Y-128910000D01*
X139310000Y-124690000D02*
X138835000Y-124690000D01*
%TO.C,IC2*%
X163600000Y-119300000D02*
X163600000Y-110300000D01*
X161350000Y-122550000D02*
X163330000Y-122550000D01*
X174600000Y-110300000D02*
X174600000Y-119300000D01*
X164600000Y-109300000D02*
X173600000Y-109300000D01*
X173600000Y-120300000D02*
X164600000Y-120300000D01*
X163330000Y-122550000D02*
X163330000Y-124560000D01*
X161350000Y-120490000D02*
X161350000Y-122550000D01*
X174600000Y-110300000D02*
G75*
G03*
X173600000Y-109300000I-1000000J0D01*
G01*
X173600000Y-120300000D02*
G75*
G03*
X174600000Y-119300000I0J1000000D01*
G01*
X163600000Y-119300000D02*
G75*
G03*
X164600000Y-120300000I999999J-1D01*
G01*
X164600000Y-109300000D02*
G75*
G03*
X163600000Y-110300000I-1J-999999D01*
G01*
%TO.C,TP10*%
X155800000Y-108500000D02*
G75*
G03*
X155800000Y-108500000I-700000J0D01*
G01*
%TO.C,C18*%
X166959420Y-127385000D02*
X167240580Y-127385000D01*
X166959420Y-126365000D02*
X167240580Y-126365000D01*
%TO.C,TP4*%
X147700000Y-143300000D02*
G75*
G03*
X147700000Y-143300000I-700000J0D01*
G01*
%TO.C,C34*%
X166379420Y-146410000D02*
X166660580Y-146410000D01*
X166379420Y-145390000D02*
X166660580Y-145390000D01*
%TO.C,R3*%
X151322500Y-145437258D02*
X151322500Y-144962742D01*
X150277500Y-145437258D02*
X150277500Y-144962742D01*
%TO.C,D9*%
X115700600Y-127888000D02*
X121100600Y-127888000D01*
X115700600Y-124588000D02*
X121100600Y-124588000D01*
X115700600Y-124588000D02*
X115700600Y-127888000D01*
%TO.C,J3*%
X116735000Y-155865000D02*
X116735000Y-139135000D01*
X107675000Y-156560000D02*
X108175000Y-156060000D01*
X116735000Y-139135000D02*
X111175000Y-139135000D01*
X116735000Y-155865000D02*
X111175000Y-155865000D01*
X108175000Y-156060000D02*
X108675000Y-156560000D01*
X108375000Y-155865000D02*
X111175000Y-155865000D01*
X108375000Y-139135000D02*
X111175000Y-139135000D01*
X100765000Y-155865000D02*
X100765000Y-139135000D01*
X100765000Y-139135000D02*
X108375000Y-139135000D01*
X108675000Y-156560000D02*
X107675000Y-156560000D01*
X100765000Y-155865000D02*
X108375000Y-155865000D01*
%TO.C,R14*%
X148067742Y-122822500D02*
X148542258Y-122822500D01*
X148067742Y-121777500D02*
X148542258Y-121777500D01*
%TO.C,C22*%
X133140580Y-123990000D02*
X132859420Y-123990000D01*
X133140580Y-125010000D02*
X132859420Y-125010000D01*
%TO.C,J1*%
X119177500Y-117160000D02*
X119177500Y-104840000D01*
X114917500Y-117160000D02*
X119177500Y-117160000D01*
X119897500Y-112750000D02*
X119897500Y-111750000D01*
X110817500Y-117160000D02*
X102457500Y-117160000D01*
X119177500Y-104840000D02*
X114917500Y-104840000D01*
X119397500Y-112250000D02*
X119897500Y-112750000D01*
X102457500Y-117160000D02*
X102457500Y-104840000D01*
X102457500Y-104840000D02*
X110817500Y-104840000D01*
X119897500Y-111750000D02*
X119397500Y-112250000D01*
%TO.C,TP13*%
X173580000Y-143300000D02*
G75*
G03*
X173580000Y-143300000I-700000J0D01*
G01*
%TO.C,L1*%
X121439400Y-113167379D02*
X121439400Y-112841821D01*
X120419400Y-113167379D02*
X120419400Y-112841821D01*
%TO.C,R15*%
X148062742Y-124422500D02*
X148537258Y-124422500D01*
X148062742Y-123377500D02*
X148537258Y-123377500D01*
%TO.C,C15*%
X166959420Y-127965000D02*
X167240580Y-127965000D01*
X166959420Y-128985000D02*
X167240580Y-128985000D01*
%TO.C,R2*%
X171977500Y-140537258D02*
X171977500Y-140062742D01*
X173022500Y-140537258D02*
X173022500Y-140062742D01*
%TO.C,TP9*%
X155800000Y-106000000D02*
G75*
G03*
X155800000Y-106000000I-700000J0D01*
G01*
%TO.C,R33*%
X137907500Y-150884658D02*
X137907500Y-150410142D01*
X138952500Y-150884658D02*
X138952500Y-150410142D01*
%TO.C,R9*%
X142737258Y-127777500D02*
X142262742Y-127777500D01*
X142737258Y-128822500D02*
X142262742Y-128822500D01*
%TO.C,Y1*%
X180055000Y-127175000D02*
X180055000Y-126675000D01*
X183655000Y-127175000D02*
X180055000Y-127175000D01*
X181255000Y-127175000D02*
X180585000Y-128575000D01*
X182455000Y-127175000D02*
X183125000Y-128575000D01*
X183655000Y-126675000D02*
X183655000Y-127175000D01*
X180585000Y-128575000D02*
X180585000Y-129275000D01*
X183125000Y-128575000D02*
X183125000Y-129275000D01*
%TO.C,C10*%
X162659420Y-139060000D02*
X162940580Y-139060000D01*
X162659420Y-138040000D02*
X162940580Y-138040000D01*
%TO.C,T1*%
X129249400Y-135717000D02*
X129249400Y-137152000D01*
X129249400Y-135717000D02*
X120229400Y-135717000D01*
X120229400Y-135717000D02*
X120229400Y-137152000D01*
X129239400Y-148637000D02*
X120239400Y-148637000D01*
X129249400Y-148637000D02*
X129249400Y-147202000D01*
X129249400Y-147202000D02*
X130019400Y-147202000D01*
X120229400Y-148637000D02*
X120229400Y-147202000D01*
%TO.C,C28*%
X137920000Y-153899780D02*
X137920000Y-153618620D01*
X138940000Y-153899780D02*
X138940000Y-153618620D01*
%TO.C,C24*%
X136735000Y-120236252D02*
X136735000Y-119713748D01*
X135265000Y-120236252D02*
X135265000Y-119713748D01*
%TO.C,R30*%
X142205942Y-156478500D02*
X142680458Y-156478500D01*
X142205942Y-155433500D02*
X142680458Y-155433500D01*
%TO.C,C2*%
X140290000Y-138234420D02*
X140290000Y-138515580D01*
X141310000Y-138234420D02*
X141310000Y-138515580D01*
%TO.C,R13*%
X128477500Y-115762742D02*
X128477500Y-116237258D01*
X129522500Y-115762742D02*
X129522500Y-116237258D01*
%TO.C,C19*%
X143135000Y-132859420D02*
X143135000Y-133140580D01*
X142115000Y-132859420D02*
X142115000Y-133140580D01*
%TO.C,C31*%
X156145620Y-147368800D02*
X156426780Y-147368800D01*
X156145620Y-148388800D02*
X156426780Y-148388800D01*
%TO.C,J6*%
X176269800Y-157286000D02*
X176269800Y-154626000D01*
X168589800Y-157286000D02*
X168589800Y-154626000D01*
X168589800Y-157286000D02*
X176269800Y-157286000D01*
X167319800Y-157286000D02*
X165989800Y-157286000D01*
X168589800Y-154626000D02*
X176269800Y-154626000D01*
X165989800Y-157286000D02*
X165989800Y-155956000D01*
%TO.C,TP8*%
X121775000Y-109250000D02*
G75*
G03*
X121775000Y-109250000I-700000J0D01*
G01*
%TO.C,R38*%
X139507700Y-153585142D02*
X139507700Y-154059658D01*
X140552700Y-153585142D02*
X140552700Y-154059658D01*
%TO.C,Q2*%
X156010000Y-118750000D02*
X156010000Y-118100000D01*
X156010000Y-118750000D02*
X156010000Y-119400000D01*
X152890000Y-118750000D02*
X152890000Y-120425000D01*
X152890000Y-118750000D02*
X152890000Y-118100000D01*
%TO.C,U1*%
X156810000Y-133440000D02*
X156810000Y-132790000D01*
X149590000Y-139360000D02*
X149590000Y-140010000D01*
X149590000Y-133440000D02*
X149590000Y-132790000D01*
X156810000Y-139360000D02*
X156810000Y-140010000D01*
X156810000Y-140010000D02*
X156160000Y-140010000D01*
X149590000Y-140010000D02*
X150240000Y-140010000D01*
X149590000Y-132790000D02*
X150240000Y-132790000D01*
%TO.C,R25*%
X133542300Y-139671058D02*
X133542300Y-139196542D01*
X132497300Y-139671058D02*
X132497300Y-139196542D01*
%TO.C,R20*%
X117677500Y-144952742D02*
X117677500Y-145427258D01*
X118722500Y-144952742D02*
X118722500Y-145427258D01*
%TO.C,R1*%
X145677500Y-138137742D02*
X145677500Y-138612258D01*
X146722500Y-138137742D02*
X146722500Y-138612258D01*
%TO.C,R6*%
X117587500Y-155431258D02*
X117587500Y-154956742D01*
X118632500Y-155431258D02*
X118632500Y-154956742D01*
%TO.C,C27*%
X134365000Y-145259420D02*
X134365000Y-145540580D01*
X135385000Y-145259420D02*
X135385000Y-145540580D01*
%TO.C,Y3*%
X140100000Y-130900000D02*
X136100000Y-130900000D01*
X140100000Y-134200000D02*
X140100000Y-130900000D01*
%TO.C,R12*%
X126777500Y-115762742D02*
X126777500Y-116237258D01*
X127822500Y-115762742D02*
X127822500Y-116237258D01*
%TO.C,R10*%
X142462742Y-124377500D02*
X142937258Y-124377500D01*
X142462742Y-125422500D02*
X142937258Y-125422500D01*
%TO.C,C23*%
X133590000Y-120315580D02*
X133590000Y-120034420D01*
X134610000Y-120315580D02*
X134610000Y-120034420D01*
%TO.C,C13*%
X170390000Y-140159420D02*
X170390000Y-140440580D01*
X171410000Y-140159420D02*
X171410000Y-140440580D01*
%TO.C,J4*%
X147345000Y-103070000D02*
X152485000Y-103070000D01*
X146075000Y-105730000D02*
X144745000Y-105730000D01*
X147345000Y-105730000D02*
X147345000Y-103070000D01*
X147345000Y-105730000D02*
X152485000Y-105730000D01*
X152485000Y-105730000D02*
X152485000Y-103070000D01*
X144745000Y-105730000D02*
X144745000Y-104400000D01*
%TO.C,C16*%
X142359420Y-127010000D02*
X142640580Y-127010000D01*
X142359420Y-125990000D02*
X142640580Y-125990000D01*
%TO.C,U5*%
X163800000Y-135022500D02*
X166547500Y-135022500D01*
X163800000Y-135022500D02*
X161052500Y-135022500D01*
X166547500Y-129527500D02*
X166547500Y-129810000D01*
X166547500Y-135022500D02*
X166547500Y-134740000D01*
X161052500Y-129810000D02*
X159400000Y-129810000D01*
X161052500Y-135022500D02*
X161052500Y-134740000D01*
X163800000Y-129527500D02*
X161052500Y-129527500D01*
X161052500Y-129527500D02*
X161052500Y-129810000D01*
X163800000Y-129527500D02*
X166547500Y-129527500D01*
%TO.C,C17*%
X143715000Y-132859420D02*
X143715000Y-133140580D01*
X144735000Y-132859420D02*
X144735000Y-133140580D01*
%TO.C,U8*%
X153964200Y-153937600D02*
X153964200Y-155737600D01*
X157084200Y-153937600D02*
X157084200Y-154737600D01*
X153964200Y-153937600D02*
X153964200Y-153137600D01*
X157084200Y-153937600D02*
X157084200Y-153137600D01*
%TO.C,F1*%
X115121000Y-127442548D02*
X115121000Y-130215052D01*
X111701000Y-127442548D02*
X111701000Y-130215052D01*
%TO.C,C9*%
X146340580Y-145610000D02*
X146059420Y-145610000D01*
X146340580Y-144590000D02*
X146059420Y-144590000D01*
%TO.C,D3*%
X134988000Y-152929200D02*
X136688000Y-152929200D01*
X134988000Y-152929200D02*
X134988000Y-153079200D01*
X134988000Y-149079200D02*
X134988000Y-149229200D01*
X130188000Y-149079200D02*
X134988000Y-149079200D01*
X130188000Y-149229200D02*
X130188000Y-149079200D01*
X130188000Y-153079200D02*
X130188000Y-152929200D01*
X134988000Y-153079200D02*
X130188000Y-153079200D01*
%TO.C,C8*%
X137010000Y-145259420D02*
X137010000Y-145540580D01*
X135990000Y-145259420D02*
X135990000Y-145540580D01*
%TO.C,R4*%
X169422500Y-141037258D02*
X169422500Y-140562742D01*
X168377500Y-141037258D02*
X168377500Y-140562742D01*
%TO.C,TP3*%
X121800000Y-122700000D02*
G75*
G03*
X121800000Y-122700000I-700000J0D01*
G01*
%TO.C,TP1*%
X148000000Y-114925000D02*
G75*
G03*
X148000000Y-114925000I-1500000J0D01*
G01*
%TO.C,R22*%
X132012258Y-129427500D02*
X131537742Y-129427500D01*
X132012258Y-130472500D02*
X131537742Y-130472500D01*
%TO.C,J2*%
X109735000Y-113050000D02*
X109735000Y-114200000D01*
X107425000Y-114960000D02*
X104825000Y-114960000D01*
X109735000Y-107800000D02*
X109735000Y-108950000D01*
X109735000Y-108950000D02*
X110325000Y-108950000D01*
X100265000Y-114960000D02*
X101925000Y-114960000D01*
X101925000Y-107040000D02*
X100265000Y-107040000D01*
X104825000Y-107040000D02*
X107425000Y-107040000D01*
X100265000Y-107040000D02*
X100265000Y-114960000D01*
X110325000Y-108950000D02*
X110325000Y-109650000D01*
%TD*%
M02*
