%TF.GenerationSoftware,KiCad,Pcbnew,(6.0.4)*%
%TF.CreationDate,2022-04-11T12:28:49+02:00*%
%TF.ProjectId,PSE_RP2040,5053455f-5250-4323-9034-302e6b696361,rev?*%
%TF.SameCoordinates,Original*%
%TF.FileFunction,Paste,Top*%
%TF.FilePolarity,Positive*%
%FSLAX46Y46*%
G04 Gerber Fmt 4.6, Leading zero omitted, Abs format (unit mm)*
G04 Created by KiCad (PCBNEW (6.0.4)) date 2022-04-11 12:28:49*
%MOMM*%
%LPD*%
G01*
G04 APERTURE LIST*
G04 Aperture macros list*
%AMRoundRect*
0 Rectangle with rounded corners*
0 $1 Rounding radius*
0 $2 $3 $4 $5 $6 $7 $8 $9 X,Y pos of 4 corners*
0 Add a 4 corners polygon primitive as box body*
4,1,4,$2,$3,$4,$5,$6,$7,$8,$9,$2,$3,0*
0 Add four circle primitives for the rounded corners*
1,1,$1+$1,$2,$3*
1,1,$1+$1,$4,$5*
1,1,$1+$1,$6,$7*
1,1,$1+$1,$8,$9*
0 Add four rect primitives between the rounded corners*
20,1,$1+$1,$2,$3,$4,$5,0*
20,1,$1+$1,$4,$5,$6,$7,0*
20,1,$1+$1,$6,$7,$8,$9,0*
20,1,$1+$1,$8,$9,$2,$3,0*%
%AMFreePoly0*
4,1,57,0.211049,0.458455,0.230584,0.458455,0.247503,0.448687,0.266375,0.443630,0.280190,0.429815,0.297109,0.420047,0.420048,0.297109,0.429817,0.280188,0.443630,0.266375,0.448687,0.247504,0.458455,0.230584,0.458455,0.211049,0.463512,0.192176,0.463512,-0.192176,0.458455,-0.211049,0.458455,-0.230584,0.448687,-0.247504,0.443630,-0.266375,0.429817,-0.280188,0.420048,-0.297109,
0.297109,-0.420047,0.280190,-0.429815,0.266375,-0.443630,0.247503,-0.448687,0.230584,-0.458455,0.211049,-0.458455,0.192176,-0.463512,-0.192176,-0.463512,-0.211049,-0.458455,-0.230584,-0.458455,-0.247504,-0.448687,-0.266375,-0.443630,-0.280188,-0.429817,-0.297109,-0.420048,-0.420047,-0.297109,-0.429815,-0.280190,-0.443630,-0.266375,-0.448687,-0.247503,-0.458455,-0.230584,-0.458455,-0.211049,
-0.463512,-0.192176,-0.463512,0.192176,-0.458455,0.211049,-0.458455,0.230584,-0.448687,0.247503,-0.443630,0.266375,-0.429815,0.280190,-0.420047,0.297109,-0.297109,0.420048,-0.280188,0.429817,-0.266375,0.443630,-0.247504,0.448687,-0.230584,0.458455,-0.211049,0.458455,-0.192176,0.463512,0.192176,0.463512,0.211049,0.458455,0.211049,0.458455,$1*%
G04 Aperture macros list end*
%TA.AperFunction,Profile*%
%ADD10C,0.150000*%
%TD*%
%TA.AperFunction,Profile*%
%ADD11C,0.100000*%
%TD*%
%ADD12C,0.120000*%
%ADD13RoundRect,0.225000X0.250000X-0.225000X0.250000X0.225000X-0.250000X0.225000X-0.250000X-0.225000X0*%
%ADD14RoundRect,0.200000X0.275000X-0.200000X0.275000X0.200000X-0.275000X0.200000X-0.275000X-0.200000X0*%
%ADD15RoundRect,0.200000X-0.200000X-0.275000X0.200000X-0.275000X0.200000X0.275000X-0.200000X0.275000X0*%
%ADD16RoundRect,0.150000X-0.650000X-0.150000X0.650000X-0.150000X0.650000X0.150000X-0.650000X0.150000X0*%
%ADD17R,2.500000X1.800000*%
%ADD18R,2.000000X0.640000*%
%ADD19RoundRect,0.150000X0.150000X-0.512500X0.150000X0.512500X-0.150000X0.512500X-0.150000X-0.512500X0*%
%ADD20RoundRect,0.225000X-0.250000X0.225000X-0.250000X-0.225000X0.250000X-0.225000X0.250000X0.225000X0*%
%ADD21RoundRect,0.218750X-0.256250X0.218750X-0.256250X-0.218750X0.256250X-0.218750X0.256250X0.218750X0*%
%ADD22RoundRect,0.225000X-0.225000X-0.250000X0.225000X-0.250000X0.225000X0.250000X-0.225000X0.250000X0*%
%ADD23RoundRect,0.200000X-0.275000X0.200000X-0.275000X-0.200000X0.275000X-0.200000X0.275000X0.200000X0*%
%ADD24R,1.800000X2.500000*%
%ADD25RoundRect,0.250000X-0.250000X-0.475000X0.250000X-0.475000X0.250000X0.475000X-0.250000X0.475000X0*%
%ADD26RoundRect,0.250000X-0.475000X0.250000X-0.475000X-0.250000X0.475000X-0.250000X0.475000X0.250000X0*%
%ADD27RoundRect,0.225000X0.225000X0.250000X-0.225000X0.250000X-0.225000X-0.250000X0.225000X-0.250000X0*%
%ADD28RoundRect,0.218750X0.218750X0.256250X-0.218750X0.256250X-0.218750X-0.256250X0.218750X-0.256250X0*%
%ADD29RoundRect,0.200000X0.200000X0.275000X-0.200000X0.275000X-0.200000X-0.275000X0.200000X-0.275000X0*%
%ADD30R,1.150000X3.600000*%
%ADD31R,1.400000X1.200000*%
%ADD32FreePoly0,90.000000*%
%ADD33RoundRect,0.062500X0.062500X-0.375000X0.062500X0.375000X-0.062500X0.375000X-0.062500X-0.375000X0*%
%ADD34RoundRect,0.062500X0.375000X-0.062500X0.375000X0.062500X-0.375000X0.062500X-0.375000X-0.062500X0*%
%ADD35R,1.500000X3.100000*%
%ADD36R,3.100000X1.500000*%
%ADD37RoundRect,0.218750X0.256250X-0.218750X0.256250X0.218750X-0.256250X0.218750X-0.256250X-0.218750X0*%
%ADD38R,10.500000X3.200000*%
%ADD39R,1.910000X0.640000*%
%ADD40RoundRect,0.250000X0.475000X-0.250000X0.475000X0.250000X-0.475000X0.250000X-0.475000X-0.250000X0*%
%ADD41RoundRect,0.150000X0.150000X-0.587500X0.150000X0.587500X-0.150000X0.587500X-0.150000X-0.587500X0*%
%ADD42RoundRect,0.052500X-0.052500X0.522500X-0.052500X-0.522500X0.052500X-0.522500X0.052500X0.522500X0*%
%ADD43RoundRect,0.050000X-0.525000X0.050000X-0.525000X-0.050000X0.525000X-0.050000X0.525000X0.050000X0*%
%ADD44RoundRect,0.050000X-0.050000X0.525000X-0.050000X-0.525000X0.050000X-0.525000X0.050000X0.525000X0*%
%ADD45RoundRect,0.150000X-0.150000X0.825000X-0.150000X-0.825000X0.150000X-0.825000X0.150000X0.825000X0*%
%ADD46RoundRect,0.250000X-1.450000X0.312500X-1.450000X-0.312500X1.450000X-0.312500X1.450000X0.312500X0*%
%ADD47R,2.500000X0.500000*%
%ADD48R,2.500000X2.000000*%
G04 APERTURE END LIST*
D10*
X182000000Y-158000000D02*
X103000000Y-158000000D01*
D11*
X185000000Y-105000000D02*
X185000000Y-155000000D01*
D10*
X100000000Y-155000000D02*
X100000000Y-105000000D01*
X100000000Y-155000000D02*
G75*
G03*
X103000000Y-158000000I3000000J0D01*
G01*
X182000000Y-158000000D02*
G75*
G03*
X185000000Y-155000000I0J3000000D01*
G01*
X103000000Y-102000000D02*
G75*
G03*
X100000000Y-105000000I0J-3000000D01*
G01*
X185000000Y-105000000D02*
G75*
G03*
X182000000Y-102000000I-3000000J0D01*
G01*
X103000000Y-102000000D02*
X182000000Y-102000000D01*
D12*
%TO.C,U1*%
X154450000Y-136650000D02*
X153450000Y-136650000D01*
X153450000Y-136650000D02*
X153450000Y-137650000D01*
X153450000Y-137650000D02*
X154450000Y-137650000D01*
X154450000Y-137650000D02*
X154450000Y-136650000D01*
G36*
X154450000Y-136650000D02*
G01*
X153450000Y-136650000D01*
X153450000Y-137650000D01*
X154450000Y-137650000D01*
X154450000Y-136650000D01*
G37*
X152950000Y-136650000D02*
X151950000Y-136650000D01*
X151950000Y-136650000D02*
X151950000Y-137650000D01*
X151950000Y-137650000D02*
X152950000Y-137650000D01*
X152950000Y-137650000D02*
X152950000Y-136650000D01*
G36*
X152950000Y-136650000D02*
G01*
X151950000Y-136650000D01*
X151950000Y-137650000D01*
X152950000Y-137650000D01*
X152950000Y-136650000D01*
G37*
X152950000Y-135150000D02*
X151950000Y-135150000D01*
X151950000Y-135150000D02*
X151950000Y-136150000D01*
X151950000Y-136150000D02*
X152950000Y-136150000D01*
X152950000Y-136150000D02*
X152950000Y-135150000D01*
G36*
X152950000Y-135150000D02*
G01*
X151950000Y-135150000D01*
X151950000Y-136150000D01*
X152950000Y-136150000D01*
X152950000Y-135150000D01*
G37*
X154450000Y-135150000D02*
X153450000Y-135150000D01*
X153450000Y-135150000D02*
X153450000Y-136150000D01*
X153450000Y-136150000D02*
X154450000Y-136150000D01*
X154450000Y-136150000D02*
X154450000Y-135150000D01*
G36*
X154450000Y-135150000D02*
G01*
X153450000Y-135150000D01*
X153450000Y-136150000D01*
X154450000Y-136150000D01*
X154450000Y-135150000D01*
G37*
%TD*%
D13*
%TO.C,C5*%
X140500000Y-140375000D03*
X140500000Y-138825000D03*
%TD*%
D14*
%TO.C,R19*%
X137900000Y-121000000D03*
X137900000Y-119350000D03*
%TD*%
D15*
%TO.C,R17*%
X141975000Y-123300000D03*
X143625000Y-123300000D03*
%TD*%
D16*
%TO.C,U7*%
X142451600Y-149195200D03*
X142451600Y-150465200D03*
X142451600Y-151735200D03*
X142451600Y-153005200D03*
X149651600Y-153005200D03*
X149651600Y-151735200D03*
X149651600Y-150465200D03*
X149651600Y-149195200D03*
%TD*%
D17*
%TO.C,D7*%
X116960400Y-133705600D03*
X112960400Y-133705600D03*
%TD*%
D14*
%TO.C,R37*%
X136900000Y-114825000D03*
X136900000Y-113175000D03*
%TD*%
%TO.C,R23*%
X131343400Y-146634200D03*
X131343400Y-144984200D03*
%TD*%
D18*
%TO.C,D2*%
X135738000Y-156641800D03*
X135738000Y-154101800D03*
X129438000Y-154101800D03*
X129438000Y-156641800D03*
%TD*%
D19*
%TO.C,U4*%
X125050000Y-127237500D03*
X126000000Y-127237500D03*
X126950000Y-127237500D03*
X126950000Y-124962500D03*
X126000000Y-124962500D03*
X125050000Y-124962500D03*
%TD*%
D15*
%TO.C,R34*%
X165685000Y-151358600D03*
X167335000Y-151358600D03*
%TD*%
D20*
%TO.C,C20*%
X140000000Y-131575000D03*
X140000000Y-133125000D03*
%TD*%
D21*
%TO.C,L2*%
X131290000Y-133932500D03*
X131290000Y-135507500D03*
%TD*%
D20*
%TO.C,C3*%
X120929400Y-115430000D03*
X120929400Y-116980000D03*
%TD*%
D15*
%TO.C,R27*%
X153775000Y-121850000D03*
X155425000Y-121850000D03*
%TD*%
D22*
%TO.C,C26*%
X133015000Y-135500000D03*
X134565000Y-135500000D03*
%TD*%
D15*
%TO.C,R18*%
X141975000Y-121700000D03*
X143625000Y-121700000D03*
%TD*%
D23*
%TO.C,R32*%
X140030200Y-149822400D03*
X140030200Y-151472400D03*
%TD*%
%TO.C,R7*%
X118200000Y-141275000D03*
X118200000Y-142925000D03*
%TD*%
%TO.C,R26*%
X131292600Y-137745200D03*
X131292600Y-139395200D03*
%TD*%
%TO.C,R16*%
X139500000Y-119350000D03*
X139500000Y-121000000D03*
%TD*%
D24*
%TO.C,D6*%
X163050000Y-145860000D03*
X163050000Y-141860000D03*
%TD*%
D14*
%TO.C,R39*%
X158318200Y-152666200D03*
X158318200Y-151016200D03*
%TD*%
D22*
%TO.C,C11*%
X163625000Y-137000000D03*
X165175000Y-137000000D03*
%TD*%
D15*
%TO.C,R21*%
X117805000Y-152060000D03*
X119455000Y-152060000D03*
%TD*%
D14*
%TO.C,R5*%
X167300000Y-141625000D03*
X167300000Y-139975000D03*
%TD*%
D25*
%TO.C,C35*%
X165737800Y-147777200D03*
X167637800Y-147777200D03*
%TD*%
D17*
%TO.C,D5*%
X163620200Y-155524200D03*
X159620200Y-155524200D03*
%TD*%
D26*
%TO.C,C4*%
X123037600Y-115432800D03*
X123037600Y-117332800D03*
%TD*%
D27*
%TO.C,C29*%
X155511800Y-151028400D03*
X153961800Y-151028400D03*
%TD*%
D15*
%TO.C,R28*%
X141675000Y-116400000D03*
X143325000Y-116400000D03*
%TD*%
D28*
%TO.C,D4*%
X153187500Y-142900000D03*
X151612500Y-142900000D03*
%TD*%
D24*
%TO.C,D1*%
X175200000Y-137100000D03*
X175200000Y-133100000D03*
%TD*%
D22*
%TO.C,C7*%
X155425000Y-144700000D03*
X156975000Y-144700000D03*
%TD*%
D29*
%TO.C,R11*%
X143325000Y-114700000D03*
X141675000Y-114700000D03*
%TD*%
D13*
%TO.C,C21*%
X134075000Y-133175000D03*
X134075000Y-131625000D03*
%TD*%
%TO.C,C32*%
X152882600Y-155080600D03*
X152882600Y-153530600D03*
%TD*%
D24*
%TO.C,D8*%
X120573800Y-129699000D03*
X120573800Y-133699000D03*
%TD*%
D30*
%TO.C,L3*%
X161021800Y-151358600D03*
X163971800Y-151358600D03*
%TD*%
D15*
%TO.C,R35*%
X168809200Y-152882600D03*
X170459200Y-152882600D03*
%TD*%
D14*
%TO.C,R31*%
X145029600Y-156975400D03*
X145029600Y-155325400D03*
%TD*%
D22*
%TO.C,C33*%
X165735000Y-149758400D03*
X167285000Y-149758400D03*
%TD*%
D23*
%TO.C,R24*%
X133070600Y-144069800D03*
X133070600Y-145719800D03*
%TD*%
D14*
%TO.C,R29*%
X146630600Y-156971000D03*
X146630600Y-155321000D03*
%TD*%
D13*
%TO.C,C6*%
X140300000Y-146175000D03*
X140300000Y-144625000D03*
%TD*%
D31*
%TO.C,Y2*%
X144700000Y-138750000D03*
X142500000Y-138750000D03*
X142500000Y-140450000D03*
X144700000Y-140450000D03*
%TD*%
D22*
%TO.C,C12*%
X158925000Y-140400000D03*
X160475000Y-140400000D03*
%TD*%
D27*
%TO.C,C30*%
X155511800Y-149453600D03*
X153961800Y-149453600D03*
%TD*%
D22*
%TO.C,C25*%
X133025000Y-137080000D03*
X134575000Y-137080000D03*
%TD*%
D20*
%TO.C,C14*%
X153800000Y-144725000D03*
X153800000Y-146275000D03*
%TD*%
D29*
%TO.C,R8*%
X143325000Y-129850000D03*
X141675000Y-129850000D03*
%TD*%
D32*
%TO.C,IC1*%
X137700000Y-127300000D03*
X136700000Y-126300000D03*
X137700000Y-126300000D03*
X136700000Y-127300000D03*
D33*
X135950000Y-128737500D03*
X136450000Y-128737500D03*
X136950000Y-128737500D03*
X137450000Y-128737500D03*
X137950000Y-128737500D03*
X138450000Y-128737500D03*
D34*
X139137500Y-128050000D03*
X139137500Y-127550000D03*
X139137500Y-127050000D03*
X139137500Y-126550000D03*
X139137500Y-126050000D03*
X139137500Y-125550000D03*
D33*
X138450000Y-124862500D03*
X137950000Y-124862500D03*
X137450000Y-124862500D03*
X136950000Y-124862500D03*
X136450000Y-124862500D03*
X135950000Y-124862500D03*
D34*
X135262500Y-125550000D03*
X135262500Y-126050000D03*
X135262500Y-126550000D03*
X135262500Y-127050000D03*
X135262500Y-127550000D03*
X135262500Y-128050000D03*
%TD*%
D35*
%TO.C,IC2*%
X165300000Y-122050000D03*
X167200000Y-122050000D03*
X169100000Y-122050000D03*
X171000000Y-122050000D03*
X172900000Y-122050000D03*
D36*
X176350000Y-118600000D03*
X176350000Y-116700000D03*
X176350000Y-111000000D03*
D35*
X172900000Y-107550000D03*
X169100000Y-107550000D03*
X167200000Y-107550000D03*
X165300000Y-107550000D03*
D36*
X161850000Y-111000000D03*
X161850000Y-112900000D03*
X161850000Y-118600000D03*
%TD*%
D13*
%TO.C,C18*%
X170300000Y-137450000D03*
X170300000Y-135900000D03*
%TD*%
D22*
%TO.C,C34*%
X165745000Y-145900000D03*
X167295000Y-145900000D03*
%TD*%
D14*
%TO.C,R3*%
X150800000Y-146025000D03*
X150800000Y-144375000D03*
%TD*%
D17*
%TO.C,D9*%
X117100600Y-126238000D03*
X121100600Y-126238000D03*
%TD*%
D15*
%TO.C,R14*%
X147480000Y-122300000D03*
X149130000Y-122300000D03*
%TD*%
D27*
%TO.C,C22*%
X133775000Y-124500000D03*
X132225000Y-124500000D03*
%TD*%
D37*
%TO.C,L1*%
X120929400Y-113792100D03*
X120929400Y-112217100D03*
%TD*%
D15*
%TO.C,R15*%
X147475000Y-123900000D03*
X149125000Y-123900000D03*
%TD*%
D13*
%TO.C,C15*%
X171900000Y-137450000D03*
X171900000Y-135900000D03*
%TD*%
D14*
%TO.C,R2*%
X172500000Y-141125000D03*
X172500000Y-139475000D03*
%TD*%
%TO.C,R33*%
X138430000Y-151472400D03*
X138430000Y-149822400D03*
%TD*%
D29*
%TO.C,R9*%
X143325000Y-128300000D03*
X141675000Y-128300000D03*
%TD*%
D38*
%TO.C,Y1*%
X174400000Y-128770000D03*
%TD*%
D22*
%TO.C,C10*%
X162025000Y-138550000D03*
X163575000Y-138550000D03*
%TD*%
D39*
%TO.C,T1*%
X129124400Y-146622000D03*
X129124400Y-145352000D03*
X129124400Y-144082000D03*
X129124400Y-142812000D03*
X129124400Y-141542000D03*
X129124400Y-140272000D03*
X129124400Y-139002000D03*
X129124400Y-137732000D03*
X120354400Y-137732000D03*
X120354400Y-139002000D03*
X120354400Y-140272000D03*
X120354400Y-141542000D03*
X120354400Y-142812000D03*
X120354400Y-144082000D03*
X120354400Y-145352000D03*
X120354400Y-146622000D03*
%TD*%
D13*
%TO.C,C28*%
X138430000Y-154534200D03*
X138430000Y-152984200D03*
%TD*%
D40*
%TO.C,C24*%
X136000000Y-120925000D03*
X136000000Y-119025000D03*
%TD*%
D15*
%TO.C,R30*%
X141618200Y-155956000D03*
X143268200Y-155956000D03*
%TD*%
D27*
%TO.C,C2*%
X144675000Y-136800000D03*
X143125000Y-136800000D03*
%TD*%
D23*
%TO.C,R13*%
X129000000Y-115175000D03*
X129000000Y-116825000D03*
%TD*%
D20*
%TO.C,C19*%
X141600000Y-132225000D03*
X141600000Y-133775000D03*
%TD*%
D22*
%TO.C,C31*%
X155511200Y-147878800D03*
X157061200Y-147878800D03*
%TD*%
D23*
%TO.C,R38*%
X140030200Y-152997400D03*
X140030200Y-154647400D03*
%TD*%
D41*
%TO.C,Q2*%
X153500000Y-119687500D03*
X155400000Y-119687500D03*
X154450000Y-117812500D03*
%TD*%
D42*
%TO.C,U1*%
X155800000Y-132825000D03*
X155400000Y-132825000D03*
X155000000Y-132825000D03*
X154600000Y-132825000D03*
X154200000Y-132825000D03*
X153800000Y-132825000D03*
X153400000Y-132825000D03*
X153000000Y-132825000D03*
X152600000Y-132825000D03*
X152200000Y-132825000D03*
X151800000Y-132825000D03*
X151400000Y-132825000D03*
X151000000Y-132825000D03*
X150600000Y-132825000D03*
D43*
X149625000Y-133800000D03*
X149625000Y-134200000D03*
X149625000Y-134600000D03*
X149625000Y-135000000D03*
X149625000Y-135400000D03*
X149625000Y-135800000D03*
X149625000Y-136200000D03*
X149625000Y-136600000D03*
X149625000Y-137000000D03*
X149625000Y-137400000D03*
X149625000Y-137800000D03*
X149625000Y-138200000D03*
X149625000Y-138600000D03*
X149625000Y-139000000D03*
D44*
X150600000Y-139975000D03*
X151000000Y-139975000D03*
X151400000Y-139975000D03*
X151800000Y-139975000D03*
X152200000Y-139975000D03*
X152600000Y-139975000D03*
X153000000Y-139975000D03*
X153400000Y-139975000D03*
X153800000Y-139975000D03*
X154200000Y-139975000D03*
X154600000Y-139975000D03*
X155000000Y-139975000D03*
X155400000Y-139975000D03*
X155800000Y-139975000D03*
D43*
X156775000Y-139000000D03*
X156775000Y-138600000D03*
X156775000Y-138200000D03*
X156775000Y-137800000D03*
X156775000Y-137400000D03*
X156775000Y-137000000D03*
X156775000Y-136600000D03*
X156775000Y-136200000D03*
X156775000Y-135800000D03*
X156775000Y-135400000D03*
X156775000Y-135000000D03*
X156775000Y-134600000D03*
X156775000Y-134200000D03*
X156775000Y-133800000D03*
%TD*%
D14*
%TO.C,R25*%
X133019800Y-140258800D03*
X133019800Y-138608800D03*
%TD*%
D23*
%TO.C,R20*%
X118200000Y-144365000D03*
X118200000Y-146015000D03*
%TD*%
D29*
%TO.C,R1*%
X144725000Y-142200000D03*
X143075000Y-142200000D03*
%TD*%
D14*
%TO.C,R6*%
X118110000Y-156019000D03*
X118110000Y-154369000D03*
%TD*%
D20*
%TO.C,C27*%
X134875000Y-144625000D03*
X134875000Y-146175000D03*
%TD*%
D31*
%TO.C,Y3*%
X138175000Y-131700000D03*
X135975000Y-131700000D03*
X135975000Y-133400000D03*
X138175000Y-133400000D03*
%TD*%
D23*
%TO.C,R12*%
X127300000Y-115175000D03*
X127300000Y-116825000D03*
%TD*%
D15*
%TO.C,R10*%
X141875000Y-124900000D03*
X143525000Y-124900000D03*
%TD*%
D13*
%TO.C,C23*%
X134100000Y-120950000D03*
X134100000Y-119400000D03*
%TD*%
D20*
%TO.C,C13*%
X170900000Y-139525000D03*
X170900000Y-141075000D03*
%TD*%
D45*
%TO.C,U2*%
X182305000Y-132325000D03*
X181035000Y-132325000D03*
X179765000Y-132325000D03*
X178495000Y-132325000D03*
X178495000Y-137275000D03*
X179765000Y-137275000D03*
X181035000Y-137275000D03*
X182305000Y-137275000D03*
%TD*%
D22*
%TO.C,C16*%
X141725000Y-126500000D03*
X143275000Y-126500000D03*
%TD*%
D16*
%TO.C,U5*%
X159800000Y-131095000D03*
X159800000Y-132365000D03*
X159800000Y-133635000D03*
X159800000Y-134905000D03*
X167000000Y-134905000D03*
X167000000Y-133635000D03*
X167000000Y-132365000D03*
X167000000Y-131095000D03*
%TD*%
D20*
%TO.C,C17*%
X143200000Y-132225000D03*
X143200000Y-133775000D03*
%TD*%
D19*
%TO.C,U8*%
X154574200Y-155075100D03*
X155524200Y-155075100D03*
X156474200Y-155075100D03*
X156474200Y-152800100D03*
X155524200Y-152800100D03*
X154574200Y-152800100D03*
%TD*%
D46*
%TO.C,F1*%
X113411000Y-126691300D03*
X113411000Y-130966300D03*
%TD*%
D27*
%TO.C,C9*%
X146975000Y-145100000D03*
X145425000Y-145100000D03*
%TD*%
D18*
%TO.C,D3*%
X135738000Y-152349200D03*
X135738000Y-149809200D03*
X129438000Y-149809200D03*
X129438000Y-152349200D03*
%TD*%
D20*
%TO.C,C8*%
X136500000Y-144625000D03*
X136500000Y-146175000D03*
%TD*%
D14*
%TO.C,R4*%
X168900000Y-141625000D03*
X168900000Y-139975000D03*
%TD*%
D29*
%TO.C,R22*%
X132600000Y-129950000D03*
X130950000Y-129950000D03*
%TD*%
D47*
%TO.C,J2*%
X108875000Y-109400000D03*
X108875000Y-110200000D03*
X108875000Y-111000000D03*
X108875000Y-111800000D03*
X108875000Y-112600000D03*
D48*
X103375000Y-115400000D03*
X108875000Y-115400000D03*
X108875000Y-106600000D03*
X103375000Y-106600000D03*
%TD*%
M02*
