%TF.GenerationSoftware,KiCad,Pcbnew,(6.0.4)*%
%TF.CreationDate,2022-04-11T14:57:37+02:00*%
%TF.ProjectId,PSE_RP2040,5053455f-5250-4323-9034-302e6b696361,rev?*%
%TF.SameCoordinates,Original*%
%TF.FileFunction,Soldermask,Bot*%
%TF.FilePolarity,Negative*%
%FSLAX46Y46*%
G04 Gerber Fmt 4.6, Leading zero omitted, Abs format (unit mm)*
G04 Created by KiCad (PCBNEW (6.0.4)) date 2022-04-11 14:57:37*
%MOMM*%
%LPD*%
G01*
G04 APERTURE LIST*
G04 Aperture macros list*
%AMOutline4P*
0 Free polygon, 4 corners , with rotation*
0 The origin of the aperture is its center*
0 number of corners: always 4*
0 $1 to $8 corner X, Y*
0 $9 Rotation angle, in degrees counterclockwise*
0 create outline with 4 corners*
4,1,4,$1,$2,$3,$4,$5,$6,$7,$8,$1,$2,$9*%
G04 Aperture macros list end*
%TA.AperFunction,Profile*%
%ADD10C,0.150000*%
%TD*%
%TA.AperFunction,Profile*%
%ADD11C,0.100000*%
%TD*%
%ADD12C,2.000000*%
%ADD13R,2.000000X2.000000*%
%ADD14R,2.600000X2.600000*%
%ADD15C,2.600000*%
%ADD16C,1.700000*%
%ADD17C,3.000000*%
%ADD18C,3.250000*%
%ADD19R,1.500000X1.500000*%
%ADD20C,1.500000*%
%ADD21R,1.700000X1.700000*%
%ADD22C,3.500000*%
%ADD23C,1.000000*%
%ADD24O,1.700000X1.700000*%
%ADD25C,0.900000*%
%ADD26Outline4P,-0.025000X-1.000000X0.025000X-1.000000X0.975000X1.000000X-0.975000X1.000000X180.000000*%
%ADD27Outline4P,-0.025000X-1.000000X0.025000X-1.000000X0.975000X1.000000X-0.975000X1.000000X0.000000*%
G04 APERTURE END LIST*
D10*
X182000000Y-158000000D02*
X103000000Y-158000000D01*
D11*
X185000000Y-105000000D02*
X185000000Y-155000000D01*
D10*
X100000000Y-155000000D02*
X100000000Y-105000000D01*
X100000000Y-155000000D02*
G75*
G03*
X103000000Y-158000000I3000000J0D01*
G01*
X182000000Y-158000000D02*
G75*
G03*
X185000000Y-155000000I0J3000000D01*
G01*
X103000000Y-102000000D02*
G75*
G03*
X100000000Y-105000000I0J-3000000D01*
G01*
X185000000Y-105000000D02*
G75*
G03*
X182000000Y-102000000I-3000000J0D01*
G01*
X103000000Y-102000000D02*
X182000000Y-102000000D01*
D12*
%TO.C,TP2*%
X113500000Y-121800000D03*
%TD*%
%TO.C,SW1*%
X128687000Y-104065000D03*
X128687000Y-110565000D03*
X133187000Y-104065000D03*
X133187000Y-110565000D03*
%TD*%
D13*
%TO.C,C1*%
X179324000Y-141478000D03*
D12*
X179324000Y-146478000D03*
%TD*%
D14*
%TO.C,J5*%
X105445000Y-126705000D03*
D15*
X105445000Y-131785000D03*
%TD*%
D12*
%TO.C,SW2*%
X136887000Y-104065000D03*
X136887000Y-110565000D03*
X141387000Y-110565000D03*
X141387000Y-104065000D03*
%TD*%
D16*
%TO.C,U6*%
X158140000Y-106020000D03*
X158140000Y-108560000D03*
X158140000Y-111100000D03*
X158140000Y-113640000D03*
X158140000Y-116180000D03*
X158140000Y-118720000D03*
X158140000Y-121260000D03*
X158140000Y-123800000D03*
%TD*%
D17*
%TO.C,H2*%
X123500000Y-105500000D03*
%TD*%
D18*
%TO.C,J3*%
X106335000Y-141150000D03*
X106335000Y-153850000D03*
D19*
X108875000Y-151060000D03*
D20*
X110655000Y-150044000D03*
X108875000Y-149028000D03*
X110655000Y-148012000D03*
X108875000Y-146996000D03*
X110655000Y-145980000D03*
X108875000Y-144964000D03*
X110655000Y-143948000D03*
X115475000Y-154360000D03*
X115475000Y-152070000D03*
X115475000Y-142930000D03*
X115475000Y-140640000D03*
%TD*%
D21*
%TO.C,J1*%
X117577500Y-112250000D03*
D16*
X117577500Y-109750000D03*
X115577500Y-109750000D03*
X115577500Y-112250000D03*
D22*
X112867500Y-104980000D03*
X112867500Y-117020000D03*
%TD*%
D23*
%TO.C,Y1*%
X183150000Y-127500000D03*
X183150000Y-130040000D03*
%TD*%
D21*
%TO.C,J6*%
X167319800Y-155956000D03*
D24*
X169859800Y-155956000D03*
X172399800Y-155956000D03*
X174939800Y-155956000D03*
%TD*%
D17*
%TO.C,H1*%
X181483000Y-154559000D03*
%TD*%
%TO.C,H3*%
X123600000Y-154600000D03*
%TD*%
D21*
%TO.C,J4*%
X146075000Y-104400000D03*
D24*
X148615000Y-104400000D03*
X151155000Y-104400000D03*
%TD*%
D12*
%TO.C,TP1*%
X146500000Y-114925000D03*
%TD*%
D25*
%TO.C,J2*%
X106275000Y-108800000D03*
X106275000Y-113200000D03*
%TD*%
D26*
%TO.C,E1*%
X103378000Y-148058000D03*
D27*
X103378000Y-145058000D03*
%TD*%
M02*
