%TF.GenerationSoftware,KiCad,Pcbnew,(6.0.4)*%
%TF.CreationDate,2022-04-11T12:28:49+02:00*%
%TF.ProjectId,PSE_RP2040,5053455f-5250-4323-9034-302e6b696361,rev?*%
%TF.SameCoordinates,Original*%
%TF.FileFunction,Legend,Top*%
%TF.FilePolarity,Positive*%
%FSLAX46Y46*%
G04 Gerber Fmt 4.6, Leading zero omitted, Abs format (unit mm)*
G04 Created by KiCad (PCBNEW (6.0.4)) date 2022-04-11 12:28:49*
%MOMM*%
%LPD*%
G01*
G04 APERTURE LIST*
%TA.AperFunction,Profile*%
%ADD10C,0.150000*%
%TD*%
%TA.AperFunction,Profile*%
%ADD11C,0.100000*%
%TD*%
%ADD12C,0.150000*%
%ADD13C,0.114300*%
%ADD14C,0.120000*%
G04 APERTURE END LIST*
D10*
X182000000Y-158000000D02*
X103000000Y-158000000D01*
D11*
X185000000Y-105000000D02*
X185000000Y-155000000D01*
D10*
X100000000Y-155000000D02*
X100000000Y-105000000D01*
X100000000Y-155000000D02*
G75*
G03*
X103000000Y-158000000I3000000J0D01*
G01*
X182000000Y-158000000D02*
G75*
G03*
X185000000Y-155000000I0J3000000D01*
G01*
X103000000Y-102000000D02*
G75*
G03*
X100000000Y-105000000I0J-3000000D01*
G01*
X185000000Y-105000000D02*
G75*
G03*
X182000000Y-102000000I-3000000J0D01*
G01*
X103000000Y-102000000D02*
X182000000Y-102000000D01*
D12*
X69660595Y-113323571D02*
X69993928Y-113323571D01*
X70136785Y-113847380D02*
X69660595Y-113847380D01*
X69660595Y-112847380D01*
X70136785Y-112847380D01*
X71136785Y-113847380D02*
X70803452Y-113371190D01*
X70565357Y-113847380D02*
X70565357Y-112847380D01*
X70946309Y-112847380D01*
X71041547Y-112895000D01*
X71089166Y-112942619D01*
X71136785Y-113037857D01*
X71136785Y-113180714D01*
X71089166Y-113275952D01*
X71041547Y-113323571D01*
X70946309Y-113371190D01*
X70565357Y-113371190D01*
X72136785Y-113847380D02*
X71803452Y-113371190D01*
X71565357Y-113847380D02*
X71565357Y-112847380D01*
X71946309Y-112847380D01*
X72041547Y-112895000D01*
X72089166Y-112942619D01*
X72136785Y-113037857D01*
X72136785Y-113180714D01*
X72089166Y-113275952D01*
X72041547Y-113323571D01*
X71946309Y-113371190D01*
X71565357Y-113371190D01*
X72755833Y-112847380D02*
X72946309Y-112847380D01*
X73041547Y-112895000D01*
X73136785Y-112990238D01*
X73184404Y-113180714D01*
X73184404Y-113514047D01*
X73136785Y-113704523D01*
X73041547Y-113799761D01*
X72946309Y-113847380D01*
X72755833Y-113847380D01*
X72660595Y-113799761D01*
X72565357Y-113704523D01*
X72517738Y-113514047D01*
X72517738Y-113180714D01*
X72565357Y-112990238D01*
X72660595Y-112895000D01*
X72755833Y-112847380D01*
X74184404Y-113847380D02*
X73851071Y-113371190D01*
X73612976Y-113847380D02*
X73612976Y-112847380D01*
X73993928Y-112847380D01*
X74089166Y-112895000D01*
X74136785Y-112942619D01*
X74184404Y-113037857D01*
X74184404Y-113180714D01*
X74136785Y-113275952D01*
X74089166Y-113323571D01*
X73993928Y-113371190D01*
X73612976Y-113371190D01*
X74612976Y-113847380D02*
X74612976Y-112847380D01*
X75089166Y-113752142D02*
X75136785Y-113799761D01*
X75089166Y-113847380D01*
X75041547Y-113799761D01*
X75089166Y-113752142D01*
X75089166Y-113847380D01*
X75089166Y-113228333D02*
X75136785Y-113275952D01*
X75089166Y-113323571D01*
X75041547Y-113275952D01*
X75089166Y-113228333D01*
X75089166Y-113323571D01*
X76851071Y-113847380D02*
X76279642Y-113847380D01*
X76565357Y-113847380D02*
X76565357Y-112847380D01*
X76470119Y-112990238D01*
X76374880Y-113085476D01*
X76279642Y-113133095D01*
X77232023Y-112942619D02*
X77279642Y-112895000D01*
X77374880Y-112847380D01*
X77612976Y-112847380D01*
X77708214Y-112895000D01*
X77755833Y-112942619D01*
X77803452Y-113037857D01*
X77803452Y-113133095D01*
X77755833Y-113275952D01*
X77184404Y-113847380D01*
X77803452Y-113847380D01*
X69612976Y-115171666D02*
X70089166Y-115171666D01*
X69517738Y-115457380D02*
X69851071Y-114457380D01*
X70184404Y-115457380D01*
X70374880Y-114457380D02*
X70708214Y-115457380D01*
X71041547Y-114457380D01*
X71232023Y-114457380D02*
X71565357Y-115457380D01*
X71898690Y-114457380D01*
X72232023Y-115457380D02*
X72232023Y-114457380D01*
X72660595Y-115409761D02*
X72803452Y-115457380D01*
X73041547Y-115457380D01*
X73136785Y-115409761D01*
X73184404Y-115362142D01*
X73232023Y-115266904D01*
X73232023Y-115171666D01*
X73184404Y-115076428D01*
X73136785Y-115028809D01*
X73041547Y-114981190D01*
X72851071Y-114933571D01*
X72755833Y-114885952D01*
X72708214Y-114838333D01*
X72660595Y-114743095D01*
X72660595Y-114647857D01*
X72708214Y-114552619D01*
X72755833Y-114505000D01*
X72851071Y-114457380D01*
X73089166Y-114457380D01*
X73232023Y-114505000D01*
X73660595Y-115457380D02*
X73660595Y-114457380D01*
X74136785Y-115362142D02*
X74184404Y-115409761D01*
X74136785Y-115457380D01*
X74089166Y-115409761D01*
X74136785Y-115362142D01*
X74136785Y-115457380D01*
X74136785Y-114838333D02*
X74184404Y-114885952D01*
X74136785Y-114933571D01*
X74089166Y-114885952D01*
X74136785Y-114838333D01*
X74136785Y-114933571D01*
X75803452Y-114457380D02*
X75612976Y-114457380D01*
X75517738Y-114505000D01*
X75470119Y-114552619D01*
X75374880Y-114695476D01*
X75327261Y-114885952D01*
X75327261Y-115266904D01*
X75374880Y-115362142D01*
X75422500Y-115409761D01*
X75517738Y-115457380D01*
X75708214Y-115457380D01*
X75803452Y-115409761D01*
X75851071Y-115362142D01*
X75898690Y-115266904D01*
X75898690Y-115028809D01*
X75851071Y-114933571D01*
X75803452Y-114885952D01*
X75708214Y-114838333D01*
X75517738Y-114838333D01*
X75422500Y-114885952D01*
X75374880Y-114933571D01*
X75327261Y-115028809D01*
X69517738Y-117677380D02*
X70089166Y-117677380D01*
X69803452Y-118677380D02*
X69803452Y-117677380D01*
X70422500Y-118153571D02*
X70755833Y-118153571D01*
X70898690Y-118677380D02*
X70422500Y-118677380D01*
X70422500Y-117677380D01*
X70898690Y-117677380D01*
X71279642Y-118629761D02*
X71422500Y-118677380D01*
X71660595Y-118677380D01*
X71755833Y-118629761D01*
X71803452Y-118582142D01*
X71851071Y-118486904D01*
X71851071Y-118391666D01*
X71803452Y-118296428D01*
X71755833Y-118248809D01*
X71660595Y-118201190D01*
X71470119Y-118153571D01*
X71374880Y-118105952D01*
X71327261Y-118058333D01*
X71279642Y-117963095D01*
X71279642Y-117867857D01*
X71327261Y-117772619D01*
X71374880Y-117725000D01*
X71470119Y-117677380D01*
X71708214Y-117677380D01*
X71851071Y-117725000D01*
X72136785Y-117677380D02*
X72708214Y-117677380D01*
X72422500Y-118677380D02*
X72422500Y-117677380D01*
X73041547Y-118677380D02*
X73041547Y-117677380D01*
X73422500Y-117677380D01*
X73517738Y-117725000D01*
X73565357Y-117772619D01*
X73612976Y-117867857D01*
X73612976Y-118010714D01*
X73565357Y-118105952D01*
X73517738Y-118153571D01*
X73422500Y-118201190D01*
X73041547Y-118201190D01*
X74232023Y-117677380D02*
X74422500Y-117677380D01*
X74517738Y-117725000D01*
X74612976Y-117820238D01*
X74660595Y-118010714D01*
X74660595Y-118344047D01*
X74612976Y-118534523D01*
X74517738Y-118629761D01*
X74422500Y-118677380D01*
X74232023Y-118677380D01*
X74136785Y-118629761D01*
X74041547Y-118534523D01*
X73993928Y-118344047D01*
X73993928Y-118010714D01*
X74041547Y-117820238D01*
X74136785Y-117725000D01*
X74232023Y-117677380D01*
X75089166Y-118677380D02*
X75089166Y-117677380D01*
X75565357Y-118677380D02*
X75565357Y-117677380D01*
X76136785Y-118677380D01*
X76136785Y-117677380D01*
X76470119Y-117677380D02*
X77041547Y-117677380D01*
X76755833Y-118677380D02*
X76755833Y-117677380D01*
X69517738Y-119287380D02*
X70089166Y-119287380D01*
X69803452Y-120287380D02*
X69803452Y-119287380D01*
X70422500Y-120287380D02*
X70422500Y-119287380D01*
X70803452Y-119287380D01*
X70898690Y-119335000D01*
X70946309Y-119382619D01*
X70993928Y-119477857D01*
X70993928Y-119620714D01*
X70946309Y-119715952D01*
X70898690Y-119763571D01*
X70803452Y-119811190D01*
X70422500Y-119811190D01*
X71946309Y-120287380D02*
X71374880Y-120287380D01*
X71660595Y-120287380D02*
X71660595Y-119287380D01*
X71565357Y-119430238D01*
X71470119Y-119525476D01*
X71374880Y-119573095D01*
X73041547Y-119287380D02*
X73660595Y-119287380D01*
X73327261Y-119668333D01*
X73470119Y-119668333D01*
X73565357Y-119715952D01*
X73612976Y-119763571D01*
X73660595Y-119858809D01*
X73660595Y-120096904D01*
X73612976Y-120192142D01*
X73565357Y-120239761D01*
X73470119Y-120287380D01*
X73184404Y-120287380D01*
X73089166Y-120239761D01*
X73041547Y-120192142D01*
X73946309Y-119287380D02*
X74279642Y-120287380D01*
X74612976Y-119287380D01*
X74851071Y-119287380D02*
X75470119Y-119287380D01*
X75136785Y-119668333D01*
X75279642Y-119668333D01*
X75374880Y-119715952D01*
X75422500Y-119763571D01*
X75470119Y-119858809D01*
X75470119Y-120096904D01*
X75422500Y-120192142D01*
X75374880Y-120239761D01*
X75279642Y-120287380D01*
X74993928Y-120287380D01*
X74898690Y-120239761D01*
X74851071Y-120192142D01*
X69517738Y-120897380D02*
X70089166Y-120897380D01*
X69803452Y-121897380D02*
X69803452Y-120897380D01*
X70422500Y-121897380D02*
X70422500Y-120897380D01*
X70803452Y-120897380D01*
X70898690Y-120945000D01*
X70946309Y-120992619D01*
X70993928Y-121087857D01*
X70993928Y-121230714D01*
X70946309Y-121325952D01*
X70898690Y-121373571D01*
X70803452Y-121421190D01*
X70422500Y-121421190D01*
X71374880Y-120992619D02*
X71422500Y-120945000D01*
X71517738Y-120897380D01*
X71755833Y-120897380D01*
X71851071Y-120945000D01*
X71898690Y-120992619D01*
X71946309Y-121087857D01*
X71946309Y-121183095D01*
X71898690Y-121325952D01*
X71327261Y-121897380D01*
X71946309Y-121897380D01*
X73660595Y-120945000D02*
X73565357Y-120897380D01*
X73422500Y-120897380D01*
X73279642Y-120945000D01*
X73184404Y-121040238D01*
X73136785Y-121135476D01*
X73089166Y-121325952D01*
X73089166Y-121468809D01*
X73136785Y-121659285D01*
X73184404Y-121754523D01*
X73279642Y-121849761D01*
X73422500Y-121897380D01*
X73517738Y-121897380D01*
X73660595Y-121849761D01*
X73708214Y-121802142D01*
X73708214Y-121468809D01*
X73517738Y-121468809D01*
X74136785Y-121897380D02*
X74136785Y-120897380D01*
X74708214Y-121897380D01*
X74708214Y-120897380D01*
X75184404Y-121897380D02*
X75184404Y-120897380D01*
X75422500Y-120897380D01*
X75565357Y-120945000D01*
X75660595Y-121040238D01*
X75708214Y-121135476D01*
X75755833Y-121325952D01*
X75755833Y-121468809D01*
X75708214Y-121659285D01*
X75660595Y-121754523D01*
X75565357Y-121849761D01*
X75422500Y-121897380D01*
X75184404Y-121897380D01*
X69517738Y-122507380D02*
X70089166Y-122507380D01*
X69803452Y-123507380D02*
X69803452Y-122507380D01*
X70422500Y-123507380D02*
X70422500Y-122507380D01*
X70803452Y-122507380D01*
X70898690Y-122555000D01*
X70946309Y-122602619D01*
X70993928Y-122697857D01*
X70993928Y-122840714D01*
X70946309Y-122935952D01*
X70898690Y-122983571D01*
X70803452Y-123031190D01*
X70422500Y-123031190D01*
X71327261Y-122507380D02*
X71946309Y-122507380D01*
X71612976Y-122888333D01*
X71755833Y-122888333D01*
X71851071Y-122935952D01*
X71898690Y-122983571D01*
X71946309Y-123078809D01*
X71946309Y-123316904D01*
X71898690Y-123412142D01*
X71851071Y-123459761D01*
X71755833Y-123507380D01*
X71470119Y-123507380D01*
X71374880Y-123459761D01*
X71327261Y-123412142D01*
X73612976Y-122507380D02*
X73136785Y-122507380D01*
X73089166Y-122983571D01*
X73136785Y-122935952D01*
X73232023Y-122888333D01*
X73470119Y-122888333D01*
X73565357Y-122935952D01*
X73612976Y-122983571D01*
X73660595Y-123078809D01*
X73660595Y-123316904D01*
X73612976Y-123412142D01*
X73565357Y-123459761D01*
X73470119Y-123507380D01*
X73232023Y-123507380D01*
X73136785Y-123459761D01*
X73089166Y-123412142D01*
X73946309Y-122507380D02*
X74279642Y-123507380D01*
X74612976Y-122507380D01*
X69517738Y-124117380D02*
X70089166Y-124117380D01*
X69803452Y-125117380D02*
X69803452Y-124117380D01*
X70422500Y-125117380D02*
X70422500Y-124117380D01*
X70803452Y-124117380D01*
X70898690Y-124165000D01*
X70946309Y-124212619D01*
X70993928Y-124307857D01*
X70993928Y-124450714D01*
X70946309Y-124545952D01*
X70898690Y-124593571D01*
X70803452Y-124641190D01*
X70422500Y-124641190D01*
X71851071Y-124450714D02*
X71851071Y-125117380D01*
X71612976Y-124069761D02*
X71374880Y-124784047D01*
X71993928Y-124784047D01*
X73660595Y-125117380D02*
X73089166Y-125117380D01*
X73374880Y-125117380D02*
X73374880Y-124117380D01*
X73279642Y-124260238D01*
X73184404Y-124355476D01*
X73089166Y-124403095D01*
X73946309Y-124117380D02*
X74279642Y-125117380D01*
X74612976Y-124117380D01*
X75470119Y-125117380D02*
X74898690Y-125117380D01*
X75184404Y-125117380D02*
X75184404Y-124117380D01*
X75089166Y-124260238D01*
X74993928Y-124355476D01*
X74898690Y-124403095D01*
X69517738Y-125727380D02*
X70089166Y-125727380D01*
X69803452Y-126727380D02*
X69803452Y-125727380D01*
X70422500Y-126727380D02*
X70422500Y-125727380D01*
X70803452Y-125727380D01*
X70898690Y-125775000D01*
X70946309Y-125822619D01*
X70993928Y-125917857D01*
X70993928Y-126060714D01*
X70946309Y-126155952D01*
X70898690Y-126203571D01*
X70803452Y-126251190D01*
X70422500Y-126251190D01*
X71898690Y-125727380D02*
X71422500Y-125727380D01*
X71374880Y-126203571D01*
X71422500Y-126155952D01*
X71517738Y-126108333D01*
X71755833Y-126108333D01*
X71851071Y-126155952D01*
X71898690Y-126203571D01*
X71946309Y-126298809D01*
X71946309Y-126536904D01*
X71898690Y-126632142D01*
X71851071Y-126679761D01*
X71755833Y-126727380D01*
X71517738Y-126727380D01*
X71422500Y-126679761D01*
X71374880Y-126632142D01*
X73136785Y-126727380D02*
X73136785Y-125727380D01*
X73517738Y-125727380D01*
X73612976Y-125775000D01*
X73660595Y-125822619D01*
X73708214Y-125917857D01*
X73708214Y-126060714D01*
X73660595Y-126155952D01*
X73612976Y-126203571D01*
X73517738Y-126251190D01*
X73136785Y-126251190D01*
X74327261Y-125727380D02*
X74517738Y-125727380D01*
X74612976Y-125775000D01*
X74708214Y-125870238D01*
X74755833Y-126060714D01*
X74755833Y-126394047D01*
X74708214Y-126584523D01*
X74612976Y-126679761D01*
X74517738Y-126727380D01*
X74327261Y-126727380D01*
X74232023Y-126679761D01*
X74136785Y-126584523D01*
X74089166Y-126394047D01*
X74089166Y-126060714D01*
X74136785Y-125870238D01*
X74232023Y-125775000D01*
X74327261Y-125727380D01*
X75184404Y-126203571D02*
X75517738Y-126203571D01*
X75660595Y-126727380D02*
X75184404Y-126727380D01*
X75184404Y-125727380D01*
X75660595Y-125727380D01*
X76089166Y-126346428D02*
X76851071Y-126346428D01*
X76470119Y-126727380D02*
X76470119Y-125965476D01*
X69517738Y-127337380D02*
X70089166Y-127337380D01*
X69803452Y-128337380D02*
X69803452Y-127337380D01*
X70422500Y-128337380D02*
X70422500Y-127337380D01*
X70803452Y-127337380D01*
X70898690Y-127385000D01*
X70946309Y-127432619D01*
X70993928Y-127527857D01*
X70993928Y-127670714D01*
X70946309Y-127765952D01*
X70898690Y-127813571D01*
X70803452Y-127861190D01*
X70422500Y-127861190D01*
X71851071Y-127337380D02*
X71660595Y-127337380D01*
X71565357Y-127385000D01*
X71517738Y-127432619D01*
X71422500Y-127575476D01*
X71374880Y-127765952D01*
X71374880Y-128146904D01*
X71422500Y-128242142D01*
X71470119Y-128289761D01*
X71565357Y-128337380D01*
X71755833Y-128337380D01*
X71851071Y-128289761D01*
X71898690Y-128242142D01*
X71946309Y-128146904D01*
X71946309Y-127908809D01*
X71898690Y-127813571D01*
X71851071Y-127765952D01*
X71755833Y-127718333D01*
X71565357Y-127718333D01*
X71470119Y-127765952D01*
X71422500Y-127813571D01*
X71374880Y-127908809D01*
X73136785Y-128337380D02*
X73136785Y-127337380D01*
X73517738Y-127337380D01*
X73612976Y-127385000D01*
X73660595Y-127432619D01*
X73708214Y-127527857D01*
X73708214Y-127670714D01*
X73660595Y-127765952D01*
X73612976Y-127813571D01*
X73517738Y-127861190D01*
X73136785Y-127861190D01*
X74327261Y-127337380D02*
X74517738Y-127337380D01*
X74612976Y-127385000D01*
X74708214Y-127480238D01*
X74755833Y-127670714D01*
X74755833Y-128004047D01*
X74708214Y-128194523D01*
X74612976Y-128289761D01*
X74517738Y-128337380D01*
X74327261Y-128337380D01*
X74232023Y-128289761D01*
X74136785Y-128194523D01*
X74089166Y-128004047D01*
X74089166Y-127670714D01*
X74136785Y-127480238D01*
X74232023Y-127385000D01*
X74327261Y-127337380D01*
X75184404Y-127813571D02*
X75517738Y-127813571D01*
X75660595Y-128337380D02*
X75184404Y-128337380D01*
X75184404Y-127337380D01*
X75660595Y-127337380D01*
X76089166Y-127956428D02*
X76851071Y-127956428D01*
X69517738Y-128947380D02*
X70089166Y-128947380D01*
X69803452Y-129947380D02*
X69803452Y-128947380D01*
X70422500Y-129947380D02*
X70422500Y-128947380D01*
X70803452Y-128947380D01*
X70898690Y-128995000D01*
X70946309Y-129042619D01*
X70993928Y-129137857D01*
X70993928Y-129280714D01*
X70946309Y-129375952D01*
X70898690Y-129423571D01*
X70803452Y-129471190D01*
X70422500Y-129471190D01*
X71327261Y-128947380D02*
X71993928Y-128947380D01*
X71565357Y-129947380D01*
X73136785Y-128947380D02*
X73136785Y-129756904D01*
X73184404Y-129852142D01*
X73232023Y-129899761D01*
X73327261Y-129947380D01*
X73517738Y-129947380D01*
X73612976Y-129899761D01*
X73660595Y-129852142D01*
X73708214Y-129756904D01*
X73708214Y-128947380D01*
X74136785Y-129899761D02*
X74279642Y-129947380D01*
X74517738Y-129947380D01*
X74612976Y-129899761D01*
X74660595Y-129852142D01*
X74708214Y-129756904D01*
X74708214Y-129661666D01*
X74660595Y-129566428D01*
X74612976Y-129518809D01*
X74517738Y-129471190D01*
X74327261Y-129423571D01*
X74232023Y-129375952D01*
X74184404Y-129328333D01*
X74136785Y-129233095D01*
X74136785Y-129137857D01*
X74184404Y-129042619D01*
X74232023Y-128995000D01*
X74327261Y-128947380D01*
X74565357Y-128947380D01*
X74708214Y-128995000D01*
X75470119Y-129423571D02*
X75612976Y-129471190D01*
X75660595Y-129518809D01*
X75708214Y-129614047D01*
X75708214Y-129756904D01*
X75660595Y-129852142D01*
X75612976Y-129899761D01*
X75517738Y-129947380D01*
X75136785Y-129947380D01*
X75136785Y-128947380D01*
X75470119Y-128947380D01*
X75565357Y-128995000D01*
X75612976Y-129042619D01*
X75660595Y-129137857D01*
X75660595Y-129233095D01*
X75612976Y-129328333D01*
X75565357Y-129375952D01*
X75470119Y-129423571D01*
X75136785Y-129423571D01*
X75898690Y-130042619D02*
X76660595Y-130042619D01*
X76898690Y-129947380D02*
X76898690Y-128947380D01*
X77136785Y-128947380D01*
X77279642Y-128995000D01*
X77374880Y-129090238D01*
X77422500Y-129185476D01*
X77470119Y-129375952D01*
X77470119Y-129518809D01*
X77422500Y-129709285D01*
X77374880Y-129804523D01*
X77279642Y-129899761D01*
X77136785Y-129947380D01*
X76898690Y-129947380D01*
X77898690Y-129947380D02*
X77898690Y-128947380D01*
X78279642Y-128947380D01*
X78374880Y-128995000D01*
X78422500Y-129042619D01*
X78470119Y-129137857D01*
X78470119Y-129280714D01*
X78422500Y-129375952D01*
X78374880Y-129423571D01*
X78279642Y-129471190D01*
X77898690Y-129471190D01*
X69517738Y-130557380D02*
X70089166Y-130557380D01*
X69803452Y-131557380D02*
X69803452Y-130557380D01*
X70422500Y-131557380D02*
X70422500Y-130557380D01*
X70803452Y-130557380D01*
X70898690Y-130605000D01*
X70946309Y-130652619D01*
X70993928Y-130747857D01*
X70993928Y-130890714D01*
X70946309Y-130985952D01*
X70898690Y-131033571D01*
X70803452Y-131081190D01*
X70422500Y-131081190D01*
X71565357Y-130985952D02*
X71470119Y-130938333D01*
X71422500Y-130890714D01*
X71374880Y-130795476D01*
X71374880Y-130747857D01*
X71422500Y-130652619D01*
X71470119Y-130605000D01*
X71565357Y-130557380D01*
X71755833Y-130557380D01*
X71851071Y-130605000D01*
X71898690Y-130652619D01*
X71946309Y-130747857D01*
X71946309Y-130795476D01*
X71898690Y-130890714D01*
X71851071Y-130938333D01*
X71755833Y-130985952D01*
X71565357Y-130985952D01*
X71470119Y-131033571D01*
X71422500Y-131081190D01*
X71374880Y-131176428D01*
X71374880Y-131366904D01*
X71422500Y-131462142D01*
X71470119Y-131509761D01*
X71565357Y-131557380D01*
X71755833Y-131557380D01*
X71851071Y-131509761D01*
X71898690Y-131462142D01*
X71946309Y-131366904D01*
X71946309Y-131176428D01*
X71898690Y-131081190D01*
X71851071Y-131033571D01*
X71755833Y-130985952D01*
X73136785Y-130557380D02*
X73136785Y-131366904D01*
X73184404Y-131462142D01*
X73232023Y-131509761D01*
X73327261Y-131557380D01*
X73517738Y-131557380D01*
X73612976Y-131509761D01*
X73660595Y-131462142D01*
X73708214Y-131366904D01*
X73708214Y-130557380D01*
X74136785Y-131509761D02*
X74279642Y-131557380D01*
X74517738Y-131557380D01*
X74612976Y-131509761D01*
X74660595Y-131462142D01*
X74708214Y-131366904D01*
X74708214Y-131271666D01*
X74660595Y-131176428D01*
X74612976Y-131128809D01*
X74517738Y-131081190D01*
X74327261Y-131033571D01*
X74232023Y-130985952D01*
X74184404Y-130938333D01*
X74136785Y-130843095D01*
X74136785Y-130747857D01*
X74184404Y-130652619D01*
X74232023Y-130605000D01*
X74327261Y-130557380D01*
X74565357Y-130557380D01*
X74708214Y-130605000D01*
X75470119Y-131033571D02*
X75612976Y-131081190D01*
X75660595Y-131128809D01*
X75708214Y-131224047D01*
X75708214Y-131366904D01*
X75660595Y-131462142D01*
X75612976Y-131509761D01*
X75517738Y-131557380D01*
X75136785Y-131557380D01*
X75136785Y-130557380D01*
X75470119Y-130557380D01*
X75565357Y-130605000D01*
X75612976Y-130652619D01*
X75660595Y-130747857D01*
X75660595Y-130843095D01*
X75612976Y-130938333D01*
X75565357Y-130985952D01*
X75470119Y-131033571D01*
X75136785Y-131033571D01*
X75898690Y-131652619D02*
X76660595Y-131652619D01*
X76898690Y-131557380D02*
X76898690Y-130557380D01*
X77136785Y-130557380D01*
X77279642Y-130605000D01*
X77374880Y-130700238D01*
X77422500Y-130795476D01*
X77470119Y-130985952D01*
X77470119Y-131128809D01*
X77422500Y-131319285D01*
X77374880Y-131414523D01*
X77279642Y-131509761D01*
X77136785Y-131557380D01*
X76898690Y-131557380D01*
X77898690Y-131557380D02*
X77898690Y-130557380D01*
X78470119Y-131557380D01*
X78470119Y-130557380D01*
X69517738Y-132167380D02*
X70089166Y-132167380D01*
X69803452Y-133167380D02*
X69803452Y-132167380D01*
X70422500Y-133167380D02*
X70422500Y-132167380D01*
X70803452Y-132167380D01*
X70898690Y-132215000D01*
X70946309Y-132262619D01*
X70993928Y-132357857D01*
X70993928Y-132500714D01*
X70946309Y-132595952D01*
X70898690Y-132643571D01*
X70803452Y-132691190D01*
X70422500Y-132691190D01*
X71470119Y-133167380D02*
X71660595Y-133167380D01*
X71755833Y-133119761D01*
X71803452Y-133072142D01*
X71898690Y-132929285D01*
X71946309Y-132738809D01*
X71946309Y-132357857D01*
X71898690Y-132262619D01*
X71851071Y-132215000D01*
X71755833Y-132167380D01*
X71565357Y-132167380D01*
X71470119Y-132215000D01*
X71422500Y-132262619D01*
X71374880Y-132357857D01*
X71374880Y-132595952D01*
X71422500Y-132691190D01*
X71470119Y-132738809D01*
X71565357Y-132786428D01*
X71755833Y-132786428D01*
X71851071Y-132738809D01*
X71898690Y-132691190D01*
X71946309Y-132595952D01*
X73136785Y-132167380D02*
X73136785Y-132976904D01*
X73184404Y-133072142D01*
X73232023Y-133119761D01*
X73327261Y-133167380D01*
X73517738Y-133167380D01*
X73612976Y-133119761D01*
X73660595Y-133072142D01*
X73708214Y-132976904D01*
X73708214Y-132167380D01*
X74136785Y-132881666D02*
X74612976Y-132881666D01*
X74041547Y-133167380D02*
X74374880Y-132167380D01*
X74708214Y-133167380D01*
X75612976Y-133167380D02*
X75279642Y-132691190D01*
X75041547Y-133167380D02*
X75041547Y-132167380D01*
X75422500Y-132167380D01*
X75517738Y-132215000D01*
X75565357Y-132262619D01*
X75612976Y-132357857D01*
X75612976Y-132500714D01*
X75565357Y-132595952D01*
X75517738Y-132643571D01*
X75422500Y-132691190D01*
X75041547Y-132691190D01*
X75898690Y-132167380D02*
X76470119Y-132167380D01*
X76184404Y-133167380D02*
X76184404Y-132167380D01*
X76565357Y-133262619D02*
X77327261Y-133262619D01*
X77422500Y-132167380D02*
X77993928Y-132167380D01*
X77708214Y-133167380D02*
X77708214Y-132167380D01*
X78232023Y-132167380D02*
X78898690Y-133167380D01*
X78898690Y-132167380D02*
X78232023Y-133167380D01*
X79279642Y-132786428D02*
X80041547Y-132786428D01*
X81041547Y-132215000D02*
X80946309Y-132167380D01*
X80803452Y-132167380D01*
X80660595Y-132215000D01*
X80565357Y-132310238D01*
X80517738Y-132405476D01*
X80470119Y-132595952D01*
X80470119Y-132738809D01*
X80517738Y-132929285D01*
X80565357Y-133024523D01*
X80660595Y-133119761D01*
X80803452Y-133167380D01*
X80898690Y-133167380D01*
X81041547Y-133119761D01*
X81089166Y-133072142D01*
X81089166Y-132738809D01*
X80898690Y-132738809D01*
X81517738Y-133167380D02*
X81517738Y-132167380D01*
X81898690Y-132167380D01*
X81993928Y-132215000D01*
X82041547Y-132262619D01*
X82089166Y-132357857D01*
X82089166Y-132500714D01*
X82041547Y-132595952D01*
X81993928Y-132643571D01*
X81898690Y-132691190D01*
X81517738Y-132691190D01*
X82470119Y-133119761D02*
X82612976Y-133167380D01*
X82851071Y-133167380D01*
X82946309Y-133119761D01*
X82993928Y-133072142D01*
X83041547Y-132976904D01*
X83041547Y-132881666D01*
X82993928Y-132786428D01*
X82946309Y-132738809D01*
X82851071Y-132691190D01*
X82660595Y-132643571D01*
X82565357Y-132595952D01*
X82517738Y-132548333D01*
X82470119Y-132453095D01*
X82470119Y-132357857D01*
X82517738Y-132262619D01*
X82565357Y-132215000D01*
X82660595Y-132167380D01*
X82898690Y-132167380D01*
X83041547Y-132215000D01*
X83232023Y-133262619D02*
X83993928Y-133262619D01*
X84803452Y-133167380D02*
X84470119Y-132691190D01*
X84232023Y-133167380D02*
X84232023Y-132167380D01*
X84612976Y-132167380D01*
X84708214Y-132215000D01*
X84755833Y-132262619D01*
X84803452Y-132357857D01*
X84803452Y-132500714D01*
X84755833Y-132595952D01*
X84708214Y-132643571D01*
X84612976Y-132691190D01*
X84232023Y-132691190D01*
X85136785Y-132167380D02*
X85803452Y-133167380D01*
X85803452Y-132167380D02*
X85136785Y-133167380D01*
X69517738Y-133777380D02*
X70089166Y-133777380D01*
X69803452Y-134777380D02*
X69803452Y-133777380D01*
X70422500Y-134777380D02*
X70422500Y-133777380D01*
X70803452Y-133777380D01*
X70898690Y-133825000D01*
X70946309Y-133872619D01*
X70993928Y-133967857D01*
X70993928Y-134110714D01*
X70946309Y-134205952D01*
X70898690Y-134253571D01*
X70803452Y-134301190D01*
X70422500Y-134301190D01*
X71946309Y-134777380D02*
X71374880Y-134777380D01*
X71660595Y-134777380D02*
X71660595Y-133777380D01*
X71565357Y-133920238D01*
X71470119Y-134015476D01*
X71374880Y-134063095D01*
X72565357Y-133777380D02*
X72660595Y-133777380D01*
X72755833Y-133825000D01*
X72803452Y-133872619D01*
X72851071Y-133967857D01*
X72898690Y-134158333D01*
X72898690Y-134396428D01*
X72851071Y-134586904D01*
X72803452Y-134682142D01*
X72755833Y-134729761D01*
X72660595Y-134777380D01*
X72565357Y-134777380D01*
X72470119Y-134729761D01*
X72422500Y-134682142D01*
X72374880Y-134586904D01*
X72327261Y-134396428D01*
X72327261Y-134158333D01*
X72374880Y-133967857D01*
X72422500Y-133872619D01*
X72470119Y-133825000D01*
X72565357Y-133777380D01*
X74089166Y-133777380D02*
X74089166Y-134586904D01*
X74136785Y-134682142D01*
X74184404Y-134729761D01*
X74279642Y-134777380D01*
X74470119Y-134777380D01*
X74565357Y-134729761D01*
X74612976Y-134682142D01*
X74660595Y-134586904D01*
X74660595Y-133777380D01*
X75089166Y-134491666D02*
X75565357Y-134491666D01*
X74993928Y-134777380D02*
X75327261Y-133777380D01*
X75660595Y-134777380D01*
X76565357Y-134777380D02*
X76232023Y-134301190D01*
X75993928Y-134777380D02*
X75993928Y-133777380D01*
X76374880Y-133777380D01*
X76470119Y-133825000D01*
X76517738Y-133872619D01*
X76565357Y-133967857D01*
X76565357Y-134110714D01*
X76517738Y-134205952D01*
X76470119Y-134253571D01*
X76374880Y-134301190D01*
X75993928Y-134301190D01*
X76851071Y-133777380D02*
X77422500Y-133777380D01*
X77136785Y-134777380D02*
X77136785Y-133777380D01*
X77517738Y-134872619D02*
X78279642Y-134872619D01*
X79089166Y-134777380D02*
X78755833Y-134301190D01*
X78517738Y-134777380D02*
X78517738Y-133777380D01*
X78898690Y-133777380D01*
X78993928Y-133825000D01*
X79041547Y-133872619D01*
X79089166Y-133967857D01*
X79089166Y-134110714D01*
X79041547Y-134205952D01*
X78993928Y-134253571D01*
X78898690Y-134301190D01*
X78517738Y-134301190D01*
X79422500Y-133777380D02*
X80089166Y-134777380D01*
X80089166Y-133777380D02*
X79422500Y-134777380D01*
X80470119Y-134396428D02*
X81232023Y-134396428D01*
X82232023Y-133825000D02*
X82136785Y-133777380D01*
X81993928Y-133777380D01*
X81851071Y-133825000D01*
X81755833Y-133920238D01*
X81708214Y-134015476D01*
X81660595Y-134205952D01*
X81660595Y-134348809D01*
X81708214Y-134539285D01*
X81755833Y-134634523D01*
X81851071Y-134729761D01*
X81993928Y-134777380D01*
X82089166Y-134777380D01*
X82232023Y-134729761D01*
X82279642Y-134682142D01*
X82279642Y-134348809D01*
X82089166Y-134348809D01*
X82708214Y-134777380D02*
X82708214Y-133777380D01*
X83089166Y-133777380D01*
X83184404Y-133825000D01*
X83232023Y-133872619D01*
X83279642Y-133967857D01*
X83279642Y-134110714D01*
X83232023Y-134205952D01*
X83184404Y-134253571D01*
X83089166Y-134301190D01*
X82708214Y-134301190D01*
X83660595Y-134729761D02*
X83803452Y-134777380D01*
X84041547Y-134777380D01*
X84136785Y-134729761D01*
X84184404Y-134682142D01*
X84232023Y-134586904D01*
X84232023Y-134491666D01*
X84184404Y-134396428D01*
X84136785Y-134348809D01*
X84041547Y-134301190D01*
X83851071Y-134253571D01*
X83755833Y-134205952D01*
X83708214Y-134158333D01*
X83660595Y-134063095D01*
X83660595Y-133967857D01*
X83708214Y-133872619D01*
X83755833Y-133825000D01*
X83851071Y-133777380D01*
X84089166Y-133777380D01*
X84232023Y-133825000D01*
X84422500Y-134872619D02*
X85184404Y-134872619D01*
X85279642Y-133777380D02*
X85851071Y-133777380D01*
X85565357Y-134777380D02*
X85565357Y-133777380D01*
X86089166Y-133777380D02*
X86755833Y-134777380D01*
X86755833Y-133777380D02*
X86089166Y-134777380D01*
X69517738Y-135387380D02*
X70089166Y-135387380D01*
X69803452Y-136387380D02*
X69803452Y-135387380D01*
X70422500Y-136387380D02*
X70422500Y-135387380D01*
X70803452Y-135387380D01*
X70898690Y-135435000D01*
X70946309Y-135482619D01*
X70993928Y-135577857D01*
X70993928Y-135720714D01*
X70946309Y-135815952D01*
X70898690Y-135863571D01*
X70803452Y-135911190D01*
X70422500Y-135911190D01*
X71946309Y-136387380D02*
X71374880Y-136387380D01*
X71660595Y-136387380D02*
X71660595Y-135387380D01*
X71565357Y-135530238D01*
X71470119Y-135625476D01*
X71374880Y-135673095D01*
X72898690Y-136387380D02*
X72327261Y-136387380D01*
X72612976Y-136387380D02*
X72612976Y-135387380D01*
X72517738Y-135530238D01*
X72422500Y-135625476D01*
X72327261Y-135673095D01*
X73946309Y-135387380D02*
X74279642Y-136387380D01*
X74612976Y-135387380D01*
X75517738Y-136292142D02*
X75470119Y-136339761D01*
X75327261Y-136387380D01*
X75232023Y-136387380D01*
X75089166Y-136339761D01*
X74993928Y-136244523D01*
X74946309Y-136149285D01*
X74898690Y-135958809D01*
X74898690Y-135815952D01*
X74946309Y-135625476D01*
X74993928Y-135530238D01*
X75089166Y-135435000D01*
X75232023Y-135387380D01*
X75327261Y-135387380D01*
X75470119Y-135435000D01*
X75517738Y-135482619D01*
X76517738Y-136292142D02*
X76470119Y-136339761D01*
X76327261Y-136387380D01*
X76232023Y-136387380D01*
X76089166Y-136339761D01*
X75993928Y-136244523D01*
X75946309Y-136149285D01*
X75898690Y-135958809D01*
X75898690Y-135815952D01*
X75946309Y-135625476D01*
X75993928Y-135530238D01*
X76089166Y-135435000D01*
X76232023Y-135387380D01*
X76327261Y-135387380D01*
X76470119Y-135435000D01*
X76517738Y-135482619D01*
X76708214Y-136482619D02*
X77470119Y-136482619D01*
X78232023Y-135435000D02*
X78136785Y-135387380D01*
X77993928Y-135387380D01*
X77851071Y-135435000D01*
X77755833Y-135530238D01*
X77708214Y-135625476D01*
X77660595Y-135815952D01*
X77660595Y-135958809D01*
X77708214Y-136149285D01*
X77755833Y-136244523D01*
X77851071Y-136339761D01*
X77993928Y-136387380D01*
X78089166Y-136387380D01*
X78232023Y-136339761D01*
X78279642Y-136292142D01*
X78279642Y-135958809D01*
X78089166Y-135958809D01*
X78708214Y-136387380D02*
X78708214Y-135387380D01*
X79089166Y-135387380D01*
X79184404Y-135435000D01*
X79232023Y-135482619D01*
X79279642Y-135577857D01*
X79279642Y-135720714D01*
X79232023Y-135815952D01*
X79184404Y-135863571D01*
X79089166Y-135911190D01*
X78708214Y-135911190D01*
X79660595Y-136339761D02*
X79803452Y-136387380D01*
X80041547Y-136387380D01*
X80136785Y-136339761D01*
X80184404Y-136292142D01*
X80232023Y-136196904D01*
X80232023Y-136101666D01*
X80184404Y-136006428D01*
X80136785Y-135958809D01*
X80041547Y-135911190D01*
X79851071Y-135863571D01*
X79755833Y-135815952D01*
X79708214Y-135768333D01*
X79660595Y-135673095D01*
X79660595Y-135577857D01*
X79708214Y-135482619D01*
X79755833Y-135435000D01*
X79851071Y-135387380D01*
X80089166Y-135387380D01*
X80232023Y-135435000D01*
X69517738Y-136997380D02*
X70089166Y-136997380D01*
X69803452Y-137997380D02*
X69803452Y-136997380D01*
X70422500Y-137997380D02*
X70422500Y-136997380D01*
X70803452Y-136997380D01*
X70898690Y-137045000D01*
X70946309Y-137092619D01*
X70993928Y-137187857D01*
X70993928Y-137330714D01*
X70946309Y-137425952D01*
X70898690Y-137473571D01*
X70803452Y-137521190D01*
X70422500Y-137521190D01*
X71946309Y-137997380D02*
X71374880Y-137997380D01*
X71660595Y-137997380D02*
X71660595Y-136997380D01*
X71565357Y-137140238D01*
X71470119Y-137235476D01*
X71374880Y-137283095D01*
X72327261Y-137092619D02*
X72374880Y-137045000D01*
X72470119Y-136997380D01*
X72708214Y-136997380D01*
X72803452Y-137045000D01*
X72851071Y-137092619D01*
X72898690Y-137187857D01*
X72898690Y-137283095D01*
X72851071Y-137425952D01*
X72279642Y-137997380D01*
X72898690Y-137997380D01*
X74612976Y-137045000D02*
X74517738Y-136997380D01*
X74374880Y-136997380D01*
X74232023Y-137045000D01*
X74136785Y-137140238D01*
X74089166Y-137235476D01*
X74041547Y-137425952D01*
X74041547Y-137568809D01*
X74089166Y-137759285D01*
X74136785Y-137854523D01*
X74232023Y-137949761D01*
X74374880Y-137997380D01*
X74470119Y-137997380D01*
X74612976Y-137949761D01*
X74660595Y-137902142D01*
X74660595Y-137568809D01*
X74470119Y-137568809D01*
X75089166Y-137997380D02*
X75089166Y-136997380D01*
X75470119Y-136997380D01*
X75565357Y-137045000D01*
X75612976Y-137092619D01*
X75660595Y-137187857D01*
X75660595Y-137330714D01*
X75612976Y-137425952D01*
X75565357Y-137473571D01*
X75470119Y-137521190D01*
X75089166Y-137521190D01*
X76089166Y-137997380D02*
X76089166Y-136997380D01*
X76755833Y-136997380D02*
X76946309Y-136997380D01*
X77041547Y-137045000D01*
X77136785Y-137140238D01*
X77184404Y-137330714D01*
X77184404Y-137664047D01*
X77136785Y-137854523D01*
X77041547Y-137949761D01*
X76946309Y-137997380D01*
X76755833Y-137997380D01*
X76660595Y-137949761D01*
X76565357Y-137854523D01*
X76517738Y-137664047D01*
X76517738Y-137330714D01*
X76565357Y-137140238D01*
X76660595Y-137045000D01*
X76755833Y-136997380D01*
X77517738Y-136997380D02*
X78136785Y-136997380D01*
X77803452Y-137378333D01*
X77946309Y-137378333D01*
X78041547Y-137425952D01*
X78089166Y-137473571D01*
X78136785Y-137568809D01*
X78136785Y-137806904D01*
X78089166Y-137902142D01*
X78041547Y-137949761D01*
X77946309Y-137997380D01*
X77660595Y-137997380D01*
X77565357Y-137949761D01*
X77517738Y-137902142D01*
X78327261Y-138092619D02*
X79089166Y-138092619D01*
X79327261Y-137997380D02*
X79327261Y-136997380D01*
X79755833Y-137092619D02*
X79803452Y-137045000D01*
X79898690Y-136997380D01*
X80136785Y-136997380D01*
X80232023Y-137045000D01*
X80279642Y-137092619D01*
X80327261Y-137187857D01*
X80327261Y-137283095D01*
X80279642Y-137425952D01*
X79708214Y-137997380D01*
X80327261Y-137997380D01*
X81327261Y-137902142D02*
X81279642Y-137949761D01*
X81136785Y-137997380D01*
X81041547Y-137997380D01*
X80898690Y-137949761D01*
X80803452Y-137854523D01*
X80755833Y-137759285D01*
X80708214Y-137568809D01*
X80708214Y-137425952D01*
X80755833Y-137235476D01*
X80803452Y-137140238D01*
X80898690Y-137045000D01*
X81041547Y-136997380D01*
X81136785Y-136997380D01*
X81279642Y-137045000D01*
X81327261Y-137092619D01*
X81517738Y-138092619D02*
X82279642Y-138092619D01*
X82470119Y-137949761D02*
X82612976Y-137997380D01*
X82851071Y-137997380D01*
X82946309Y-137949761D01*
X82993928Y-137902142D01*
X83041547Y-137806904D01*
X83041547Y-137711666D01*
X82993928Y-137616428D01*
X82946309Y-137568809D01*
X82851071Y-137521190D01*
X82660595Y-137473571D01*
X82565357Y-137425952D01*
X82517738Y-137378333D01*
X82470119Y-137283095D01*
X82470119Y-137187857D01*
X82517738Y-137092619D01*
X82565357Y-137045000D01*
X82660595Y-136997380D01*
X82898690Y-136997380D01*
X83041547Y-137045000D01*
X84041547Y-137902142D02*
X83993928Y-137949761D01*
X83851071Y-137997380D01*
X83755833Y-137997380D01*
X83612976Y-137949761D01*
X83517738Y-137854523D01*
X83470119Y-137759285D01*
X83422500Y-137568809D01*
X83422500Y-137425952D01*
X83470119Y-137235476D01*
X83517738Y-137140238D01*
X83612976Y-137045000D01*
X83755833Y-136997380D01*
X83851071Y-136997380D01*
X83993928Y-137045000D01*
X84041547Y-137092619D01*
X84946309Y-137997380D02*
X84470119Y-137997380D01*
X84470119Y-136997380D01*
X69517738Y-138607380D02*
X70089166Y-138607380D01*
X69803452Y-139607380D02*
X69803452Y-138607380D01*
X70422500Y-139607380D02*
X70422500Y-138607380D01*
X70803452Y-138607380D01*
X70898690Y-138655000D01*
X70946309Y-138702619D01*
X70993928Y-138797857D01*
X70993928Y-138940714D01*
X70946309Y-139035952D01*
X70898690Y-139083571D01*
X70803452Y-139131190D01*
X70422500Y-139131190D01*
X71946309Y-139607380D02*
X71374880Y-139607380D01*
X71660595Y-139607380D02*
X71660595Y-138607380D01*
X71565357Y-138750238D01*
X71470119Y-138845476D01*
X71374880Y-138893095D01*
X72279642Y-138607380D02*
X72898690Y-138607380D01*
X72565357Y-138988333D01*
X72708214Y-138988333D01*
X72803452Y-139035952D01*
X72851071Y-139083571D01*
X72898690Y-139178809D01*
X72898690Y-139416904D01*
X72851071Y-139512142D01*
X72803452Y-139559761D01*
X72708214Y-139607380D01*
X72422500Y-139607380D01*
X72327261Y-139559761D01*
X72279642Y-139512142D01*
X74612976Y-138655000D02*
X74517738Y-138607380D01*
X74374880Y-138607380D01*
X74232023Y-138655000D01*
X74136785Y-138750238D01*
X74089166Y-138845476D01*
X74041547Y-139035952D01*
X74041547Y-139178809D01*
X74089166Y-139369285D01*
X74136785Y-139464523D01*
X74232023Y-139559761D01*
X74374880Y-139607380D01*
X74470119Y-139607380D01*
X74612976Y-139559761D01*
X74660595Y-139512142D01*
X74660595Y-139178809D01*
X74470119Y-139178809D01*
X75089166Y-139607380D02*
X75089166Y-138607380D01*
X75470119Y-138607380D01*
X75565357Y-138655000D01*
X75612976Y-138702619D01*
X75660595Y-138797857D01*
X75660595Y-138940714D01*
X75612976Y-139035952D01*
X75565357Y-139083571D01*
X75470119Y-139131190D01*
X75089166Y-139131190D01*
X76089166Y-139607380D02*
X76089166Y-138607380D01*
X76755833Y-138607380D02*
X76946309Y-138607380D01*
X77041547Y-138655000D01*
X77136785Y-138750238D01*
X77184404Y-138940714D01*
X77184404Y-139274047D01*
X77136785Y-139464523D01*
X77041547Y-139559761D01*
X76946309Y-139607380D01*
X76755833Y-139607380D01*
X76660595Y-139559761D01*
X76565357Y-139464523D01*
X76517738Y-139274047D01*
X76517738Y-138940714D01*
X76565357Y-138750238D01*
X76660595Y-138655000D01*
X76755833Y-138607380D01*
X77565357Y-138702619D02*
X77612976Y-138655000D01*
X77708214Y-138607380D01*
X77946309Y-138607380D01*
X78041547Y-138655000D01*
X78089166Y-138702619D01*
X78136785Y-138797857D01*
X78136785Y-138893095D01*
X78089166Y-139035952D01*
X77517738Y-139607380D01*
X78136785Y-139607380D01*
X78327261Y-139702619D02*
X79089166Y-139702619D01*
X79327261Y-139607380D02*
X79327261Y-138607380D01*
X79755833Y-138702619D02*
X79803452Y-138655000D01*
X79898690Y-138607380D01*
X80136785Y-138607380D01*
X80232023Y-138655000D01*
X80279642Y-138702619D01*
X80327261Y-138797857D01*
X80327261Y-138893095D01*
X80279642Y-139035952D01*
X79708214Y-139607380D01*
X80327261Y-139607380D01*
X81327261Y-139512142D02*
X81279642Y-139559761D01*
X81136785Y-139607380D01*
X81041547Y-139607380D01*
X80898690Y-139559761D01*
X80803452Y-139464523D01*
X80755833Y-139369285D01*
X80708214Y-139178809D01*
X80708214Y-139035952D01*
X80755833Y-138845476D01*
X80803452Y-138750238D01*
X80898690Y-138655000D01*
X81041547Y-138607380D01*
X81136785Y-138607380D01*
X81279642Y-138655000D01*
X81327261Y-138702619D01*
X81517738Y-139702619D02*
X82279642Y-139702619D01*
X82470119Y-139559761D02*
X82612976Y-139607380D01*
X82851071Y-139607380D01*
X82946309Y-139559761D01*
X82993928Y-139512142D01*
X83041547Y-139416904D01*
X83041547Y-139321666D01*
X82993928Y-139226428D01*
X82946309Y-139178809D01*
X82851071Y-139131190D01*
X82660595Y-139083571D01*
X82565357Y-139035952D01*
X82517738Y-138988333D01*
X82470119Y-138893095D01*
X82470119Y-138797857D01*
X82517738Y-138702619D01*
X82565357Y-138655000D01*
X82660595Y-138607380D01*
X82898690Y-138607380D01*
X83041547Y-138655000D01*
X83470119Y-139607380D02*
X83470119Y-138607380D01*
X83708214Y-138607380D01*
X83851071Y-138655000D01*
X83946309Y-138750238D01*
X83993928Y-138845476D01*
X84041547Y-139035952D01*
X84041547Y-139178809D01*
X83993928Y-139369285D01*
X83946309Y-139464523D01*
X83851071Y-139559761D01*
X83708214Y-139607380D01*
X83470119Y-139607380D01*
X84422500Y-139321666D02*
X84898690Y-139321666D01*
X84327261Y-139607380D02*
X84660595Y-138607380D01*
X84993928Y-139607380D01*
%TO.C,C5*%
X138733333Y-140087142D02*
X138685714Y-140134761D01*
X138542857Y-140182380D01*
X138447619Y-140182380D01*
X138304761Y-140134761D01*
X138209523Y-140039523D01*
X138161904Y-139944285D01*
X138114285Y-139753809D01*
X138114285Y-139610952D01*
X138161904Y-139420476D01*
X138209523Y-139325238D01*
X138304761Y-139230000D01*
X138447619Y-139182380D01*
X138542857Y-139182380D01*
X138685714Y-139230000D01*
X138733333Y-139277619D01*
X139638095Y-139182380D02*
X139161904Y-139182380D01*
X139114285Y-139658571D01*
X139161904Y-139610952D01*
X139257142Y-139563333D01*
X139495238Y-139563333D01*
X139590476Y-139610952D01*
X139638095Y-139658571D01*
X139685714Y-139753809D01*
X139685714Y-139991904D01*
X139638095Y-140087142D01*
X139590476Y-140134761D01*
X139495238Y-140182380D01*
X139257142Y-140182380D01*
X139161904Y-140134761D01*
X139114285Y-140087142D01*
%TO.C,R19*%
X138452380Y-117917857D02*
X137976190Y-118251190D01*
X138452380Y-118489285D02*
X137452380Y-118489285D01*
X137452380Y-118108333D01*
X137500000Y-118013095D01*
X137547619Y-117965476D01*
X137642857Y-117917857D01*
X137785714Y-117917857D01*
X137880952Y-117965476D01*
X137928571Y-118013095D01*
X137976190Y-118108333D01*
X137976190Y-118489285D01*
X138452380Y-116965476D02*
X138452380Y-117536904D01*
X138452380Y-117251190D02*
X137452380Y-117251190D01*
X137595238Y-117346428D01*
X137690476Y-117441666D01*
X137738095Y-117536904D01*
X138452380Y-116489285D02*
X138452380Y-116298809D01*
X138404761Y-116203571D01*
X138357142Y-116155952D01*
X138214285Y-116060714D01*
X138023809Y-116013095D01*
X137642857Y-116013095D01*
X137547619Y-116060714D01*
X137500000Y-116108333D01*
X137452380Y-116203571D01*
X137452380Y-116394047D01*
X137500000Y-116489285D01*
X137547619Y-116536904D01*
X137642857Y-116584523D01*
X137880952Y-116584523D01*
X137976190Y-116536904D01*
X138023809Y-116489285D01*
X138071428Y-116394047D01*
X138071428Y-116203571D01*
X138023809Y-116108333D01*
X137976190Y-116060714D01*
X137880952Y-116013095D01*
%TO.C,R17*%
X145057142Y-123752380D02*
X144723809Y-123276190D01*
X144485714Y-123752380D02*
X144485714Y-122752380D01*
X144866666Y-122752380D01*
X144961904Y-122800000D01*
X145009523Y-122847619D01*
X145057142Y-122942857D01*
X145057142Y-123085714D01*
X145009523Y-123180952D01*
X144961904Y-123228571D01*
X144866666Y-123276190D01*
X144485714Y-123276190D01*
X146009523Y-123752380D02*
X145438095Y-123752380D01*
X145723809Y-123752380D02*
X145723809Y-122752380D01*
X145628571Y-122895238D01*
X145533333Y-122990476D01*
X145438095Y-123038095D01*
X146342857Y-122752380D02*
X147009523Y-122752380D01*
X146580952Y-123752380D01*
%TO.C,U7*%
X141538095Y-146952380D02*
X141538095Y-147761904D01*
X141585714Y-147857142D01*
X141633333Y-147904761D01*
X141728571Y-147952380D01*
X141919047Y-147952380D01*
X142014285Y-147904761D01*
X142061904Y-147857142D01*
X142109523Y-147761904D01*
X142109523Y-146952380D01*
X142490476Y-146952380D02*
X143157142Y-146952380D01*
X142728571Y-147952380D01*
%TO.C,D7*%
X116813104Y-136621780D02*
X116813104Y-135621780D01*
X117051200Y-135621780D01*
X117194057Y-135669400D01*
X117289295Y-135764638D01*
X117336914Y-135859876D01*
X117384533Y-136050352D01*
X117384533Y-136193209D01*
X117336914Y-136383685D01*
X117289295Y-136478923D01*
X117194057Y-136574161D01*
X117051200Y-136621780D01*
X116813104Y-136621780D01*
X117717866Y-135621780D02*
X118384533Y-135621780D01*
X117955961Y-136621780D01*
%TO.C,R37*%
X136002174Y-114421488D02*
X135578841Y-114717821D01*
X136002174Y-114929488D02*
X135113174Y-114929488D01*
X135113174Y-114590821D01*
X135155508Y-114506154D01*
X135197841Y-114463821D01*
X135282508Y-114421488D01*
X135409508Y-114421488D01*
X135494174Y-114463821D01*
X135536508Y-114506154D01*
X135578841Y-114590821D01*
X135578841Y-114929488D01*
X135113174Y-114125154D02*
X135113174Y-113574821D01*
X135451841Y-113871154D01*
X135451841Y-113744154D01*
X135494174Y-113659488D01*
X135536508Y-113617154D01*
X135621174Y-113574821D01*
X135832841Y-113574821D01*
X135917508Y-113617154D01*
X135959841Y-113659488D01*
X136002174Y-113744154D01*
X136002174Y-113998154D01*
X135959841Y-114082821D01*
X135917508Y-114125154D01*
X135113174Y-113278488D02*
X135113174Y-112685821D01*
X136002174Y-113066821D01*
%TO.C,R23*%
X132610142Y-147344714D02*
X132356142Y-146981857D01*
X132174714Y-147344714D02*
X132174714Y-146582714D01*
X132465000Y-146582714D01*
X132537571Y-146619000D01*
X132573857Y-146655285D01*
X132610142Y-146727857D01*
X132610142Y-146836714D01*
X132573857Y-146909285D01*
X132537571Y-146945571D01*
X132465000Y-146981857D01*
X132174714Y-146981857D01*
X132900428Y-146655285D02*
X132936714Y-146619000D01*
X133009285Y-146582714D01*
X133190714Y-146582714D01*
X133263285Y-146619000D01*
X133299571Y-146655285D01*
X133335857Y-146727857D01*
X133335857Y-146800428D01*
X133299571Y-146909285D01*
X132864142Y-147344714D01*
X133335857Y-147344714D01*
X133589857Y-146582714D02*
X134061571Y-146582714D01*
X133807571Y-146873000D01*
X133916428Y-146873000D01*
X133989000Y-146909285D01*
X134025285Y-146945571D01*
X134061571Y-147018142D01*
X134061571Y-147199571D01*
X134025285Y-147272142D01*
X133989000Y-147308428D01*
X133916428Y-147344714D01*
X133698714Y-147344714D01*
X133626142Y-147308428D01*
X133589857Y-147272142D01*
%TO.C,D2*%
X126465104Y-157627580D02*
X126465104Y-156627580D01*
X126703200Y-156627580D01*
X126846057Y-156675200D01*
X126941295Y-156770438D01*
X126988914Y-156865676D01*
X127036533Y-157056152D01*
X127036533Y-157199009D01*
X126988914Y-157389485D01*
X126941295Y-157484723D01*
X126846057Y-157579961D01*
X126703200Y-157627580D01*
X126465104Y-157627580D01*
X127417485Y-156722819D02*
X127465104Y-156675200D01*
X127560342Y-156627580D01*
X127798438Y-156627580D01*
X127893676Y-156675200D01*
X127941295Y-156722819D01*
X127988914Y-156818057D01*
X127988914Y-156913295D01*
X127941295Y-157056152D01*
X127369866Y-157627580D01*
X127988914Y-157627580D01*
D13*
%TO.C,TP6*%
X142863428Y-143282714D02*
X143298857Y-143282714D01*
X143081142Y-144044714D02*
X143081142Y-143282714D01*
X143552857Y-144044714D02*
X143552857Y-143282714D01*
X143843142Y-143282714D01*
X143915714Y-143319000D01*
X143952000Y-143355285D01*
X143988285Y-143427857D01*
X143988285Y-143536714D01*
X143952000Y-143609285D01*
X143915714Y-143645571D01*
X143843142Y-143681857D01*
X143552857Y-143681857D01*
X144641428Y-143282714D02*
X144496285Y-143282714D01*
X144423714Y-143319000D01*
X144387428Y-143355285D01*
X144314857Y-143464142D01*
X144278571Y-143609285D01*
X144278571Y-143899571D01*
X144314857Y-143972142D01*
X144351142Y-144008428D01*
X144423714Y-144044714D01*
X144568857Y-144044714D01*
X144641428Y-144008428D01*
X144677714Y-143972142D01*
X144714000Y-143899571D01*
X144714000Y-143718142D01*
X144677714Y-143645571D01*
X144641428Y-143609285D01*
X144568857Y-143573000D01*
X144423714Y-143573000D01*
X144351142Y-143609285D01*
X144314857Y-143645571D01*
X144278571Y-143718142D01*
%TO.C,TP2*%
X114738428Y-119657714D02*
X115173857Y-119657714D01*
X114956142Y-120419714D02*
X114956142Y-119657714D01*
X115427857Y-120419714D02*
X115427857Y-119657714D01*
X115718142Y-119657714D01*
X115790714Y-119694000D01*
X115827000Y-119730285D01*
X115863285Y-119802857D01*
X115863285Y-119911714D01*
X115827000Y-119984285D01*
X115790714Y-120020571D01*
X115718142Y-120056857D01*
X115427857Y-120056857D01*
X116153571Y-119730285D02*
X116189857Y-119694000D01*
X116262428Y-119657714D01*
X116443857Y-119657714D01*
X116516428Y-119694000D01*
X116552714Y-119730285D01*
X116589000Y-119802857D01*
X116589000Y-119875428D01*
X116552714Y-119984285D01*
X116117285Y-120419714D01*
X116589000Y-120419714D01*
%TO.C,TP7*%
X123263427Y-113132703D02*
X123698856Y-113132703D01*
X123481141Y-113894703D02*
X123481141Y-113132703D01*
X123952856Y-113894703D02*
X123952856Y-113132703D01*
X124243141Y-113132703D01*
X124315713Y-113168989D01*
X124351999Y-113205274D01*
X124388284Y-113277846D01*
X124388284Y-113386703D01*
X124351999Y-113459274D01*
X124315713Y-113495560D01*
X124243141Y-113531846D01*
X123952856Y-113531846D01*
X124642284Y-113132703D02*
X125150284Y-113132703D01*
X124823713Y-113894703D01*
D12*
%TO.C,U4*%
X124352380Y-129861904D02*
X125161904Y-129861904D01*
X125257142Y-129814285D01*
X125304761Y-129766666D01*
X125352380Y-129671428D01*
X125352380Y-129480952D01*
X125304761Y-129385714D01*
X125257142Y-129338095D01*
X125161904Y-129290476D01*
X124352380Y-129290476D01*
X124685714Y-128385714D02*
X125352380Y-128385714D01*
X124304761Y-128623809D02*
X125019047Y-128861904D01*
X125019047Y-128242857D01*
%TO.C,SW1*%
X131541666Y-113354761D02*
X131684523Y-113402380D01*
X131922619Y-113402380D01*
X132017857Y-113354761D01*
X132065476Y-113307142D01*
X132113095Y-113211904D01*
X132113095Y-113116666D01*
X132065476Y-113021428D01*
X132017857Y-112973809D01*
X131922619Y-112926190D01*
X131732142Y-112878571D01*
X131636904Y-112830952D01*
X131589285Y-112783333D01*
X131541666Y-112688095D01*
X131541666Y-112592857D01*
X131589285Y-112497619D01*
X131636904Y-112450000D01*
X131732142Y-112402380D01*
X131970238Y-112402380D01*
X132113095Y-112450000D01*
X132446428Y-112402380D02*
X132684523Y-113402380D01*
X132875000Y-112688095D01*
X133065476Y-113402380D01*
X133303571Y-112402380D01*
X134208333Y-113402380D02*
X133636904Y-113402380D01*
X133922619Y-113402380D02*
X133922619Y-112402380D01*
X133827380Y-112545238D01*
X133732142Y-112640476D01*
X133636904Y-112688095D01*
%TO.C,R34*%
X168851942Y-152039580D02*
X168518609Y-151563390D01*
X168280514Y-152039580D02*
X168280514Y-151039580D01*
X168661466Y-151039580D01*
X168756704Y-151087200D01*
X168804323Y-151134819D01*
X168851942Y-151230057D01*
X168851942Y-151372914D01*
X168804323Y-151468152D01*
X168756704Y-151515771D01*
X168661466Y-151563390D01*
X168280514Y-151563390D01*
X169185276Y-151039580D02*
X169804323Y-151039580D01*
X169470990Y-151420533D01*
X169613847Y-151420533D01*
X169709085Y-151468152D01*
X169756704Y-151515771D01*
X169804323Y-151611009D01*
X169804323Y-151849104D01*
X169756704Y-151944342D01*
X169709085Y-151991961D01*
X169613847Y-152039580D01*
X169328133Y-152039580D01*
X169232895Y-151991961D01*
X169185276Y-151944342D01*
X170661466Y-151372914D02*
X170661466Y-152039580D01*
X170423371Y-150991961D02*
X170185276Y-151706247D01*
X170804323Y-151706247D01*
%TO.C,C20*%
X139591785Y-134651785D02*
X139561547Y-134682023D01*
X139470833Y-134712261D01*
X139410357Y-134712261D01*
X139319642Y-134682023D01*
X139259166Y-134621547D01*
X139228928Y-134561071D01*
X139198690Y-134440119D01*
X139198690Y-134349404D01*
X139228928Y-134228452D01*
X139259166Y-134167976D01*
X139319642Y-134107500D01*
X139410357Y-134077261D01*
X139470833Y-134077261D01*
X139561547Y-134107500D01*
X139591785Y-134137738D01*
X139833690Y-134137738D02*
X139863928Y-134107500D01*
X139924404Y-134077261D01*
X140075595Y-134077261D01*
X140136071Y-134107500D01*
X140166309Y-134137738D01*
X140196547Y-134198214D01*
X140196547Y-134258690D01*
X140166309Y-134349404D01*
X139803452Y-134712261D01*
X140196547Y-134712261D01*
X140589642Y-134077261D02*
X140650119Y-134077261D01*
X140710595Y-134107500D01*
X140740833Y-134137738D01*
X140771071Y-134198214D01*
X140801309Y-134319166D01*
X140801309Y-134470357D01*
X140771071Y-134591309D01*
X140740833Y-134651785D01*
X140710595Y-134682023D01*
X140650119Y-134712261D01*
X140589642Y-134712261D01*
X140529166Y-134682023D01*
X140498928Y-134651785D01*
X140468690Y-134591309D01*
X140438452Y-134470357D01*
X140438452Y-134319166D01*
X140468690Y-134198214D01*
X140498928Y-134137738D01*
X140529166Y-134107500D01*
X140589642Y-134077261D01*
%TO.C,L2*%
X130352380Y-134666666D02*
X130352380Y-135142857D01*
X129352380Y-135142857D01*
X129447619Y-134380952D02*
X129400000Y-134333333D01*
X129352380Y-134238095D01*
X129352380Y-134000000D01*
X129400000Y-133904761D01*
X129447619Y-133857142D01*
X129542857Y-133809523D01*
X129638095Y-133809523D01*
X129780952Y-133857142D01*
X130352380Y-134428571D01*
X130352380Y-133809523D01*
%TO.C,C3*%
X120737333Y-118822742D02*
X120689714Y-118870361D01*
X120546857Y-118917980D01*
X120451619Y-118917980D01*
X120308761Y-118870361D01*
X120213523Y-118775123D01*
X120165904Y-118679885D01*
X120118285Y-118489409D01*
X120118285Y-118346552D01*
X120165904Y-118156076D01*
X120213523Y-118060838D01*
X120308761Y-117965600D01*
X120451619Y-117917980D01*
X120546857Y-117917980D01*
X120689714Y-117965600D01*
X120737333Y-118013219D01*
X121070666Y-117917980D02*
X121689714Y-117917980D01*
X121356380Y-118298933D01*
X121499238Y-118298933D01*
X121594476Y-118346552D01*
X121642095Y-118394171D01*
X121689714Y-118489409D01*
X121689714Y-118727504D01*
X121642095Y-118822742D01*
X121594476Y-118870361D01*
X121499238Y-118917980D01*
X121213523Y-118917980D01*
X121118285Y-118870361D01*
X121070666Y-118822742D01*
%TO.C,R27*%
X153957142Y-123902380D02*
X153623809Y-123426190D01*
X153385714Y-123902380D02*
X153385714Y-122902380D01*
X153766666Y-122902380D01*
X153861904Y-122950000D01*
X153909523Y-122997619D01*
X153957142Y-123092857D01*
X153957142Y-123235714D01*
X153909523Y-123330952D01*
X153861904Y-123378571D01*
X153766666Y-123426190D01*
X153385714Y-123426190D01*
X154338095Y-122997619D02*
X154385714Y-122950000D01*
X154480952Y-122902380D01*
X154719047Y-122902380D01*
X154814285Y-122950000D01*
X154861904Y-122997619D01*
X154909523Y-123092857D01*
X154909523Y-123188095D01*
X154861904Y-123330952D01*
X154290476Y-123902380D01*
X154909523Y-123902380D01*
X155242857Y-122902380D02*
X155909523Y-122902380D01*
X155480952Y-123902380D01*
%TO.C,C1*%
X183533333Y-139857142D02*
X183485714Y-139904761D01*
X183342857Y-139952380D01*
X183247619Y-139952380D01*
X183104761Y-139904761D01*
X183009523Y-139809523D01*
X182961904Y-139714285D01*
X182914285Y-139523809D01*
X182914285Y-139380952D01*
X182961904Y-139190476D01*
X183009523Y-139095238D01*
X183104761Y-139000000D01*
X183247619Y-138952380D01*
X183342857Y-138952380D01*
X183485714Y-139000000D01*
X183533333Y-139047619D01*
X184485714Y-139952380D02*
X183914285Y-139952380D01*
X184200000Y-139952380D02*
X184200000Y-138952380D01*
X184104761Y-139095238D01*
X184009523Y-139190476D01*
X183914285Y-139238095D01*
D13*
%TO.C,C26*%
X135835142Y-136122142D02*
X135798857Y-136158428D01*
X135690000Y-136194714D01*
X135617428Y-136194714D01*
X135508571Y-136158428D01*
X135436000Y-136085857D01*
X135399714Y-136013285D01*
X135363428Y-135868142D01*
X135363428Y-135759285D01*
X135399714Y-135614142D01*
X135436000Y-135541571D01*
X135508571Y-135469000D01*
X135617428Y-135432714D01*
X135690000Y-135432714D01*
X135798857Y-135469000D01*
X135835142Y-135505285D01*
X136125428Y-135505285D02*
X136161714Y-135469000D01*
X136234285Y-135432714D01*
X136415714Y-135432714D01*
X136488285Y-135469000D01*
X136524571Y-135505285D01*
X136560857Y-135577857D01*
X136560857Y-135650428D01*
X136524571Y-135759285D01*
X136089142Y-136194714D01*
X136560857Y-136194714D01*
X137214000Y-135432714D02*
X137068857Y-135432714D01*
X136996285Y-135469000D01*
X136960000Y-135505285D01*
X136887428Y-135614142D01*
X136851142Y-135759285D01*
X136851142Y-136049571D01*
X136887428Y-136122142D01*
X136923714Y-136158428D01*
X136996285Y-136194714D01*
X137141428Y-136194714D01*
X137214000Y-136158428D01*
X137250285Y-136122142D01*
X137286571Y-136049571D01*
X137286571Y-135868142D01*
X137250285Y-135795571D01*
X137214000Y-135759285D01*
X137141428Y-135723000D01*
X136996285Y-135723000D01*
X136923714Y-135759285D01*
X136887428Y-135795571D01*
X136851142Y-135868142D01*
D12*
%TO.C,R18*%
X145007142Y-122202380D02*
X144673809Y-121726190D01*
X144435714Y-122202380D02*
X144435714Y-121202380D01*
X144816666Y-121202380D01*
X144911904Y-121250000D01*
X144959523Y-121297619D01*
X145007142Y-121392857D01*
X145007142Y-121535714D01*
X144959523Y-121630952D01*
X144911904Y-121678571D01*
X144816666Y-121726190D01*
X144435714Y-121726190D01*
X145959523Y-122202380D02*
X145388095Y-122202380D01*
X145673809Y-122202380D02*
X145673809Y-121202380D01*
X145578571Y-121345238D01*
X145483333Y-121440476D01*
X145388095Y-121488095D01*
X146530952Y-121630952D02*
X146435714Y-121583333D01*
X146388095Y-121535714D01*
X146340476Y-121440476D01*
X146340476Y-121392857D01*
X146388095Y-121297619D01*
X146435714Y-121250000D01*
X146530952Y-121202380D01*
X146721428Y-121202380D01*
X146816666Y-121250000D01*
X146864285Y-121297619D01*
X146911904Y-121392857D01*
X146911904Y-121440476D01*
X146864285Y-121535714D01*
X146816666Y-121583333D01*
X146721428Y-121630952D01*
X146530952Y-121630952D01*
X146435714Y-121678571D01*
X146388095Y-121726190D01*
X146340476Y-121821428D01*
X146340476Y-122011904D01*
X146388095Y-122107142D01*
X146435714Y-122154761D01*
X146530952Y-122202380D01*
X146721428Y-122202380D01*
X146816666Y-122154761D01*
X146864285Y-122107142D01*
X146911904Y-122011904D01*
X146911904Y-121821428D01*
X146864285Y-121726190D01*
X146816666Y-121678571D01*
X146721428Y-121630952D01*
D13*
%TO.C,R32*%
X140369714Y-148589857D02*
X140006857Y-148843857D01*
X140369714Y-149025285D02*
X139607714Y-149025285D01*
X139607714Y-148735000D01*
X139644000Y-148662428D01*
X139680285Y-148626142D01*
X139752857Y-148589857D01*
X139861714Y-148589857D01*
X139934285Y-148626142D01*
X139970571Y-148662428D01*
X140006857Y-148735000D01*
X140006857Y-149025285D01*
X139607714Y-148335857D02*
X139607714Y-147864142D01*
X139898000Y-148118142D01*
X139898000Y-148009285D01*
X139934285Y-147936714D01*
X139970571Y-147900428D01*
X140043142Y-147864142D01*
X140224571Y-147864142D01*
X140297142Y-147900428D01*
X140333428Y-147936714D01*
X140369714Y-148009285D01*
X140369714Y-148227000D01*
X140333428Y-148299571D01*
X140297142Y-148335857D01*
X139680285Y-147573857D02*
X139644000Y-147537571D01*
X139607714Y-147465000D01*
X139607714Y-147283571D01*
X139644000Y-147211000D01*
X139680285Y-147174714D01*
X139752857Y-147138428D01*
X139825428Y-147138428D01*
X139934285Y-147174714D01*
X140369714Y-147610142D01*
X140369714Y-147138428D01*
D12*
%TO.C,R7*%
X118877380Y-139791666D02*
X118401190Y-140125000D01*
X118877380Y-140363095D02*
X117877380Y-140363095D01*
X117877380Y-139982142D01*
X117925000Y-139886904D01*
X117972619Y-139839285D01*
X118067857Y-139791666D01*
X118210714Y-139791666D01*
X118305952Y-139839285D01*
X118353571Y-139886904D01*
X118401190Y-139982142D01*
X118401190Y-140363095D01*
X117877380Y-139458333D02*
X117877380Y-138791666D01*
X118877380Y-139220238D01*
%TO.C,FID1*%
X102128571Y-120628571D02*
X101795238Y-120628571D01*
X101795238Y-121152380D02*
X101795238Y-120152380D01*
X102271428Y-120152380D01*
X102652380Y-121152380D02*
X102652380Y-120152380D01*
X103128571Y-121152380D02*
X103128571Y-120152380D01*
X103366666Y-120152380D01*
X103509523Y-120200000D01*
X103604761Y-120295238D01*
X103652380Y-120390476D01*
X103700000Y-120580952D01*
X103700000Y-120723809D01*
X103652380Y-120914285D01*
X103604761Y-121009523D01*
X103509523Y-121104761D01*
X103366666Y-121152380D01*
X103128571Y-121152380D01*
X104652380Y-121152380D02*
X104080952Y-121152380D01*
X104366666Y-121152380D02*
X104366666Y-120152380D01*
X104271428Y-120295238D01*
X104176190Y-120390476D01*
X104080952Y-120438095D01*
D13*
%TO.C,TP12*%
X165675571Y-144257714D02*
X166111000Y-144257714D01*
X165893285Y-145019714D02*
X165893285Y-144257714D01*
X166365000Y-145019714D02*
X166365000Y-144257714D01*
X166655285Y-144257714D01*
X166727857Y-144294000D01*
X166764142Y-144330285D01*
X166800428Y-144402857D01*
X166800428Y-144511714D01*
X166764142Y-144584285D01*
X166727857Y-144620571D01*
X166655285Y-144656857D01*
X166365000Y-144656857D01*
X167526142Y-145019714D02*
X167090714Y-145019714D01*
X167308428Y-145019714D02*
X167308428Y-144257714D01*
X167235857Y-144366571D01*
X167163285Y-144439142D01*
X167090714Y-144475428D01*
X167816428Y-144330285D02*
X167852714Y-144294000D01*
X167925285Y-144257714D01*
X168106714Y-144257714D01*
X168179285Y-144294000D01*
X168215571Y-144330285D01*
X168251857Y-144402857D01*
X168251857Y-144475428D01*
X168215571Y-144584285D01*
X167780142Y-145019714D01*
X168251857Y-145019714D01*
D12*
%TO.C,R26*%
X131644714Y-141789857D02*
X131281857Y-142043857D01*
X131644714Y-142225285D02*
X130882714Y-142225285D01*
X130882714Y-141935000D01*
X130919000Y-141862428D01*
X130955285Y-141826142D01*
X131027857Y-141789857D01*
X131136714Y-141789857D01*
X131209285Y-141826142D01*
X131245571Y-141862428D01*
X131281857Y-141935000D01*
X131281857Y-142225285D01*
X130955285Y-141499571D02*
X130919000Y-141463285D01*
X130882714Y-141390714D01*
X130882714Y-141209285D01*
X130919000Y-141136714D01*
X130955285Y-141100428D01*
X131027857Y-141064142D01*
X131100428Y-141064142D01*
X131209285Y-141100428D01*
X131644714Y-141535857D01*
X131644714Y-141064142D01*
X130882714Y-140411000D02*
X130882714Y-140556142D01*
X130919000Y-140628714D01*
X130955285Y-140665000D01*
X131064142Y-140737571D01*
X131209285Y-140773857D01*
X131499571Y-140773857D01*
X131572142Y-140737571D01*
X131608428Y-140701285D01*
X131644714Y-140628714D01*
X131644714Y-140483571D01*
X131608428Y-140411000D01*
X131572142Y-140374714D01*
X131499571Y-140338428D01*
X131318142Y-140338428D01*
X131245571Y-140374714D01*
X131209285Y-140411000D01*
X131173000Y-140483571D01*
X131173000Y-140628714D01*
X131209285Y-140701285D01*
X131245571Y-140737571D01*
X131318142Y-140773857D01*
%TO.C,R16*%
X140052380Y-117837857D02*
X139576190Y-118171190D01*
X140052380Y-118409285D02*
X139052380Y-118409285D01*
X139052380Y-118028333D01*
X139100000Y-117933095D01*
X139147619Y-117885476D01*
X139242857Y-117837857D01*
X139385714Y-117837857D01*
X139480952Y-117885476D01*
X139528571Y-117933095D01*
X139576190Y-118028333D01*
X139576190Y-118409285D01*
X140052380Y-116885476D02*
X140052380Y-117456904D01*
X140052380Y-117171190D02*
X139052380Y-117171190D01*
X139195238Y-117266428D01*
X139290476Y-117361666D01*
X139338095Y-117456904D01*
X139052380Y-116028333D02*
X139052380Y-116218809D01*
X139100000Y-116314047D01*
X139147619Y-116361666D01*
X139290476Y-116456904D01*
X139480952Y-116504523D01*
X139861904Y-116504523D01*
X139957142Y-116456904D01*
X140004761Y-116409285D01*
X140052380Y-116314047D01*
X140052380Y-116123571D01*
X140004761Y-116028333D01*
X139957142Y-115980714D01*
X139861904Y-115933095D01*
X139623809Y-115933095D01*
X139528571Y-115980714D01*
X139480952Y-116028333D01*
X139433333Y-116123571D01*
X139433333Y-116314047D01*
X139480952Y-116409285D01*
X139528571Y-116456904D01*
X139623809Y-116504523D01*
%TO.C,D6*%
X161052380Y-147138095D02*
X160052380Y-147138095D01*
X160052380Y-146900000D01*
X160100000Y-146757142D01*
X160195238Y-146661904D01*
X160290476Y-146614285D01*
X160480952Y-146566666D01*
X160623809Y-146566666D01*
X160814285Y-146614285D01*
X160909523Y-146661904D01*
X161004761Y-146757142D01*
X161052380Y-146900000D01*
X161052380Y-147138095D01*
X160052380Y-145709523D02*
X160052380Y-145900000D01*
X160100000Y-145995238D01*
X160147619Y-146042857D01*
X160290476Y-146138095D01*
X160480952Y-146185714D01*
X160861904Y-146185714D01*
X160957142Y-146138095D01*
X161004761Y-146090476D01*
X161052380Y-145995238D01*
X161052380Y-145804761D01*
X161004761Y-145709523D01*
X160957142Y-145661904D01*
X160861904Y-145614285D01*
X160623809Y-145614285D01*
X160528571Y-145661904D01*
X160480952Y-145709523D01*
X160433333Y-145804761D01*
X160433333Y-145995238D01*
X160480952Y-146090476D01*
X160528571Y-146138095D01*
X160623809Y-146185714D01*
%TO.C,R39*%
X160152380Y-152442857D02*
X159676190Y-152776190D01*
X160152380Y-153014285D02*
X159152380Y-153014285D01*
X159152380Y-152633333D01*
X159200000Y-152538095D01*
X159247619Y-152490476D01*
X159342857Y-152442857D01*
X159485714Y-152442857D01*
X159580952Y-152490476D01*
X159628571Y-152538095D01*
X159676190Y-152633333D01*
X159676190Y-153014285D01*
X159152380Y-152109523D02*
X159152380Y-151490476D01*
X159533333Y-151823809D01*
X159533333Y-151680952D01*
X159580952Y-151585714D01*
X159628571Y-151538095D01*
X159723809Y-151490476D01*
X159961904Y-151490476D01*
X160057142Y-151538095D01*
X160104761Y-151585714D01*
X160152380Y-151680952D01*
X160152380Y-151966666D01*
X160104761Y-152061904D01*
X160057142Y-152109523D01*
X160152380Y-151014285D02*
X160152380Y-150823809D01*
X160104761Y-150728571D01*
X160057142Y-150680952D01*
X159914285Y-150585714D01*
X159723809Y-150538095D01*
X159342857Y-150538095D01*
X159247619Y-150585714D01*
X159200000Y-150633333D01*
X159152380Y-150728571D01*
X159152380Y-150919047D01*
X159200000Y-151014285D01*
X159247619Y-151061904D01*
X159342857Y-151109523D01*
X159580952Y-151109523D01*
X159676190Y-151061904D01*
X159723809Y-151014285D01*
X159771428Y-150919047D01*
X159771428Y-150728571D01*
X159723809Y-150633333D01*
X159676190Y-150585714D01*
X159580952Y-150538095D01*
%TO.C,J5*%
X100784066Y-122413780D02*
X100784066Y-123128066D01*
X100736447Y-123270923D01*
X100641209Y-123366161D01*
X100498352Y-123413780D01*
X100403114Y-123413780D01*
X101736447Y-122413780D02*
X101260257Y-122413780D01*
X101212638Y-122889971D01*
X101260257Y-122842352D01*
X101355495Y-122794733D01*
X101593590Y-122794733D01*
X101688828Y-122842352D01*
X101736447Y-122889971D01*
X101784066Y-122985209D01*
X101784066Y-123223304D01*
X101736447Y-123318542D01*
X101688828Y-123366161D01*
X101593590Y-123413780D01*
X101355495Y-123413780D01*
X101260257Y-123366161D01*
X101212638Y-123318542D01*
%TO.C,C11*%
X160857142Y-137457142D02*
X160809523Y-137504761D01*
X160666666Y-137552380D01*
X160571428Y-137552380D01*
X160428571Y-137504761D01*
X160333333Y-137409523D01*
X160285714Y-137314285D01*
X160238095Y-137123809D01*
X160238095Y-136980952D01*
X160285714Y-136790476D01*
X160333333Y-136695238D01*
X160428571Y-136600000D01*
X160571428Y-136552380D01*
X160666666Y-136552380D01*
X160809523Y-136600000D01*
X160857142Y-136647619D01*
X161809523Y-137552380D02*
X161238095Y-137552380D01*
X161523809Y-137552380D02*
X161523809Y-136552380D01*
X161428571Y-136695238D01*
X161333333Y-136790476D01*
X161238095Y-136838095D01*
X162761904Y-137552380D02*
X162190476Y-137552380D01*
X162476190Y-137552380D02*
X162476190Y-136552380D01*
X162380952Y-136695238D01*
X162285714Y-136790476D01*
X162190476Y-136838095D01*
%TO.C,R21*%
X119057142Y-151012380D02*
X118723809Y-150536190D01*
X118485714Y-151012380D02*
X118485714Y-150012380D01*
X118866666Y-150012380D01*
X118961904Y-150060000D01*
X119009523Y-150107619D01*
X119057142Y-150202857D01*
X119057142Y-150345714D01*
X119009523Y-150440952D01*
X118961904Y-150488571D01*
X118866666Y-150536190D01*
X118485714Y-150536190D01*
X119438095Y-150107619D02*
X119485714Y-150060000D01*
X119580952Y-150012380D01*
X119819047Y-150012380D01*
X119914285Y-150060000D01*
X119961904Y-150107619D01*
X120009523Y-150202857D01*
X120009523Y-150298095D01*
X119961904Y-150440952D01*
X119390476Y-151012380D01*
X120009523Y-151012380D01*
X120961904Y-151012380D02*
X120390476Y-151012380D01*
X120676190Y-151012380D02*
X120676190Y-150012380D01*
X120580952Y-150155238D01*
X120485714Y-150250476D01*
X120390476Y-150298095D01*
%TO.C,R5*%
X167802380Y-138491666D02*
X167326190Y-138825000D01*
X167802380Y-139063095D02*
X166802380Y-139063095D01*
X166802380Y-138682142D01*
X166850000Y-138586904D01*
X166897619Y-138539285D01*
X166992857Y-138491666D01*
X167135714Y-138491666D01*
X167230952Y-138539285D01*
X167278571Y-138586904D01*
X167326190Y-138682142D01*
X167326190Y-139063095D01*
X166802380Y-137586904D02*
X166802380Y-138063095D01*
X167278571Y-138110714D01*
X167230952Y-138063095D01*
X167183333Y-137967857D01*
X167183333Y-137729761D01*
X167230952Y-137634523D01*
X167278571Y-137586904D01*
X167373809Y-137539285D01*
X167611904Y-137539285D01*
X167707142Y-137586904D01*
X167754761Y-137634523D01*
X167802380Y-137729761D01*
X167802380Y-137967857D01*
X167754761Y-138063095D01*
X167707142Y-138110714D01*
%TO.C,JP1*%
X152133333Y-156914904D02*
X152133333Y-157486333D01*
X152095238Y-157600619D01*
X152019047Y-157676809D01*
X151904761Y-157714904D01*
X151828571Y-157714904D01*
X152514285Y-157714904D02*
X152514285Y-156914904D01*
X152819047Y-156914904D01*
X152895238Y-156953000D01*
X152933333Y-156991095D01*
X152971428Y-157067285D01*
X152971428Y-157181571D01*
X152933333Y-157257761D01*
X152895238Y-157295857D01*
X152819047Y-157333952D01*
X152514285Y-157333952D01*
X153733333Y-157714904D02*
X153276190Y-157714904D01*
X153504761Y-157714904D02*
X153504761Y-156914904D01*
X153428571Y-157029190D01*
X153352380Y-157105380D01*
X153276190Y-157143476D01*
D13*
%TO.C,TP5*%
X149738428Y-147182714D02*
X150173857Y-147182714D01*
X149956142Y-147944714D02*
X149956142Y-147182714D01*
X150427857Y-147944714D02*
X150427857Y-147182714D01*
X150718142Y-147182714D01*
X150790714Y-147219000D01*
X150827000Y-147255285D01*
X150863285Y-147327857D01*
X150863285Y-147436714D01*
X150827000Y-147509285D01*
X150790714Y-147545571D01*
X150718142Y-147581857D01*
X150427857Y-147581857D01*
X151552714Y-147182714D02*
X151189857Y-147182714D01*
X151153571Y-147545571D01*
X151189857Y-147509285D01*
X151262428Y-147473000D01*
X151443857Y-147473000D01*
X151516428Y-147509285D01*
X151552714Y-147545571D01*
X151589000Y-147618142D01*
X151589000Y-147799571D01*
X151552714Y-147872142D01*
X151516428Y-147908428D01*
X151443857Y-147944714D01*
X151262428Y-147944714D01*
X151189857Y-147908428D01*
X151153571Y-147872142D01*
D12*
%TO.C,C35*%
X169143742Y-147727942D02*
X169096123Y-147775561D01*
X168953266Y-147823180D01*
X168858028Y-147823180D01*
X168715171Y-147775561D01*
X168619933Y-147680323D01*
X168572314Y-147585085D01*
X168524695Y-147394609D01*
X168524695Y-147251752D01*
X168572314Y-147061276D01*
X168619933Y-146966038D01*
X168715171Y-146870800D01*
X168858028Y-146823180D01*
X168953266Y-146823180D01*
X169096123Y-146870800D01*
X169143742Y-146918419D01*
X169477076Y-146823180D02*
X170096123Y-146823180D01*
X169762790Y-147204133D01*
X169905647Y-147204133D01*
X170000885Y-147251752D01*
X170048504Y-147299371D01*
X170096123Y-147394609D01*
X170096123Y-147632704D01*
X170048504Y-147727942D01*
X170000885Y-147775561D01*
X169905647Y-147823180D01*
X169619933Y-147823180D01*
X169524695Y-147775561D01*
X169477076Y-147727942D01*
X171000885Y-146823180D02*
X170524695Y-146823180D01*
X170477076Y-147299371D01*
X170524695Y-147251752D01*
X170619933Y-147204133D01*
X170858028Y-147204133D01*
X170953266Y-147251752D01*
X171000885Y-147299371D01*
X171048504Y-147394609D01*
X171048504Y-147632704D01*
X171000885Y-147727942D01*
X170953266Y-147775561D01*
X170858028Y-147823180D01*
X170619933Y-147823180D01*
X170524695Y-147775561D01*
X170477076Y-147727942D01*
%TO.C,D5*%
X165261904Y-153652380D02*
X165261904Y-152652380D01*
X165500000Y-152652380D01*
X165642857Y-152700000D01*
X165738095Y-152795238D01*
X165785714Y-152890476D01*
X165833333Y-153080952D01*
X165833333Y-153223809D01*
X165785714Y-153414285D01*
X165738095Y-153509523D01*
X165642857Y-153604761D01*
X165500000Y-153652380D01*
X165261904Y-153652380D01*
X166738095Y-152652380D02*
X166261904Y-152652380D01*
X166214285Y-153128571D01*
X166261904Y-153080952D01*
X166357142Y-153033333D01*
X166595238Y-153033333D01*
X166690476Y-153080952D01*
X166738095Y-153128571D01*
X166785714Y-153223809D01*
X166785714Y-153461904D01*
X166738095Y-153557142D01*
X166690476Y-153604761D01*
X166595238Y-153652380D01*
X166357142Y-153652380D01*
X166261904Y-153604761D01*
X166214285Y-153557142D01*
%TO.C,C4*%
X122997933Y-119178342D02*
X122950314Y-119225961D01*
X122807457Y-119273580D01*
X122712219Y-119273580D01*
X122569361Y-119225961D01*
X122474123Y-119130723D01*
X122426504Y-119035485D01*
X122378885Y-118845009D01*
X122378885Y-118702152D01*
X122426504Y-118511676D01*
X122474123Y-118416438D01*
X122569361Y-118321200D01*
X122712219Y-118273580D01*
X122807457Y-118273580D01*
X122950314Y-118321200D01*
X122997933Y-118368819D01*
X123855076Y-118606914D02*
X123855076Y-119273580D01*
X123616980Y-118225961D02*
X123378885Y-118940247D01*
X123997933Y-118940247D01*
%TO.C,C29*%
X151635142Y-151422142D02*
X151598857Y-151458428D01*
X151490000Y-151494714D01*
X151417428Y-151494714D01*
X151308571Y-151458428D01*
X151236000Y-151385857D01*
X151199714Y-151313285D01*
X151163428Y-151168142D01*
X151163428Y-151059285D01*
X151199714Y-150914142D01*
X151236000Y-150841571D01*
X151308571Y-150769000D01*
X151417428Y-150732714D01*
X151490000Y-150732714D01*
X151598857Y-150769000D01*
X151635142Y-150805285D01*
X151925428Y-150805285D02*
X151961714Y-150769000D01*
X152034285Y-150732714D01*
X152215714Y-150732714D01*
X152288285Y-150769000D01*
X152324571Y-150805285D01*
X152360857Y-150877857D01*
X152360857Y-150950428D01*
X152324571Y-151059285D01*
X151889142Y-151494714D01*
X152360857Y-151494714D01*
X152723714Y-151494714D02*
X152868857Y-151494714D01*
X152941428Y-151458428D01*
X152977714Y-151422142D01*
X153050285Y-151313285D01*
X153086571Y-151168142D01*
X153086571Y-150877857D01*
X153050285Y-150805285D01*
X153014000Y-150769000D01*
X152941428Y-150732714D01*
X152796285Y-150732714D01*
X152723714Y-150769000D01*
X152687428Y-150805285D01*
X152651142Y-150877857D01*
X152651142Y-151059285D01*
X152687428Y-151131857D01*
X152723714Y-151168142D01*
X152796285Y-151204428D01*
X152941428Y-151204428D01*
X153014000Y-151168142D01*
X153050285Y-151131857D01*
X153086571Y-151059285D01*
%TO.C,R28*%
X141457142Y-118352380D02*
X141123809Y-117876190D01*
X140885714Y-118352380D02*
X140885714Y-117352380D01*
X141266666Y-117352380D01*
X141361904Y-117400000D01*
X141409523Y-117447619D01*
X141457142Y-117542857D01*
X141457142Y-117685714D01*
X141409523Y-117780952D01*
X141361904Y-117828571D01*
X141266666Y-117876190D01*
X140885714Y-117876190D01*
X141838095Y-117447619D02*
X141885714Y-117400000D01*
X141980952Y-117352380D01*
X142219047Y-117352380D01*
X142314285Y-117400000D01*
X142361904Y-117447619D01*
X142409523Y-117542857D01*
X142409523Y-117638095D01*
X142361904Y-117780952D01*
X141790476Y-118352380D01*
X142409523Y-118352380D01*
X142980952Y-117780952D02*
X142885714Y-117733333D01*
X142838095Y-117685714D01*
X142790476Y-117590476D01*
X142790476Y-117542857D01*
X142838095Y-117447619D01*
X142885714Y-117400000D01*
X142980952Y-117352380D01*
X143171428Y-117352380D01*
X143266666Y-117400000D01*
X143314285Y-117447619D01*
X143361904Y-117542857D01*
X143361904Y-117590476D01*
X143314285Y-117685714D01*
X143266666Y-117733333D01*
X143171428Y-117780952D01*
X142980952Y-117780952D01*
X142885714Y-117828571D01*
X142838095Y-117876190D01*
X142790476Y-117971428D01*
X142790476Y-118161904D01*
X142838095Y-118257142D01*
X142885714Y-118304761D01*
X142980952Y-118352380D01*
X143171428Y-118352380D01*
X143266666Y-118304761D01*
X143314285Y-118257142D01*
X143361904Y-118161904D01*
X143361904Y-117971428D01*
X143314285Y-117876190D01*
X143266666Y-117828571D01*
X143171428Y-117780952D01*
%TO.C,D4*%
X152361904Y-142002380D02*
X152361904Y-141002380D01*
X152600000Y-141002380D01*
X152742857Y-141050000D01*
X152838095Y-141145238D01*
X152885714Y-141240476D01*
X152933333Y-141430952D01*
X152933333Y-141573809D01*
X152885714Y-141764285D01*
X152838095Y-141859523D01*
X152742857Y-141954761D01*
X152600000Y-142002380D01*
X152361904Y-142002380D01*
X153790476Y-141335714D02*
X153790476Y-142002380D01*
X153552380Y-140954761D02*
X153314285Y-141669047D01*
X153933333Y-141669047D01*
%TO.C,D1*%
X174686904Y-139702380D02*
X174686904Y-138702380D01*
X174925000Y-138702380D01*
X175067857Y-138750000D01*
X175163095Y-138845238D01*
X175210714Y-138940476D01*
X175258333Y-139130952D01*
X175258333Y-139273809D01*
X175210714Y-139464285D01*
X175163095Y-139559523D01*
X175067857Y-139654761D01*
X174925000Y-139702380D01*
X174686904Y-139702380D01*
X176210714Y-139702380D02*
X175639285Y-139702380D01*
X175925000Y-139702380D02*
X175925000Y-138702380D01*
X175829761Y-138845238D01*
X175734523Y-138940476D01*
X175639285Y-138988095D01*
%TO.C,SW2*%
X140166666Y-113404761D02*
X140309523Y-113452380D01*
X140547619Y-113452380D01*
X140642857Y-113404761D01*
X140690476Y-113357142D01*
X140738095Y-113261904D01*
X140738095Y-113166666D01*
X140690476Y-113071428D01*
X140642857Y-113023809D01*
X140547619Y-112976190D01*
X140357142Y-112928571D01*
X140261904Y-112880952D01*
X140214285Y-112833333D01*
X140166666Y-112738095D01*
X140166666Y-112642857D01*
X140214285Y-112547619D01*
X140261904Y-112500000D01*
X140357142Y-112452380D01*
X140595238Y-112452380D01*
X140738095Y-112500000D01*
X141071428Y-112452380D02*
X141309523Y-113452380D01*
X141500000Y-112738095D01*
X141690476Y-113452380D01*
X141928571Y-112452380D01*
X142261904Y-112547619D02*
X142309523Y-112500000D01*
X142404761Y-112452380D01*
X142642857Y-112452380D01*
X142738095Y-112500000D01*
X142785714Y-112547619D01*
X142833333Y-112642857D01*
X142833333Y-112738095D01*
X142785714Y-112880952D01*
X142214285Y-113452380D01*
X142833333Y-113452380D01*
%TO.C,C7*%
X155933333Y-143657142D02*
X155885714Y-143704761D01*
X155742857Y-143752380D01*
X155647619Y-143752380D01*
X155504761Y-143704761D01*
X155409523Y-143609523D01*
X155361904Y-143514285D01*
X155314285Y-143323809D01*
X155314285Y-143180952D01*
X155361904Y-142990476D01*
X155409523Y-142895238D01*
X155504761Y-142800000D01*
X155647619Y-142752380D01*
X155742857Y-142752380D01*
X155885714Y-142800000D01*
X155933333Y-142847619D01*
X156266666Y-142752380D02*
X156933333Y-142752380D01*
X156504761Y-143752380D01*
%TO.C,R11*%
X139057142Y-115177780D02*
X138723809Y-114701590D01*
X138485714Y-115177780D02*
X138485714Y-114177780D01*
X138866666Y-114177780D01*
X138961904Y-114225400D01*
X139009523Y-114273019D01*
X139057142Y-114368257D01*
X139057142Y-114511114D01*
X139009523Y-114606352D01*
X138961904Y-114653971D01*
X138866666Y-114701590D01*
X138485714Y-114701590D01*
X140009523Y-115177780D02*
X139438095Y-115177780D01*
X139723809Y-115177780D02*
X139723809Y-114177780D01*
X139628571Y-114320638D01*
X139533333Y-114415876D01*
X139438095Y-114463495D01*
X140961904Y-115177780D02*
X140390476Y-115177780D01*
X140676190Y-115177780D02*
X140676190Y-114177780D01*
X140580952Y-114320638D01*
X140485714Y-114415876D01*
X140390476Y-114463495D01*
D13*
%TO.C,C21*%
X133026785Y-132808214D02*
X133057023Y-132838452D01*
X133087261Y-132929166D01*
X133087261Y-132989642D01*
X133057023Y-133080357D01*
X132996547Y-133140833D01*
X132936071Y-133171071D01*
X132815119Y-133201309D01*
X132724404Y-133201309D01*
X132603452Y-133171071D01*
X132542976Y-133140833D01*
X132482500Y-133080357D01*
X132452261Y-132989642D01*
X132452261Y-132929166D01*
X132482500Y-132838452D01*
X132512738Y-132808214D01*
X132512738Y-132566309D02*
X132482500Y-132536071D01*
X132452261Y-132475595D01*
X132452261Y-132324404D01*
X132482500Y-132263928D01*
X132512738Y-132233690D01*
X132573214Y-132203452D01*
X132633690Y-132203452D01*
X132724404Y-132233690D01*
X133087261Y-132596547D01*
X133087261Y-132203452D01*
X133087261Y-131598690D02*
X133087261Y-131961547D01*
X133087261Y-131780119D02*
X132452261Y-131780119D01*
X132542976Y-131840595D01*
X132603452Y-131901071D01*
X132633690Y-131961547D01*
D12*
%TO.C,C32*%
X151809742Y-154312857D02*
X151857361Y-154360476D01*
X151904980Y-154503333D01*
X151904980Y-154598571D01*
X151857361Y-154741428D01*
X151762123Y-154836666D01*
X151666885Y-154884285D01*
X151476409Y-154931904D01*
X151333552Y-154931904D01*
X151143076Y-154884285D01*
X151047838Y-154836666D01*
X150952600Y-154741428D01*
X150904980Y-154598571D01*
X150904980Y-154503333D01*
X150952600Y-154360476D01*
X151000219Y-154312857D01*
X150904980Y-153979523D02*
X150904980Y-153360476D01*
X151285933Y-153693809D01*
X151285933Y-153550952D01*
X151333552Y-153455714D01*
X151381171Y-153408095D01*
X151476409Y-153360476D01*
X151714504Y-153360476D01*
X151809742Y-153408095D01*
X151857361Y-153455714D01*
X151904980Y-153550952D01*
X151904980Y-153836666D01*
X151857361Y-153931904D01*
X151809742Y-153979523D01*
X151000219Y-152979523D02*
X150952600Y-152931904D01*
X150904980Y-152836666D01*
X150904980Y-152598571D01*
X150952600Y-152503333D01*
X151000219Y-152455714D01*
X151095457Y-152408095D01*
X151190695Y-152408095D01*
X151333552Y-152455714D01*
X151904980Y-153027142D01*
X151904980Y-152408095D01*
%TO.C,D8*%
X123566180Y-129770095D02*
X122566180Y-129770095D01*
X122566180Y-129532000D01*
X122613800Y-129389142D01*
X122709038Y-129293904D01*
X122804276Y-129246285D01*
X122994752Y-129198666D01*
X123137609Y-129198666D01*
X123328085Y-129246285D01*
X123423323Y-129293904D01*
X123518561Y-129389142D01*
X123566180Y-129532000D01*
X123566180Y-129770095D01*
X122994752Y-128627238D02*
X122947133Y-128722476D01*
X122899514Y-128770095D01*
X122804276Y-128817714D01*
X122756657Y-128817714D01*
X122661419Y-128770095D01*
X122613800Y-128722476D01*
X122566180Y-128627238D01*
X122566180Y-128436761D01*
X122613800Y-128341523D01*
X122661419Y-128293904D01*
X122756657Y-128246285D01*
X122804276Y-128246285D01*
X122899514Y-128293904D01*
X122947133Y-128341523D01*
X122994752Y-128436761D01*
X122994752Y-128627238D01*
X123042371Y-128722476D01*
X123089990Y-128770095D01*
X123185228Y-128817714D01*
X123375704Y-128817714D01*
X123470942Y-128770095D01*
X123518561Y-128722476D01*
X123566180Y-128627238D01*
X123566180Y-128436761D01*
X123518561Y-128341523D01*
X123470942Y-128293904D01*
X123375704Y-128246285D01*
X123185228Y-128246285D01*
X123089990Y-128293904D01*
X123042371Y-128341523D01*
X122994752Y-128436761D01*
%TO.C,L3*%
X161233333Y-148852380D02*
X160757142Y-148852380D01*
X160757142Y-147852380D01*
X161471428Y-147852380D02*
X162090476Y-147852380D01*
X161757142Y-148233333D01*
X161900000Y-148233333D01*
X161995238Y-148280952D01*
X162042857Y-148328571D01*
X162090476Y-148423809D01*
X162090476Y-148661904D01*
X162042857Y-148757142D01*
X161995238Y-148804761D01*
X161900000Y-148852380D01*
X161614285Y-148852380D01*
X161519047Y-148804761D01*
X161471428Y-148757142D01*
D13*
%TO.C,TP11*%
X153050571Y-114632714D02*
X153486000Y-114632714D01*
X153268285Y-115394714D02*
X153268285Y-114632714D01*
X153740000Y-115394714D02*
X153740000Y-114632714D01*
X154030285Y-114632714D01*
X154102857Y-114669000D01*
X154139142Y-114705285D01*
X154175428Y-114777857D01*
X154175428Y-114886714D01*
X154139142Y-114959285D01*
X154102857Y-114995571D01*
X154030285Y-115031857D01*
X153740000Y-115031857D01*
X154901142Y-115394714D02*
X154465714Y-115394714D01*
X154683428Y-115394714D02*
X154683428Y-114632714D01*
X154610857Y-114741571D01*
X154538285Y-114814142D01*
X154465714Y-114850428D01*
X155626857Y-115394714D02*
X155191428Y-115394714D01*
X155409142Y-115394714D02*
X155409142Y-114632714D01*
X155336571Y-114741571D01*
X155264000Y-114814142D01*
X155191428Y-114850428D01*
D12*
%TO.C,R35*%
X171807142Y-153402380D02*
X171473809Y-152926190D01*
X171235714Y-153402380D02*
X171235714Y-152402380D01*
X171616666Y-152402380D01*
X171711904Y-152450000D01*
X171759523Y-152497619D01*
X171807142Y-152592857D01*
X171807142Y-152735714D01*
X171759523Y-152830952D01*
X171711904Y-152878571D01*
X171616666Y-152926190D01*
X171235714Y-152926190D01*
X172140476Y-152402380D02*
X172759523Y-152402380D01*
X172426190Y-152783333D01*
X172569047Y-152783333D01*
X172664285Y-152830952D01*
X172711904Y-152878571D01*
X172759523Y-152973809D01*
X172759523Y-153211904D01*
X172711904Y-153307142D01*
X172664285Y-153354761D01*
X172569047Y-153402380D01*
X172283333Y-153402380D01*
X172188095Y-153354761D01*
X172140476Y-153307142D01*
X173664285Y-152402380D02*
X173188095Y-152402380D01*
X173140476Y-152878571D01*
X173188095Y-152830952D01*
X173283333Y-152783333D01*
X173521428Y-152783333D01*
X173616666Y-152830952D01*
X173664285Y-152878571D01*
X173711904Y-152973809D01*
X173711904Y-153211904D01*
X173664285Y-153307142D01*
X173616666Y-153354761D01*
X173521428Y-153402380D01*
X173283333Y-153402380D01*
X173188095Y-153354761D01*
X173140476Y-153307142D01*
%TO.C,R31*%
X142710142Y-154944714D02*
X142456142Y-154581857D01*
X142274714Y-154944714D02*
X142274714Y-154182714D01*
X142565000Y-154182714D01*
X142637571Y-154219000D01*
X142673857Y-154255285D01*
X142710142Y-154327857D01*
X142710142Y-154436714D01*
X142673857Y-154509285D01*
X142637571Y-154545571D01*
X142565000Y-154581857D01*
X142274714Y-154581857D01*
X142964142Y-154182714D02*
X143435857Y-154182714D01*
X143181857Y-154473000D01*
X143290714Y-154473000D01*
X143363285Y-154509285D01*
X143399571Y-154545571D01*
X143435857Y-154618142D01*
X143435857Y-154799571D01*
X143399571Y-154872142D01*
X143363285Y-154908428D01*
X143290714Y-154944714D01*
X143073000Y-154944714D01*
X143000428Y-154908428D01*
X142964142Y-154872142D01*
X144161571Y-154944714D02*
X143726142Y-154944714D01*
X143943857Y-154944714D02*
X143943857Y-154182714D01*
X143871285Y-154291571D01*
X143798714Y-154364142D01*
X143726142Y-154400428D01*
%TO.C,C33*%
X168851942Y-150293342D02*
X168804323Y-150340961D01*
X168661466Y-150388580D01*
X168566228Y-150388580D01*
X168423371Y-150340961D01*
X168328133Y-150245723D01*
X168280514Y-150150485D01*
X168232895Y-149960009D01*
X168232895Y-149817152D01*
X168280514Y-149626676D01*
X168328133Y-149531438D01*
X168423371Y-149436200D01*
X168566228Y-149388580D01*
X168661466Y-149388580D01*
X168804323Y-149436200D01*
X168851942Y-149483819D01*
X169185276Y-149388580D02*
X169804323Y-149388580D01*
X169470990Y-149769533D01*
X169613847Y-149769533D01*
X169709085Y-149817152D01*
X169756704Y-149864771D01*
X169804323Y-149960009D01*
X169804323Y-150198104D01*
X169756704Y-150293342D01*
X169709085Y-150340961D01*
X169613847Y-150388580D01*
X169328133Y-150388580D01*
X169232895Y-150340961D01*
X169185276Y-150293342D01*
X170137657Y-149388580D02*
X170756704Y-149388580D01*
X170423371Y-149769533D01*
X170566228Y-149769533D01*
X170661466Y-149817152D01*
X170709085Y-149864771D01*
X170756704Y-149960009D01*
X170756704Y-150198104D01*
X170709085Y-150293342D01*
X170661466Y-150340961D01*
X170566228Y-150388580D01*
X170280514Y-150388580D01*
X170185276Y-150340961D01*
X170137657Y-150293342D01*
%TO.C,R24*%
X133444714Y-142789857D02*
X133081857Y-143043857D01*
X133444714Y-143225285D02*
X132682714Y-143225285D01*
X132682714Y-142935000D01*
X132719000Y-142862428D01*
X132755285Y-142826142D01*
X132827857Y-142789857D01*
X132936714Y-142789857D01*
X133009285Y-142826142D01*
X133045571Y-142862428D01*
X133081857Y-142935000D01*
X133081857Y-143225285D01*
X132755285Y-142499571D02*
X132719000Y-142463285D01*
X132682714Y-142390714D01*
X132682714Y-142209285D01*
X132719000Y-142136714D01*
X132755285Y-142100428D01*
X132827857Y-142064142D01*
X132900428Y-142064142D01*
X133009285Y-142100428D01*
X133444714Y-142535857D01*
X133444714Y-142064142D01*
X132936714Y-141411000D02*
X133444714Y-141411000D01*
X132646428Y-141592428D02*
X133190714Y-141773857D01*
X133190714Y-141302142D01*
%TO.C,R29*%
X148010142Y-154944714D02*
X147756142Y-154581857D01*
X147574714Y-154944714D02*
X147574714Y-154182714D01*
X147865000Y-154182714D01*
X147937571Y-154219000D01*
X147973857Y-154255285D01*
X148010142Y-154327857D01*
X148010142Y-154436714D01*
X147973857Y-154509285D01*
X147937571Y-154545571D01*
X147865000Y-154581857D01*
X147574714Y-154581857D01*
X148300428Y-154255285D02*
X148336714Y-154219000D01*
X148409285Y-154182714D01*
X148590714Y-154182714D01*
X148663285Y-154219000D01*
X148699571Y-154255285D01*
X148735857Y-154327857D01*
X148735857Y-154400428D01*
X148699571Y-154509285D01*
X148264142Y-154944714D01*
X148735857Y-154944714D01*
X149098714Y-154944714D02*
X149243857Y-154944714D01*
X149316428Y-154908428D01*
X149352714Y-154872142D01*
X149425285Y-154763285D01*
X149461571Y-154618142D01*
X149461571Y-154327857D01*
X149425285Y-154255285D01*
X149389000Y-154219000D01*
X149316428Y-154182714D01*
X149171285Y-154182714D01*
X149098714Y-154219000D01*
X149062428Y-154255285D01*
X149026142Y-154327857D01*
X149026142Y-154509285D01*
X149062428Y-154581857D01*
X149098714Y-154618142D01*
X149171285Y-154654428D01*
X149316428Y-154654428D01*
X149389000Y-154618142D01*
X149425285Y-154581857D01*
X149461571Y-154509285D01*
%TO.C,C6*%
X140133333Y-143632142D02*
X140085714Y-143679761D01*
X139942857Y-143727380D01*
X139847619Y-143727380D01*
X139704761Y-143679761D01*
X139609523Y-143584523D01*
X139561904Y-143489285D01*
X139514285Y-143298809D01*
X139514285Y-143155952D01*
X139561904Y-142965476D01*
X139609523Y-142870238D01*
X139704761Y-142775000D01*
X139847619Y-142727380D01*
X139942857Y-142727380D01*
X140085714Y-142775000D01*
X140133333Y-142822619D01*
X140990476Y-142727380D02*
X140800000Y-142727380D01*
X140704761Y-142775000D01*
X140657142Y-142822619D01*
X140561904Y-142965476D01*
X140514285Y-143155952D01*
X140514285Y-143536904D01*
X140561904Y-143632142D01*
X140609523Y-143679761D01*
X140704761Y-143727380D01*
X140895238Y-143727380D01*
X140990476Y-143679761D01*
X141038095Y-143632142D01*
X141085714Y-143536904D01*
X141085714Y-143298809D01*
X141038095Y-143203571D01*
X140990476Y-143155952D01*
X140895238Y-143108333D01*
X140704761Y-143108333D01*
X140609523Y-143155952D01*
X140561904Y-143203571D01*
X140514285Y-143298809D01*
%TO.C,Y2*%
X146223809Y-138676190D02*
X146223809Y-139152380D01*
X145890476Y-138152380D02*
X146223809Y-138676190D01*
X146557142Y-138152380D01*
X146842857Y-138247619D02*
X146890476Y-138200000D01*
X146985714Y-138152380D01*
X147223809Y-138152380D01*
X147319047Y-138200000D01*
X147366666Y-138247619D01*
X147414285Y-138342857D01*
X147414285Y-138438095D01*
X147366666Y-138580952D01*
X146795238Y-139152380D01*
X147414285Y-139152380D01*
%TO.C,U6*%
X157338095Y-102452380D02*
X157338095Y-103261904D01*
X157385714Y-103357142D01*
X157433333Y-103404761D01*
X157528571Y-103452380D01*
X157719047Y-103452380D01*
X157814285Y-103404761D01*
X157861904Y-103357142D01*
X157909523Y-103261904D01*
X157909523Y-102452380D01*
X158814285Y-102452380D02*
X158623809Y-102452380D01*
X158528571Y-102500000D01*
X158480952Y-102547619D01*
X158385714Y-102690476D01*
X158338095Y-102880952D01*
X158338095Y-103261904D01*
X158385714Y-103357142D01*
X158433333Y-103404761D01*
X158528571Y-103452380D01*
X158719047Y-103452380D01*
X158814285Y-103404761D01*
X158861904Y-103357142D01*
X158909523Y-103261904D01*
X158909523Y-103023809D01*
X158861904Y-102928571D01*
X158814285Y-102880952D01*
X158719047Y-102833333D01*
X158528571Y-102833333D01*
X158433333Y-102880952D01*
X158385714Y-102928571D01*
X158338095Y-103023809D01*
%TO.C,C12*%
X159132142Y-142157142D02*
X159084523Y-142204761D01*
X158941666Y-142252380D01*
X158846428Y-142252380D01*
X158703571Y-142204761D01*
X158608333Y-142109523D01*
X158560714Y-142014285D01*
X158513095Y-141823809D01*
X158513095Y-141680952D01*
X158560714Y-141490476D01*
X158608333Y-141395238D01*
X158703571Y-141300000D01*
X158846428Y-141252380D01*
X158941666Y-141252380D01*
X159084523Y-141300000D01*
X159132142Y-141347619D01*
X160084523Y-142252380D02*
X159513095Y-142252380D01*
X159798809Y-142252380D02*
X159798809Y-141252380D01*
X159703571Y-141395238D01*
X159608333Y-141490476D01*
X159513095Y-141538095D01*
X160465476Y-141347619D02*
X160513095Y-141300000D01*
X160608333Y-141252380D01*
X160846428Y-141252380D01*
X160941666Y-141300000D01*
X160989285Y-141347619D01*
X161036904Y-141442857D01*
X161036904Y-141538095D01*
X160989285Y-141680952D01*
X160417857Y-142252380D01*
X161036904Y-142252380D01*
%TO.C,C30*%
X157057142Y-149757142D02*
X157009523Y-149804761D01*
X156866666Y-149852380D01*
X156771428Y-149852380D01*
X156628571Y-149804761D01*
X156533333Y-149709523D01*
X156485714Y-149614285D01*
X156438095Y-149423809D01*
X156438095Y-149280952D01*
X156485714Y-149090476D01*
X156533333Y-148995238D01*
X156628571Y-148900000D01*
X156771428Y-148852380D01*
X156866666Y-148852380D01*
X157009523Y-148900000D01*
X157057142Y-148947619D01*
X157390476Y-148852380D02*
X158009523Y-148852380D01*
X157676190Y-149233333D01*
X157819047Y-149233333D01*
X157914285Y-149280952D01*
X157961904Y-149328571D01*
X158009523Y-149423809D01*
X158009523Y-149661904D01*
X157961904Y-149757142D01*
X157914285Y-149804761D01*
X157819047Y-149852380D01*
X157533333Y-149852380D01*
X157438095Y-149804761D01*
X157390476Y-149757142D01*
X158628571Y-148852380D02*
X158723809Y-148852380D01*
X158819047Y-148900000D01*
X158866666Y-148947619D01*
X158914285Y-149042857D01*
X158961904Y-149233333D01*
X158961904Y-149471428D01*
X158914285Y-149661904D01*
X158866666Y-149757142D01*
X158819047Y-149804761D01*
X158723809Y-149852380D01*
X158628571Y-149852380D01*
X158533333Y-149804761D01*
X158485714Y-149757142D01*
X158438095Y-149661904D01*
X158390476Y-149471428D01*
X158390476Y-149233333D01*
X158438095Y-149042857D01*
X158485714Y-148947619D01*
X158533333Y-148900000D01*
X158628571Y-148852380D01*
%TO.C,C25*%
X135910142Y-137372142D02*
X135873857Y-137408428D01*
X135765000Y-137444714D01*
X135692428Y-137444714D01*
X135583571Y-137408428D01*
X135511000Y-137335857D01*
X135474714Y-137263285D01*
X135438428Y-137118142D01*
X135438428Y-137009285D01*
X135474714Y-136864142D01*
X135511000Y-136791571D01*
X135583571Y-136719000D01*
X135692428Y-136682714D01*
X135765000Y-136682714D01*
X135873857Y-136719000D01*
X135910142Y-136755285D01*
X136200428Y-136755285D02*
X136236714Y-136719000D01*
X136309285Y-136682714D01*
X136490714Y-136682714D01*
X136563285Y-136719000D01*
X136599571Y-136755285D01*
X136635857Y-136827857D01*
X136635857Y-136900428D01*
X136599571Y-137009285D01*
X136164142Y-137444714D01*
X136635857Y-137444714D01*
X137325285Y-136682714D02*
X136962428Y-136682714D01*
X136926142Y-137045571D01*
X136962428Y-137009285D01*
X137035000Y-136973000D01*
X137216428Y-136973000D01*
X137289000Y-137009285D01*
X137325285Y-137045571D01*
X137361571Y-137118142D01*
X137361571Y-137299571D01*
X137325285Y-137372142D01*
X137289000Y-137408428D01*
X137216428Y-137444714D01*
X137035000Y-137444714D01*
X136962428Y-137408428D01*
X136926142Y-137372142D01*
%TO.C,C14*%
X152882142Y-146167857D02*
X152929761Y-146215476D01*
X152977380Y-146358333D01*
X152977380Y-146453571D01*
X152929761Y-146596428D01*
X152834523Y-146691666D01*
X152739285Y-146739285D01*
X152548809Y-146786904D01*
X152405952Y-146786904D01*
X152215476Y-146739285D01*
X152120238Y-146691666D01*
X152025000Y-146596428D01*
X151977380Y-146453571D01*
X151977380Y-146358333D01*
X152025000Y-146215476D01*
X152072619Y-146167857D01*
X152977380Y-145215476D02*
X152977380Y-145786904D01*
X152977380Y-145501190D02*
X151977380Y-145501190D01*
X152120238Y-145596428D01*
X152215476Y-145691666D01*
X152263095Y-145786904D01*
X152310714Y-144358333D02*
X152977380Y-144358333D01*
X151929761Y-144596428D02*
X152644047Y-144834523D01*
X152644047Y-144215476D01*
%TO.C,R8*%
X144858333Y-130402380D02*
X144525000Y-129926190D01*
X144286904Y-130402380D02*
X144286904Y-129402380D01*
X144667857Y-129402380D01*
X144763095Y-129450000D01*
X144810714Y-129497619D01*
X144858333Y-129592857D01*
X144858333Y-129735714D01*
X144810714Y-129830952D01*
X144763095Y-129878571D01*
X144667857Y-129926190D01*
X144286904Y-129926190D01*
X145429761Y-129830952D02*
X145334523Y-129783333D01*
X145286904Y-129735714D01*
X145239285Y-129640476D01*
X145239285Y-129592857D01*
X145286904Y-129497619D01*
X145334523Y-129450000D01*
X145429761Y-129402380D01*
X145620238Y-129402380D01*
X145715476Y-129450000D01*
X145763095Y-129497619D01*
X145810714Y-129592857D01*
X145810714Y-129640476D01*
X145763095Y-129735714D01*
X145715476Y-129783333D01*
X145620238Y-129830952D01*
X145429761Y-129830952D01*
X145334523Y-129878571D01*
X145286904Y-129926190D01*
X145239285Y-130021428D01*
X145239285Y-130211904D01*
X145286904Y-130307142D01*
X145334523Y-130354761D01*
X145429761Y-130402380D01*
X145620238Y-130402380D01*
X145715476Y-130354761D01*
X145763095Y-130307142D01*
X145810714Y-130211904D01*
X145810714Y-130021428D01*
X145763095Y-129926190D01*
X145715476Y-129878571D01*
X145620238Y-129830952D01*
%TO.C,IC1*%
X134452380Y-128876190D02*
X133452380Y-128876190D01*
X134357142Y-127828571D02*
X134404761Y-127876190D01*
X134452380Y-128019047D01*
X134452380Y-128114285D01*
X134404761Y-128257142D01*
X134309523Y-128352380D01*
X134214285Y-128400000D01*
X134023809Y-128447619D01*
X133880952Y-128447619D01*
X133690476Y-128400000D01*
X133595238Y-128352380D01*
X133500000Y-128257142D01*
X133452380Y-128114285D01*
X133452380Y-128019047D01*
X133500000Y-127876190D01*
X133547619Y-127828571D01*
X134452380Y-126876190D02*
X134452380Y-127447619D01*
X134452380Y-127161904D02*
X133452380Y-127161904D01*
X133595238Y-127257142D01*
X133690476Y-127352380D01*
X133738095Y-127447619D01*
%TO.C,IC2*%
X163023809Y-125552380D02*
X163023809Y-124552380D01*
X164071428Y-125457142D02*
X164023809Y-125504761D01*
X163880952Y-125552380D01*
X163785714Y-125552380D01*
X163642857Y-125504761D01*
X163547619Y-125409523D01*
X163500000Y-125314285D01*
X163452380Y-125123809D01*
X163452380Y-124980952D01*
X163500000Y-124790476D01*
X163547619Y-124695238D01*
X163642857Y-124600000D01*
X163785714Y-124552380D01*
X163880952Y-124552380D01*
X164023809Y-124600000D01*
X164071428Y-124647619D01*
X164452380Y-124647619D02*
X164500000Y-124600000D01*
X164595238Y-124552380D01*
X164833333Y-124552380D01*
X164928571Y-124600000D01*
X164976190Y-124647619D01*
X165023809Y-124742857D01*
X165023809Y-124838095D01*
X164976190Y-124980952D01*
X164404761Y-125552380D01*
X165023809Y-125552380D01*
%TO.C,H2*%
X119738095Y-103352380D02*
X119738095Y-102352380D01*
X119738095Y-102828571D02*
X120309523Y-102828571D01*
X120309523Y-103352380D02*
X120309523Y-102352380D01*
X120738095Y-102447619D02*
X120785714Y-102400000D01*
X120880952Y-102352380D01*
X121119047Y-102352380D01*
X121214285Y-102400000D01*
X121261904Y-102447619D01*
X121309523Y-102542857D01*
X121309523Y-102638095D01*
X121261904Y-102780952D01*
X120690476Y-103352380D01*
X121309523Y-103352380D01*
D13*
%TO.C,TP10*%
X150735567Y-108082726D02*
X151170996Y-108082726D01*
X150953281Y-108844726D02*
X150953281Y-108082726D01*
X151424996Y-108844726D02*
X151424996Y-108082726D01*
X151715281Y-108082726D01*
X151787853Y-108119012D01*
X151824138Y-108155297D01*
X151860424Y-108227869D01*
X151860424Y-108336726D01*
X151824138Y-108409297D01*
X151787853Y-108445583D01*
X151715281Y-108481869D01*
X151424996Y-108481869D01*
X152586138Y-108844726D02*
X152150710Y-108844726D01*
X152368424Y-108844726D02*
X152368424Y-108082726D01*
X152295853Y-108191583D01*
X152223281Y-108264154D01*
X152150710Y-108300440D01*
X153057853Y-108082726D02*
X153130424Y-108082726D01*
X153202996Y-108119012D01*
X153239281Y-108155297D01*
X153275567Y-108227869D01*
X153311853Y-108373012D01*
X153311853Y-108554440D01*
X153275567Y-108699583D01*
X153239281Y-108772154D01*
X153202996Y-108808440D01*
X153130424Y-108844726D01*
X153057853Y-108844726D01*
X152985281Y-108808440D01*
X152948996Y-108772154D01*
X152912710Y-108699583D01*
X152876424Y-108554440D01*
X152876424Y-108373012D01*
X152912710Y-108227869D01*
X152948996Y-108155297D01*
X152985281Y-108119012D01*
X153057853Y-108082726D01*
D12*
%TO.C,C18*%
X170657142Y-134317857D02*
X170704761Y-134365476D01*
X170752380Y-134508333D01*
X170752380Y-134603571D01*
X170704761Y-134746428D01*
X170609523Y-134841666D01*
X170514285Y-134889285D01*
X170323809Y-134936904D01*
X170180952Y-134936904D01*
X169990476Y-134889285D01*
X169895238Y-134841666D01*
X169800000Y-134746428D01*
X169752380Y-134603571D01*
X169752380Y-134508333D01*
X169800000Y-134365476D01*
X169847619Y-134317857D01*
X170752380Y-133365476D02*
X170752380Y-133936904D01*
X170752380Y-133651190D02*
X169752380Y-133651190D01*
X169895238Y-133746428D01*
X169990476Y-133841666D01*
X170038095Y-133936904D01*
X170180952Y-132794047D02*
X170133333Y-132889285D01*
X170085714Y-132936904D01*
X169990476Y-132984523D01*
X169942857Y-132984523D01*
X169847619Y-132936904D01*
X169800000Y-132889285D01*
X169752380Y-132794047D01*
X169752380Y-132603571D01*
X169800000Y-132508333D01*
X169847619Y-132460714D01*
X169942857Y-132413095D01*
X169990476Y-132413095D01*
X170085714Y-132460714D01*
X170133333Y-132508333D01*
X170180952Y-132603571D01*
X170180952Y-132794047D01*
X170228571Y-132889285D01*
X170276190Y-132936904D01*
X170371428Y-132984523D01*
X170561904Y-132984523D01*
X170657142Y-132936904D01*
X170704761Y-132889285D01*
X170752380Y-132794047D01*
X170752380Y-132603571D01*
X170704761Y-132508333D01*
X170657142Y-132460714D01*
X170561904Y-132413095D01*
X170371428Y-132413095D01*
X170276190Y-132460714D01*
X170228571Y-132508333D01*
X170180952Y-132603571D01*
%TO.C,TP4*%
X147888095Y-142802380D02*
X148459523Y-142802380D01*
X148173809Y-143802380D02*
X148173809Y-142802380D01*
X148792857Y-143802380D02*
X148792857Y-142802380D01*
X149173809Y-142802380D01*
X149269047Y-142850000D01*
X149316666Y-142897619D01*
X149364285Y-142992857D01*
X149364285Y-143135714D01*
X149316666Y-143230952D01*
X149269047Y-143278571D01*
X149173809Y-143326190D01*
X148792857Y-143326190D01*
X150221428Y-143135714D02*
X150221428Y-143802380D01*
X149983333Y-142754761D02*
X149745238Y-143469047D01*
X150364285Y-143469047D01*
%TO.C,C34*%
X169137142Y-146337142D02*
X169089523Y-146384761D01*
X168946666Y-146432380D01*
X168851428Y-146432380D01*
X168708571Y-146384761D01*
X168613333Y-146289523D01*
X168565714Y-146194285D01*
X168518095Y-146003809D01*
X168518095Y-145860952D01*
X168565714Y-145670476D01*
X168613333Y-145575238D01*
X168708571Y-145480000D01*
X168851428Y-145432380D01*
X168946666Y-145432380D01*
X169089523Y-145480000D01*
X169137142Y-145527619D01*
X169470476Y-145432380D02*
X170089523Y-145432380D01*
X169756190Y-145813333D01*
X169899047Y-145813333D01*
X169994285Y-145860952D01*
X170041904Y-145908571D01*
X170089523Y-146003809D01*
X170089523Y-146241904D01*
X170041904Y-146337142D01*
X169994285Y-146384761D01*
X169899047Y-146432380D01*
X169613333Y-146432380D01*
X169518095Y-146384761D01*
X169470476Y-146337142D01*
X170946666Y-145765714D02*
X170946666Y-146432380D01*
X170708571Y-145384761D02*
X170470476Y-146099047D01*
X171089523Y-146099047D01*
%TO.C,R3*%
X149927380Y-146366666D02*
X149451190Y-146700000D01*
X149927380Y-146938095D02*
X148927380Y-146938095D01*
X148927380Y-146557142D01*
X148975000Y-146461904D01*
X149022619Y-146414285D01*
X149117857Y-146366666D01*
X149260714Y-146366666D01*
X149355952Y-146414285D01*
X149403571Y-146461904D01*
X149451190Y-146557142D01*
X149451190Y-146938095D01*
X148927380Y-146033333D02*
X148927380Y-145414285D01*
X149308333Y-145747619D01*
X149308333Y-145604761D01*
X149355952Y-145509523D01*
X149403571Y-145461904D01*
X149498809Y-145414285D01*
X149736904Y-145414285D01*
X149832142Y-145461904D01*
X149879761Y-145509523D01*
X149927380Y-145604761D01*
X149927380Y-145890476D01*
X149879761Y-145985714D01*
X149832142Y-146033333D01*
%TO.C,D9*%
X115695504Y-124277380D02*
X115695504Y-123277380D01*
X115933600Y-123277380D01*
X116076457Y-123325000D01*
X116171695Y-123420238D01*
X116219314Y-123515476D01*
X116266933Y-123705952D01*
X116266933Y-123848809D01*
X116219314Y-124039285D01*
X116171695Y-124134523D01*
X116076457Y-124229761D01*
X115933600Y-124277380D01*
X115695504Y-124277380D01*
X116743123Y-124277380D02*
X116933600Y-124277380D01*
X117028838Y-124229761D01*
X117076457Y-124182142D01*
X117171695Y-124039285D01*
X117219314Y-123848809D01*
X117219314Y-123467857D01*
X117171695Y-123372619D01*
X117124076Y-123325000D01*
X117028838Y-123277380D01*
X116838361Y-123277380D01*
X116743123Y-123325000D01*
X116695504Y-123372619D01*
X116647885Y-123467857D01*
X116647885Y-123705952D01*
X116695504Y-123801190D01*
X116743123Y-123848809D01*
X116838361Y-123896428D01*
X117028838Y-123896428D01*
X117124076Y-123848809D01*
X117171695Y-123801190D01*
X117219314Y-123705952D01*
%TO.C,J3*%
X108616666Y-137802380D02*
X108616666Y-138516666D01*
X108569047Y-138659523D01*
X108473809Y-138754761D01*
X108330952Y-138802380D01*
X108235714Y-138802380D01*
X108997619Y-137802380D02*
X109616666Y-137802380D01*
X109283333Y-138183333D01*
X109426190Y-138183333D01*
X109521428Y-138230952D01*
X109569047Y-138278571D01*
X109616666Y-138373809D01*
X109616666Y-138611904D01*
X109569047Y-138707142D01*
X109521428Y-138754761D01*
X109426190Y-138802380D01*
X109140476Y-138802380D01*
X109045238Y-138754761D01*
X108997619Y-138707142D01*
%TO.C,R14*%
X150462142Y-122902380D02*
X150128809Y-122426190D01*
X149890714Y-122902380D02*
X149890714Y-121902380D01*
X150271666Y-121902380D01*
X150366904Y-121950000D01*
X150414523Y-121997619D01*
X150462142Y-122092857D01*
X150462142Y-122235714D01*
X150414523Y-122330952D01*
X150366904Y-122378571D01*
X150271666Y-122426190D01*
X149890714Y-122426190D01*
X151414523Y-122902380D02*
X150843095Y-122902380D01*
X151128809Y-122902380D02*
X151128809Y-121902380D01*
X151033571Y-122045238D01*
X150938333Y-122140476D01*
X150843095Y-122188095D01*
X152271666Y-122235714D02*
X152271666Y-122902380D01*
X152033571Y-121854761D02*
X151795476Y-122569047D01*
X152414523Y-122569047D01*
%TO.C,C22*%
X132357142Y-126287142D02*
X132309523Y-126334761D01*
X132166666Y-126382380D01*
X132071428Y-126382380D01*
X131928571Y-126334761D01*
X131833333Y-126239523D01*
X131785714Y-126144285D01*
X131738095Y-125953809D01*
X131738095Y-125810952D01*
X131785714Y-125620476D01*
X131833333Y-125525238D01*
X131928571Y-125430000D01*
X132071428Y-125382380D01*
X132166666Y-125382380D01*
X132309523Y-125430000D01*
X132357142Y-125477619D01*
X132738095Y-125477619D02*
X132785714Y-125430000D01*
X132880952Y-125382380D01*
X133119047Y-125382380D01*
X133214285Y-125430000D01*
X133261904Y-125477619D01*
X133309523Y-125572857D01*
X133309523Y-125668095D01*
X133261904Y-125810952D01*
X132690476Y-126382380D01*
X133309523Y-126382380D01*
X133690476Y-125477619D02*
X133738095Y-125430000D01*
X133833333Y-125382380D01*
X134071428Y-125382380D01*
X134166666Y-125430000D01*
X134214285Y-125477619D01*
X134261904Y-125572857D01*
X134261904Y-125668095D01*
X134214285Y-125810952D01*
X133642857Y-126382380D01*
X134261904Y-126382380D01*
%TO.C,J1*%
X110484166Y-119472380D02*
X110484166Y-120186666D01*
X110436547Y-120329523D01*
X110341309Y-120424761D01*
X110198452Y-120472380D01*
X110103214Y-120472380D01*
X111484166Y-120472380D02*
X110912738Y-120472380D01*
X111198452Y-120472380D02*
X111198452Y-119472380D01*
X111103214Y-119615238D01*
X111007976Y-119710476D01*
X110912738Y-119758095D01*
D13*
%TO.C,TP13*%
X172557714Y-147624428D02*
X172557714Y-147189000D01*
X173319714Y-147406714D02*
X172557714Y-147406714D01*
X173319714Y-146935000D02*
X172557714Y-146935000D01*
X172557714Y-146644714D01*
X172594000Y-146572142D01*
X172630285Y-146535857D01*
X172702857Y-146499571D01*
X172811714Y-146499571D01*
X172884285Y-146535857D01*
X172920571Y-146572142D01*
X172956857Y-146644714D01*
X172956857Y-146935000D01*
X173319714Y-145773857D02*
X173319714Y-146209285D01*
X173319714Y-145991571D02*
X172557714Y-145991571D01*
X172666571Y-146064142D01*
X172739142Y-146136714D01*
X172775428Y-146209285D01*
X172557714Y-145519857D02*
X172557714Y-145048142D01*
X172848000Y-145302142D01*
X172848000Y-145193285D01*
X172884285Y-145120714D01*
X172920571Y-145084428D01*
X172993142Y-145048142D01*
X173174571Y-145048142D01*
X173247142Y-145084428D01*
X173283428Y-145120714D01*
X173319714Y-145193285D01*
X173319714Y-145411000D01*
X173283428Y-145483571D01*
X173247142Y-145519857D01*
D12*
%TO.C,L1*%
X120686533Y-111272580D02*
X120210342Y-111272580D01*
X120210342Y-110272580D01*
X121543676Y-111272580D02*
X120972247Y-111272580D01*
X121257961Y-111272580D02*
X121257961Y-110272580D01*
X121162723Y-110415438D01*
X121067485Y-110510676D01*
X120972247Y-110558295D01*
%TO.C,R15*%
X150462142Y-124402380D02*
X150128809Y-123926190D01*
X149890714Y-124402380D02*
X149890714Y-123402380D01*
X150271666Y-123402380D01*
X150366904Y-123450000D01*
X150414523Y-123497619D01*
X150462142Y-123592857D01*
X150462142Y-123735714D01*
X150414523Y-123830952D01*
X150366904Y-123878571D01*
X150271666Y-123926190D01*
X149890714Y-123926190D01*
X151414523Y-124402380D02*
X150843095Y-124402380D01*
X151128809Y-124402380D02*
X151128809Y-123402380D01*
X151033571Y-123545238D01*
X150938333Y-123640476D01*
X150843095Y-123688095D01*
X152319285Y-123402380D02*
X151843095Y-123402380D01*
X151795476Y-123878571D01*
X151843095Y-123830952D01*
X151938333Y-123783333D01*
X152176428Y-123783333D01*
X152271666Y-123830952D01*
X152319285Y-123878571D01*
X152366904Y-123973809D01*
X152366904Y-124211904D01*
X152319285Y-124307142D01*
X152271666Y-124354761D01*
X152176428Y-124402380D01*
X151938333Y-124402380D01*
X151843095Y-124354761D01*
X151795476Y-124307142D01*
%TO.C,C15*%
X172257142Y-134417857D02*
X172304761Y-134465476D01*
X172352380Y-134608333D01*
X172352380Y-134703571D01*
X172304761Y-134846428D01*
X172209523Y-134941666D01*
X172114285Y-134989285D01*
X171923809Y-135036904D01*
X171780952Y-135036904D01*
X171590476Y-134989285D01*
X171495238Y-134941666D01*
X171400000Y-134846428D01*
X171352380Y-134703571D01*
X171352380Y-134608333D01*
X171400000Y-134465476D01*
X171447619Y-134417857D01*
X172352380Y-133465476D02*
X172352380Y-134036904D01*
X172352380Y-133751190D02*
X171352380Y-133751190D01*
X171495238Y-133846428D01*
X171590476Y-133941666D01*
X171638095Y-134036904D01*
X171352380Y-132560714D02*
X171352380Y-133036904D01*
X171828571Y-133084523D01*
X171780952Y-133036904D01*
X171733333Y-132941666D01*
X171733333Y-132703571D01*
X171780952Y-132608333D01*
X171828571Y-132560714D01*
X171923809Y-132513095D01*
X172161904Y-132513095D01*
X172257142Y-132560714D01*
X172304761Y-132608333D01*
X172352380Y-132703571D01*
X172352380Y-132941666D01*
X172304761Y-133036904D01*
X172257142Y-133084523D01*
%TO.C,R2*%
X174352380Y-140466666D02*
X173876190Y-140800000D01*
X174352380Y-141038095D02*
X173352380Y-141038095D01*
X173352380Y-140657142D01*
X173400000Y-140561904D01*
X173447619Y-140514285D01*
X173542857Y-140466666D01*
X173685714Y-140466666D01*
X173780952Y-140514285D01*
X173828571Y-140561904D01*
X173876190Y-140657142D01*
X173876190Y-141038095D01*
X173447619Y-140085714D02*
X173400000Y-140038095D01*
X173352380Y-139942857D01*
X173352380Y-139704761D01*
X173400000Y-139609523D01*
X173447619Y-139561904D01*
X173542857Y-139514285D01*
X173638095Y-139514285D01*
X173780952Y-139561904D01*
X174352380Y-140133333D01*
X174352380Y-139514285D01*
D13*
%TO.C,TP9*%
X153838428Y-104007714D02*
X154273857Y-104007714D01*
X154056142Y-104769714D02*
X154056142Y-104007714D01*
X154527857Y-104769714D02*
X154527857Y-104007714D01*
X154818142Y-104007714D01*
X154890714Y-104044000D01*
X154927000Y-104080285D01*
X154963285Y-104152857D01*
X154963285Y-104261714D01*
X154927000Y-104334285D01*
X154890714Y-104370571D01*
X154818142Y-104406857D01*
X154527857Y-104406857D01*
X155326142Y-104769714D02*
X155471285Y-104769714D01*
X155543857Y-104733428D01*
X155580142Y-104697142D01*
X155652714Y-104588285D01*
X155689000Y-104443142D01*
X155689000Y-104152857D01*
X155652714Y-104080285D01*
X155616428Y-104044000D01*
X155543857Y-104007714D01*
X155398714Y-104007714D01*
X155326142Y-104044000D01*
X155289857Y-104080285D01*
X155253571Y-104152857D01*
X155253571Y-104334285D01*
X155289857Y-104406857D01*
X155326142Y-104443142D01*
X155398714Y-104479428D01*
X155543857Y-104479428D01*
X155616428Y-104443142D01*
X155652714Y-104406857D01*
X155689000Y-104334285D01*
%TO.C,R33*%
X138819714Y-148589857D02*
X138456857Y-148843857D01*
X138819714Y-149025285D02*
X138057714Y-149025285D01*
X138057714Y-148735000D01*
X138094000Y-148662428D01*
X138130285Y-148626142D01*
X138202857Y-148589857D01*
X138311714Y-148589857D01*
X138384285Y-148626142D01*
X138420571Y-148662428D01*
X138456857Y-148735000D01*
X138456857Y-149025285D01*
X138057714Y-148335857D02*
X138057714Y-147864142D01*
X138348000Y-148118142D01*
X138348000Y-148009285D01*
X138384285Y-147936714D01*
X138420571Y-147900428D01*
X138493142Y-147864142D01*
X138674571Y-147864142D01*
X138747142Y-147900428D01*
X138783428Y-147936714D01*
X138819714Y-148009285D01*
X138819714Y-148227000D01*
X138783428Y-148299571D01*
X138747142Y-148335857D01*
X138057714Y-147610142D02*
X138057714Y-147138428D01*
X138348000Y-147392428D01*
X138348000Y-147283571D01*
X138384285Y-147211000D01*
X138420571Y-147174714D01*
X138493142Y-147138428D01*
X138674571Y-147138428D01*
X138747142Y-147174714D01*
X138783428Y-147211000D01*
X138819714Y-147283571D01*
X138819714Y-147501285D01*
X138783428Y-147573857D01*
X138747142Y-147610142D01*
D12*
%TO.C,R9*%
X144833333Y-128752380D02*
X144500000Y-128276190D01*
X144261904Y-128752380D02*
X144261904Y-127752380D01*
X144642857Y-127752380D01*
X144738095Y-127800000D01*
X144785714Y-127847619D01*
X144833333Y-127942857D01*
X144833333Y-128085714D01*
X144785714Y-128180952D01*
X144738095Y-128228571D01*
X144642857Y-128276190D01*
X144261904Y-128276190D01*
X145309523Y-128752380D02*
X145500000Y-128752380D01*
X145595238Y-128704761D01*
X145642857Y-128657142D01*
X145738095Y-128514285D01*
X145785714Y-128323809D01*
X145785714Y-127942857D01*
X145738095Y-127847619D01*
X145690476Y-127800000D01*
X145595238Y-127752380D01*
X145404761Y-127752380D01*
X145309523Y-127800000D01*
X145261904Y-127847619D01*
X145214285Y-127942857D01*
X145214285Y-128180952D01*
X145261904Y-128276190D01*
X145309523Y-128323809D01*
X145404761Y-128371428D01*
X145595238Y-128371428D01*
X145690476Y-128323809D01*
X145738095Y-128276190D01*
X145785714Y-128180952D01*
%TO.C,Y1*%
X181623809Y-125676190D02*
X181623809Y-126152380D01*
X181290476Y-125152380D02*
X181623809Y-125676190D01*
X181957142Y-125152380D01*
X182814285Y-126152380D02*
X182242857Y-126152380D01*
X182528571Y-126152380D02*
X182528571Y-125152380D01*
X182433333Y-125295238D01*
X182338095Y-125390476D01*
X182242857Y-125438095D01*
D13*
%TO.C,C10*%
X159110142Y-138672142D02*
X159073857Y-138708428D01*
X158965000Y-138744714D01*
X158892428Y-138744714D01*
X158783571Y-138708428D01*
X158711000Y-138635857D01*
X158674714Y-138563285D01*
X158638428Y-138418142D01*
X158638428Y-138309285D01*
X158674714Y-138164142D01*
X158711000Y-138091571D01*
X158783571Y-138019000D01*
X158892428Y-137982714D01*
X158965000Y-137982714D01*
X159073857Y-138019000D01*
X159110142Y-138055285D01*
X159835857Y-138744714D02*
X159400428Y-138744714D01*
X159618142Y-138744714D02*
X159618142Y-137982714D01*
X159545571Y-138091571D01*
X159473000Y-138164142D01*
X159400428Y-138200428D01*
X160307571Y-137982714D02*
X160380142Y-137982714D01*
X160452714Y-138019000D01*
X160489000Y-138055285D01*
X160525285Y-138127857D01*
X160561571Y-138273000D01*
X160561571Y-138454428D01*
X160525285Y-138599571D01*
X160489000Y-138672142D01*
X160452714Y-138708428D01*
X160380142Y-138744714D01*
X160307571Y-138744714D01*
X160235000Y-138708428D01*
X160198714Y-138672142D01*
X160162428Y-138599571D01*
X160126142Y-138454428D01*
X160126142Y-138273000D01*
X160162428Y-138127857D01*
X160198714Y-138055285D01*
X160235000Y-138019000D01*
X160307571Y-137982714D01*
D12*
%TO.C,T1*%
X130538095Y-147752380D02*
X131109523Y-147752380D01*
X130823809Y-148752380D02*
X130823809Y-147752380D01*
X131966666Y-148752380D02*
X131395238Y-148752380D01*
X131680952Y-148752380D02*
X131680952Y-147752380D01*
X131585714Y-147895238D01*
X131490476Y-147990476D01*
X131395238Y-148038095D01*
%TO.C,C28*%
X138575142Y-157080857D02*
X138611428Y-157117142D01*
X138647714Y-157226000D01*
X138647714Y-157298571D01*
X138611428Y-157407428D01*
X138538857Y-157480000D01*
X138466285Y-157516285D01*
X138321142Y-157552571D01*
X138212285Y-157552571D01*
X138067142Y-157516285D01*
X137994571Y-157480000D01*
X137922000Y-157407428D01*
X137885714Y-157298571D01*
X137885714Y-157226000D01*
X137922000Y-157117142D01*
X137958285Y-157080857D01*
X137958285Y-156790571D02*
X137922000Y-156754285D01*
X137885714Y-156681714D01*
X137885714Y-156500285D01*
X137922000Y-156427714D01*
X137958285Y-156391428D01*
X138030857Y-156355142D01*
X138103428Y-156355142D01*
X138212285Y-156391428D01*
X138647714Y-156826857D01*
X138647714Y-156355142D01*
X138212285Y-155919714D02*
X138176000Y-155992285D01*
X138139714Y-156028571D01*
X138067142Y-156064857D01*
X138030857Y-156064857D01*
X137958285Y-156028571D01*
X137922000Y-155992285D01*
X137885714Y-155919714D01*
X137885714Y-155774571D01*
X137922000Y-155702000D01*
X137958285Y-155665714D01*
X138030857Y-155629428D01*
X138067142Y-155629428D01*
X138139714Y-155665714D01*
X138176000Y-155702000D01*
X138212285Y-155774571D01*
X138212285Y-155919714D01*
X138248571Y-155992285D01*
X138284857Y-156028571D01*
X138357428Y-156064857D01*
X138502571Y-156064857D01*
X138575142Y-156028571D01*
X138611428Y-155992285D01*
X138647714Y-155919714D01*
X138647714Y-155774571D01*
X138611428Y-155702000D01*
X138575142Y-155665714D01*
X138502571Y-155629428D01*
X138357428Y-155629428D01*
X138284857Y-155665714D01*
X138248571Y-155702000D01*
X138212285Y-155774571D01*
%TO.C,C24*%
X136357142Y-117517857D02*
X136404761Y-117565476D01*
X136452380Y-117708333D01*
X136452380Y-117803571D01*
X136404761Y-117946428D01*
X136309523Y-118041666D01*
X136214285Y-118089285D01*
X136023809Y-118136904D01*
X135880952Y-118136904D01*
X135690476Y-118089285D01*
X135595238Y-118041666D01*
X135500000Y-117946428D01*
X135452380Y-117803571D01*
X135452380Y-117708333D01*
X135500000Y-117565476D01*
X135547619Y-117517857D01*
X135547619Y-117136904D02*
X135500000Y-117089285D01*
X135452380Y-116994047D01*
X135452380Y-116755952D01*
X135500000Y-116660714D01*
X135547619Y-116613095D01*
X135642857Y-116565476D01*
X135738095Y-116565476D01*
X135880952Y-116613095D01*
X136452380Y-117184523D01*
X136452380Y-116565476D01*
X135785714Y-115708333D02*
X136452380Y-115708333D01*
X135404761Y-115946428D02*
X136119047Y-116184523D01*
X136119047Y-115565476D01*
%TO.C,R30*%
X141724742Y-157697714D02*
X141470742Y-157334857D01*
X141289314Y-157697714D02*
X141289314Y-156935714D01*
X141579600Y-156935714D01*
X141652171Y-156972000D01*
X141688457Y-157008285D01*
X141724742Y-157080857D01*
X141724742Y-157189714D01*
X141688457Y-157262285D01*
X141652171Y-157298571D01*
X141579600Y-157334857D01*
X141289314Y-157334857D01*
X141978742Y-156935714D02*
X142450457Y-156935714D01*
X142196457Y-157226000D01*
X142305314Y-157226000D01*
X142377885Y-157262285D01*
X142414171Y-157298571D01*
X142450457Y-157371142D01*
X142450457Y-157552571D01*
X142414171Y-157625142D01*
X142377885Y-157661428D01*
X142305314Y-157697714D01*
X142087600Y-157697714D01*
X142015028Y-157661428D01*
X141978742Y-157625142D01*
X142922171Y-156935714D02*
X142994742Y-156935714D01*
X143067314Y-156972000D01*
X143103600Y-157008285D01*
X143139885Y-157080857D01*
X143176171Y-157226000D01*
X143176171Y-157407428D01*
X143139885Y-157552571D01*
X143103600Y-157625142D01*
X143067314Y-157661428D01*
X142994742Y-157697714D01*
X142922171Y-157697714D01*
X142849600Y-157661428D01*
X142813314Y-157625142D01*
X142777028Y-157552571D01*
X142740742Y-157407428D01*
X142740742Y-157226000D01*
X142777028Y-157080857D01*
X142813314Y-157008285D01*
X142849600Y-156972000D01*
X142922171Y-156935714D01*
%TO.C,C2*%
X144313333Y-135837142D02*
X144265714Y-135884761D01*
X144122857Y-135932380D01*
X144027619Y-135932380D01*
X143884761Y-135884761D01*
X143789523Y-135789523D01*
X143741904Y-135694285D01*
X143694285Y-135503809D01*
X143694285Y-135360952D01*
X143741904Y-135170476D01*
X143789523Y-135075238D01*
X143884761Y-134980000D01*
X144027619Y-134932380D01*
X144122857Y-134932380D01*
X144265714Y-134980000D01*
X144313333Y-135027619D01*
X144694285Y-135027619D02*
X144741904Y-134980000D01*
X144837142Y-134932380D01*
X145075238Y-134932380D01*
X145170476Y-134980000D01*
X145218095Y-135027619D01*
X145265714Y-135122857D01*
X145265714Y-135218095D01*
X145218095Y-135360952D01*
X144646666Y-135932380D01*
X145265714Y-135932380D01*
%TO.C,R13*%
X130952380Y-116642857D02*
X130476190Y-116976190D01*
X130952380Y-117214285D02*
X129952380Y-117214285D01*
X129952380Y-116833333D01*
X130000000Y-116738095D01*
X130047619Y-116690476D01*
X130142857Y-116642857D01*
X130285714Y-116642857D01*
X130380952Y-116690476D01*
X130428571Y-116738095D01*
X130476190Y-116833333D01*
X130476190Y-117214285D01*
X130952380Y-115690476D02*
X130952380Y-116261904D01*
X130952380Y-115976190D02*
X129952380Y-115976190D01*
X130095238Y-116071428D01*
X130190476Y-116166666D01*
X130238095Y-116261904D01*
X129952380Y-115357142D02*
X129952380Y-114738095D01*
X130333333Y-115071428D01*
X130333333Y-114928571D01*
X130380952Y-114833333D01*
X130428571Y-114785714D01*
X130523809Y-114738095D01*
X130761904Y-114738095D01*
X130857142Y-114785714D01*
X130904761Y-114833333D01*
X130952380Y-114928571D01*
X130952380Y-115214285D01*
X130904761Y-115309523D01*
X130857142Y-115357142D01*
%TO.C,C19*%
X141751775Y-135883214D02*
X141782013Y-135913452D01*
X141812251Y-136004166D01*
X141812251Y-136064642D01*
X141782013Y-136155357D01*
X141721537Y-136215833D01*
X141661061Y-136246071D01*
X141540109Y-136276309D01*
X141449394Y-136276309D01*
X141328442Y-136246071D01*
X141267966Y-136215833D01*
X141207490Y-136155357D01*
X141177251Y-136064642D01*
X141177251Y-136004166D01*
X141207490Y-135913452D01*
X141237728Y-135883214D01*
X141812251Y-135278452D02*
X141812251Y-135641309D01*
X141812251Y-135459880D02*
X141177251Y-135459880D01*
X141267966Y-135520357D01*
X141328442Y-135580833D01*
X141358680Y-135641309D01*
X141812251Y-134976071D02*
X141812251Y-134855119D01*
X141782013Y-134794642D01*
X141751775Y-134764404D01*
X141661061Y-134703928D01*
X141540109Y-134673690D01*
X141298204Y-134673690D01*
X141237728Y-134703928D01*
X141207490Y-134734166D01*
X141177251Y-134794642D01*
X141177251Y-134915595D01*
X141207490Y-134976071D01*
X141237728Y-135006309D01*
X141298204Y-135036547D01*
X141449394Y-135036547D01*
X141509870Y-135006309D01*
X141540109Y-134976071D01*
X141570347Y-134915595D01*
X141570347Y-134794642D01*
X141540109Y-134734166D01*
X141509870Y-134703928D01*
X141449394Y-134673690D01*
%TO.C,C31*%
X155657142Y-146857142D02*
X155609523Y-146904761D01*
X155466666Y-146952380D01*
X155371428Y-146952380D01*
X155228571Y-146904761D01*
X155133333Y-146809523D01*
X155085714Y-146714285D01*
X155038095Y-146523809D01*
X155038095Y-146380952D01*
X155085714Y-146190476D01*
X155133333Y-146095238D01*
X155228571Y-146000000D01*
X155371428Y-145952380D01*
X155466666Y-145952380D01*
X155609523Y-146000000D01*
X155657142Y-146047619D01*
X155990476Y-145952380D02*
X156609523Y-145952380D01*
X156276190Y-146333333D01*
X156419047Y-146333333D01*
X156514285Y-146380952D01*
X156561904Y-146428571D01*
X156609523Y-146523809D01*
X156609523Y-146761904D01*
X156561904Y-146857142D01*
X156514285Y-146904761D01*
X156419047Y-146952380D01*
X156133333Y-146952380D01*
X156038095Y-146904761D01*
X155990476Y-146857142D01*
X157561904Y-146952380D02*
X156990476Y-146952380D01*
X157276190Y-146952380D02*
X157276190Y-145952380D01*
X157180952Y-146095238D01*
X157085714Y-146190476D01*
X156990476Y-146238095D01*
%TO.C,J6*%
X177466666Y-156551380D02*
X177466666Y-157265666D01*
X177419047Y-157408523D01*
X177323809Y-157503761D01*
X177180952Y-157551380D01*
X177085714Y-157551380D01*
X178371428Y-156551380D02*
X178180952Y-156551380D01*
X178085714Y-156599000D01*
X178038095Y-156646619D01*
X177942857Y-156789476D01*
X177895238Y-156979952D01*
X177895238Y-157360904D01*
X177942857Y-157456142D01*
X177990476Y-157503761D01*
X178085714Y-157551380D01*
X178276190Y-157551380D01*
X178371428Y-157503761D01*
X178419047Y-157456142D01*
X178466666Y-157360904D01*
X178466666Y-157122809D01*
X178419047Y-157027571D01*
X178371428Y-156979952D01*
X178276190Y-156932333D01*
X178085714Y-156932333D01*
X177990476Y-156979952D01*
X177942857Y-157027571D01*
X177895238Y-157122809D01*
%TO.C,H1*%
X180721095Y-151011380D02*
X180721095Y-150011380D01*
X180721095Y-150487571D02*
X181292523Y-150487571D01*
X181292523Y-151011380D02*
X181292523Y-150011380D01*
X182292523Y-151011380D02*
X181721095Y-151011380D01*
X182006809Y-151011380D02*
X182006809Y-150011380D01*
X181911571Y-150154238D01*
X181816333Y-150249476D01*
X181721095Y-150297095D01*
D13*
%TO.C,TP8*%
X123313428Y-109582714D02*
X123748857Y-109582714D01*
X123531142Y-110344714D02*
X123531142Y-109582714D01*
X124002857Y-110344714D02*
X124002857Y-109582714D01*
X124293142Y-109582714D01*
X124365714Y-109619000D01*
X124402000Y-109655285D01*
X124438285Y-109727857D01*
X124438285Y-109836714D01*
X124402000Y-109909285D01*
X124365714Y-109945571D01*
X124293142Y-109981857D01*
X124002857Y-109981857D01*
X124873714Y-109909285D02*
X124801142Y-109873000D01*
X124764857Y-109836714D01*
X124728571Y-109764142D01*
X124728571Y-109727857D01*
X124764857Y-109655285D01*
X124801142Y-109619000D01*
X124873714Y-109582714D01*
X125018857Y-109582714D01*
X125091428Y-109619000D01*
X125127714Y-109655285D01*
X125164000Y-109727857D01*
X125164000Y-109764142D01*
X125127714Y-109836714D01*
X125091428Y-109873000D01*
X125018857Y-109909285D01*
X124873714Y-109909285D01*
X124801142Y-109945571D01*
X124764857Y-109981857D01*
X124728571Y-110054428D01*
X124728571Y-110199571D01*
X124764857Y-110272142D01*
X124801142Y-110308428D01*
X124873714Y-110344714D01*
X125018857Y-110344714D01*
X125091428Y-110308428D01*
X125127714Y-110272142D01*
X125164000Y-110199571D01*
X125164000Y-110054428D01*
X125127714Y-109981857D01*
X125091428Y-109945571D01*
X125018857Y-109909285D01*
D12*
%TO.C,R38*%
X140247914Y-157080857D02*
X139885057Y-157334857D01*
X140247914Y-157516285D02*
X139485914Y-157516285D01*
X139485914Y-157226000D01*
X139522200Y-157153428D01*
X139558485Y-157117142D01*
X139631057Y-157080857D01*
X139739914Y-157080857D01*
X139812485Y-157117142D01*
X139848771Y-157153428D01*
X139885057Y-157226000D01*
X139885057Y-157516285D01*
X139485914Y-156826857D02*
X139485914Y-156355142D01*
X139776200Y-156609142D01*
X139776200Y-156500285D01*
X139812485Y-156427714D01*
X139848771Y-156391428D01*
X139921342Y-156355142D01*
X140102771Y-156355142D01*
X140175342Y-156391428D01*
X140211628Y-156427714D01*
X140247914Y-156500285D01*
X140247914Y-156718000D01*
X140211628Y-156790571D01*
X140175342Y-156826857D01*
X139812485Y-155919714D02*
X139776200Y-155992285D01*
X139739914Y-156028571D01*
X139667342Y-156064857D01*
X139631057Y-156064857D01*
X139558485Y-156028571D01*
X139522200Y-155992285D01*
X139485914Y-155919714D01*
X139485914Y-155774571D01*
X139522200Y-155702000D01*
X139558485Y-155665714D01*
X139631057Y-155629428D01*
X139667342Y-155629428D01*
X139739914Y-155665714D01*
X139776200Y-155702000D01*
X139812485Y-155774571D01*
X139812485Y-155919714D01*
X139848771Y-155992285D01*
X139885057Y-156028571D01*
X139957628Y-156064857D01*
X140102771Y-156064857D01*
X140175342Y-156028571D01*
X140211628Y-155992285D01*
X140247914Y-155919714D01*
X140247914Y-155774571D01*
X140211628Y-155702000D01*
X140175342Y-155665714D01*
X140102771Y-155629428D01*
X139957628Y-155629428D01*
X139885057Y-155665714D01*
X139848771Y-155702000D01*
X139812485Y-155774571D01*
%TO.C,Q2*%
X152597619Y-118845238D02*
X152550000Y-118940476D01*
X152454761Y-119035714D01*
X152311904Y-119178571D01*
X152264285Y-119273809D01*
X152264285Y-119369047D01*
X152502380Y-119321428D02*
X152454761Y-119416666D01*
X152359523Y-119511904D01*
X152169047Y-119559523D01*
X151835714Y-119559523D01*
X151645238Y-119511904D01*
X151550000Y-119416666D01*
X151502380Y-119321428D01*
X151502380Y-119130952D01*
X151550000Y-119035714D01*
X151645238Y-118940476D01*
X151835714Y-118892857D01*
X152169047Y-118892857D01*
X152359523Y-118940476D01*
X152454761Y-119035714D01*
X152502380Y-119130952D01*
X152502380Y-119321428D01*
X151597619Y-118511904D02*
X151550000Y-118464285D01*
X151502380Y-118369047D01*
X151502380Y-118130952D01*
X151550000Y-118035714D01*
X151597619Y-117988095D01*
X151692857Y-117940476D01*
X151788095Y-117940476D01*
X151930952Y-117988095D01*
X152502380Y-118559523D01*
X152502380Y-117940476D01*
%TO.C,U1*%
X155338095Y-130902380D02*
X155338095Y-131711904D01*
X155385714Y-131807142D01*
X155433333Y-131854761D01*
X155528571Y-131902380D01*
X155719047Y-131902380D01*
X155814285Y-131854761D01*
X155861904Y-131807142D01*
X155909523Y-131711904D01*
X155909523Y-130902380D01*
X156909523Y-131902380D02*
X156338095Y-131902380D01*
X156623809Y-131902380D02*
X156623809Y-130902380D01*
X156528571Y-131045238D01*
X156433333Y-131140476D01*
X156338095Y-131188095D01*
%TO.C,R25*%
X134744714Y-139889857D02*
X134381857Y-140143857D01*
X134744714Y-140325285D02*
X133982714Y-140325285D01*
X133982714Y-140035000D01*
X134019000Y-139962428D01*
X134055285Y-139926142D01*
X134127857Y-139889857D01*
X134236714Y-139889857D01*
X134309285Y-139926142D01*
X134345571Y-139962428D01*
X134381857Y-140035000D01*
X134381857Y-140325285D01*
X134055285Y-139599571D02*
X134019000Y-139563285D01*
X133982714Y-139490714D01*
X133982714Y-139309285D01*
X134019000Y-139236714D01*
X134055285Y-139200428D01*
X134127857Y-139164142D01*
X134200428Y-139164142D01*
X134309285Y-139200428D01*
X134744714Y-139635857D01*
X134744714Y-139164142D01*
X133982714Y-138474714D02*
X133982714Y-138837571D01*
X134345571Y-138873857D01*
X134309285Y-138837571D01*
X134273000Y-138765000D01*
X134273000Y-138583571D01*
X134309285Y-138511000D01*
X134345571Y-138474714D01*
X134418142Y-138438428D01*
X134599571Y-138438428D01*
X134672142Y-138474714D01*
X134708428Y-138511000D01*
X134744714Y-138583571D01*
X134744714Y-138765000D01*
X134708428Y-138837571D01*
X134672142Y-138873857D01*
%TO.C,FID2*%
X143578576Y-110871437D02*
X143578576Y-111204770D01*
X144102385Y-111204770D02*
X143102385Y-111204770D01*
X143102385Y-110728580D01*
X144102385Y-110347628D02*
X143102385Y-110347628D01*
X144102385Y-109871437D02*
X143102385Y-109871437D01*
X143102385Y-109633342D01*
X143150005Y-109490485D01*
X143245243Y-109395247D01*
X143340481Y-109347628D01*
X143530957Y-109300009D01*
X143673814Y-109300009D01*
X143864290Y-109347628D01*
X143959528Y-109395247D01*
X144054766Y-109490485D01*
X144102385Y-109633342D01*
X144102385Y-109871437D01*
X143197624Y-108919056D02*
X143150005Y-108871437D01*
X143102385Y-108776199D01*
X143102385Y-108538104D01*
X143150005Y-108442866D01*
X143197624Y-108395247D01*
X143292862Y-108347628D01*
X143388100Y-108347628D01*
X143530957Y-108395247D01*
X144102385Y-108966675D01*
X144102385Y-108347628D01*
%TO.C,R20*%
X118652380Y-148732857D02*
X118176190Y-149066190D01*
X118652380Y-149304285D02*
X117652380Y-149304285D01*
X117652380Y-148923333D01*
X117700000Y-148828095D01*
X117747619Y-148780476D01*
X117842857Y-148732857D01*
X117985714Y-148732857D01*
X118080952Y-148780476D01*
X118128571Y-148828095D01*
X118176190Y-148923333D01*
X118176190Y-149304285D01*
X117747619Y-148351904D02*
X117700000Y-148304285D01*
X117652380Y-148209047D01*
X117652380Y-147970952D01*
X117700000Y-147875714D01*
X117747619Y-147828095D01*
X117842857Y-147780476D01*
X117938095Y-147780476D01*
X118080952Y-147828095D01*
X118652380Y-148399523D01*
X118652380Y-147780476D01*
X117652380Y-147161428D02*
X117652380Y-147066190D01*
X117700000Y-146970952D01*
X117747619Y-146923333D01*
X117842857Y-146875714D01*
X118033333Y-146828095D01*
X118271428Y-146828095D01*
X118461904Y-146875714D01*
X118557142Y-146923333D01*
X118604761Y-146970952D01*
X118652380Y-147066190D01*
X118652380Y-147161428D01*
X118604761Y-147256666D01*
X118557142Y-147304285D01*
X118461904Y-147351904D01*
X118271428Y-147399523D01*
X118033333Y-147399523D01*
X117842857Y-147351904D01*
X117747619Y-147304285D01*
X117700000Y-147256666D01*
X117652380Y-147161428D01*
D13*
%TO.C,R1*%
X145923000Y-142294714D02*
X145669000Y-141931857D01*
X145487571Y-142294714D02*
X145487571Y-141532714D01*
X145777857Y-141532714D01*
X145850428Y-141569000D01*
X145886714Y-141605285D01*
X145923000Y-141677857D01*
X145923000Y-141786714D01*
X145886714Y-141859285D01*
X145850428Y-141895571D01*
X145777857Y-141931857D01*
X145487571Y-141931857D01*
X146648714Y-142294714D02*
X146213285Y-142294714D01*
X146431000Y-142294714D02*
X146431000Y-141532714D01*
X146358428Y-141641571D01*
X146285857Y-141714142D01*
X146213285Y-141750428D01*
D12*
%TO.C,FID3*%
X176228572Y-150028576D02*
X175895239Y-150028576D01*
X175895239Y-150552385D02*
X175895239Y-149552385D01*
X176371429Y-149552385D01*
X176752381Y-150552385D02*
X176752381Y-149552385D01*
X177228572Y-150552385D02*
X177228572Y-149552385D01*
X177466667Y-149552385D01*
X177609524Y-149600005D01*
X177704762Y-149695243D01*
X177752381Y-149790481D01*
X177800001Y-149980957D01*
X177800001Y-150123814D01*
X177752381Y-150314290D01*
X177704762Y-150409528D01*
X177609524Y-150504766D01*
X177466667Y-150552385D01*
X177228572Y-150552385D01*
X178133334Y-149552385D02*
X178752381Y-149552385D01*
X178419048Y-149933338D01*
X178561905Y-149933338D01*
X178657143Y-149980957D01*
X178704762Y-150028576D01*
X178752381Y-150123814D01*
X178752381Y-150361909D01*
X178704762Y-150457147D01*
X178657143Y-150504766D01*
X178561905Y-150552385D01*
X178276191Y-150552385D01*
X178180953Y-150504766D01*
X178133334Y-150457147D01*
%TO.C,H3*%
X122638095Y-151102380D02*
X122638095Y-150102380D01*
X122638095Y-150578571D02*
X123209523Y-150578571D01*
X123209523Y-151102380D02*
X123209523Y-150102380D01*
X123590476Y-150102380D02*
X124209523Y-150102380D01*
X123876190Y-150483333D01*
X124019047Y-150483333D01*
X124114285Y-150530952D01*
X124161904Y-150578571D01*
X124209523Y-150673809D01*
X124209523Y-150911904D01*
X124161904Y-151007142D01*
X124114285Y-151054761D01*
X124019047Y-151102380D01*
X123733333Y-151102380D01*
X123638095Y-151054761D01*
X123590476Y-151007142D01*
%TO.C,R6*%
X118063333Y-157812380D02*
X117730000Y-157336190D01*
X117491904Y-157812380D02*
X117491904Y-156812380D01*
X117872857Y-156812380D01*
X117968095Y-156860000D01*
X118015714Y-156907619D01*
X118063333Y-157002857D01*
X118063333Y-157145714D01*
X118015714Y-157240952D01*
X117968095Y-157288571D01*
X117872857Y-157336190D01*
X117491904Y-157336190D01*
X118920476Y-156812380D02*
X118730000Y-156812380D01*
X118634761Y-156860000D01*
X118587142Y-156907619D01*
X118491904Y-157050476D01*
X118444285Y-157240952D01*
X118444285Y-157621904D01*
X118491904Y-157717142D01*
X118539523Y-157764761D01*
X118634761Y-157812380D01*
X118825238Y-157812380D01*
X118920476Y-157764761D01*
X118968095Y-157717142D01*
X119015714Y-157621904D01*
X119015714Y-157383809D01*
X118968095Y-157288571D01*
X118920476Y-157240952D01*
X118825238Y-157193333D01*
X118634761Y-157193333D01*
X118539523Y-157240952D01*
X118491904Y-157288571D01*
X118444285Y-157383809D01*
%TO.C,C27*%
X135137142Y-143289857D02*
X135173428Y-143326142D01*
X135209714Y-143435000D01*
X135209714Y-143507571D01*
X135173428Y-143616428D01*
X135100857Y-143689000D01*
X135028285Y-143725285D01*
X134883142Y-143761571D01*
X134774285Y-143761571D01*
X134629142Y-143725285D01*
X134556571Y-143689000D01*
X134484000Y-143616428D01*
X134447714Y-143507571D01*
X134447714Y-143435000D01*
X134484000Y-143326142D01*
X134520285Y-143289857D01*
X134520285Y-142999571D02*
X134484000Y-142963285D01*
X134447714Y-142890714D01*
X134447714Y-142709285D01*
X134484000Y-142636714D01*
X134520285Y-142600428D01*
X134592857Y-142564142D01*
X134665428Y-142564142D01*
X134774285Y-142600428D01*
X135209714Y-143035857D01*
X135209714Y-142564142D01*
X134447714Y-142310142D02*
X134447714Y-141802142D01*
X135209714Y-142128714D01*
%TO.C,Y3*%
X134876666Y-130178833D02*
X134876666Y-130602166D01*
X134580333Y-129713166D02*
X134876666Y-130178833D01*
X135173000Y-129713166D01*
X135384666Y-129713166D02*
X135935000Y-129713166D01*
X135638666Y-130051833D01*
X135765666Y-130051833D01*
X135850333Y-130094166D01*
X135892666Y-130136500D01*
X135935000Y-130221166D01*
X135935000Y-130432833D01*
X135892666Y-130517500D01*
X135850333Y-130559833D01*
X135765666Y-130602166D01*
X135511666Y-130602166D01*
X135427000Y-130559833D01*
X135384666Y-130517500D01*
%TO.C,R12*%
X126252380Y-116842857D02*
X125776190Y-117176190D01*
X126252380Y-117414285D02*
X125252380Y-117414285D01*
X125252380Y-117033333D01*
X125300000Y-116938095D01*
X125347619Y-116890476D01*
X125442857Y-116842857D01*
X125585714Y-116842857D01*
X125680952Y-116890476D01*
X125728571Y-116938095D01*
X125776190Y-117033333D01*
X125776190Y-117414285D01*
X126252380Y-115890476D02*
X126252380Y-116461904D01*
X126252380Y-116176190D02*
X125252380Y-116176190D01*
X125395238Y-116271428D01*
X125490476Y-116366666D01*
X125538095Y-116461904D01*
X125347619Y-115509523D02*
X125300000Y-115461904D01*
X125252380Y-115366666D01*
X125252380Y-115128571D01*
X125300000Y-115033333D01*
X125347619Y-114985714D01*
X125442857Y-114938095D01*
X125538095Y-114938095D01*
X125680952Y-114985714D01*
X126252380Y-115557142D01*
X126252380Y-114938095D01*
%TO.C,R10*%
X144957142Y-125252380D02*
X144623809Y-124776190D01*
X144385714Y-125252380D02*
X144385714Y-124252380D01*
X144766666Y-124252380D01*
X144861904Y-124300000D01*
X144909523Y-124347619D01*
X144957142Y-124442857D01*
X144957142Y-124585714D01*
X144909523Y-124680952D01*
X144861904Y-124728571D01*
X144766666Y-124776190D01*
X144385714Y-124776190D01*
X145909523Y-125252380D02*
X145338095Y-125252380D01*
X145623809Y-125252380D02*
X145623809Y-124252380D01*
X145528571Y-124395238D01*
X145433333Y-124490476D01*
X145338095Y-124538095D01*
X146528571Y-124252380D02*
X146623809Y-124252380D01*
X146719047Y-124300000D01*
X146766666Y-124347619D01*
X146814285Y-124442857D01*
X146861904Y-124633333D01*
X146861904Y-124871428D01*
X146814285Y-125061904D01*
X146766666Y-125157142D01*
X146719047Y-125204761D01*
X146623809Y-125252380D01*
X146528571Y-125252380D01*
X146433333Y-125204761D01*
X146385714Y-125157142D01*
X146338095Y-125061904D01*
X146290476Y-124871428D01*
X146290476Y-124633333D01*
X146338095Y-124442857D01*
X146385714Y-124347619D01*
X146433333Y-124300000D01*
X146528571Y-124252380D01*
%TO.C,C23*%
X134457142Y-117917857D02*
X134504761Y-117965476D01*
X134552380Y-118108333D01*
X134552380Y-118203571D01*
X134504761Y-118346428D01*
X134409523Y-118441666D01*
X134314285Y-118489285D01*
X134123809Y-118536904D01*
X133980952Y-118536904D01*
X133790476Y-118489285D01*
X133695238Y-118441666D01*
X133600000Y-118346428D01*
X133552380Y-118203571D01*
X133552380Y-118108333D01*
X133600000Y-117965476D01*
X133647619Y-117917857D01*
X133647619Y-117536904D02*
X133600000Y-117489285D01*
X133552380Y-117394047D01*
X133552380Y-117155952D01*
X133600000Y-117060714D01*
X133647619Y-117013095D01*
X133742857Y-116965476D01*
X133838095Y-116965476D01*
X133980952Y-117013095D01*
X134552380Y-117584523D01*
X134552380Y-116965476D01*
X133552380Y-116632142D02*
X133552380Y-116013095D01*
X133933333Y-116346428D01*
X133933333Y-116203571D01*
X133980952Y-116108333D01*
X134028571Y-116060714D01*
X134123809Y-116013095D01*
X134361904Y-116013095D01*
X134457142Y-116060714D01*
X134504761Y-116108333D01*
X134552380Y-116203571D01*
X134552380Y-116489285D01*
X134504761Y-116584523D01*
X134457142Y-116632142D01*
%TO.C,C13*%
X171257142Y-143842857D02*
X171304761Y-143890476D01*
X171352380Y-144033333D01*
X171352380Y-144128571D01*
X171304761Y-144271428D01*
X171209523Y-144366666D01*
X171114285Y-144414285D01*
X170923809Y-144461904D01*
X170780952Y-144461904D01*
X170590476Y-144414285D01*
X170495238Y-144366666D01*
X170400000Y-144271428D01*
X170352380Y-144128571D01*
X170352380Y-144033333D01*
X170400000Y-143890476D01*
X170447619Y-143842857D01*
X171352380Y-142890476D02*
X171352380Y-143461904D01*
X171352380Y-143176190D02*
X170352380Y-143176190D01*
X170495238Y-143271428D01*
X170590476Y-143366666D01*
X170638095Y-143461904D01*
X170352380Y-142557142D02*
X170352380Y-141938095D01*
X170733333Y-142271428D01*
X170733333Y-142128571D01*
X170780952Y-142033333D01*
X170828571Y-141985714D01*
X170923809Y-141938095D01*
X171161904Y-141938095D01*
X171257142Y-141985714D01*
X171304761Y-142033333D01*
X171352380Y-142128571D01*
X171352380Y-142414285D01*
X171304761Y-142509523D01*
X171257142Y-142557142D01*
%TO.C,J4*%
X143197380Y-104733333D02*
X143911666Y-104733333D01*
X144054523Y-104780952D01*
X144149761Y-104876190D01*
X144197380Y-105019047D01*
X144197380Y-105114285D01*
X143530714Y-103828571D02*
X144197380Y-103828571D01*
X143149761Y-104066666D02*
X143864047Y-104304761D01*
X143864047Y-103685714D01*
%TO.C,U2*%
X183352380Y-132961904D02*
X184161904Y-132961904D01*
X184257142Y-132914285D01*
X184304761Y-132866666D01*
X184352380Y-132771428D01*
X184352380Y-132580952D01*
X184304761Y-132485714D01*
X184257142Y-132438095D01*
X184161904Y-132390476D01*
X183352380Y-132390476D01*
X183447619Y-131961904D02*
X183400000Y-131914285D01*
X183352380Y-131819047D01*
X183352380Y-131580952D01*
X183400000Y-131485714D01*
X183447619Y-131438095D01*
X183542857Y-131390476D01*
X183638095Y-131390476D01*
X183780952Y-131438095D01*
X184352380Y-132009523D01*
X184352380Y-131390476D01*
%TO.C,C16*%
X144757142Y-126857142D02*
X144709523Y-126904761D01*
X144566666Y-126952380D01*
X144471428Y-126952380D01*
X144328571Y-126904761D01*
X144233333Y-126809523D01*
X144185714Y-126714285D01*
X144138095Y-126523809D01*
X144138095Y-126380952D01*
X144185714Y-126190476D01*
X144233333Y-126095238D01*
X144328571Y-126000000D01*
X144471428Y-125952380D01*
X144566666Y-125952380D01*
X144709523Y-126000000D01*
X144757142Y-126047619D01*
X145709523Y-126952380D02*
X145138095Y-126952380D01*
X145423809Y-126952380D02*
X145423809Y-125952380D01*
X145328571Y-126095238D01*
X145233333Y-126190476D01*
X145138095Y-126238095D01*
X146566666Y-125952380D02*
X146376190Y-125952380D01*
X146280952Y-126000000D01*
X146233333Y-126047619D01*
X146138095Y-126190476D01*
X146090476Y-126380952D01*
X146090476Y-126761904D01*
X146138095Y-126857142D01*
X146185714Y-126904761D01*
X146280952Y-126952380D01*
X146471428Y-126952380D01*
X146566666Y-126904761D01*
X146614285Y-126857142D01*
X146661904Y-126761904D01*
X146661904Y-126523809D01*
X146614285Y-126428571D01*
X146566666Y-126380952D01*
X146471428Y-126333333D01*
X146280952Y-126333333D01*
X146185714Y-126380952D01*
X146138095Y-126428571D01*
X146090476Y-126523809D01*
%TO.C,U5*%
X159038095Y-128852380D02*
X159038095Y-129661904D01*
X159085714Y-129757142D01*
X159133333Y-129804761D01*
X159228571Y-129852380D01*
X159419047Y-129852380D01*
X159514285Y-129804761D01*
X159561904Y-129757142D01*
X159609523Y-129661904D01*
X159609523Y-128852380D01*
X160561904Y-128852380D02*
X160085714Y-128852380D01*
X160038095Y-129328571D01*
X160085714Y-129280952D01*
X160180952Y-129233333D01*
X160419047Y-129233333D01*
X160514285Y-129280952D01*
X160561904Y-129328571D01*
X160609523Y-129423809D01*
X160609523Y-129661904D01*
X160561904Y-129757142D01*
X160514285Y-129804761D01*
X160419047Y-129852380D01*
X160180952Y-129852380D01*
X160085714Y-129804761D01*
X160038095Y-129757142D01*
%TO.C,C17*%
X145007142Y-133667857D02*
X145054761Y-133715476D01*
X145102380Y-133858333D01*
X145102380Y-133953571D01*
X145054761Y-134096428D01*
X144959523Y-134191666D01*
X144864285Y-134239285D01*
X144673809Y-134286904D01*
X144530952Y-134286904D01*
X144340476Y-134239285D01*
X144245238Y-134191666D01*
X144150000Y-134096428D01*
X144102380Y-133953571D01*
X144102380Y-133858333D01*
X144150000Y-133715476D01*
X144197619Y-133667857D01*
X145102380Y-132715476D02*
X145102380Y-133286904D01*
X145102380Y-133001190D02*
X144102380Y-133001190D01*
X144245238Y-133096428D01*
X144340476Y-133191666D01*
X144388095Y-133286904D01*
X144102380Y-132382142D02*
X144102380Y-131715476D01*
X145102380Y-132144047D01*
%TO.C,U8*%
X154038095Y-156152380D02*
X154038095Y-156961904D01*
X154085714Y-157057142D01*
X154133333Y-157104761D01*
X154228571Y-157152380D01*
X154419047Y-157152380D01*
X154514285Y-157104761D01*
X154561904Y-157057142D01*
X154609523Y-156961904D01*
X154609523Y-156152380D01*
X155228571Y-156580952D02*
X155133333Y-156533333D01*
X155085714Y-156485714D01*
X155038095Y-156390476D01*
X155038095Y-156342857D01*
X155085714Y-156247619D01*
X155133333Y-156200000D01*
X155228571Y-156152380D01*
X155419047Y-156152380D01*
X155514285Y-156200000D01*
X155561904Y-156247619D01*
X155609523Y-156342857D01*
X155609523Y-156390476D01*
X155561904Y-156485714D01*
X155514285Y-156533333D01*
X155419047Y-156580952D01*
X155228571Y-156580952D01*
X155133333Y-156628571D01*
X155085714Y-156676190D01*
X155038095Y-156771428D01*
X155038095Y-156961904D01*
X155085714Y-157057142D01*
X155133333Y-157104761D01*
X155228571Y-157152380D01*
X155419047Y-157152380D01*
X155514285Y-157104761D01*
X155561904Y-157057142D01*
X155609523Y-156961904D01*
X155609523Y-156771428D01*
X155561904Y-156676190D01*
X155514285Y-156628571D01*
X155419047Y-156580952D01*
%TO.C,F1*%
X111833066Y-125125171D02*
X111499733Y-125125171D01*
X111499733Y-125648980D02*
X111499733Y-124648980D01*
X111975923Y-124648980D01*
X112880685Y-125648980D02*
X112309257Y-125648980D01*
X112594971Y-125648980D02*
X112594971Y-124648980D01*
X112499733Y-124791838D01*
X112404495Y-124887076D01*
X112309257Y-124934695D01*
%TO.C,C9*%
X146058333Y-146857142D02*
X146010714Y-146904761D01*
X145867857Y-146952380D01*
X145772619Y-146952380D01*
X145629761Y-146904761D01*
X145534523Y-146809523D01*
X145486904Y-146714285D01*
X145439285Y-146523809D01*
X145439285Y-146380952D01*
X145486904Y-146190476D01*
X145534523Y-146095238D01*
X145629761Y-146000000D01*
X145772619Y-145952380D01*
X145867857Y-145952380D01*
X146010714Y-146000000D01*
X146058333Y-146047619D01*
X146534523Y-146952380D02*
X146725000Y-146952380D01*
X146820238Y-146904761D01*
X146867857Y-146857142D01*
X146963095Y-146714285D01*
X147010714Y-146523809D01*
X147010714Y-146142857D01*
X146963095Y-146047619D01*
X146915476Y-146000000D01*
X146820238Y-145952380D01*
X146629761Y-145952380D01*
X146534523Y-146000000D01*
X146486904Y-146047619D01*
X146439285Y-146142857D01*
X146439285Y-146380952D01*
X146486904Y-146476190D01*
X146534523Y-146523809D01*
X146629761Y-146571428D01*
X146820238Y-146571428D01*
X146915476Y-146523809D01*
X146963095Y-146476190D01*
X147010714Y-146380952D01*
%TO.C,D3*%
X126439704Y-152903180D02*
X126439704Y-151903180D01*
X126677800Y-151903180D01*
X126820657Y-151950800D01*
X126915895Y-152046038D01*
X126963514Y-152141276D01*
X127011133Y-152331752D01*
X127011133Y-152474609D01*
X126963514Y-152665085D01*
X126915895Y-152760323D01*
X126820657Y-152855561D01*
X126677800Y-152903180D01*
X126439704Y-152903180D01*
X127344466Y-151903180D02*
X127963514Y-151903180D01*
X127630180Y-152284133D01*
X127773038Y-152284133D01*
X127868276Y-152331752D01*
X127915895Y-152379371D01*
X127963514Y-152474609D01*
X127963514Y-152712704D01*
X127915895Y-152807942D01*
X127868276Y-152855561D01*
X127773038Y-152903180D01*
X127487323Y-152903180D01*
X127392085Y-152855561D01*
X127344466Y-152807942D01*
%TO.C,C8*%
X136772142Y-143227000D02*
X136808428Y-143263285D01*
X136844714Y-143372142D01*
X136844714Y-143444714D01*
X136808428Y-143553571D01*
X136735857Y-143626142D01*
X136663285Y-143662428D01*
X136518142Y-143698714D01*
X136409285Y-143698714D01*
X136264142Y-143662428D01*
X136191571Y-143626142D01*
X136119000Y-143553571D01*
X136082714Y-143444714D01*
X136082714Y-143372142D01*
X136119000Y-143263285D01*
X136155285Y-143227000D01*
X136409285Y-142791571D02*
X136373000Y-142864142D01*
X136336714Y-142900428D01*
X136264142Y-142936714D01*
X136227857Y-142936714D01*
X136155285Y-142900428D01*
X136119000Y-142864142D01*
X136082714Y-142791571D01*
X136082714Y-142646428D01*
X136119000Y-142573857D01*
X136155285Y-142537571D01*
X136227857Y-142501285D01*
X136264142Y-142501285D01*
X136336714Y-142537571D01*
X136373000Y-142573857D01*
X136409285Y-142646428D01*
X136409285Y-142791571D01*
X136445571Y-142864142D01*
X136481857Y-142900428D01*
X136554428Y-142936714D01*
X136699571Y-142936714D01*
X136772142Y-142900428D01*
X136808428Y-142864142D01*
X136844714Y-142791571D01*
X136844714Y-142646428D01*
X136808428Y-142573857D01*
X136772142Y-142537571D01*
X136699571Y-142501285D01*
X136554428Y-142501285D01*
X136481857Y-142537571D01*
X136445571Y-142573857D01*
X136409285Y-142646428D01*
%TO.C,R4*%
X169352380Y-138466666D02*
X168876190Y-138800000D01*
X169352380Y-139038095D02*
X168352380Y-139038095D01*
X168352380Y-138657142D01*
X168400000Y-138561904D01*
X168447619Y-138514285D01*
X168542857Y-138466666D01*
X168685714Y-138466666D01*
X168780952Y-138514285D01*
X168828571Y-138561904D01*
X168876190Y-138657142D01*
X168876190Y-139038095D01*
X168685714Y-137609523D02*
X169352380Y-137609523D01*
X168304761Y-137847619D02*
X169019047Y-138085714D01*
X169019047Y-137466666D01*
D13*
%TO.C,TP3*%
X120138440Y-120834719D02*
X120573869Y-120834719D01*
X120356154Y-121596719D02*
X120356154Y-120834719D01*
X120827869Y-121596719D02*
X120827869Y-120834719D01*
X121118154Y-120834719D01*
X121190726Y-120871005D01*
X121227012Y-120907290D01*
X121263297Y-120979862D01*
X121263297Y-121088719D01*
X121227012Y-121161290D01*
X121190726Y-121197576D01*
X121118154Y-121233862D01*
X120827869Y-121233862D01*
X121517297Y-120834719D02*
X121989012Y-120834719D01*
X121735012Y-121125005D01*
X121843869Y-121125005D01*
X121916440Y-121161290D01*
X121952726Y-121197576D01*
X121989012Y-121270147D01*
X121989012Y-121451576D01*
X121952726Y-121524147D01*
X121916440Y-121560433D01*
X121843869Y-121596719D01*
X121626154Y-121596719D01*
X121553583Y-121560433D01*
X121517297Y-121524147D01*
%TO.C,TP1*%
X145513421Y-112307711D02*
X145948850Y-112307711D01*
X145731135Y-113069711D02*
X145731135Y-112307711D01*
X146202850Y-113069711D02*
X146202850Y-112307711D01*
X146493135Y-112307711D01*
X146565707Y-112343997D01*
X146601993Y-112380282D01*
X146638278Y-112452854D01*
X146638278Y-112561711D01*
X146601993Y-112634282D01*
X146565707Y-112670568D01*
X146493135Y-112706854D01*
X146202850Y-112706854D01*
X147363993Y-113069711D02*
X146928564Y-113069711D01*
X147146278Y-113069711D02*
X147146278Y-112307711D01*
X147073707Y-112416568D01*
X147001135Y-112489139D01*
X146928564Y-112525425D01*
D12*
%TO.C,R22*%
X128232142Y-130402380D02*
X127898809Y-129926190D01*
X127660714Y-130402380D02*
X127660714Y-129402380D01*
X128041666Y-129402380D01*
X128136904Y-129450000D01*
X128184523Y-129497619D01*
X128232142Y-129592857D01*
X128232142Y-129735714D01*
X128184523Y-129830952D01*
X128136904Y-129878571D01*
X128041666Y-129926190D01*
X127660714Y-129926190D01*
X128613095Y-129497619D02*
X128660714Y-129450000D01*
X128755952Y-129402380D01*
X128994047Y-129402380D01*
X129089285Y-129450000D01*
X129136904Y-129497619D01*
X129184523Y-129592857D01*
X129184523Y-129688095D01*
X129136904Y-129830952D01*
X128565476Y-130402380D01*
X129184523Y-130402380D01*
X129565476Y-129497619D02*
X129613095Y-129450000D01*
X129708333Y-129402380D01*
X129946428Y-129402380D01*
X130041666Y-129450000D01*
X130089285Y-129497619D01*
X130136904Y-129592857D01*
X130136904Y-129688095D01*
X130089285Y-129830952D01*
X129517857Y-130402380D01*
X130136904Y-130402380D01*
%TO.C,J2*%
X105366666Y-103602380D02*
X105366666Y-104316666D01*
X105319047Y-104459523D01*
X105223809Y-104554761D01*
X105080952Y-104602380D01*
X104985714Y-104602380D01*
X105795238Y-103697619D02*
X105842857Y-103650000D01*
X105938095Y-103602380D01*
X106176190Y-103602380D01*
X106271428Y-103650000D01*
X106319047Y-103697619D01*
X106366666Y-103792857D01*
X106366666Y-103888095D01*
X106319047Y-104030952D01*
X105747619Y-104602380D01*
X106366666Y-104602380D01*
D14*
%TO.C,C5*%
X141010000Y-139740580D02*
X141010000Y-139459420D01*
X139990000Y-139740580D02*
X139990000Y-139459420D01*
%TO.C,R19*%
X138422500Y-120412258D02*
X138422500Y-119937742D01*
X137377500Y-120412258D02*
X137377500Y-119937742D01*
%TO.C,R17*%
X142562742Y-123822500D02*
X143037258Y-123822500D01*
X142562742Y-122777500D02*
X143037258Y-122777500D01*
%TO.C,U7*%
X143304100Y-148635200D02*
X141651600Y-148635200D01*
X146051600Y-153847700D02*
X148799100Y-153847700D01*
X148799100Y-148352700D02*
X148799100Y-148635200D01*
X146051600Y-148352700D02*
X143304100Y-148352700D01*
X146051600Y-148352700D02*
X148799100Y-148352700D01*
X146051600Y-153847700D02*
X143304100Y-153847700D01*
X143304100Y-153847700D02*
X143304100Y-153565200D01*
X148799100Y-153847700D02*
X148799100Y-153565200D01*
X143304100Y-148352700D02*
X143304100Y-148635200D01*
%TO.C,D7*%
X118360400Y-135355600D02*
X112960400Y-135355600D01*
X118360400Y-132055600D02*
X112960400Y-132055600D01*
X118360400Y-135355600D02*
X118360400Y-132055600D01*
%TO.C,R37*%
X137422500Y-114237258D02*
X137422500Y-113762742D01*
X136377500Y-114237258D02*
X136377500Y-113762742D01*
%TO.C,R23*%
X131865900Y-146046458D02*
X131865900Y-145571942D01*
X130820900Y-146046458D02*
X130820900Y-145571942D01*
%TO.C,D2*%
X134988000Y-157221800D02*
X136688000Y-157221800D01*
X130188000Y-157371800D02*
X130188000Y-157221800D01*
X134988000Y-157371800D02*
X130188000Y-157371800D01*
X130188000Y-153371800D02*
X134988000Y-153371800D01*
X134988000Y-153371800D02*
X134988000Y-153521800D01*
X130188000Y-153521800D02*
X130188000Y-153371800D01*
X134988000Y-157221800D02*
X134988000Y-157371800D01*
%TO.C,TP6*%
X142975000Y-144900000D02*
G75*
G03*
X142975000Y-144900000I-700000J0D01*
G01*
%TO.C,TP2*%
X115000000Y-121800000D02*
G75*
G03*
X115000000Y-121800000I-1500000J0D01*
G01*
%TO.C,TP7*%
X124800000Y-111950000D02*
G75*
G03*
X124800000Y-111950000I-700000J0D01*
G01*
%TO.C,U4*%
X127560000Y-126100000D02*
X127560000Y-126900000D01*
X124440000Y-126100000D02*
X124440000Y-125300000D01*
X127560000Y-126100000D02*
X127560000Y-125300000D01*
X124440000Y-126100000D02*
X124440000Y-127900000D01*
%TO.C,SW1*%
X131687000Y-103815000D02*
X130187000Y-103815000D01*
X127687000Y-105065000D02*
X127687000Y-109565000D01*
X130187000Y-110815000D02*
X131687000Y-110815000D01*
X134187000Y-109565000D02*
X134187000Y-105065000D01*
%TO.C,R34*%
X166272742Y-151881100D02*
X166747258Y-151881100D01*
X166272742Y-150836100D02*
X166747258Y-150836100D01*
%TO.C,C20*%
X139490000Y-132209420D02*
X139490000Y-132490580D01*
X140510000Y-132209420D02*
X140510000Y-132490580D01*
%TO.C,L2*%
X130780000Y-134557221D02*
X130780000Y-134882779D01*
X131800000Y-134557221D02*
X131800000Y-134882779D01*
%TO.C,C3*%
X120419400Y-116064420D02*
X120419400Y-116345580D01*
X121439400Y-116064420D02*
X121439400Y-116345580D01*
%TO.C,R27*%
X154362742Y-122372500D02*
X154837258Y-122372500D01*
X154362742Y-121327500D02*
X154837258Y-121327500D01*
%TO.C,C1*%
X178083000Y-146339000D02*
X174820000Y-146339000D01*
X182802000Y-147699000D02*
X180565000Y-147699000D01*
X178083000Y-145979000D02*
X174650000Y-145979000D01*
X183313000Y-147139000D02*
X180565000Y-147139000D01*
X184092000Y-145739000D02*
X180565000Y-145739000D01*
X181613000Y-148539000D02*
X177035000Y-148539000D01*
X178083000Y-147219000D02*
X175399000Y-147219000D01*
X180834000Y-148859000D02*
X177814000Y-148859000D01*
X184386000Y-144418000D02*
X174262000Y-144418000D01*
X178083000Y-145459000D02*
X174462000Y-145459000D01*
X184186000Y-145459000D02*
X180565000Y-145459000D01*
X184231000Y-145299000D02*
X180565000Y-145299000D01*
X181361000Y-148659000D02*
X177287000Y-148659000D01*
X181170000Y-148739000D02*
X177478000Y-148739000D01*
X178083000Y-147579000D02*
X175723000Y-147579000D01*
X183490000Y-146899000D02*
X180565000Y-146899000D01*
X184394000Y-144298000D02*
X174254000Y-144298000D01*
X178083000Y-145579000D02*
X174500000Y-145579000D01*
X178083000Y-147099000D02*
X175304000Y-147099000D01*
X182530000Y-147939000D02*
X176118000Y-147939000D01*
X183545000Y-146819000D02*
X180565000Y-146819000D01*
X178083000Y-146059000D02*
X174685000Y-146059000D01*
X178083000Y-146939000D02*
X175186000Y-146939000D01*
X181763000Y-148459000D02*
X176885000Y-148459000D01*
X184174000Y-145499000D02*
X180565000Y-145499000D01*
X183927000Y-146139000D02*
X180565000Y-146139000D01*
X184404000Y-144018000D02*
X174244000Y-144018000D01*
X183945000Y-146099000D02*
X180565000Y-146099000D01*
X182199000Y-138498354D02*
X182199000Y-139498354D01*
X183998000Y-145979000D02*
X180565000Y-145979000D01*
X180554000Y-148939000D02*
X178094000Y-148939000D01*
X183518000Y-146859000D02*
X180565000Y-146859000D01*
X182716000Y-147779000D02*
X175932000Y-147779000D01*
X178083000Y-145499000D02*
X174474000Y-145499000D01*
X184047000Y-145859000D02*
X180565000Y-145859000D01*
X184321000Y-144899000D02*
X174327000Y-144899000D01*
X184289000Y-145059000D02*
X174359000Y-145059000D01*
X180702000Y-148899000D02*
X177946000Y-148899000D01*
X182844000Y-147659000D02*
X180565000Y-147659000D01*
X183849000Y-146299000D02*
X180565000Y-146299000D01*
X184354000Y-144699000D02*
X174294000Y-144699000D01*
X178083000Y-145659000D02*
X174527000Y-145659000D01*
X178083000Y-147299000D02*
X175466000Y-147299000D01*
X184271000Y-145139000D02*
X174377000Y-145139000D01*
X178083000Y-146139000D02*
X174721000Y-146139000D01*
X183113000Y-147379000D02*
X180565000Y-147379000D01*
X178083000Y-147419000D02*
X175571000Y-147419000D01*
X181066000Y-148779000D02*
X177582000Y-148779000D01*
X182094000Y-148259000D02*
X176554000Y-148259000D01*
X178083000Y-145259000D02*
X174406000Y-145259000D01*
X184314000Y-144939000D02*
X174334000Y-144939000D01*
X181449000Y-148619000D02*
X177199000Y-148619000D01*
X183344000Y-147099000D02*
X180565000Y-147099000D01*
X184078000Y-145779000D02*
X180565000Y-145779000D01*
X178083000Y-145739000D02*
X174556000Y-145739000D01*
X178083000Y-146379000D02*
X174841000Y-146379000D01*
X178083000Y-146179000D02*
X174740000Y-146179000D01*
X183003000Y-147499000D02*
X180565000Y-147499000D01*
X184364000Y-144618000D02*
X174284000Y-144618000D01*
X182033000Y-148299000D02*
X176615000Y-148299000D01*
X183597000Y-146739000D02*
X180565000Y-146739000D01*
X180954000Y-148819000D02*
X177694000Y-148819000D01*
X184382000Y-144458000D02*
X174266000Y-144458000D01*
X182324000Y-148099000D02*
X176324000Y-148099000D01*
X184161000Y-145539000D02*
X180565000Y-145539000D01*
X183281000Y-147179000D02*
X180565000Y-147179000D01*
X181969000Y-148339000D02*
X176679000Y-148339000D01*
X183647000Y-146659000D02*
X180565000Y-146659000D01*
X184262000Y-145179000D02*
X174386000Y-145179000D01*
X178083000Y-145899000D02*
X174617000Y-145899000D01*
X183462000Y-146939000D02*
X180565000Y-146939000D01*
X184404000Y-144058000D02*
X174244000Y-144058000D01*
X178083000Y-145859000D02*
X174601000Y-145859000D01*
X182760000Y-147739000D02*
X175888000Y-147739000D01*
X178083000Y-145699000D02*
X174541000Y-145699000D01*
X184306000Y-144979000D02*
X174342000Y-144979000D01*
X178083000Y-146819000D02*
X175103000Y-146819000D01*
X184335000Y-144819000D02*
X174313000Y-144819000D01*
X178083000Y-146859000D02*
X175130000Y-146859000D01*
X182213000Y-148179000D02*
X176435000Y-148179000D01*
X183741000Y-146499000D02*
X180565000Y-146499000D01*
X182885000Y-147619000D02*
X180565000Y-147619000D01*
X183216000Y-147259000D02*
X180565000Y-147259000D01*
X184403000Y-144098000D02*
X174245000Y-144098000D01*
X180386000Y-148979000D02*
X178262000Y-148979000D01*
X184348000Y-144739000D02*
X174300000Y-144739000D01*
X178083000Y-146979000D02*
X175214000Y-146979000D01*
X183374000Y-147059000D02*
X180565000Y-147059000D01*
X178083000Y-147019000D02*
X175244000Y-147019000D01*
X178083000Y-146219000D02*
X174760000Y-146219000D01*
X178083000Y-145419000D02*
X174450000Y-145419000D01*
X178083000Y-147699000D02*
X175846000Y-147699000D01*
X184342000Y-144779000D02*
X174306000Y-144779000D01*
X178083000Y-145299000D02*
X174417000Y-145299000D01*
X179923000Y-149059000D02*
X178725000Y-149059000D01*
X183764000Y-146459000D02*
X180565000Y-146459000D01*
X184031000Y-145899000D02*
X180565000Y-145899000D01*
X183571000Y-146779000D02*
X180565000Y-146779000D01*
X178083000Y-146659000D02*
X175001000Y-146659000D01*
X183888000Y-146219000D02*
X180565000Y-146219000D01*
X178083000Y-147659000D02*
X175804000Y-147659000D01*
X183434000Y-146979000D02*
X180565000Y-146979000D01*
X182378000Y-148059000D02*
X176270000Y-148059000D01*
X183807000Y-146379000D02*
X180565000Y-146379000D01*
X183719000Y-146539000D02*
X180565000Y-146539000D01*
X181689000Y-148499000D02*
X176959000Y-148499000D01*
X182269000Y-148139000D02*
X176379000Y-148139000D01*
X178083000Y-146099000D02*
X174703000Y-146099000D01*
X178083000Y-145819000D02*
X174586000Y-145819000D01*
X178083000Y-145779000D02*
X174570000Y-145779000D01*
X183077000Y-147419000D02*
X180565000Y-147419000D01*
X182964000Y-147539000D02*
X180565000Y-147539000D01*
X183695000Y-146579000D02*
X180565000Y-146579000D01*
X178083000Y-147539000D02*
X175684000Y-147539000D01*
X178083000Y-146259000D02*
X174779000Y-146259000D01*
X184252000Y-145219000D02*
X174396000Y-145219000D01*
X183908000Y-146179000D02*
X180565000Y-146179000D01*
X184402000Y-144138000D02*
X174246000Y-144138000D01*
X182699000Y-138998354D02*
X181699000Y-138998354D01*
X178083000Y-147379000D02*
X175535000Y-147379000D01*
X181903000Y-148379000D02*
X176745000Y-148379000D01*
X184242000Y-145259000D02*
X180565000Y-145259000D01*
X184399000Y-144218000D02*
X174249000Y-144218000D01*
X178083000Y-146419000D02*
X174862000Y-146419000D01*
X178083000Y-145939000D02*
X174634000Y-145939000D01*
X178083000Y-147179000D02*
X175367000Y-147179000D01*
X182430000Y-148019000D02*
X176218000Y-148019000D01*
X184389000Y-144378000D02*
X174259000Y-144378000D01*
X178083000Y-145619000D02*
X174513000Y-145619000D01*
X183671000Y-146619000D02*
X180565000Y-146619000D01*
X181834000Y-148419000D02*
X176814000Y-148419000D01*
X178083000Y-146539000D02*
X174929000Y-146539000D01*
X184397000Y-144258000D02*
X174251000Y-144258000D01*
X183148000Y-147339000D02*
X180565000Y-147339000D01*
X182625000Y-147859000D02*
X176023000Y-147859000D01*
X182578000Y-147899000D02*
X176070000Y-147899000D01*
X178083000Y-146739000D02*
X175051000Y-146739000D01*
X178083000Y-147339000D02*
X175500000Y-147339000D01*
X183869000Y-146259000D02*
X180565000Y-146259000D01*
X178083000Y-147059000D02*
X175274000Y-147059000D01*
X184298000Y-145019000D02*
X174350000Y-145019000D01*
X183249000Y-147219000D02*
X180565000Y-147219000D01*
X184148000Y-145579000D02*
X180565000Y-145579000D01*
X182671000Y-147819000D02*
X175977000Y-147819000D01*
X178083000Y-145379000D02*
X174439000Y-145379000D01*
X184062000Y-145819000D02*
X180565000Y-145819000D01*
X178083000Y-146459000D02*
X174884000Y-146459000D01*
X183182000Y-147299000D02*
X180565000Y-147299000D01*
X178083000Y-147499000D02*
X175645000Y-147499000D01*
X183981000Y-146019000D02*
X180565000Y-146019000D01*
X178083000Y-145539000D02*
X174487000Y-145539000D01*
X184107000Y-145699000D02*
X180565000Y-145699000D01*
X178083000Y-146499000D02*
X174907000Y-146499000D01*
X184378000Y-144498000D02*
X174270000Y-144498000D01*
X184280000Y-145099000D02*
X174368000Y-145099000D01*
X178083000Y-147459000D02*
X175608000Y-147459000D01*
X184401000Y-144178000D02*
X174247000Y-144178000D01*
X184198000Y-145419000D02*
X180565000Y-145419000D01*
X184328000Y-144859000D02*
X174320000Y-144859000D01*
X181533000Y-148579000D02*
X177115000Y-148579000D01*
X178083000Y-147259000D02*
X175432000Y-147259000D01*
X178083000Y-146779000D02*
X175077000Y-146779000D01*
X184135000Y-145619000D02*
X180565000Y-145619000D01*
X183828000Y-146339000D02*
X180565000Y-146339000D01*
X178083000Y-145339000D02*
X174427000Y-145339000D01*
X184359000Y-144658000D02*
X174289000Y-144658000D01*
X183040000Y-147459000D02*
X180565000Y-147459000D01*
X183622000Y-146699000D02*
X180565000Y-146699000D01*
X178083000Y-147139000D02*
X175335000Y-147139000D01*
X178083000Y-147619000D02*
X175763000Y-147619000D01*
X183963000Y-146059000D02*
X180565000Y-146059000D01*
X178083000Y-146299000D02*
X174799000Y-146299000D01*
X182480000Y-147979000D02*
X176168000Y-147979000D01*
X184374000Y-144538000D02*
X174274000Y-144538000D01*
X184392000Y-144338000D02*
X174256000Y-144338000D01*
X181268000Y-148699000D02*
X177380000Y-148699000D01*
X184121000Y-145659000D02*
X180565000Y-145659000D01*
X182925000Y-147579000D02*
X180565000Y-147579000D01*
X184221000Y-145339000D02*
X180565000Y-145339000D01*
X180186000Y-149019000D02*
X178462000Y-149019000D01*
X184209000Y-145379000D02*
X180565000Y-145379000D01*
X184014000Y-145939000D02*
X180565000Y-145939000D01*
X183404000Y-147019000D02*
X180565000Y-147019000D01*
X182154000Y-148219000D02*
X176494000Y-148219000D01*
X178083000Y-146019000D02*
X174667000Y-146019000D01*
X178083000Y-146619000D02*
X174977000Y-146619000D01*
X183786000Y-146419000D02*
X180565000Y-146419000D01*
X178083000Y-146699000D02*
X175026000Y-146699000D01*
X178083000Y-146899000D02*
X175158000Y-146899000D01*
X178083000Y-146579000D02*
X174953000Y-146579000D01*
X184404000Y-143978000D02*
X174244000Y-143978000D01*
X184369000Y-144578000D02*
X174279000Y-144578000D01*
X184444000Y-143978000D02*
G75*
G03*
X184444000Y-143978000I-5120000J0D01*
G01*
%TO.C,C26*%
X133649420Y-136010000D02*
X133930580Y-136010000D01*
X133649420Y-134990000D02*
X133930580Y-134990000D01*
%TO.C,R18*%
X142562742Y-122222500D02*
X143037258Y-122222500D01*
X142562742Y-121177500D02*
X143037258Y-121177500D01*
%TO.C,R32*%
X139507700Y-150410142D02*
X139507700Y-150884658D01*
X140552700Y-150410142D02*
X140552700Y-150884658D01*
%TO.C,R7*%
X117677500Y-141862742D02*
X117677500Y-142337258D01*
X118722500Y-141862742D02*
X118722500Y-142337258D01*
%TO.C,TP12*%
X168700000Y-143400000D02*
G75*
G03*
X168700000Y-143400000I-700000J0D01*
G01*
%TO.C,R26*%
X130770100Y-138332942D02*
X130770100Y-138807458D01*
X131815100Y-138332942D02*
X131815100Y-138807458D01*
%TO.C,R16*%
X138977500Y-119937742D02*
X138977500Y-120412258D01*
X140022500Y-119937742D02*
X140022500Y-120412258D01*
%TO.C,D6*%
X161400000Y-147260000D02*
X161400000Y-141860000D01*
X164700000Y-147260000D02*
X164700000Y-141860000D01*
X161400000Y-147260000D02*
X164700000Y-147260000D01*
%TO.C,R39*%
X158840700Y-152078458D02*
X158840700Y-151603942D01*
X157795700Y-152078458D02*
X157795700Y-151603942D01*
%TO.C,J5*%
X106720000Y-132855000D02*
X106684000Y-132820000D01*
X102845000Y-124105000D02*
X102845000Y-134385000D01*
X110706000Y-134385000D02*
X100785000Y-134385000D01*
X100785000Y-124105000D02*
X100785000Y-134385000D01*
X107746000Y-124105000D02*
X107746000Y-134385000D01*
X100545000Y-123865000D02*
X100545000Y-124365000D01*
X104206000Y-130751000D02*
X104171000Y-130716000D01*
X106514000Y-133060000D02*
X106468000Y-133013000D01*
X101345000Y-124105000D02*
X101345000Y-134385000D01*
X101285000Y-123865000D02*
X100545000Y-123865000D01*
X104422000Y-130558000D02*
X104376000Y-130511000D01*
X110706000Y-124105000D02*
X100785000Y-124105000D01*
X110706000Y-124105000D02*
X110706000Y-134385000D01*
X103910000Y-126021000D02*
G75*
G03*
X103764747Y-126733805I1535001J-683999D01*
G01*
X103765000Y-126705000D02*
G75*
G03*
X103910244Y-127388318I1680000J0D01*
G01*
X106980000Y-127389000D02*
G75*
G03*
X106980427Y-126021958I-1534993J684001D01*
G01*
X106129000Y-125170000D02*
G75*
G03*
X104761958Y-125169573I-684001J-1534993D01*
G01*
X104761000Y-128240001D02*
G75*
G03*
X106128042Y-128240427I684000J1535001D01*
G01*
X107125000Y-131785000D02*
G75*
G03*
X107125000Y-131785000I-1680000J0D01*
G01*
%TO.C,C11*%
X164259420Y-137510000D02*
X164540580Y-137510000D01*
X164259420Y-136490000D02*
X164540580Y-136490000D01*
%TO.C,R21*%
X118392742Y-152582500D02*
X118867258Y-152582500D01*
X118392742Y-151537500D02*
X118867258Y-151537500D01*
%TO.C,R5*%
X167822500Y-141037258D02*
X167822500Y-140562742D01*
X166777500Y-141037258D02*
X166777500Y-140562742D01*
%TO.C,JP1*%
X148536200Y-155438600D02*
X151336200Y-155438600D01*
X151336200Y-157438600D02*
X148536200Y-157438600D01*
X148536200Y-157438600D02*
X148536200Y-155438600D01*
X151336200Y-155438600D02*
X151336200Y-157438600D01*
%TO.C,TP5*%
X152775000Y-148750000D02*
G75*
G03*
X152775000Y-148750000I-700000J0D01*
G01*
%TO.C,C35*%
X166426548Y-148512200D02*
X166949052Y-148512200D01*
X166426548Y-147042200D02*
X166949052Y-147042200D01*
%TO.C,D5*%
X165020200Y-157174200D02*
X159620200Y-157174200D01*
X165020200Y-153874200D02*
X159620200Y-153874200D01*
X165020200Y-157174200D02*
X165020200Y-153874200D01*
%TO.C,C4*%
X122302600Y-116121548D02*
X122302600Y-116644052D01*
X123772600Y-116121548D02*
X123772600Y-116644052D01*
%TO.C,C29*%
X154877380Y-150518400D02*
X154596220Y-150518400D01*
X154877380Y-151538400D02*
X154596220Y-151538400D01*
%TO.C,R28*%
X142262742Y-116922500D02*
X142737258Y-116922500D01*
X142262742Y-115877500D02*
X142737258Y-115877500D01*
%TO.C,D4*%
X153885000Y-142165000D02*
X151600000Y-142165000D01*
X153885000Y-143635000D02*
X153885000Y-142165000D01*
X151600000Y-143635000D02*
X153885000Y-143635000D01*
%TO.C,D1*%
X173550000Y-138500000D02*
X173550000Y-133100000D01*
X176850000Y-138500000D02*
X176850000Y-133100000D01*
X173550000Y-138500000D02*
X176850000Y-138500000D01*
%TO.C,SW2*%
X139887000Y-103815000D02*
X138387000Y-103815000D01*
X135887000Y-105065000D02*
X135887000Y-109565000D01*
X138387000Y-110815000D02*
X139887000Y-110815000D01*
X142387000Y-109565000D02*
X142387000Y-105065000D01*
%TO.C,C7*%
X156059420Y-145210000D02*
X156340580Y-145210000D01*
X156059420Y-144190000D02*
X156340580Y-144190000D01*
%TO.C,R11*%
X142737258Y-114177500D02*
X142262742Y-114177500D01*
X142737258Y-115222500D02*
X142262742Y-115222500D01*
%TO.C,C21*%
X134585000Y-132540580D02*
X134585000Y-132259420D01*
X133565000Y-132540580D02*
X133565000Y-132259420D01*
%TO.C,C32*%
X153392600Y-154446180D02*
X153392600Y-154165020D01*
X152372600Y-154446180D02*
X152372600Y-154165020D01*
%TO.C,D8*%
X122223800Y-128299000D02*
X122223800Y-133699000D01*
X118923800Y-128299000D02*
X118923800Y-133699000D01*
X122223800Y-128299000D02*
X118923800Y-128299000D01*
%TO.C,L3*%
X160496800Y-149248600D02*
X164496800Y-149248600D01*
X164496800Y-153468600D02*
X160496800Y-153468600D01*
%TO.C,TP11*%
X155800000Y-113700000D02*
G75*
G03*
X155800000Y-113700000I-700000J0D01*
G01*
%TO.C,R35*%
X169396942Y-153405100D02*
X169871458Y-153405100D01*
X169396942Y-152360100D02*
X169871458Y-152360100D01*
%TO.C,R31*%
X145552100Y-156387658D02*
X145552100Y-155913142D01*
X144507100Y-156387658D02*
X144507100Y-155913142D01*
%TO.C,C33*%
X166369420Y-150268400D02*
X166650580Y-150268400D01*
X166369420Y-149248400D02*
X166650580Y-149248400D01*
%TO.C,R24*%
X132548100Y-144657542D02*
X132548100Y-145132058D01*
X133593100Y-144657542D02*
X133593100Y-145132058D01*
%TO.C,R29*%
X147153100Y-156383258D02*
X147153100Y-155908742D01*
X146108100Y-156383258D02*
X146108100Y-155908742D01*
%TO.C,C6*%
X140810000Y-145540580D02*
X140810000Y-145259420D01*
X139790000Y-145540580D02*
X139790000Y-145259420D01*
%TO.C,Y2*%
X145600000Y-141250000D02*
X145600000Y-137950000D01*
X145600000Y-137950000D02*
X141600000Y-137950000D01*
%TO.C,U6*%
X177540000Y-105820000D02*
X159540000Y-105820000D01*
X179040000Y-125820000D02*
X179040000Y-103820000D01*
X157040000Y-103820000D02*
X157040000Y-125820000D01*
X159540000Y-123820000D02*
X177540000Y-123820000D01*
X177540000Y-123820000D02*
X177540000Y-105820000D01*
X159540000Y-105820000D02*
X159540000Y-123820000D01*
X179040000Y-103820000D02*
X157040000Y-103820000D01*
X157040000Y-125820000D02*
X179040000Y-125820000D01*
%TO.C,C12*%
X159559420Y-140910000D02*
X159840580Y-140910000D01*
X159559420Y-139890000D02*
X159840580Y-139890000D01*
%TO.C,C30*%
X154877380Y-148943600D02*
X154596220Y-148943600D01*
X154877380Y-149963600D02*
X154596220Y-149963600D01*
%TO.C,C25*%
X133659420Y-137590000D02*
X133940580Y-137590000D01*
X133659420Y-136570000D02*
X133940580Y-136570000D01*
%TO.C,C14*%
X153290000Y-145359420D02*
X153290000Y-145640580D01*
X154310000Y-145359420D02*
X154310000Y-145640580D01*
%TO.C,R8*%
X142737258Y-129327500D02*
X142262742Y-129327500D01*
X142737258Y-130372500D02*
X142262742Y-130372500D01*
%TO.C,IC1*%
X135090000Y-124690000D02*
X135565000Y-124690000D01*
X139310000Y-128910000D02*
X138835000Y-128910000D01*
X135090000Y-125165000D02*
X135090000Y-124690000D01*
X139310000Y-124690000D02*
X138835000Y-124690000D01*
X139310000Y-125165000D02*
X139310000Y-124690000D01*
X139310000Y-128435000D02*
X139310000Y-128910000D01*
X135090000Y-128435000D02*
X135090000Y-128910000D01*
%TO.C,IC2*%
X164600000Y-109300000D02*
X173600000Y-109300000D01*
X173600000Y-120300000D02*
X164600000Y-120300000D01*
X161350000Y-122550000D02*
X163330000Y-122550000D01*
X174600000Y-110300000D02*
X174600000Y-119300000D01*
X163600000Y-119300000D02*
X163600000Y-110300000D01*
X163330000Y-122550000D02*
X163330000Y-124560000D01*
X161350000Y-120490000D02*
X161350000Y-122550000D01*
X163600000Y-119300000D02*
G75*
G03*
X164600000Y-120300000I999999J-1D01*
G01*
X164600000Y-109300000D02*
G75*
G03*
X163600000Y-110300000I-1J-999999D01*
G01*
X173600000Y-120300000D02*
G75*
G03*
X174600000Y-119300000I0J1000000D01*
G01*
X174600000Y-110300000D02*
G75*
G03*
X173600000Y-109300000I-1000000J0D01*
G01*
%TO.C,TP10*%
X155800000Y-108500000D02*
G75*
G03*
X155800000Y-108500000I-700000J0D01*
G01*
%TO.C,C18*%
X170810000Y-136815580D02*
X170810000Y-136534420D01*
X169790000Y-136815580D02*
X169790000Y-136534420D01*
%TO.C,TP4*%
X147700000Y-143300000D02*
G75*
G03*
X147700000Y-143300000I-700000J0D01*
G01*
%TO.C,C34*%
X166379420Y-146410000D02*
X166660580Y-146410000D01*
X166379420Y-145390000D02*
X166660580Y-145390000D01*
%TO.C,R3*%
X151322500Y-145437258D02*
X151322500Y-144962742D01*
X150277500Y-145437258D02*
X150277500Y-144962742D01*
%TO.C,D9*%
X115700600Y-124588000D02*
X121100600Y-124588000D01*
X115700600Y-127888000D02*
X121100600Y-127888000D01*
X115700600Y-124588000D02*
X115700600Y-127888000D01*
%TO.C,J3*%
X116735000Y-155865000D02*
X116735000Y-139135000D01*
X100765000Y-155865000D02*
X100765000Y-139135000D01*
X108375000Y-139135000D02*
X111175000Y-139135000D01*
X100765000Y-139135000D02*
X108375000Y-139135000D01*
X108375000Y-155865000D02*
X111175000Y-155865000D01*
X107675000Y-156560000D02*
X108175000Y-156060000D01*
X108175000Y-156060000D02*
X108675000Y-156560000D01*
X116735000Y-155865000D02*
X111175000Y-155865000D01*
X108675000Y-156560000D02*
X107675000Y-156560000D01*
X116735000Y-139135000D02*
X111175000Y-139135000D01*
X100765000Y-155865000D02*
X108375000Y-155865000D01*
%TO.C,R14*%
X148067742Y-122822500D02*
X148542258Y-122822500D01*
X148067742Y-121777500D02*
X148542258Y-121777500D01*
%TO.C,C22*%
X133140580Y-123990000D02*
X132859420Y-123990000D01*
X133140580Y-125010000D02*
X132859420Y-125010000D01*
%TO.C,J1*%
X102457500Y-117160000D02*
X102457500Y-104840000D01*
X114917500Y-117160000D02*
X119177500Y-117160000D01*
X119897500Y-111750000D02*
X119397500Y-112250000D01*
X110817500Y-117160000D02*
X102457500Y-117160000D01*
X102457500Y-104840000D02*
X110817500Y-104840000D01*
X119177500Y-104840000D02*
X114917500Y-104840000D01*
X119177500Y-117160000D02*
X119177500Y-104840000D01*
X119397500Y-112250000D02*
X119897500Y-112750000D01*
X119897500Y-112750000D02*
X119897500Y-111750000D01*
%TO.C,TP13*%
X173580000Y-143300000D02*
G75*
G03*
X173580000Y-143300000I-700000J0D01*
G01*
%TO.C,L1*%
X121439400Y-113167379D02*
X121439400Y-112841821D01*
X120419400Y-113167379D02*
X120419400Y-112841821D01*
%TO.C,R15*%
X148062742Y-124422500D02*
X148537258Y-124422500D01*
X148062742Y-123377500D02*
X148537258Y-123377500D01*
%TO.C,C15*%
X172410000Y-136815580D02*
X172410000Y-136534420D01*
X171390000Y-136815580D02*
X171390000Y-136534420D01*
%TO.C,R2*%
X173022500Y-140537258D02*
X173022500Y-140062742D01*
X171977500Y-140537258D02*
X171977500Y-140062742D01*
%TO.C,TP9*%
X155800000Y-106000000D02*
G75*
G03*
X155800000Y-106000000I-700000J0D01*
G01*
%TO.C,R33*%
X138952500Y-150884658D02*
X138952500Y-150410142D01*
X137907500Y-150884658D02*
X137907500Y-150410142D01*
%TO.C,R9*%
X142737258Y-127777500D02*
X142262742Y-127777500D01*
X142737258Y-128822500D02*
X142262742Y-128822500D01*
%TO.C,Y1*%
X180350000Y-130570000D02*
X179850000Y-130570000D01*
X180350000Y-129370000D02*
X181750000Y-130040000D01*
X181750000Y-130040000D02*
X182450000Y-130040000D01*
X180350000Y-126970000D02*
X180350000Y-130570000D01*
X180350000Y-128170000D02*
X181750000Y-127500000D01*
X181750000Y-127500000D02*
X182450000Y-127500000D01*
X179850000Y-126970000D02*
X180350000Y-126970000D01*
%TO.C,C10*%
X162659420Y-139060000D02*
X162940580Y-139060000D01*
X162659420Y-138040000D02*
X162940580Y-138040000D01*
%TO.C,T1*%
X129239400Y-148637000D02*
X120239400Y-148637000D01*
X129249400Y-135717000D02*
X120229400Y-135717000D01*
X129249400Y-147202000D02*
X130019400Y-147202000D01*
X120229400Y-148637000D02*
X120229400Y-147202000D01*
X129249400Y-148637000D02*
X129249400Y-147202000D01*
X129249400Y-135717000D02*
X129249400Y-137152000D01*
X120229400Y-135717000D02*
X120229400Y-137152000D01*
%TO.C,C28*%
X138940000Y-153899780D02*
X138940000Y-153618620D01*
X137920000Y-153899780D02*
X137920000Y-153618620D01*
%TO.C,C24*%
X136735000Y-120236252D02*
X136735000Y-119713748D01*
X135265000Y-120236252D02*
X135265000Y-119713748D01*
%TO.C,R30*%
X142205942Y-156478500D02*
X142680458Y-156478500D01*
X142205942Y-155433500D02*
X142680458Y-155433500D01*
%TO.C,C2*%
X144040580Y-136290000D02*
X143759420Y-136290000D01*
X144040580Y-137310000D02*
X143759420Y-137310000D01*
%TO.C,R13*%
X128477500Y-115762742D02*
X128477500Y-116237258D01*
X129522500Y-115762742D02*
X129522500Y-116237258D01*
%TO.C,C19*%
X141090000Y-132859420D02*
X141090000Y-133140580D01*
X142110000Y-132859420D02*
X142110000Y-133140580D01*
%TO.C,C31*%
X156145620Y-148388800D02*
X156426780Y-148388800D01*
X156145620Y-147368800D02*
X156426780Y-147368800D01*
%TO.C,J6*%
X168589800Y-154626000D02*
X176269800Y-154626000D01*
X167319800Y-157286000D02*
X165989800Y-157286000D01*
X176269800Y-157286000D02*
X176269800Y-154626000D01*
X168589800Y-157286000D02*
X168589800Y-154626000D01*
X165989800Y-157286000D02*
X165989800Y-155956000D01*
X168589800Y-157286000D02*
X176269800Y-157286000D01*
%TO.C,TP8*%
X121775000Y-109250000D02*
G75*
G03*
X121775000Y-109250000I-700000J0D01*
G01*
%TO.C,R38*%
X139507700Y-153585142D02*
X139507700Y-154059658D01*
X140552700Y-153585142D02*
X140552700Y-154059658D01*
%TO.C,Q2*%
X152890000Y-118750000D02*
X152890000Y-118100000D01*
X156010000Y-118750000D02*
X156010000Y-118100000D01*
X152890000Y-118750000D02*
X152890000Y-120425000D01*
X156010000Y-118750000D02*
X156010000Y-119400000D01*
%TO.C,U1*%
X156810000Y-140010000D02*
X156160000Y-140010000D01*
X156810000Y-139360000D02*
X156810000Y-140010000D01*
X156810000Y-133440000D02*
X156810000Y-132790000D01*
X149590000Y-132790000D02*
X150240000Y-132790000D01*
X149590000Y-139360000D02*
X149590000Y-140010000D01*
X149590000Y-140010000D02*
X150240000Y-140010000D01*
X149590000Y-133440000D02*
X149590000Y-132790000D01*
%TO.C,R25*%
X133542300Y-139671058D02*
X133542300Y-139196542D01*
X132497300Y-139671058D02*
X132497300Y-139196542D01*
%TO.C,R20*%
X117677500Y-144952742D02*
X117677500Y-145427258D01*
X118722500Y-144952742D02*
X118722500Y-145427258D01*
%TO.C,R1*%
X144137258Y-141677500D02*
X143662742Y-141677500D01*
X144137258Y-142722500D02*
X143662742Y-142722500D01*
%TO.C,R6*%
X118632500Y-155431258D02*
X118632500Y-154956742D01*
X117587500Y-155431258D02*
X117587500Y-154956742D01*
%TO.C,C27*%
X134365000Y-145259420D02*
X134365000Y-145540580D01*
X135385000Y-145259420D02*
X135385000Y-145540580D01*
%TO.C,Y3*%
X139075000Y-134200000D02*
X139075000Y-130900000D01*
X139075000Y-130900000D02*
X135075000Y-130900000D01*
%TO.C,R12*%
X126777500Y-115762742D02*
X126777500Y-116237258D01*
X127822500Y-115762742D02*
X127822500Y-116237258D01*
%TO.C,R10*%
X142462742Y-125422500D02*
X142937258Y-125422500D01*
X142462742Y-124377500D02*
X142937258Y-124377500D01*
%TO.C,C23*%
X134610000Y-120315580D02*
X134610000Y-120034420D01*
X133590000Y-120315580D02*
X133590000Y-120034420D01*
%TO.C,C13*%
X170390000Y-140159420D02*
X170390000Y-140440580D01*
X171410000Y-140159420D02*
X171410000Y-140440580D01*
%TO.C,J4*%
X152485000Y-105730000D02*
X152485000Y-103070000D01*
X147345000Y-105730000D02*
X152485000Y-105730000D01*
X146075000Y-105730000D02*
X144745000Y-105730000D01*
X147345000Y-103070000D02*
X152485000Y-103070000D01*
X144745000Y-105730000D02*
X144745000Y-104400000D01*
X147345000Y-105730000D02*
X147345000Y-103070000D01*
%TO.C,U2*%
X182960000Y-134800000D02*
X182960000Y-136750000D01*
X177840000Y-134800000D02*
X177840000Y-136750000D01*
X182960000Y-134800000D02*
X182960000Y-131350000D01*
X177840000Y-134800000D02*
X177840000Y-132850000D01*
%TO.C,C16*%
X142359420Y-127010000D02*
X142640580Y-127010000D01*
X142359420Y-125990000D02*
X142640580Y-125990000D01*
%TO.C,U5*%
X160652500Y-130535000D02*
X159000000Y-130535000D01*
X163400000Y-135747500D02*
X166147500Y-135747500D01*
X166147500Y-130252500D02*
X166147500Y-130535000D01*
X163400000Y-130252500D02*
X160652500Y-130252500D01*
X163400000Y-130252500D02*
X166147500Y-130252500D01*
X163400000Y-135747500D02*
X160652500Y-135747500D01*
X160652500Y-135747500D02*
X160652500Y-135465000D01*
X166147500Y-135747500D02*
X166147500Y-135465000D01*
X160652500Y-130252500D02*
X160652500Y-130535000D01*
%TO.C,C17*%
X142690000Y-132859420D02*
X142690000Y-133140580D01*
X143710000Y-132859420D02*
X143710000Y-133140580D01*
%TO.C,U8*%
X157084200Y-153937600D02*
X157084200Y-154737600D01*
X153964200Y-153937600D02*
X153964200Y-153137600D01*
X157084200Y-153937600D02*
X157084200Y-153137600D01*
X153964200Y-153937600D02*
X153964200Y-155737600D01*
%TO.C,F1*%
X111701000Y-127442548D02*
X111701000Y-130215052D01*
X115121000Y-127442548D02*
X115121000Y-130215052D01*
%TO.C,C9*%
X146340580Y-144590000D02*
X146059420Y-144590000D01*
X146340580Y-145610000D02*
X146059420Y-145610000D01*
%TO.C,D3*%
X134988000Y-152929200D02*
X136688000Y-152929200D01*
X130188000Y-153079200D02*
X130188000Y-152929200D01*
X134988000Y-153079200D02*
X130188000Y-153079200D01*
X130188000Y-149079200D02*
X134988000Y-149079200D01*
X134988000Y-149079200D02*
X134988000Y-149229200D01*
X130188000Y-149229200D02*
X130188000Y-149079200D01*
X134988000Y-152929200D02*
X134988000Y-153079200D01*
%TO.C,C8*%
X135990000Y-145259420D02*
X135990000Y-145540580D01*
X137010000Y-145259420D02*
X137010000Y-145540580D01*
%TO.C,R4*%
X169422500Y-141037258D02*
X169422500Y-140562742D01*
X168377500Y-141037258D02*
X168377500Y-140562742D01*
%TO.C,TP3*%
X121800000Y-122700000D02*
G75*
G03*
X121800000Y-122700000I-700000J0D01*
G01*
%TO.C,TP1*%
X148000000Y-114925000D02*
G75*
G03*
X148000000Y-114925000I-1500000J0D01*
G01*
%TO.C,R22*%
X132012258Y-129427500D02*
X131537742Y-129427500D01*
X132012258Y-130472500D02*
X131537742Y-130472500D01*
%TO.C,J2*%
X110325000Y-108950000D02*
X110325000Y-109650000D01*
X100265000Y-114960000D02*
X101925000Y-114960000D01*
X107425000Y-114960000D02*
X104825000Y-114960000D01*
X101925000Y-107040000D02*
X100265000Y-107040000D01*
X109735000Y-108950000D02*
X110325000Y-108950000D01*
X104825000Y-107040000D02*
X107425000Y-107040000D01*
X109735000Y-107800000D02*
X109735000Y-108950000D01*
X100265000Y-107040000D02*
X100265000Y-114960000D01*
X109735000Y-113050000D02*
X109735000Y-114200000D01*
%TD*%
M02*
