%TF.GenerationSoftware,KiCad,Pcbnew,(6.0.4)*%
%TF.CreationDate,2022-04-12T15:49:34+02:00*%
%TF.ProjectId,PSE_RP2040,5053455f-5250-4323-9034-302e6b696361,0*%
%TF.SameCoordinates,Original*%
%TF.FileFunction,Legend,Bot*%
%TF.FilePolarity,Positive*%
%FSLAX46Y46*%
G04 Gerber Fmt 4.6, Leading zero omitted, Abs format (unit mm)*
G04 Created by KiCad (PCBNEW (6.0.4)) date 2022-04-12 15:49:34*
%MOMM*%
%LPD*%
G01*
G04 APERTURE LIST*
%TA.AperFunction,Profile*%
%ADD10C,0.100000*%
%TD*%
%TA.AperFunction,Profile*%
%ADD11C,0.150000*%
%TD*%
%ADD12C,0.150000*%
%ADD13C,0.120000*%
G04 APERTURE END LIST*
D10*
X185000000Y-105000000D02*
X185000000Y-155000000D01*
D11*
X182000000Y-158000000D02*
X103000000Y-158000000D01*
X100000000Y-155000000D02*
X100000000Y-105000000D01*
X100000000Y-155000000D02*
G75*
G03*
X103000000Y-158000000I3000000J0D01*
G01*
X182000000Y-158000000D02*
G75*
G03*
X185000000Y-155000000I0J3000000D01*
G01*
X103000000Y-102000000D02*
G75*
G03*
X100000000Y-105000000I0J-3000000D01*
G01*
X185000000Y-105000000D02*
G75*
G03*
X182000000Y-102000000I-3000000J0D01*
G01*
X103000000Y-102000000D02*
X182000000Y-102000000D01*
D12*
X175864407Y-111502385D02*
X175864407Y-110502385D01*
X175483455Y-110502385D01*
X175388217Y-110550005D01*
X175340598Y-110597624D01*
X175292979Y-110692862D01*
X175292979Y-110835719D01*
X175340598Y-110930957D01*
X175388217Y-110978576D01*
X175483455Y-111026195D01*
X175864407Y-111026195D01*
X174864407Y-111502385D02*
X174864407Y-110502385D01*
X174483455Y-110502385D01*
X174388217Y-110550005D01*
X174340598Y-110597624D01*
X174292979Y-110692862D01*
X174292979Y-110835719D01*
X174340598Y-110930957D01*
X174388217Y-110978576D01*
X174483455Y-111026195D01*
X174864407Y-111026195D01*
X173912026Y-111454766D02*
X173769169Y-111502385D01*
X173531074Y-111502385D01*
X173435836Y-111454766D01*
X173388217Y-111407147D01*
X173340598Y-111311909D01*
X173340598Y-111216671D01*
X173388217Y-111121433D01*
X173435836Y-111073814D01*
X173531074Y-111026195D01*
X173721550Y-110978576D01*
X173816788Y-110930957D01*
X173864407Y-110883338D01*
X173912026Y-110788100D01*
X173912026Y-110692862D01*
X173864407Y-110597624D01*
X173816788Y-110550005D01*
X173721550Y-110502385D01*
X173483455Y-110502385D01*
X173340598Y-110550005D01*
X172912026Y-110978576D02*
X172578693Y-110978576D01*
X172435836Y-111502385D02*
X172912026Y-111502385D01*
X172912026Y-110502385D01*
X172435836Y-110502385D01*
X172054883Y-110597624D02*
X172007264Y-110550005D01*
X171912026Y-110502385D01*
X171673931Y-110502385D01*
X171578693Y-110550005D01*
X171531074Y-110597624D01*
X171483455Y-110692862D01*
X171483455Y-110788100D01*
X171531074Y-110930957D01*
X172102503Y-111502385D01*
X171483455Y-111502385D01*
X170864407Y-110502385D02*
X170769169Y-110502385D01*
X170673931Y-110550005D01*
X170626312Y-110597624D01*
X170578693Y-110692862D01*
X170531074Y-110883338D01*
X170531074Y-111121433D01*
X170578693Y-111311909D01*
X170626312Y-111407147D01*
X170673931Y-111454766D01*
X170769169Y-111502385D01*
X170864407Y-111502385D01*
X170959645Y-111454766D01*
X171007264Y-111407147D01*
X171054883Y-111311909D01*
X171102503Y-111121433D01*
X171102503Y-110883338D01*
X171054883Y-110692862D01*
X171007264Y-110597624D01*
X170959645Y-110550005D01*
X170864407Y-110502385D01*
X170150122Y-110597624D02*
X170102503Y-110550005D01*
X170007264Y-110502385D01*
X169769169Y-110502385D01*
X169673931Y-110550005D01*
X169626312Y-110597624D01*
X169578693Y-110692862D01*
X169578693Y-110788100D01*
X169626312Y-110930957D01*
X170197741Y-111502385D01*
X169578693Y-111502385D01*
X168626312Y-111502385D02*
X169197741Y-111502385D01*
X168912026Y-111502385D02*
X168912026Y-110502385D01*
X169007264Y-110645243D01*
X169102503Y-110740481D01*
X169197741Y-110788100D01*
X168435836Y-111597624D02*
X167673931Y-111597624D01*
X166959645Y-111502385D02*
X167435836Y-111502385D01*
X167435836Y-110502385D01*
X166673931Y-111216671D02*
X166197741Y-111216671D01*
X166769169Y-111502385D02*
X166435836Y-110502385D01*
X166102503Y-111502385D01*
X165769169Y-111502385D02*
X165769169Y-110502385D01*
X165197741Y-111502385D01*
X165197741Y-110502385D01*
X164959645Y-111597624D02*
X164197741Y-111597624D01*
X163959645Y-111502385D02*
X163959645Y-110502385D01*
X163388217Y-111502385D01*
X163388217Y-110502385D01*
X163054883Y-110502385D02*
X162483455Y-110502385D01*
X162769169Y-111502385D02*
X162769169Y-110502385D01*
X162150122Y-111502385D02*
X162150122Y-110502385D01*
X161769169Y-110502385D01*
X161673931Y-110550005D01*
X161626312Y-110597624D01*
X161578693Y-110692862D01*
X161578693Y-110835719D01*
X161626312Y-110930957D01*
X161673931Y-110978576D01*
X161769169Y-111026195D01*
X162150122Y-111026195D01*
X175864407Y-113112385D02*
X175864407Y-112112385D01*
X175483455Y-112112385D01*
X175388217Y-112160005D01*
X175340598Y-112207624D01*
X175292979Y-112302862D01*
X175292979Y-112445719D01*
X175340598Y-112540957D01*
X175388217Y-112588576D01*
X175483455Y-112636195D01*
X175864407Y-112636195D01*
X174864407Y-113017147D02*
X174816788Y-113064766D01*
X174864407Y-113112385D01*
X174912026Y-113064766D01*
X174864407Y-113017147D01*
X174864407Y-113112385D01*
X174435836Y-112826671D02*
X173959645Y-112826671D01*
X174531074Y-113112385D02*
X174197741Y-112112385D01*
X173864407Y-113112385D01*
X173531074Y-113017147D02*
X173483455Y-113064766D01*
X173531074Y-113112385D01*
X173578693Y-113064766D01*
X173531074Y-113017147D01*
X173531074Y-113112385D01*
X172340598Y-112207624D02*
X172292979Y-112160005D01*
X172197741Y-112112385D01*
X171959645Y-112112385D01*
X171864407Y-112160005D01*
X171816788Y-112207624D01*
X171769169Y-112302862D01*
X171769169Y-112398100D01*
X171816788Y-112540957D01*
X172388217Y-113112385D01*
X171769169Y-113112385D01*
X171150122Y-112112385D02*
X171054883Y-112112385D01*
X170959645Y-112160005D01*
X170912026Y-112207624D01*
X170864407Y-112302862D01*
X170816788Y-112493338D01*
X170816788Y-112731433D01*
X170864407Y-112921909D01*
X170912026Y-113017147D01*
X170959645Y-113064766D01*
X171054883Y-113112385D01*
X171150122Y-113112385D01*
X171245360Y-113064766D01*
X171292979Y-113017147D01*
X171340598Y-112921909D01*
X171388217Y-112731433D01*
X171388217Y-112493338D01*
X171340598Y-112302862D01*
X171292979Y-112207624D01*
X171245360Y-112160005D01*
X171150122Y-112112385D01*
X170340598Y-113112385D02*
X170150122Y-113112385D01*
X170054883Y-113064766D01*
X170007264Y-113017147D01*
X169912026Y-112874290D01*
X169864407Y-112683814D01*
X169864407Y-112302862D01*
X169912026Y-112207624D01*
X169959645Y-112160005D01*
X170054883Y-112112385D01*
X170245360Y-112112385D01*
X170340598Y-112160005D01*
X170388217Y-112207624D01*
X170435836Y-112302862D01*
X170435836Y-112540957D01*
X170388217Y-112636195D01*
X170340598Y-112683814D01*
X170245360Y-112731433D01*
X170054883Y-112731433D01*
X169959645Y-112683814D01*
X169912026Y-112636195D01*
X169864407Y-112540957D01*
X169388217Y-113112385D02*
X169197741Y-113112385D01*
X169102503Y-113064766D01*
X169054883Y-113017147D01*
X168959645Y-112874290D01*
X168912026Y-112683814D01*
X168912026Y-112302862D01*
X168959645Y-112207624D01*
X169007264Y-112160005D01*
X169102503Y-112112385D01*
X169292979Y-112112385D01*
X169388217Y-112160005D01*
X169435836Y-112207624D01*
X169483455Y-112302862D01*
X169483455Y-112540957D01*
X169435836Y-112636195D01*
X169388217Y-112683814D01*
X169292979Y-112731433D01*
X169102503Y-112731433D01*
X169007264Y-112683814D01*
X168959645Y-112636195D01*
X168912026Y-112540957D01*
X168531074Y-112207624D02*
X168483455Y-112160005D01*
X168388217Y-112112385D01*
X168150122Y-112112385D01*
X168054883Y-112160005D01*
X168007264Y-112207624D01*
X167959645Y-112302862D01*
X167959645Y-112398100D01*
X168007264Y-112540957D01*
X168578693Y-113112385D01*
X167959645Y-113112385D01*
X167102503Y-112112385D02*
X167292979Y-112112385D01*
X167388217Y-112160005D01*
X167435836Y-112207624D01*
X167531074Y-112350481D01*
X167578693Y-112540957D01*
X167578693Y-112921909D01*
X167531074Y-113017147D01*
X167483455Y-113064766D01*
X167388217Y-113112385D01*
X167197741Y-113112385D01*
X167102503Y-113064766D01*
X167054883Y-113017147D01*
X167007264Y-112921909D01*
X167007264Y-112683814D01*
X167054883Y-112588576D01*
X167102503Y-112540957D01*
X167197741Y-112493338D01*
X167388217Y-112493338D01*
X167483455Y-112540957D01*
X167531074Y-112588576D01*
X167578693Y-112683814D01*
X175864407Y-114722385D02*
X175864407Y-113722385D01*
X175483455Y-113722385D01*
X175388217Y-113770005D01*
X175340598Y-113817624D01*
X175292979Y-113912862D01*
X175292979Y-114055719D01*
X175340598Y-114150957D01*
X175388217Y-114198576D01*
X175483455Y-114246195D01*
X175864407Y-114246195D01*
X174864407Y-114627147D02*
X174816788Y-114674766D01*
X174864407Y-114722385D01*
X174912026Y-114674766D01*
X174864407Y-114627147D01*
X174864407Y-114722385D01*
X173864407Y-113770005D02*
X173959645Y-113722385D01*
X174102503Y-113722385D01*
X174245360Y-113770005D01*
X174340598Y-113865243D01*
X174388217Y-113960481D01*
X174435836Y-114150957D01*
X174435836Y-114293814D01*
X174388217Y-114484290D01*
X174340598Y-114579528D01*
X174245360Y-114674766D01*
X174102503Y-114722385D01*
X174007264Y-114722385D01*
X173864407Y-114674766D01*
X173816788Y-114627147D01*
X173816788Y-114293814D01*
X174007264Y-114293814D01*
X173388217Y-114627147D02*
X173340598Y-114674766D01*
X173388217Y-114722385D01*
X173435836Y-114674766D01*
X173388217Y-114627147D01*
X173388217Y-114722385D01*
X172197741Y-113817624D02*
X172150122Y-113770005D01*
X172054883Y-113722385D01*
X171816788Y-113722385D01*
X171721550Y-113770005D01*
X171673931Y-113817624D01*
X171626312Y-113912862D01*
X171626312Y-114008100D01*
X171673931Y-114150957D01*
X172245360Y-114722385D01*
X171626312Y-114722385D01*
X171007264Y-113722385D02*
X170912026Y-113722385D01*
X170816788Y-113770005D01*
X170769169Y-113817624D01*
X170721550Y-113912862D01*
X170673931Y-114103338D01*
X170673931Y-114341433D01*
X170721550Y-114531909D01*
X170769169Y-114627147D01*
X170816788Y-114674766D01*
X170912026Y-114722385D01*
X171007264Y-114722385D01*
X171102503Y-114674766D01*
X171150122Y-114627147D01*
X171197741Y-114531909D01*
X171245360Y-114341433D01*
X171245360Y-114103338D01*
X171197741Y-113912862D01*
X171150122Y-113817624D01*
X171102503Y-113770005D01*
X171007264Y-113722385D01*
X170197741Y-114722385D02*
X170007264Y-114722385D01*
X169912026Y-114674766D01*
X169864407Y-114627147D01*
X169769169Y-114484290D01*
X169721550Y-114293814D01*
X169721550Y-113912862D01*
X169769169Y-113817624D01*
X169816788Y-113770005D01*
X169912026Y-113722385D01*
X170102503Y-113722385D01*
X170197741Y-113770005D01*
X170245360Y-113817624D01*
X170292979Y-113912862D01*
X170292979Y-114150957D01*
X170245360Y-114246195D01*
X170197741Y-114293814D01*
X170102503Y-114341433D01*
X169912026Y-114341433D01*
X169816788Y-114293814D01*
X169769169Y-114246195D01*
X169721550Y-114150957D01*
X169102503Y-113722385D02*
X169007264Y-113722385D01*
X168912026Y-113770005D01*
X168864407Y-113817624D01*
X168816788Y-113912862D01*
X168769169Y-114103338D01*
X168769169Y-114341433D01*
X168816788Y-114531909D01*
X168864407Y-114627147D01*
X168912026Y-114674766D01*
X169007264Y-114722385D01*
X169102503Y-114722385D01*
X169197741Y-114674766D01*
X169245360Y-114627147D01*
X169292979Y-114531909D01*
X169340598Y-114341433D01*
X169340598Y-114103338D01*
X169292979Y-113912862D01*
X169245360Y-113817624D01*
X169197741Y-113770005D01*
X169102503Y-113722385D01*
X167912026Y-114055719D02*
X167912026Y-114722385D01*
X168150122Y-113674766D02*
X168388217Y-114389052D01*
X167769169Y-114389052D01*
X167245360Y-114150957D02*
X167340598Y-114103338D01*
X167388217Y-114055719D01*
X167435836Y-113960481D01*
X167435836Y-113912862D01*
X167388217Y-113817624D01*
X167340598Y-113770005D01*
X167245360Y-113722385D01*
X167054883Y-113722385D01*
X166959645Y-113770005D01*
X166912026Y-113817624D01*
X166864407Y-113912862D01*
X166864407Y-113960481D01*
X166912026Y-114055719D01*
X166959645Y-114103338D01*
X167054883Y-114150957D01*
X167245360Y-114150957D01*
X167340598Y-114198576D01*
X167388217Y-114246195D01*
X167435836Y-114341433D01*
X167435836Y-114531909D01*
X167388217Y-114627147D01*
X167340598Y-114674766D01*
X167245360Y-114722385D01*
X167054883Y-114722385D01*
X166959645Y-114674766D01*
X166912026Y-114627147D01*
X166864407Y-114531909D01*
X166864407Y-114341433D01*
X166912026Y-114246195D01*
X166959645Y-114198576D01*
X167054883Y-114150957D01*
X176007264Y-115332385D02*
X175435836Y-115332385D01*
X175721550Y-116332385D02*
X175721550Y-115332385D01*
X175102503Y-116237147D02*
X175054883Y-116284766D01*
X175102503Y-116332385D01*
X175150122Y-116284766D01*
X175102503Y-116237147D01*
X175102503Y-116332385D01*
X174626312Y-115808576D02*
X174292979Y-115808576D01*
X174150122Y-116332385D02*
X174626312Y-116332385D01*
X174626312Y-115332385D01*
X174150122Y-115332385D01*
X173721550Y-116237147D02*
X173673931Y-116284766D01*
X173721550Y-116332385D01*
X173769169Y-116284766D01*
X173721550Y-116237147D01*
X173721550Y-116332385D01*
X172531074Y-115427624D02*
X172483455Y-115380005D01*
X172388217Y-115332385D01*
X172150122Y-115332385D01*
X172054883Y-115380005D01*
X172007264Y-115427624D01*
X171959645Y-115522862D01*
X171959645Y-115618100D01*
X172007264Y-115760957D01*
X172578693Y-116332385D01*
X171959645Y-116332385D01*
X171340598Y-115332385D02*
X171245360Y-115332385D01*
X171150122Y-115380005D01*
X171102503Y-115427624D01*
X171054883Y-115522862D01*
X171007264Y-115713338D01*
X171007264Y-115951433D01*
X171054883Y-116141909D01*
X171102503Y-116237147D01*
X171150122Y-116284766D01*
X171245360Y-116332385D01*
X171340598Y-116332385D01*
X171435836Y-116284766D01*
X171483455Y-116237147D01*
X171531074Y-116141909D01*
X171578693Y-115951433D01*
X171578693Y-115713338D01*
X171531074Y-115522862D01*
X171483455Y-115427624D01*
X171435836Y-115380005D01*
X171340598Y-115332385D01*
X170531074Y-116332385D02*
X170340598Y-116332385D01*
X170245360Y-116284766D01*
X170197741Y-116237147D01*
X170102503Y-116094290D01*
X170054883Y-115903814D01*
X170054883Y-115522862D01*
X170102503Y-115427624D01*
X170150122Y-115380005D01*
X170245360Y-115332385D01*
X170435836Y-115332385D01*
X170531074Y-115380005D01*
X170578693Y-115427624D01*
X170626312Y-115522862D01*
X170626312Y-115760957D01*
X170578693Y-115856195D01*
X170531074Y-115903814D01*
X170435836Y-115951433D01*
X170245360Y-115951433D01*
X170150122Y-115903814D01*
X170102503Y-115856195D01*
X170054883Y-115760957D01*
X169673931Y-115427624D02*
X169626312Y-115380005D01*
X169531074Y-115332385D01*
X169292979Y-115332385D01*
X169197741Y-115380005D01*
X169150122Y-115427624D01*
X169102503Y-115522862D01*
X169102503Y-115618100D01*
X169150122Y-115760957D01*
X169721550Y-116332385D01*
X169102503Y-116332385D01*
X168150122Y-116332385D02*
X168721550Y-116332385D01*
X168435836Y-116332385D02*
X168435836Y-115332385D01*
X168531074Y-115475243D01*
X168626312Y-115570481D01*
X168721550Y-115618100D01*
X167769169Y-115427624D02*
X167721550Y-115380005D01*
X167626312Y-115332385D01*
X167388217Y-115332385D01*
X167292979Y-115380005D01*
X167245360Y-115427624D01*
X167197741Y-115522862D01*
X167197741Y-115618100D01*
X167245360Y-115760957D01*
X167816788Y-116332385D01*
X167197741Y-116332385D01*
X175912026Y-117656671D02*
X175435836Y-117656671D01*
X176007264Y-117942385D02*
X175673931Y-116942385D01*
X175340598Y-117942385D01*
X175007264Y-117847147D02*
X174959645Y-117894766D01*
X175007264Y-117942385D01*
X175054883Y-117894766D01*
X175007264Y-117847147D01*
X175007264Y-117942385D01*
X174531074Y-117942385D02*
X174531074Y-116942385D01*
X174197741Y-117656671D01*
X173864407Y-116942385D01*
X173864407Y-117942385D01*
X173388217Y-117847147D02*
X173340598Y-117894766D01*
X173388217Y-117942385D01*
X173435836Y-117894766D01*
X173388217Y-117847147D01*
X173388217Y-117942385D01*
X172197741Y-117037624D02*
X172150122Y-116990005D01*
X172054883Y-116942385D01*
X171816788Y-116942385D01*
X171721550Y-116990005D01*
X171673931Y-117037624D01*
X171626312Y-117132862D01*
X171626312Y-117228100D01*
X171673931Y-117370957D01*
X172245360Y-117942385D01*
X171626312Y-117942385D01*
X171007264Y-116942385D02*
X170912026Y-116942385D01*
X170816788Y-116990005D01*
X170769169Y-117037624D01*
X170721550Y-117132862D01*
X170673931Y-117323338D01*
X170673931Y-117561433D01*
X170721550Y-117751909D01*
X170769169Y-117847147D01*
X170816788Y-117894766D01*
X170912026Y-117942385D01*
X171007264Y-117942385D01*
X171102503Y-117894766D01*
X171150122Y-117847147D01*
X171197741Y-117751909D01*
X171245360Y-117561433D01*
X171245360Y-117323338D01*
X171197741Y-117132862D01*
X171150122Y-117037624D01*
X171102503Y-116990005D01*
X171007264Y-116942385D01*
X170197741Y-117942385D02*
X170007264Y-117942385D01*
X169912026Y-117894766D01*
X169864407Y-117847147D01*
X169769169Y-117704290D01*
X169721550Y-117513814D01*
X169721550Y-117132862D01*
X169769169Y-117037624D01*
X169816788Y-116990005D01*
X169912026Y-116942385D01*
X170102503Y-116942385D01*
X170197741Y-116990005D01*
X170245360Y-117037624D01*
X170292979Y-117132862D01*
X170292979Y-117370957D01*
X170245360Y-117466195D01*
X170197741Y-117513814D01*
X170102503Y-117561433D01*
X169912026Y-117561433D01*
X169816788Y-117513814D01*
X169769169Y-117466195D01*
X169721550Y-117370957D01*
X168864407Y-116942385D02*
X169054883Y-116942385D01*
X169150122Y-116990005D01*
X169197741Y-117037624D01*
X169292979Y-117180481D01*
X169340598Y-117370957D01*
X169340598Y-117751909D01*
X169292979Y-117847147D01*
X169245360Y-117894766D01*
X169150122Y-117942385D01*
X168959645Y-117942385D01*
X168864407Y-117894766D01*
X168816788Y-117847147D01*
X168769169Y-117751909D01*
X168769169Y-117513814D01*
X168816788Y-117418576D01*
X168864407Y-117370957D01*
X168959645Y-117323338D01*
X169150122Y-117323338D01*
X169245360Y-117370957D01*
X169292979Y-117418576D01*
X169340598Y-117513814D01*
X167816788Y-117942385D02*
X168388217Y-117942385D01*
X168102503Y-117942385D02*
X168102503Y-116942385D01*
X168197741Y-117085243D01*
X168292979Y-117180481D01*
X168388217Y-117228100D01*
X166912026Y-116942385D02*
X167388217Y-116942385D01*
X167435836Y-117418576D01*
X167388217Y-117370957D01*
X167292979Y-117323338D01*
X167054883Y-117323338D01*
X166959645Y-117370957D01*
X166912026Y-117418576D01*
X166864407Y-117513814D01*
X166864407Y-117751909D01*
X166912026Y-117847147D01*
X166959645Y-117894766D01*
X167054883Y-117942385D01*
X167292979Y-117942385D01*
X167388217Y-117894766D01*
X167435836Y-117847147D01*
X176007264Y-118552385D02*
X175435836Y-118552385D01*
X175721550Y-119552385D02*
X175721550Y-118552385D01*
X175102503Y-119457147D02*
X175054883Y-119504766D01*
X175102503Y-119552385D01*
X175150122Y-119504766D01*
X175102503Y-119457147D01*
X175102503Y-119552385D01*
X174102503Y-118600005D02*
X174197741Y-118552385D01*
X174340598Y-118552385D01*
X174483455Y-118600005D01*
X174578693Y-118695243D01*
X174626312Y-118790481D01*
X174673931Y-118980957D01*
X174673931Y-119123814D01*
X174626312Y-119314290D01*
X174578693Y-119409528D01*
X174483455Y-119504766D01*
X174340598Y-119552385D01*
X174245360Y-119552385D01*
X174102503Y-119504766D01*
X174054883Y-119457147D01*
X174054883Y-119123814D01*
X174245360Y-119123814D01*
X173626312Y-119457147D02*
X173578693Y-119504766D01*
X173626312Y-119552385D01*
X173673931Y-119504766D01*
X173626312Y-119457147D01*
X173626312Y-119552385D01*
X172435836Y-118647624D02*
X172388217Y-118600005D01*
X172292979Y-118552385D01*
X172054883Y-118552385D01*
X171959645Y-118600005D01*
X171912026Y-118647624D01*
X171864407Y-118742862D01*
X171864407Y-118838100D01*
X171912026Y-118980957D01*
X172483455Y-119552385D01*
X171864407Y-119552385D01*
X171245360Y-118552385D02*
X171150122Y-118552385D01*
X171054883Y-118600005D01*
X171007264Y-118647624D01*
X170959645Y-118742862D01*
X170912026Y-118933338D01*
X170912026Y-119171433D01*
X170959645Y-119361909D01*
X171007264Y-119457147D01*
X171054883Y-119504766D01*
X171150122Y-119552385D01*
X171245360Y-119552385D01*
X171340598Y-119504766D01*
X171388217Y-119457147D01*
X171435836Y-119361909D01*
X171483455Y-119171433D01*
X171483455Y-118933338D01*
X171435836Y-118742862D01*
X171388217Y-118647624D01*
X171340598Y-118600005D01*
X171245360Y-118552385D01*
X170435836Y-119552385D02*
X170245360Y-119552385D01*
X170150122Y-119504766D01*
X170102503Y-119457147D01*
X170007264Y-119314290D01*
X169959645Y-119123814D01*
X169959645Y-118742862D01*
X170007264Y-118647624D01*
X170054883Y-118600005D01*
X170150122Y-118552385D01*
X170340598Y-118552385D01*
X170435836Y-118600005D01*
X170483455Y-118647624D01*
X170531074Y-118742862D01*
X170531074Y-118980957D01*
X170483455Y-119076195D01*
X170435836Y-119123814D01*
X170340598Y-119171433D01*
X170150122Y-119171433D01*
X170054883Y-119123814D01*
X170007264Y-119076195D01*
X169959645Y-118980957D01*
X169626312Y-118552385D02*
X169007264Y-118552385D01*
X169340598Y-118933338D01*
X169197741Y-118933338D01*
X169102503Y-118980957D01*
X169054883Y-119028576D01*
X169007264Y-119123814D01*
X169007264Y-119361909D01*
X169054883Y-119457147D01*
X169102503Y-119504766D01*
X169197741Y-119552385D01*
X169483455Y-119552385D01*
X169578693Y-119504766D01*
X169626312Y-119457147D01*
X168102503Y-118552385D02*
X168578693Y-118552385D01*
X168626312Y-119028576D01*
X168578693Y-118980957D01*
X168483455Y-118933338D01*
X168245360Y-118933338D01*
X168150122Y-118980957D01*
X168102503Y-119028576D01*
X168054883Y-119123814D01*
X168054883Y-119361909D01*
X168102503Y-119457147D01*
X168150122Y-119504766D01*
X168245360Y-119552385D01*
X168483455Y-119552385D01*
X168578693Y-119504766D01*
X168626312Y-119457147D01*
X167578693Y-119552385D02*
X167388217Y-119552385D01*
X167292979Y-119504766D01*
X167245360Y-119457147D01*
X167150122Y-119314290D01*
X167102503Y-119123814D01*
X167102503Y-118742862D01*
X167150122Y-118647624D01*
X167197741Y-118600005D01*
X167292979Y-118552385D01*
X167483455Y-118552385D01*
X167578693Y-118600005D01*
X167626312Y-118647624D01*
X167673931Y-118742862D01*
X167673931Y-118980957D01*
X167626312Y-119076195D01*
X167578693Y-119123814D01*
X167483455Y-119171433D01*
X167292979Y-119171433D01*
X167197741Y-119123814D01*
X167150122Y-119076195D01*
X167102503Y-118980957D01*
%TO.C,E1*%
X105949428Y-147248476D02*
X105949428Y-146915142D01*
X105425619Y-146772285D02*
X105425619Y-147248476D01*
X106425619Y-147248476D01*
X106425619Y-146772285D01*
X105425619Y-145819904D02*
X105425619Y-146391333D01*
X105425619Y-146105619D02*
X106425619Y-146105619D01*
X106282761Y-146200857D01*
X106187523Y-146296095D01*
X106139904Y-146391333D01*
D13*
X101878000Y-143558000D02*
X104878000Y-143558000D01*
X104878000Y-149558000D02*
X101878000Y-149558000D01*
X104878000Y-143558000D02*
X104878000Y-149558000D01*
X101878000Y-149558000D02*
X101878000Y-143558000D01*
%TD*%
M02*
